G75*
%MOIN*%
%OFA0B0*%
%FSLAX25Y25*%
%IPPOS*%
%LPD*%
%AMOC8*
5,1,8,0,0,1.08239X$1,22.5*
%
%ADD10C,0.00400*%
%ADD11C,0.00300*%
%ADD12C,0.00000*%
%ADD13C,0.00500*%
D10*
X0006050Y0016867D02*
X0009119Y0016867D01*
X0009886Y0017634D01*
X0009886Y0019169D01*
X0009119Y0019936D01*
X0009886Y0021471D02*
X0009886Y0024540D01*
X0009886Y0023006D02*
X0005282Y0023006D01*
X0006817Y0021471D01*
X0006050Y0019936D02*
X0005282Y0019169D01*
X0005282Y0017634D01*
X0006050Y0016867D01*
X0015224Y0007752D02*
X0018294Y0007752D01*
X0019828Y0007752D02*
X0019828Y0010054D01*
X0022898Y0010054D01*
X0024432Y0010054D02*
X0024432Y0006985D01*
X0025967Y0005450D01*
X0027501Y0006985D01*
X0027501Y0010054D01*
X0022898Y0007752D02*
X0022898Y0006217D01*
X0022130Y0005450D01*
X0020596Y0005450D01*
X0019828Y0006217D01*
X0019828Y0007752D02*
X0021363Y0008519D01*
X0022130Y0008519D01*
X0022898Y0007752D01*
X0016759Y0009287D02*
X0016759Y0006217D01*
X0029117Y0022950D02*
X0030651Y0022950D01*
X0031419Y0023717D01*
X0031419Y0025252D01*
X0029884Y0025252D01*
X0031419Y0026787D02*
X0030651Y0027554D01*
X0029117Y0027554D01*
X0028349Y0026787D01*
X0028349Y0023717D01*
X0029117Y0022950D01*
X0032953Y0022950D02*
X0032953Y0027554D01*
X0036023Y0022950D01*
X0036023Y0027554D01*
X0037557Y0027554D02*
X0037557Y0022950D01*
X0039859Y0022950D01*
X0040626Y0023717D01*
X0040626Y0026787D01*
X0039859Y0027554D01*
X0037557Y0027554D01*
X0013636Y0036360D02*
X0009032Y0036360D01*
X0009032Y0037894D02*
X0009032Y0034825D01*
X0010567Y0039429D02*
X0009032Y0040964D01*
X0013636Y0040964D01*
X0013636Y0042498D02*
X0013636Y0039429D01*
X0013411Y0121828D02*
X0016480Y0121828D01*
X0018014Y0121828D02*
X0018014Y0126432D01*
X0019549Y0124897D01*
X0021084Y0126432D01*
X0021084Y0121828D01*
X0022618Y0122595D02*
X0023386Y0121828D01*
X0024920Y0121828D01*
X0025688Y0122595D01*
X0025688Y0123363D01*
X0024920Y0124130D01*
X0024153Y0124130D01*
X0024920Y0124130D02*
X0025688Y0124897D01*
X0025688Y0125665D01*
X0024920Y0126432D01*
X0023386Y0126432D01*
X0022618Y0125665D01*
X0027222Y0125665D02*
X0027222Y0124897D01*
X0027990Y0124130D01*
X0030292Y0124130D01*
X0031826Y0124130D02*
X0034896Y0124130D01*
X0036430Y0122595D02*
X0036430Y0125665D01*
X0037197Y0126432D01*
X0038732Y0126432D01*
X0039499Y0125665D01*
X0036430Y0122595D01*
X0037197Y0121828D01*
X0038732Y0121828D01*
X0039499Y0122595D01*
X0039499Y0125665D01*
X0034128Y0126432D02*
X0034128Y0121828D01*
X0031826Y0124130D02*
X0034128Y0126432D01*
X0030292Y0125665D02*
X0030292Y0122595D01*
X0029524Y0121828D01*
X0027990Y0121828D01*
X0027222Y0122595D01*
X0027222Y0125665D02*
X0027990Y0126432D01*
X0029524Y0126432D01*
X0030292Y0125665D01*
X0021761Y0137325D02*
X0018292Y0137325D01*
X0018292Y0139927D01*
X0019159Y0140795D01*
X0021761Y0140795D01*
X0020894Y0142481D02*
X0019159Y0142481D01*
X0018292Y0143349D01*
X0018292Y0145084D01*
X0019159Y0145951D01*
X0020026Y0145951D01*
X0020026Y0142481D01*
X0020894Y0142481D02*
X0021761Y0143349D01*
X0021761Y0145084D01*
X0020894Y0148505D02*
X0017424Y0148505D01*
X0018292Y0147638D02*
X0018292Y0149373D01*
X0018292Y0151075D02*
X0020894Y0151075D01*
X0021761Y0151943D01*
X0020894Y0152810D01*
X0021761Y0153678D01*
X0020894Y0154545D01*
X0018292Y0154545D01*
X0019159Y0156232D02*
X0018292Y0157099D01*
X0018292Y0158834D01*
X0019159Y0159701D01*
X0020894Y0159701D01*
X0021761Y0158834D01*
X0021761Y0157099D01*
X0020894Y0156232D01*
X0019159Y0156232D01*
X0020026Y0161388D02*
X0018292Y0163123D01*
X0018292Y0163990D01*
X0020026Y0165685D02*
X0018292Y0168287D01*
X0020026Y0165685D02*
X0021761Y0168287D01*
X0021761Y0165685D02*
X0016557Y0165685D01*
X0013361Y0165685D02*
X0013361Y0168287D01*
X0012494Y0169155D01*
X0011626Y0168287D01*
X0011626Y0166553D01*
X0010759Y0165685D01*
X0009892Y0166553D01*
X0009892Y0169155D01*
X0009892Y0171709D02*
X0009892Y0173444D01*
X0010759Y0174311D01*
X0013361Y0174311D01*
X0013361Y0171709D01*
X0012494Y0170842D01*
X0011626Y0171709D01*
X0011626Y0174311D01*
X0013361Y0175998D02*
X0013361Y0177733D01*
X0013361Y0176865D02*
X0008157Y0176865D01*
X0008157Y0175998D01*
X0010759Y0184592D02*
X0009892Y0185459D01*
X0009892Y0188062D01*
X0008157Y0188062D02*
X0013361Y0188062D01*
X0013361Y0185459D01*
X0012494Y0184592D01*
X0010759Y0184592D01*
X0012494Y0189748D02*
X0011626Y0190616D01*
X0011626Y0193218D01*
X0010759Y0193218D02*
X0013361Y0193218D01*
X0013361Y0190616D01*
X0012494Y0189748D01*
X0009892Y0190616D02*
X0009892Y0192351D01*
X0010759Y0193218D01*
X0009892Y0194905D02*
X0009892Y0196640D01*
X0009024Y0195772D02*
X0012494Y0195772D01*
X0013361Y0196640D01*
X0012494Y0198342D02*
X0011626Y0199210D01*
X0011626Y0201812D01*
X0010759Y0201812D02*
X0013361Y0201812D01*
X0013361Y0199210D01*
X0012494Y0198342D01*
X0009892Y0199210D02*
X0009892Y0200945D01*
X0010759Y0201812D01*
X0012494Y0208655D02*
X0011626Y0209523D01*
X0011626Y0212125D01*
X0010759Y0212125D02*
X0013361Y0212125D01*
X0013361Y0209523D01*
X0012494Y0208655D01*
X0009892Y0209523D02*
X0009892Y0211257D01*
X0010759Y0212125D01*
X0010759Y0213812D02*
X0012494Y0213812D01*
X0013361Y0214679D01*
X0013361Y0217281D01*
X0015096Y0217281D02*
X0009892Y0217281D01*
X0009892Y0214679D01*
X0010759Y0213812D01*
X0009892Y0218968D02*
X0012494Y0218968D01*
X0013361Y0219835D01*
X0013361Y0222438D01*
X0009892Y0222438D01*
X0009892Y0224124D02*
X0009892Y0224992D01*
X0013361Y0224992D01*
X0013361Y0225859D02*
X0013361Y0224124D01*
X0013361Y0227562D02*
X0013361Y0230164D01*
X0012494Y0231032D01*
X0011626Y0230164D01*
X0011626Y0228429D01*
X0010759Y0227562D01*
X0009892Y0228429D01*
X0009892Y0231032D01*
X0009892Y0232718D02*
X0009892Y0233586D01*
X0013361Y0233586D01*
X0013361Y0234453D02*
X0013361Y0232718D01*
X0012494Y0237023D02*
X0013361Y0237891D01*
X0012494Y0237023D02*
X0009024Y0237023D01*
X0009892Y0236156D02*
X0009892Y0237891D01*
X0009892Y0239594D02*
X0009892Y0240461D01*
X0013361Y0240461D01*
X0013361Y0239594D02*
X0013361Y0241328D01*
X0012494Y0243031D02*
X0013361Y0243899D01*
X0013361Y0245633D01*
X0012494Y0246501D01*
X0010759Y0246501D01*
X0009892Y0245633D01*
X0009892Y0243899D01*
X0010759Y0243031D01*
X0012494Y0243031D01*
X0008157Y0240461D02*
X0007289Y0240461D01*
X0007289Y0233586D02*
X0008157Y0233586D01*
X0008157Y0224992D02*
X0007289Y0224992D01*
X0016557Y0225851D02*
X0016557Y0227586D01*
X0017424Y0228453D01*
X0020894Y0224984D01*
X0021761Y0225851D01*
X0021761Y0227586D01*
X0020894Y0228453D01*
X0017424Y0228453D01*
X0016557Y0225851D02*
X0017424Y0224984D01*
X0020894Y0224984D01*
X0020894Y0223273D02*
X0021761Y0223273D01*
X0021761Y0222406D01*
X0020894Y0222406D01*
X0020894Y0223273D01*
X0021761Y0220719D02*
X0021761Y0217249D01*
X0021761Y0215538D02*
X0021761Y0214671D01*
X0020894Y0214671D01*
X0020894Y0215538D01*
X0021761Y0215538D01*
X0021761Y0218984D02*
X0016557Y0218984D01*
X0018292Y0217249D01*
X0018292Y0212984D02*
X0021761Y0211249D01*
X0018292Y0209515D01*
X0019159Y0202671D02*
X0020026Y0202671D01*
X0020026Y0199202D01*
X0019159Y0199202D02*
X0018292Y0200069D01*
X0018292Y0201804D01*
X0019159Y0202671D01*
X0021761Y0201804D02*
X0021761Y0200069D01*
X0020894Y0199202D01*
X0019159Y0199202D01*
X0021761Y0197499D02*
X0021761Y0195764D01*
X0021761Y0196632D02*
X0016557Y0196632D01*
X0016557Y0195764D01*
X0018292Y0194077D02*
X0021761Y0194077D01*
X0021761Y0191475D01*
X0020894Y0190608D01*
X0018292Y0190608D01*
X0018292Y0188921D02*
X0018292Y0186319D01*
X0019159Y0185451D01*
X0020894Y0185451D01*
X0021761Y0186319D01*
X0021761Y0188921D01*
X0016557Y0188921D01*
X0019159Y0183765D02*
X0018292Y0182897D01*
X0018292Y0181162D01*
X0019159Y0180295D01*
X0020894Y0180295D01*
X0021761Y0181162D01*
X0021761Y0182897D01*
X0020894Y0183765D01*
X0019159Y0183765D01*
X0019159Y0178608D02*
X0018292Y0177741D01*
X0019159Y0176873D01*
X0021761Y0176873D01*
X0021761Y0175139D02*
X0018292Y0175139D01*
X0018292Y0176006D01*
X0019159Y0176873D01*
X0019159Y0178608D02*
X0021761Y0178608D01*
X0021761Y0161388D02*
X0018292Y0161388D01*
X0013361Y0161388D02*
X0009892Y0161388D01*
X0011626Y0161388D02*
X0009892Y0163123D01*
X0009892Y0163990D01*
X0010759Y0159701D02*
X0011626Y0159701D01*
X0011626Y0156232D01*
X0010759Y0156232D02*
X0012494Y0156232D01*
X0013361Y0157099D01*
X0013361Y0158834D01*
X0010759Y0159701D02*
X0009892Y0158834D01*
X0009892Y0157099D01*
X0010759Y0156232D01*
X0009892Y0154545D02*
X0013361Y0152810D01*
X0009892Y0151075D01*
X0009892Y0148505D02*
X0013361Y0148505D01*
X0013361Y0147638D02*
X0013361Y0149373D01*
X0013361Y0145951D02*
X0010759Y0145951D01*
X0009892Y0145084D01*
X0009892Y0142481D01*
X0013361Y0142481D01*
X0013361Y0140795D02*
X0009892Y0140795D01*
X0009892Y0137325D02*
X0012494Y0137325D01*
X0013361Y0138192D01*
X0013361Y0140795D01*
X0009892Y0147638D02*
X0009892Y0148505D01*
X0008157Y0148505D02*
X0007289Y0148505D01*
X0013411Y0126432D02*
X0013411Y0121828D01*
X0020894Y0148505D02*
X0021761Y0149373D01*
X0034661Y0167950D02*
X0036196Y0167950D01*
X0035428Y0167950D02*
X0035428Y0172554D01*
X0034661Y0172554D02*
X0036196Y0172554D01*
X0037730Y0172554D02*
X0040032Y0172554D01*
X0040800Y0171787D01*
X0040800Y0170252D01*
X0040032Y0169485D01*
X0037730Y0169485D01*
X0037730Y0167950D02*
X0037730Y0172554D01*
X0039265Y0169485D02*
X0040800Y0167950D01*
X0042334Y0167950D02*
X0042334Y0172554D01*
X0045404Y0172554D01*
X0046938Y0172554D02*
X0050008Y0172554D01*
X0050008Y0171787D01*
X0046938Y0168717D01*
X0046938Y0167950D01*
X0043869Y0170252D02*
X0042334Y0170252D01*
X0051542Y0171787D02*
X0052309Y0172554D01*
X0053844Y0172554D01*
X0054611Y0171787D01*
X0054611Y0171019D01*
X0053844Y0170252D01*
X0054611Y0169485D01*
X0054611Y0168717D01*
X0053844Y0167950D01*
X0052309Y0167950D01*
X0051542Y0168717D01*
X0053077Y0170252D02*
X0053844Y0170252D01*
X0056146Y0171787D02*
X0056913Y0172554D01*
X0058448Y0172554D01*
X0059215Y0171787D01*
X0056146Y0168717D01*
X0056913Y0167950D01*
X0058448Y0167950D01*
X0059215Y0168717D01*
X0059215Y0171787D01*
X0060750Y0171019D02*
X0062285Y0172554D01*
X0062285Y0167950D01*
X0063819Y0167950D02*
X0060750Y0167950D01*
X0056146Y0168717D02*
X0056146Y0171787D01*
X0065354Y0167183D02*
X0068423Y0167183D01*
X0069958Y0168717D02*
X0070725Y0167950D01*
X0072260Y0167950D01*
X0073027Y0168717D01*
X0073027Y0169485D01*
X0072260Y0170252D01*
X0070725Y0170252D01*
X0069958Y0171019D01*
X0069958Y0171787D01*
X0070725Y0172554D01*
X0072260Y0172554D01*
X0073027Y0171787D01*
X0084036Y0172554D02*
X0085571Y0172554D01*
X0084803Y0172554D02*
X0084803Y0167950D01*
X0084036Y0167950D02*
X0085571Y0167950D01*
X0087105Y0167950D02*
X0087105Y0172554D01*
X0089407Y0172554D01*
X0090175Y0171787D01*
X0090175Y0170252D01*
X0089407Y0169485D01*
X0087105Y0169485D01*
X0088640Y0169485D02*
X0090175Y0167950D01*
X0091709Y0167950D02*
X0091709Y0172554D01*
X0094779Y0172554D01*
X0096313Y0172554D02*
X0099383Y0172554D01*
X0099383Y0171787D01*
X0096313Y0168717D01*
X0096313Y0167950D01*
X0093244Y0170252D02*
X0091709Y0170252D01*
X0100917Y0171787D02*
X0101684Y0172554D01*
X0103219Y0172554D01*
X0103986Y0171787D01*
X0103986Y0171019D01*
X0103219Y0170252D01*
X0103986Y0169485D01*
X0103986Y0168717D01*
X0103219Y0167950D01*
X0101684Y0167950D01*
X0100917Y0168717D01*
X0102452Y0170252D02*
X0103219Y0170252D01*
X0105521Y0168717D02*
X0105521Y0171787D01*
X0106288Y0172554D01*
X0107823Y0172554D01*
X0108590Y0171787D01*
X0105521Y0168717D01*
X0106288Y0167950D01*
X0107823Y0167950D01*
X0108590Y0168717D01*
X0108590Y0171787D01*
X0110125Y0171019D02*
X0111660Y0172554D01*
X0111660Y0167950D01*
X0113194Y0167950D02*
X0110125Y0167950D01*
X0114729Y0167183D02*
X0117798Y0167183D01*
X0119333Y0167950D02*
X0120868Y0169485D01*
X0122402Y0167950D01*
X0122402Y0172554D01*
X0119333Y0172554D02*
X0119333Y0167950D01*
X0103442Y0136929D02*
X0104209Y0136162D01*
X0104209Y0135394D01*
X0103442Y0134627D01*
X0104209Y0133860D01*
X0104209Y0133092D01*
X0103442Y0132325D01*
X0101907Y0132325D01*
X0101140Y0133092D01*
X0099605Y0132325D02*
X0098071Y0133860D01*
X0098838Y0133860D02*
X0096536Y0133860D01*
X0096536Y0132325D02*
X0096536Y0136929D01*
X0098838Y0136929D01*
X0099605Y0136162D01*
X0099605Y0134627D01*
X0098838Y0133860D01*
X0101140Y0136162D02*
X0101907Y0136929D01*
X0103442Y0136929D01*
X0103442Y0134627D02*
X0102675Y0134627D01*
X0142782Y0147009D02*
X0143550Y0146242D01*
X0146619Y0146242D01*
X0147386Y0147009D01*
X0147386Y0148544D01*
X0146619Y0149311D01*
X0145084Y0150846D02*
X0145084Y0153915D01*
X0142782Y0153148D02*
X0145084Y0150846D01*
X0143550Y0149311D02*
X0142782Y0148544D01*
X0142782Y0147009D01*
X0142782Y0153148D02*
X0147386Y0153148D01*
X0143494Y0062040D02*
X0142727Y0062040D01*
X0141959Y0061273D01*
X0141959Y0058971D01*
X0143494Y0058971D01*
X0144261Y0059738D01*
X0144261Y0061273D01*
X0143494Y0062040D01*
X0140425Y0060506D02*
X0141959Y0058971D01*
X0140425Y0057436D02*
X0139657Y0056669D01*
X0139657Y0055134D01*
X0140425Y0054367D01*
X0143494Y0054367D01*
X0144261Y0055134D01*
X0144261Y0056669D01*
X0143494Y0057436D01*
X0140425Y0060506D02*
X0139657Y0062040D01*
X0134261Y0062040D02*
X0134261Y0058971D01*
X0134261Y0057436D02*
X0134261Y0054367D01*
X0134261Y0052832D02*
X0132727Y0051298D01*
X0132727Y0052065D02*
X0132727Y0049763D01*
X0134261Y0049763D02*
X0129657Y0049763D01*
X0129657Y0052065D01*
X0130425Y0052832D01*
X0131959Y0052832D01*
X0132727Y0052065D01*
X0131192Y0054367D02*
X0129657Y0055902D01*
X0134261Y0055902D01*
X0131192Y0058971D02*
X0129657Y0060506D01*
X0134261Y0060506D01*
X0054209Y0132325D02*
X0051140Y0132325D01*
X0054209Y0135394D01*
X0054209Y0136162D01*
X0053442Y0136929D01*
X0051907Y0136929D01*
X0051140Y0136162D01*
X0049605Y0136162D02*
X0048838Y0136929D01*
X0046536Y0136929D01*
X0046536Y0132325D01*
X0046536Y0133860D02*
X0048838Y0133860D01*
X0049605Y0134627D01*
X0049605Y0136162D01*
X0048071Y0133860D02*
X0049605Y0132325D01*
X0034886Y0215617D02*
X0030282Y0215617D01*
X0030282Y0217919D01*
X0031050Y0218686D01*
X0032584Y0218686D01*
X0033352Y0217919D01*
X0033352Y0215617D01*
X0033352Y0217152D02*
X0034886Y0218686D01*
X0032584Y0220221D02*
X0032584Y0223290D01*
X0030282Y0222523D02*
X0032584Y0220221D01*
X0034886Y0222523D02*
X0030282Y0222523D01*
X0013361Y0248188D02*
X0009892Y0248188D01*
X0009892Y0250790D01*
X0010759Y0251657D01*
X0013361Y0251657D01*
D11*
X0130233Y0245817D02*
X0133936Y0243349D01*
X0133936Y0240279D02*
X0131467Y0240279D01*
X0132702Y0240279D02*
X0131467Y0241514D01*
X0131467Y0242131D01*
X0132085Y0239065D02*
X0131467Y0238448D01*
X0131467Y0237213D01*
X0132085Y0236596D01*
X0133319Y0236596D01*
X0133936Y0237213D01*
X0133936Y0238448D01*
X0132702Y0239065D02*
X0132702Y0236596D01*
X0133936Y0235382D02*
X0133936Y0233530D01*
X0133319Y0232913D01*
X0132085Y0232913D01*
X0131467Y0233530D01*
X0131467Y0235382D01*
X0134553Y0235382D01*
X0135171Y0234765D01*
X0135171Y0234148D01*
X0133936Y0231699D02*
X0132085Y0231699D01*
X0131467Y0231082D01*
X0131467Y0229230D01*
X0133936Y0229230D01*
X0133936Y0228009D02*
X0133936Y0226775D01*
X0133936Y0227392D02*
X0131467Y0227392D01*
X0131467Y0226775D01*
X0130233Y0227392D02*
X0129616Y0227392D01*
X0130233Y0224936D02*
X0133936Y0224936D01*
X0133936Y0224319D02*
X0133936Y0225554D01*
X0133936Y0223098D02*
X0133936Y0221864D01*
X0133936Y0222481D02*
X0130233Y0222481D01*
X0130233Y0221864D01*
X0131467Y0220032D02*
X0131467Y0218798D01*
X0132085Y0218181D01*
X0133319Y0218181D01*
X0133936Y0218798D01*
X0133936Y0220032D01*
X0132702Y0220649D02*
X0132702Y0218181D01*
X0133936Y0216966D02*
X0133936Y0214497D01*
X0133319Y0214497D01*
X0130850Y0216966D01*
X0130233Y0216966D01*
X0130233Y0214497D01*
X0131467Y0212666D02*
X0131467Y0211431D01*
X0132085Y0210814D01*
X0133319Y0210814D01*
X0133936Y0211431D01*
X0133936Y0212666D01*
X0133319Y0213283D01*
X0132085Y0213283D01*
X0131467Y0212666D01*
X0131467Y0209600D02*
X0131467Y0207748D01*
X0132085Y0207131D01*
X0133319Y0207131D01*
X0133936Y0207748D01*
X0133936Y0209600D01*
X0135616Y0209590D02*
X0136233Y0209590D01*
X0137467Y0209590D02*
X0139936Y0209590D01*
X0139936Y0208973D02*
X0139936Y0210207D01*
X0139936Y0211428D02*
X0137467Y0211428D01*
X0137467Y0213280D01*
X0138085Y0213897D01*
X0139936Y0213897D01*
X0139319Y0215111D02*
X0139936Y0215728D01*
X0139936Y0217580D01*
X0140553Y0217580D02*
X0137467Y0217580D01*
X0137467Y0215728D01*
X0138085Y0215111D01*
X0139319Y0215111D01*
X0141171Y0216346D02*
X0141171Y0216963D01*
X0140553Y0217580D01*
X0137467Y0209590D02*
X0137467Y0208973D01*
X0137467Y0207755D02*
X0137467Y0207138D01*
X0138702Y0205903D01*
X0139936Y0205903D02*
X0137467Y0205903D01*
X0138085Y0204689D02*
X0137467Y0204072D01*
X0137467Y0202837D01*
X0138085Y0202220D01*
X0139319Y0202220D01*
X0139936Y0202837D01*
X0139936Y0204072D01*
X0139319Y0204689D01*
X0138085Y0204689D01*
X0137467Y0200999D02*
X0137467Y0199765D01*
X0136850Y0200382D02*
X0139319Y0200382D01*
X0139936Y0200999D01*
X0139936Y0198544D02*
X0139936Y0197309D01*
X0139936Y0197927D02*
X0137467Y0197927D01*
X0137467Y0197309D01*
X0138085Y0196095D02*
X0139936Y0196095D01*
X0139936Y0193626D02*
X0137467Y0193626D01*
X0137467Y0195478D01*
X0138085Y0196095D01*
X0136233Y0197927D02*
X0135616Y0197927D01*
X0133936Y0197309D02*
X0130233Y0199778D01*
X0130233Y0200993D02*
X0133936Y0203461D01*
X0130233Y0203461D01*
X0131467Y0204676D02*
X0131467Y0205293D01*
X0133936Y0205293D01*
X0133936Y0204676D02*
X0133936Y0205910D01*
X0133936Y0200993D02*
X0130233Y0200993D01*
X0130233Y0205293D02*
X0129616Y0205293D01*
X0132085Y0196095D02*
X0131467Y0195478D01*
X0132085Y0194861D01*
X0133936Y0194861D01*
X0133936Y0196095D02*
X0132085Y0196095D01*
X0132085Y0194861D02*
X0131467Y0194243D01*
X0131467Y0193626D01*
X0133936Y0193626D01*
X0133319Y0192412D02*
X0133936Y0191795D01*
X0133936Y0190560D01*
X0133319Y0189943D01*
X0132085Y0189943D01*
X0131467Y0190560D01*
X0131467Y0191795D01*
X0132085Y0192412D01*
X0133319Y0192412D01*
X0133936Y0188729D02*
X0133936Y0186877D01*
X0133319Y0186260D01*
X0132085Y0186260D01*
X0131467Y0186877D01*
X0131467Y0188729D01*
X0133319Y0185036D02*
X0133936Y0185036D01*
X0133936Y0184418D01*
X0133319Y0184418D01*
X0133319Y0185036D01*
X0133319Y0183204D02*
X0132085Y0183204D01*
X0131467Y0182587D01*
X0131467Y0180735D01*
X0131467Y0179521D02*
X0133936Y0179521D01*
X0133936Y0177669D01*
X0133319Y0177052D01*
X0131467Y0177052D01*
X0132085Y0175838D02*
X0131467Y0175221D01*
X0131467Y0173986D01*
X0132085Y0173369D01*
X0131467Y0172148D02*
X0131467Y0170914D01*
X0130850Y0171531D02*
X0133319Y0171531D01*
X0133936Y0172148D01*
X0133936Y0173369D02*
X0130233Y0173369D01*
X0130233Y0169075D02*
X0129616Y0169075D01*
X0131467Y0169075D02*
X0133936Y0169075D01*
X0133936Y0168458D02*
X0133936Y0169693D01*
X0133936Y0167244D02*
X0133936Y0165392D01*
X0133319Y0164775D01*
X0132085Y0164775D01*
X0131467Y0165392D01*
X0131467Y0167244D01*
X0134553Y0167244D01*
X0135171Y0166627D01*
X0135171Y0166009D01*
X0136233Y0165392D02*
X0136850Y0164775D01*
X0137467Y0164775D01*
X0138085Y0165392D01*
X0138085Y0166627D01*
X0138702Y0167244D01*
X0139319Y0167244D01*
X0139936Y0166627D01*
X0139936Y0165392D01*
X0139319Y0164775D01*
X0136850Y0167244D02*
X0136233Y0166627D01*
X0136233Y0165392D01*
X0138085Y0168458D02*
X0137467Y0169075D01*
X0137467Y0170310D01*
X0138085Y0170927D01*
X0138702Y0170927D01*
X0138702Y0168458D01*
X0139319Y0168458D02*
X0138085Y0168458D01*
X0139319Y0168458D02*
X0139936Y0169075D01*
X0139936Y0170310D01*
X0139936Y0172141D02*
X0137467Y0172141D01*
X0137467Y0173993D01*
X0138085Y0174610D01*
X0139936Y0174610D01*
X0139936Y0175824D02*
X0139936Y0177676D01*
X0139319Y0178293D01*
X0138702Y0177676D01*
X0138702Y0176442D01*
X0138085Y0175824D01*
X0137467Y0176442D01*
X0137467Y0178293D01*
X0138085Y0179508D02*
X0139319Y0179508D01*
X0139936Y0180125D01*
X0139936Y0181359D01*
X0139319Y0181976D01*
X0138085Y0181976D01*
X0137467Y0181359D01*
X0137467Y0180125D01*
X0138085Y0179508D01*
X0138702Y0183191D02*
X0137467Y0184425D01*
X0137467Y0185042D01*
X0136233Y0186260D02*
X0137467Y0187494D01*
X0136233Y0188729D01*
X0139936Y0188729D01*
X0139319Y0189943D02*
X0139936Y0190560D01*
X0139936Y0191795D01*
X0139319Y0192412D01*
X0138085Y0192412D01*
X0137467Y0191795D01*
X0137467Y0190560D01*
X0138085Y0189943D01*
X0139319Y0189943D01*
X0139936Y0186260D02*
X0136233Y0186260D01*
X0137467Y0183191D02*
X0139936Y0183191D01*
X0133936Y0182587D02*
X0133936Y0180735D01*
X0130233Y0180735D01*
X0133319Y0183204D02*
X0133936Y0182587D01*
X0133936Y0175838D02*
X0132085Y0175838D01*
X0131467Y0169075D02*
X0131467Y0168458D01*
X0131467Y0220032D02*
X0132085Y0220649D01*
X0132702Y0220649D01*
X0130233Y0224319D02*
X0130233Y0224936D01*
X0132085Y0239065D02*
X0132702Y0239065D01*
D12*
X0003211Y0247406D02*
X0003211Y0011500D01*
X0003214Y0011258D01*
X0003223Y0011017D01*
X0003237Y0010776D01*
X0003258Y0010535D01*
X0003284Y0010295D01*
X0003316Y0010055D01*
X0003354Y0009816D01*
X0003397Y0009579D01*
X0003447Y0009342D01*
X0003502Y0009107D01*
X0003562Y0008873D01*
X0003629Y0008641D01*
X0003700Y0008410D01*
X0003778Y0008181D01*
X0003861Y0007954D01*
X0003949Y0007729D01*
X0004043Y0007506D01*
X0004142Y0007286D01*
X0004247Y0007068D01*
X0004356Y0006853D01*
X0004471Y0006640D01*
X0004591Y0006430D01*
X0004716Y0006224D01*
X0004846Y0006020D01*
X0004981Y0005819D01*
X0005121Y0005622D01*
X0005265Y0005428D01*
X0005414Y0005238D01*
X0005568Y0005052D01*
X0005726Y0004869D01*
X0005888Y0004690D01*
X0006055Y0004515D01*
X0006226Y0004344D01*
X0006401Y0004177D01*
X0006580Y0004015D01*
X0006763Y0003857D01*
X0006949Y0003703D01*
X0007139Y0003554D01*
X0007333Y0003410D01*
X0007530Y0003270D01*
X0007731Y0003135D01*
X0007935Y0003005D01*
X0008141Y0002880D01*
X0008351Y0002760D01*
X0008564Y0002645D01*
X0008779Y0002536D01*
X0008997Y0002431D01*
X0009217Y0002332D01*
X0009440Y0002238D01*
X0009665Y0002150D01*
X0009892Y0002067D01*
X0010121Y0001989D01*
X0010352Y0001918D01*
X0010584Y0001851D01*
X0010818Y0001791D01*
X0011053Y0001736D01*
X0011290Y0001686D01*
X0011527Y0001643D01*
X0011766Y0001605D01*
X0012006Y0001573D01*
X0012246Y0001547D01*
X0012487Y0001526D01*
X0012728Y0001512D01*
X0012969Y0001503D01*
X0013211Y0001500D01*
X0138880Y0001500D01*
X0139122Y0001503D01*
X0139363Y0001512D01*
X0139604Y0001526D01*
X0139845Y0001547D01*
X0140085Y0001573D01*
X0140325Y0001605D01*
X0140564Y0001643D01*
X0140801Y0001686D01*
X0141038Y0001736D01*
X0141273Y0001791D01*
X0141507Y0001851D01*
X0141739Y0001918D01*
X0141970Y0001989D01*
X0142199Y0002067D01*
X0142426Y0002150D01*
X0142651Y0002238D01*
X0142874Y0002332D01*
X0143094Y0002431D01*
X0143312Y0002536D01*
X0143527Y0002645D01*
X0143740Y0002760D01*
X0143950Y0002880D01*
X0144156Y0003005D01*
X0144360Y0003135D01*
X0144561Y0003270D01*
X0144758Y0003410D01*
X0144952Y0003554D01*
X0145142Y0003703D01*
X0145328Y0003857D01*
X0145511Y0004015D01*
X0145690Y0004177D01*
X0145865Y0004344D01*
X0146036Y0004515D01*
X0146203Y0004690D01*
X0146365Y0004869D01*
X0146523Y0005052D01*
X0146677Y0005238D01*
X0146826Y0005428D01*
X0146970Y0005622D01*
X0147110Y0005819D01*
X0147245Y0006020D01*
X0147375Y0006224D01*
X0147500Y0006430D01*
X0147620Y0006640D01*
X0147735Y0006853D01*
X0147844Y0007068D01*
X0147949Y0007286D01*
X0148048Y0007506D01*
X0148142Y0007729D01*
X0148230Y0007954D01*
X0148313Y0008181D01*
X0148391Y0008410D01*
X0148462Y0008641D01*
X0148529Y0008873D01*
X0148589Y0009107D01*
X0148644Y0009342D01*
X0148694Y0009579D01*
X0148737Y0009816D01*
X0148775Y0010055D01*
X0148807Y0010295D01*
X0148833Y0010535D01*
X0148854Y0010776D01*
X0148868Y0011017D01*
X0148877Y0011258D01*
X0148880Y0011500D01*
X0148880Y0247406D01*
X0148877Y0247648D01*
X0148868Y0247889D01*
X0148854Y0248130D01*
X0148833Y0248371D01*
X0148807Y0248611D01*
X0148775Y0248851D01*
X0148737Y0249090D01*
X0148694Y0249327D01*
X0148644Y0249564D01*
X0148589Y0249799D01*
X0148529Y0250033D01*
X0148462Y0250265D01*
X0148391Y0250496D01*
X0148313Y0250725D01*
X0148230Y0250952D01*
X0148142Y0251177D01*
X0148048Y0251400D01*
X0147949Y0251620D01*
X0147844Y0251838D01*
X0147735Y0252053D01*
X0147620Y0252266D01*
X0147500Y0252476D01*
X0147375Y0252682D01*
X0147245Y0252886D01*
X0147110Y0253087D01*
X0146970Y0253284D01*
X0146826Y0253478D01*
X0146677Y0253668D01*
X0146523Y0253854D01*
X0146365Y0254037D01*
X0146203Y0254216D01*
X0146036Y0254391D01*
X0145865Y0254562D01*
X0145690Y0254729D01*
X0145511Y0254891D01*
X0145328Y0255049D01*
X0145142Y0255203D01*
X0144952Y0255352D01*
X0144758Y0255496D01*
X0144561Y0255636D01*
X0144360Y0255771D01*
X0144156Y0255901D01*
X0143950Y0256026D01*
X0143740Y0256146D01*
X0143527Y0256261D01*
X0143312Y0256370D01*
X0143094Y0256475D01*
X0142874Y0256574D01*
X0142651Y0256668D01*
X0142426Y0256756D01*
X0142199Y0256839D01*
X0141970Y0256917D01*
X0141739Y0256988D01*
X0141507Y0257055D01*
X0141273Y0257115D01*
X0141038Y0257170D01*
X0140801Y0257220D01*
X0140564Y0257263D01*
X0140325Y0257301D01*
X0140085Y0257333D01*
X0139845Y0257359D01*
X0139604Y0257380D01*
X0139363Y0257394D01*
X0139122Y0257403D01*
X0138880Y0257406D01*
X0013211Y0257406D01*
X0012969Y0257403D01*
X0012728Y0257394D01*
X0012487Y0257380D01*
X0012246Y0257359D01*
X0012006Y0257333D01*
X0011766Y0257301D01*
X0011527Y0257263D01*
X0011290Y0257220D01*
X0011053Y0257170D01*
X0010818Y0257115D01*
X0010584Y0257055D01*
X0010352Y0256988D01*
X0010121Y0256917D01*
X0009892Y0256839D01*
X0009665Y0256756D01*
X0009440Y0256668D01*
X0009217Y0256574D01*
X0008997Y0256475D01*
X0008779Y0256370D01*
X0008564Y0256261D01*
X0008351Y0256146D01*
X0008141Y0256026D01*
X0007935Y0255901D01*
X0007731Y0255771D01*
X0007530Y0255636D01*
X0007333Y0255496D01*
X0007139Y0255352D01*
X0006949Y0255203D01*
X0006763Y0255049D01*
X0006580Y0254891D01*
X0006401Y0254729D01*
X0006226Y0254562D01*
X0006055Y0254391D01*
X0005888Y0254216D01*
X0005726Y0254037D01*
X0005568Y0253854D01*
X0005414Y0253668D01*
X0005265Y0253478D01*
X0005121Y0253284D01*
X0004981Y0253087D01*
X0004846Y0252886D01*
X0004716Y0252682D01*
X0004591Y0252476D01*
X0004471Y0252266D01*
X0004356Y0252053D01*
X0004247Y0251838D01*
X0004142Y0251620D01*
X0004043Y0251400D01*
X0003949Y0251177D01*
X0003861Y0250952D01*
X0003778Y0250725D01*
X0003700Y0250496D01*
X0003629Y0250265D01*
X0003562Y0250033D01*
X0003502Y0249799D01*
X0003447Y0249564D01*
X0003397Y0249327D01*
X0003354Y0249090D01*
X0003316Y0248851D01*
X0003284Y0248611D01*
X0003258Y0248371D01*
X0003237Y0248130D01*
X0003223Y0247889D01*
X0003214Y0247648D01*
X0003211Y0247406D01*
D13*
X0122457Y0120668D02*
X0122457Y0117666D01*
X0123208Y0116064D02*
X0122457Y0115314D01*
X0122457Y0113062D01*
X0126961Y0113062D01*
X0125460Y0113062D02*
X0125460Y0115314D01*
X0124709Y0116064D01*
X0123208Y0116064D01*
X0125460Y0114563D02*
X0126961Y0116064D01*
X0126961Y0117666D02*
X0126961Y0120668D01*
X0126961Y0117666D02*
X0126210Y0117666D01*
X0123208Y0120668D01*
X0122457Y0120668D01*
X0123959Y0111460D02*
X0126961Y0111460D01*
X0124709Y0111460D02*
X0124709Y0108458D01*
X0123959Y0108458D02*
X0122457Y0109959D01*
X0123959Y0111460D01*
X0123959Y0108458D02*
X0126961Y0108458D01*
X0126210Y0106856D02*
X0122457Y0106856D01*
X0122457Y0103854D02*
X0126210Y0103854D01*
X0126961Y0104605D01*
X0126961Y0106106D01*
X0126210Y0106856D01*
X0126210Y0102253D02*
X0123208Y0102253D01*
X0122457Y0101502D01*
X0122457Y0100001D01*
X0123208Y0099250D01*
X0126210Y0099250D01*
X0126961Y0100001D01*
X0126961Y0101502D01*
X0126210Y0102253D01*
X0126961Y0102253D02*
X0125460Y0100751D01*
M02*
