G75*
%MOIN*%
%OFA0B0*%
%FSLAX25Y25*%
%IPPOS*%
%LPD*%
%AMOC8*
5,1,8,0,0,1.08239X$1,22.5*
%
%ADD10C,0.00000*%
%ADD11R,0.05118X0.05906*%
%ADD12R,0.05906X0.05118*%
%ADD13R,0.04000X0.13000*%
%ADD14R,0.03543X0.01181*%
%ADD15R,0.01181X0.03543*%
%ADD16C,0.02000*%
D10*
X0003211Y0011500D02*
X0003211Y0247406D01*
X0003214Y0247648D01*
X0003223Y0247889D01*
X0003237Y0248130D01*
X0003258Y0248371D01*
X0003284Y0248611D01*
X0003316Y0248851D01*
X0003354Y0249090D01*
X0003397Y0249327D01*
X0003447Y0249564D01*
X0003502Y0249799D01*
X0003562Y0250033D01*
X0003629Y0250265D01*
X0003700Y0250496D01*
X0003778Y0250725D01*
X0003861Y0250952D01*
X0003949Y0251177D01*
X0004043Y0251400D01*
X0004142Y0251620D01*
X0004247Y0251838D01*
X0004356Y0252053D01*
X0004471Y0252266D01*
X0004591Y0252476D01*
X0004716Y0252682D01*
X0004846Y0252886D01*
X0004981Y0253087D01*
X0005121Y0253284D01*
X0005265Y0253478D01*
X0005414Y0253668D01*
X0005568Y0253854D01*
X0005726Y0254037D01*
X0005888Y0254216D01*
X0006055Y0254391D01*
X0006226Y0254562D01*
X0006401Y0254729D01*
X0006580Y0254891D01*
X0006763Y0255049D01*
X0006949Y0255203D01*
X0007139Y0255352D01*
X0007333Y0255496D01*
X0007530Y0255636D01*
X0007731Y0255771D01*
X0007935Y0255901D01*
X0008141Y0256026D01*
X0008351Y0256146D01*
X0008564Y0256261D01*
X0008779Y0256370D01*
X0008997Y0256475D01*
X0009217Y0256574D01*
X0009440Y0256668D01*
X0009665Y0256756D01*
X0009892Y0256839D01*
X0010121Y0256917D01*
X0010352Y0256988D01*
X0010584Y0257055D01*
X0010818Y0257115D01*
X0011053Y0257170D01*
X0011290Y0257220D01*
X0011527Y0257263D01*
X0011766Y0257301D01*
X0012006Y0257333D01*
X0012246Y0257359D01*
X0012487Y0257380D01*
X0012728Y0257394D01*
X0012969Y0257403D01*
X0013211Y0257406D01*
X0138880Y0257406D01*
X0139122Y0257403D01*
X0139363Y0257394D01*
X0139604Y0257380D01*
X0139845Y0257359D01*
X0140085Y0257333D01*
X0140325Y0257301D01*
X0140564Y0257263D01*
X0140801Y0257220D01*
X0141038Y0257170D01*
X0141273Y0257115D01*
X0141507Y0257055D01*
X0141739Y0256988D01*
X0141970Y0256917D01*
X0142199Y0256839D01*
X0142426Y0256756D01*
X0142651Y0256668D01*
X0142874Y0256574D01*
X0143094Y0256475D01*
X0143312Y0256370D01*
X0143527Y0256261D01*
X0143740Y0256146D01*
X0143950Y0256026D01*
X0144156Y0255901D01*
X0144360Y0255771D01*
X0144561Y0255636D01*
X0144758Y0255496D01*
X0144952Y0255352D01*
X0145142Y0255203D01*
X0145328Y0255049D01*
X0145511Y0254891D01*
X0145690Y0254729D01*
X0145865Y0254562D01*
X0146036Y0254391D01*
X0146203Y0254216D01*
X0146365Y0254037D01*
X0146523Y0253854D01*
X0146677Y0253668D01*
X0146826Y0253478D01*
X0146970Y0253284D01*
X0147110Y0253087D01*
X0147245Y0252886D01*
X0147375Y0252682D01*
X0147500Y0252476D01*
X0147620Y0252266D01*
X0147735Y0252053D01*
X0147844Y0251838D01*
X0147949Y0251620D01*
X0148048Y0251400D01*
X0148142Y0251177D01*
X0148230Y0250952D01*
X0148313Y0250725D01*
X0148391Y0250496D01*
X0148462Y0250265D01*
X0148529Y0250033D01*
X0148589Y0249799D01*
X0148644Y0249564D01*
X0148694Y0249327D01*
X0148737Y0249090D01*
X0148775Y0248851D01*
X0148807Y0248611D01*
X0148833Y0248371D01*
X0148854Y0248130D01*
X0148868Y0247889D01*
X0148877Y0247648D01*
X0148880Y0247406D01*
X0148880Y0011500D01*
X0148877Y0011258D01*
X0148868Y0011017D01*
X0148854Y0010776D01*
X0148833Y0010535D01*
X0148807Y0010295D01*
X0148775Y0010055D01*
X0148737Y0009816D01*
X0148694Y0009579D01*
X0148644Y0009342D01*
X0148589Y0009107D01*
X0148529Y0008873D01*
X0148462Y0008641D01*
X0148391Y0008410D01*
X0148313Y0008181D01*
X0148230Y0007954D01*
X0148142Y0007729D01*
X0148048Y0007506D01*
X0147949Y0007286D01*
X0147844Y0007068D01*
X0147735Y0006853D01*
X0147620Y0006640D01*
X0147500Y0006430D01*
X0147375Y0006224D01*
X0147245Y0006020D01*
X0147110Y0005819D01*
X0146970Y0005622D01*
X0146826Y0005428D01*
X0146677Y0005238D01*
X0146523Y0005052D01*
X0146365Y0004869D01*
X0146203Y0004690D01*
X0146036Y0004515D01*
X0145865Y0004344D01*
X0145690Y0004177D01*
X0145511Y0004015D01*
X0145328Y0003857D01*
X0145142Y0003703D01*
X0144952Y0003554D01*
X0144758Y0003410D01*
X0144561Y0003270D01*
X0144360Y0003135D01*
X0144156Y0003005D01*
X0143950Y0002880D01*
X0143740Y0002760D01*
X0143527Y0002645D01*
X0143312Y0002536D01*
X0143094Y0002431D01*
X0142874Y0002332D01*
X0142651Y0002238D01*
X0142426Y0002150D01*
X0142199Y0002067D01*
X0141970Y0001989D01*
X0141739Y0001918D01*
X0141507Y0001851D01*
X0141273Y0001791D01*
X0141038Y0001736D01*
X0140801Y0001686D01*
X0140564Y0001643D01*
X0140325Y0001605D01*
X0140085Y0001573D01*
X0139845Y0001547D01*
X0139604Y0001526D01*
X0139363Y0001512D01*
X0139122Y0001503D01*
X0138880Y0001500D01*
X0013211Y0001500D01*
X0012969Y0001503D01*
X0012728Y0001512D01*
X0012487Y0001526D01*
X0012246Y0001547D01*
X0012006Y0001573D01*
X0011766Y0001605D01*
X0011527Y0001643D01*
X0011290Y0001686D01*
X0011053Y0001736D01*
X0010818Y0001791D01*
X0010584Y0001851D01*
X0010352Y0001918D01*
X0010121Y0001989D01*
X0009892Y0002067D01*
X0009665Y0002150D01*
X0009440Y0002238D01*
X0009217Y0002332D01*
X0008997Y0002431D01*
X0008779Y0002536D01*
X0008564Y0002645D01*
X0008351Y0002760D01*
X0008141Y0002880D01*
X0007935Y0003005D01*
X0007731Y0003135D01*
X0007530Y0003270D01*
X0007333Y0003410D01*
X0007139Y0003554D01*
X0006949Y0003703D01*
X0006763Y0003857D01*
X0006580Y0004015D01*
X0006401Y0004177D01*
X0006226Y0004344D01*
X0006055Y0004515D01*
X0005888Y0004690D01*
X0005726Y0004869D01*
X0005568Y0005052D01*
X0005414Y0005238D01*
X0005265Y0005428D01*
X0005121Y0005622D01*
X0004981Y0005819D01*
X0004846Y0006020D01*
X0004716Y0006224D01*
X0004591Y0006430D01*
X0004471Y0006640D01*
X0004356Y0006853D01*
X0004247Y0007068D01*
X0004142Y0007286D01*
X0004043Y0007506D01*
X0003949Y0007729D01*
X0003861Y0007954D01*
X0003778Y0008181D01*
X0003700Y0008410D01*
X0003629Y0008641D01*
X0003562Y0008873D01*
X0003502Y0009107D01*
X0003447Y0009342D01*
X0003397Y0009579D01*
X0003354Y0009816D01*
X0003316Y0010055D01*
X0003284Y0010295D01*
X0003258Y0010535D01*
X0003237Y0010776D01*
X0003223Y0011017D01*
X0003214Y0011258D01*
X0003211Y0011500D01*
D11*
X0030721Y0039000D03*
X0030721Y0050250D03*
X0030721Y0061500D03*
X0038201Y0061500D03*
X0038201Y0050250D03*
X0038201Y0039000D03*
X0016951Y0091500D03*
X0016951Y0101500D03*
X0009471Y0101500D03*
X0009471Y0091500D03*
X0009471Y0111500D03*
X0016951Y0111500D03*
X0119471Y0061500D03*
X0126951Y0061500D03*
X0126951Y0050250D03*
X0119471Y0050250D03*
X0119471Y0039000D03*
X0126951Y0039000D03*
X0134471Y0091500D03*
X0134471Y0101500D03*
X0134471Y0111500D03*
X0141951Y0111500D03*
X0141951Y0101500D03*
X0141951Y0091500D03*
D12*
X0141961Y0046490D03*
X0141961Y0039010D03*
D13*
X0104461Y0021500D03*
X0094461Y0011500D03*
X0084461Y0021500D03*
X0074461Y0011500D03*
X0064461Y0021500D03*
X0054461Y0011500D03*
X0044461Y0021500D03*
D14*
G36*
X0069967Y0071492D02*
X0072471Y0073996D01*
X0073305Y0073162D01*
X0070801Y0070658D01*
X0069967Y0071492D01*
G37*
G36*
X0068575Y0072884D02*
X0071079Y0075388D01*
X0071913Y0074554D01*
X0069409Y0072050D01*
X0068575Y0072884D01*
G37*
G36*
X0067183Y0074276D02*
X0069687Y0076780D01*
X0070521Y0075946D01*
X0068017Y0073442D01*
X0067183Y0074276D01*
G37*
G36*
X0065791Y0075668D02*
X0068295Y0078172D01*
X0069129Y0077338D01*
X0066625Y0074834D01*
X0065791Y0075668D01*
G37*
G36*
X0064399Y0077060D02*
X0066903Y0079564D01*
X0067737Y0078730D01*
X0065233Y0076226D01*
X0064399Y0077060D01*
G37*
G36*
X0063007Y0078452D02*
X0065511Y0080956D01*
X0066345Y0080122D01*
X0063841Y0077618D01*
X0063007Y0078452D01*
G37*
G36*
X0061615Y0079844D02*
X0064119Y0082348D01*
X0064953Y0081514D01*
X0062449Y0079010D01*
X0061615Y0079844D01*
G37*
G36*
X0060223Y0081236D02*
X0062727Y0083740D01*
X0063561Y0082906D01*
X0061057Y0080402D01*
X0060223Y0081236D01*
G37*
G36*
X0058831Y0082628D02*
X0061335Y0085132D01*
X0062169Y0084298D01*
X0059665Y0081794D01*
X0058831Y0082628D01*
G37*
G36*
X0057439Y0084020D02*
X0059943Y0086524D01*
X0060777Y0085690D01*
X0058273Y0083186D01*
X0057439Y0084020D01*
G37*
G36*
X0056047Y0085412D02*
X0058551Y0087916D01*
X0059385Y0087082D01*
X0056881Y0084578D01*
X0056047Y0085412D01*
G37*
G36*
X0054655Y0086804D02*
X0057159Y0089308D01*
X0057993Y0088474D01*
X0055489Y0085970D01*
X0054655Y0086804D01*
G37*
G36*
X0079153Y0111302D02*
X0081657Y0113806D01*
X0082491Y0112972D01*
X0079987Y0110468D01*
X0079153Y0111302D01*
G37*
G36*
X0080545Y0109910D02*
X0083049Y0112414D01*
X0083883Y0111580D01*
X0081379Y0109076D01*
X0080545Y0109910D01*
G37*
G36*
X0081937Y0108518D02*
X0084441Y0111022D01*
X0085275Y0110188D01*
X0082771Y0107684D01*
X0081937Y0108518D01*
G37*
G36*
X0083329Y0107126D02*
X0085833Y0109630D01*
X0086667Y0108796D01*
X0084163Y0106292D01*
X0083329Y0107126D01*
G37*
G36*
X0084721Y0105734D02*
X0087225Y0108238D01*
X0088059Y0107404D01*
X0085555Y0104900D01*
X0084721Y0105734D01*
G37*
G36*
X0086113Y0104342D02*
X0088617Y0106846D01*
X0089451Y0106012D01*
X0086947Y0103508D01*
X0086113Y0104342D01*
G37*
G36*
X0087505Y0102950D02*
X0090009Y0105454D01*
X0090843Y0104620D01*
X0088339Y0102116D01*
X0087505Y0102950D01*
G37*
G36*
X0088897Y0101558D02*
X0091401Y0104062D01*
X0092235Y0103228D01*
X0089731Y0100724D01*
X0088897Y0101558D01*
G37*
G36*
X0090289Y0100166D02*
X0092793Y0102670D01*
X0093627Y0101836D01*
X0091123Y0099332D01*
X0090289Y0100166D01*
G37*
G36*
X0091681Y0098775D02*
X0094185Y0101279D01*
X0095019Y0100445D01*
X0092515Y0097941D01*
X0091681Y0098775D01*
G37*
G36*
X0093073Y0097383D02*
X0095577Y0099887D01*
X0096411Y0099053D01*
X0093907Y0096549D01*
X0093073Y0097383D01*
G37*
G36*
X0094465Y0095991D02*
X0096969Y0098495D01*
X0097803Y0097661D01*
X0095299Y0095157D01*
X0094465Y0095991D01*
G37*
D15*
G36*
X0094465Y0088474D02*
X0095299Y0089308D01*
X0097803Y0086804D01*
X0096969Y0085970D01*
X0094465Y0088474D01*
G37*
G36*
X0093073Y0087082D02*
X0093907Y0087916D01*
X0096411Y0085412D01*
X0095577Y0084578D01*
X0093073Y0087082D01*
G37*
G36*
X0091681Y0085690D02*
X0092515Y0086524D01*
X0095019Y0084020D01*
X0094185Y0083186D01*
X0091681Y0085690D01*
G37*
G36*
X0090289Y0084298D02*
X0091123Y0085132D01*
X0093627Y0082628D01*
X0092793Y0081794D01*
X0090289Y0084298D01*
G37*
G36*
X0088897Y0082906D02*
X0089731Y0083740D01*
X0092235Y0081236D01*
X0091401Y0080402D01*
X0088897Y0082906D01*
G37*
G36*
X0087505Y0081514D02*
X0088339Y0082348D01*
X0090843Y0079844D01*
X0090009Y0079010D01*
X0087505Y0081514D01*
G37*
G36*
X0086113Y0080122D02*
X0086947Y0080956D01*
X0089451Y0078452D01*
X0088617Y0077618D01*
X0086113Y0080122D01*
G37*
G36*
X0084721Y0078730D02*
X0085555Y0079564D01*
X0088059Y0077060D01*
X0087225Y0076226D01*
X0084721Y0078730D01*
G37*
G36*
X0083329Y0077338D02*
X0084163Y0078172D01*
X0086667Y0075668D01*
X0085833Y0074834D01*
X0083329Y0077338D01*
G37*
G36*
X0081937Y0075946D02*
X0082771Y0076780D01*
X0085275Y0074276D01*
X0084441Y0073442D01*
X0081937Y0075946D01*
G37*
G36*
X0080545Y0074554D02*
X0081379Y0075388D01*
X0083883Y0072884D01*
X0083049Y0072050D01*
X0080545Y0074554D01*
G37*
G36*
X0079153Y0073162D02*
X0079987Y0073996D01*
X0082491Y0071492D01*
X0081657Y0070658D01*
X0079153Y0073162D01*
G37*
G36*
X0060223Y0103228D02*
X0061057Y0104062D01*
X0063561Y0101558D01*
X0062727Y0100724D01*
X0060223Y0103228D01*
G37*
G36*
X0058831Y0101836D02*
X0059665Y0102670D01*
X0062169Y0100166D01*
X0061335Y0099332D01*
X0058831Y0101836D01*
G37*
G36*
X0057439Y0100445D02*
X0058273Y0101279D01*
X0060777Y0098775D01*
X0059943Y0097941D01*
X0057439Y0100445D01*
G37*
G36*
X0056047Y0099053D02*
X0056881Y0099887D01*
X0059385Y0097383D01*
X0058551Y0096549D01*
X0056047Y0099053D01*
G37*
G36*
X0054655Y0097661D02*
X0055489Y0098495D01*
X0057993Y0095991D01*
X0057159Y0095157D01*
X0054655Y0097661D01*
G37*
G36*
X0061615Y0104620D02*
X0062449Y0105454D01*
X0064953Y0102950D01*
X0064119Y0102116D01*
X0061615Y0104620D01*
G37*
G36*
X0063007Y0106012D02*
X0063841Y0106846D01*
X0066345Y0104342D01*
X0065511Y0103508D01*
X0063007Y0106012D01*
G37*
G36*
X0064399Y0107404D02*
X0065233Y0108238D01*
X0067737Y0105734D01*
X0066903Y0104900D01*
X0064399Y0107404D01*
G37*
G36*
X0065791Y0108796D02*
X0066625Y0109630D01*
X0069129Y0107126D01*
X0068295Y0106292D01*
X0065791Y0108796D01*
G37*
G36*
X0067183Y0110188D02*
X0068017Y0111022D01*
X0070521Y0108518D01*
X0069687Y0107684D01*
X0067183Y0110188D01*
G37*
G36*
X0068575Y0111580D02*
X0069409Y0112414D01*
X0071913Y0109910D01*
X0071079Y0109076D01*
X0068575Y0111580D01*
G37*
G36*
X0069967Y0112972D02*
X0070801Y0113806D01*
X0073305Y0111302D01*
X0072471Y0110468D01*
X0069967Y0112972D01*
G37*
D16*
X0016711Y0146250D02*
X0016711Y0154250D01*
X0029711Y0154250D01*
X0029711Y0146250D01*
X0016711Y0146250D01*
X0016711Y0148249D02*
X0029711Y0148249D01*
X0029711Y0150248D02*
X0016711Y0150248D01*
X0016711Y0152247D02*
X0029711Y0152247D01*
X0029711Y0154246D02*
X0016711Y0154246D01*
X0016711Y0161250D02*
X0016711Y0169250D01*
X0029711Y0169250D01*
X0029711Y0161250D01*
X0016711Y0161250D01*
X0016711Y0163249D02*
X0029711Y0163249D01*
X0029711Y0165248D02*
X0016711Y0165248D01*
X0016711Y0167247D02*
X0029711Y0167247D01*
X0029711Y0169246D02*
X0016711Y0169246D01*
X0016711Y0176250D02*
X0016711Y0184250D01*
X0029711Y0184250D01*
X0029711Y0176250D01*
X0016711Y0176250D01*
X0016711Y0178249D02*
X0029711Y0178249D01*
X0029711Y0180248D02*
X0016711Y0180248D01*
X0016711Y0182247D02*
X0029711Y0182247D01*
X0029711Y0184246D02*
X0016711Y0184246D01*
X0016711Y0191250D02*
X0016711Y0199250D01*
X0029711Y0199250D01*
X0029711Y0191250D01*
X0016711Y0191250D01*
X0016711Y0193249D02*
X0029711Y0193249D01*
X0029711Y0195248D02*
X0016711Y0195248D01*
X0016711Y0197247D02*
X0029711Y0197247D01*
X0029711Y0199246D02*
X0016711Y0199246D01*
X0029711Y0206250D02*
X0029711Y0214250D01*
X0029711Y0206250D02*
X0016711Y0206250D01*
X0016711Y0214250D01*
X0029711Y0214250D01*
X0029711Y0208249D02*
X0016711Y0208249D01*
X0016711Y0210248D02*
X0029711Y0210248D01*
X0029711Y0212247D02*
X0016711Y0212247D01*
X0016711Y0214246D02*
X0029711Y0214246D01*
X0029711Y0221250D02*
X0029711Y0229250D01*
X0029711Y0221250D02*
X0016711Y0221250D01*
X0016711Y0229250D01*
X0029711Y0229250D01*
X0029711Y0223249D02*
X0016711Y0223249D01*
X0016711Y0225248D02*
X0029711Y0225248D01*
X0029711Y0227247D02*
X0016711Y0227247D01*
X0016711Y0229246D02*
X0029711Y0229246D01*
X0036711Y0249250D02*
X0044711Y0249250D01*
X0044711Y0236250D01*
X0036711Y0236250D01*
X0036711Y0249250D01*
X0036711Y0238249D02*
X0044711Y0238249D01*
X0044711Y0240248D02*
X0036711Y0240248D01*
X0036711Y0242247D02*
X0044711Y0242247D01*
X0044711Y0244246D02*
X0036711Y0244246D01*
X0036711Y0246245D02*
X0044711Y0246245D01*
X0044711Y0248244D02*
X0036711Y0248244D01*
X0051711Y0249250D02*
X0059711Y0249250D01*
X0059711Y0236250D01*
X0051711Y0236250D01*
X0051711Y0249250D01*
X0051711Y0238249D02*
X0059711Y0238249D01*
X0059711Y0240248D02*
X0051711Y0240248D01*
X0051711Y0242247D02*
X0059711Y0242247D01*
X0059711Y0244246D02*
X0051711Y0244246D01*
X0051711Y0246245D02*
X0059711Y0246245D01*
X0059711Y0248244D02*
X0051711Y0248244D01*
X0066711Y0249250D02*
X0074711Y0249250D01*
X0074711Y0236250D01*
X0066711Y0236250D01*
X0066711Y0249250D01*
X0066711Y0238249D02*
X0074711Y0238249D01*
X0074711Y0240248D02*
X0066711Y0240248D01*
X0066711Y0242247D02*
X0074711Y0242247D01*
X0074711Y0244246D02*
X0066711Y0244246D01*
X0066711Y0246245D02*
X0074711Y0246245D01*
X0074711Y0248244D02*
X0066711Y0248244D01*
X0081711Y0249250D02*
X0089711Y0249250D01*
X0089711Y0236250D01*
X0081711Y0236250D01*
X0081711Y0249250D01*
X0081711Y0238249D02*
X0089711Y0238249D01*
X0089711Y0240248D02*
X0081711Y0240248D01*
X0081711Y0242247D02*
X0089711Y0242247D01*
X0089711Y0244246D02*
X0081711Y0244246D01*
X0081711Y0246245D02*
X0089711Y0246245D01*
X0089711Y0248244D02*
X0081711Y0248244D01*
X0096711Y0249250D02*
X0104711Y0249250D01*
X0104711Y0236250D01*
X0096711Y0236250D01*
X0096711Y0249250D01*
X0096711Y0238249D02*
X0104711Y0238249D01*
X0104711Y0240248D02*
X0096711Y0240248D01*
X0096711Y0242247D02*
X0104711Y0242247D01*
X0104711Y0244246D02*
X0096711Y0244246D01*
X0096711Y0246245D02*
X0104711Y0246245D01*
X0104711Y0248244D02*
X0096711Y0248244D01*
X0111711Y0249250D02*
X0119711Y0249250D01*
X0119711Y0236250D01*
X0111711Y0236250D01*
X0111711Y0249250D01*
X0111711Y0238249D02*
X0119711Y0238249D01*
X0119711Y0240248D02*
X0111711Y0240248D01*
X0111711Y0242247D02*
X0119711Y0242247D01*
X0119711Y0244246D02*
X0111711Y0244246D01*
X0111711Y0246245D02*
X0119711Y0246245D01*
X0119711Y0248244D02*
X0111711Y0248244D01*
X0121711Y0229250D02*
X0121711Y0221250D01*
X0121711Y0229250D02*
X0134711Y0229250D01*
X0134711Y0221250D01*
X0121711Y0221250D01*
X0121711Y0223249D02*
X0134711Y0223249D01*
X0134711Y0225248D02*
X0121711Y0225248D01*
X0121711Y0227247D02*
X0134711Y0227247D01*
X0134711Y0229246D02*
X0121711Y0229246D01*
X0121711Y0214250D02*
X0121711Y0206250D01*
X0121711Y0214250D02*
X0134711Y0214250D01*
X0134711Y0206250D01*
X0121711Y0206250D01*
X0121711Y0208249D02*
X0134711Y0208249D01*
X0134711Y0210248D02*
X0121711Y0210248D01*
X0121711Y0212247D02*
X0134711Y0212247D01*
X0134711Y0214246D02*
X0121711Y0214246D01*
X0121711Y0199250D02*
X0121711Y0191250D01*
X0121711Y0199250D02*
X0134711Y0199250D01*
X0134711Y0191250D01*
X0121711Y0191250D01*
X0121711Y0193249D02*
X0134711Y0193249D01*
X0134711Y0195248D02*
X0121711Y0195248D01*
X0121711Y0197247D02*
X0134711Y0197247D01*
X0134711Y0199246D02*
X0121711Y0199246D01*
X0121711Y0184250D02*
X0121711Y0176250D01*
X0121711Y0184250D02*
X0134711Y0184250D01*
X0134711Y0176250D01*
X0121711Y0176250D01*
X0121711Y0178249D02*
X0134711Y0178249D01*
X0134711Y0180248D02*
X0121711Y0180248D01*
X0121711Y0182247D02*
X0134711Y0182247D01*
X0134711Y0184246D02*
X0121711Y0184246D01*
X0121711Y0169250D02*
X0121711Y0161250D01*
X0121711Y0169250D02*
X0134711Y0169250D01*
X0134711Y0161250D01*
X0121711Y0161250D01*
X0121711Y0163249D02*
X0134711Y0163249D01*
X0134711Y0165248D02*
X0121711Y0165248D01*
X0121711Y0167247D02*
X0134711Y0167247D01*
X0134711Y0169246D02*
X0121711Y0169246D01*
X0121711Y0154250D02*
X0121711Y0146250D01*
X0121711Y0154250D02*
X0134711Y0154250D01*
X0134711Y0146250D01*
X0121711Y0146250D01*
X0121711Y0148249D02*
X0134711Y0148249D01*
X0134711Y0150248D02*
X0121711Y0150248D01*
X0121711Y0152247D02*
X0134711Y0152247D01*
X0134711Y0154246D02*
X0121711Y0154246D01*
M02*
