%
M48
M72
T01C0.01969
T02C0.02362
%
T01
X19461Y51500
X28211Y61500
X37586Y72125
X27586Y85250
X9461Y121500
X6336Y124625
X9461Y127750
X49461Y127750
X49461Y132750
X55711Y127750
X65086Y114000
X71961Y100875
X68211Y97125
X61336Y89000
X66961Y85250
X63836Y70875
X60086Y70875
X56336Y70875
X56336Y67125
X49461Y80250
X52586Y82750
X53211Y89000
X51961Y99625
X71961Y137750
X73836Y114000
X85086Y132750
X102586Y122750
X102586Y119000
X102586Y115250
X102586Y111500
X102586Y107750
X105086Y95250
X102586Y91500
X98211Y94625
X91961Y76500
X102586Y73375
X106336Y72125
X124461Y72125
X125711Y91500
X125711Y111500
X125711Y115250
X125711Y119000
X78211Y81500
X30711Y42750
T02
X85711Y242750
X135711Y39625
M30
