G75*
%MOIN*%
%OFA0B0*%
%FSLAX25Y25*%
%IPPOS*%
%LPD*%
%AMOC8*
5,1,8,0,0,1.08239X$1,22.5*
%
%ADD10C,0.00000*%
%ADD11C,0.00400*%
%ADD12C,0.00600*%
%ADD13C,0.00500*%
%ADD14C,0.00200*%
%ADD15C,0.00100*%
%ADD16R,0.01481X0.08701*%
%ADD17R,0.08701X0.01481*%
D10*
X0003211Y0011500D02*
X0003211Y0247406D01*
X0003214Y0247648D01*
X0003223Y0247889D01*
X0003237Y0248130D01*
X0003258Y0248371D01*
X0003284Y0248611D01*
X0003316Y0248851D01*
X0003354Y0249090D01*
X0003397Y0249327D01*
X0003447Y0249564D01*
X0003502Y0249799D01*
X0003562Y0250033D01*
X0003629Y0250265D01*
X0003700Y0250496D01*
X0003778Y0250725D01*
X0003861Y0250952D01*
X0003949Y0251177D01*
X0004043Y0251400D01*
X0004142Y0251620D01*
X0004247Y0251838D01*
X0004356Y0252053D01*
X0004471Y0252266D01*
X0004591Y0252476D01*
X0004716Y0252682D01*
X0004846Y0252886D01*
X0004981Y0253087D01*
X0005121Y0253284D01*
X0005265Y0253478D01*
X0005414Y0253668D01*
X0005568Y0253854D01*
X0005726Y0254037D01*
X0005888Y0254216D01*
X0006055Y0254391D01*
X0006226Y0254562D01*
X0006401Y0254729D01*
X0006580Y0254891D01*
X0006763Y0255049D01*
X0006949Y0255203D01*
X0007139Y0255352D01*
X0007333Y0255496D01*
X0007530Y0255636D01*
X0007731Y0255771D01*
X0007935Y0255901D01*
X0008141Y0256026D01*
X0008351Y0256146D01*
X0008564Y0256261D01*
X0008779Y0256370D01*
X0008997Y0256475D01*
X0009217Y0256574D01*
X0009440Y0256668D01*
X0009665Y0256756D01*
X0009892Y0256839D01*
X0010121Y0256917D01*
X0010352Y0256988D01*
X0010584Y0257055D01*
X0010818Y0257115D01*
X0011053Y0257170D01*
X0011290Y0257220D01*
X0011527Y0257263D01*
X0011766Y0257301D01*
X0012006Y0257333D01*
X0012246Y0257359D01*
X0012487Y0257380D01*
X0012728Y0257394D01*
X0012969Y0257403D01*
X0013211Y0257406D01*
X0138880Y0257406D01*
X0139122Y0257403D01*
X0139363Y0257394D01*
X0139604Y0257380D01*
X0139845Y0257359D01*
X0140085Y0257333D01*
X0140325Y0257301D01*
X0140564Y0257263D01*
X0140801Y0257220D01*
X0141038Y0257170D01*
X0141273Y0257115D01*
X0141507Y0257055D01*
X0141739Y0256988D01*
X0141970Y0256917D01*
X0142199Y0256839D01*
X0142426Y0256756D01*
X0142651Y0256668D01*
X0142874Y0256574D01*
X0143094Y0256475D01*
X0143312Y0256370D01*
X0143527Y0256261D01*
X0143740Y0256146D01*
X0143950Y0256026D01*
X0144156Y0255901D01*
X0144360Y0255771D01*
X0144561Y0255636D01*
X0144758Y0255496D01*
X0144952Y0255352D01*
X0145142Y0255203D01*
X0145328Y0255049D01*
X0145511Y0254891D01*
X0145690Y0254729D01*
X0145865Y0254562D01*
X0146036Y0254391D01*
X0146203Y0254216D01*
X0146365Y0254037D01*
X0146523Y0253854D01*
X0146677Y0253668D01*
X0146826Y0253478D01*
X0146970Y0253284D01*
X0147110Y0253087D01*
X0147245Y0252886D01*
X0147375Y0252682D01*
X0147500Y0252476D01*
X0147620Y0252266D01*
X0147735Y0252053D01*
X0147844Y0251838D01*
X0147949Y0251620D01*
X0148048Y0251400D01*
X0148142Y0251177D01*
X0148230Y0250952D01*
X0148313Y0250725D01*
X0148391Y0250496D01*
X0148462Y0250265D01*
X0148529Y0250033D01*
X0148589Y0249799D01*
X0148644Y0249564D01*
X0148694Y0249327D01*
X0148737Y0249090D01*
X0148775Y0248851D01*
X0148807Y0248611D01*
X0148833Y0248371D01*
X0148854Y0248130D01*
X0148868Y0247889D01*
X0148877Y0247648D01*
X0148880Y0247406D01*
X0148880Y0011500D01*
X0148877Y0011258D01*
X0148868Y0011017D01*
X0148854Y0010776D01*
X0148833Y0010535D01*
X0148807Y0010295D01*
X0148775Y0010055D01*
X0148737Y0009816D01*
X0148694Y0009579D01*
X0148644Y0009342D01*
X0148589Y0009107D01*
X0148529Y0008873D01*
X0148462Y0008641D01*
X0148391Y0008410D01*
X0148313Y0008181D01*
X0148230Y0007954D01*
X0148142Y0007729D01*
X0148048Y0007506D01*
X0147949Y0007286D01*
X0147844Y0007068D01*
X0147735Y0006853D01*
X0147620Y0006640D01*
X0147500Y0006430D01*
X0147375Y0006224D01*
X0147245Y0006020D01*
X0147110Y0005819D01*
X0146970Y0005622D01*
X0146826Y0005428D01*
X0146677Y0005238D01*
X0146523Y0005052D01*
X0146365Y0004869D01*
X0146203Y0004690D01*
X0146036Y0004515D01*
X0145865Y0004344D01*
X0145690Y0004177D01*
X0145511Y0004015D01*
X0145328Y0003857D01*
X0145142Y0003703D01*
X0144952Y0003554D01*
X0144758Y0003410D01*
X0144561Y0003270D01*
X0144360Y0003135D01*
X0144156Y0003005D01*
X0143950Y0002880D01*
X0143740Y0002760D01*
X0143527Y0002645D01*
X0143312Y0002536D01*
X0143094Y0002431D01*
X0142874Y0002332D01*
X0142651Y0002238D01*
X0142426Y0002150D01*
X0142199Y0002067D01*
X0141970Y0001989D01*
X0141739Y0001918D01*
X0141507Y0001851D01*
X0141273Y0001791D01*
X0141038Y0001736D01*
X0140801Y0001686D01*
X0140564Y0001643D01*
X0140325Y0001605D01*
X0140085Y0001573D01*
X0139845Y0001547D01*
X0139604Y0001526D01*
X0139363Y0001512D01*
X0139122Y0001503D01*
X0138880Y0001500D01*
X0013211Y0001500D01*
X0012969Y0001503D01*
X0012728Y0001512D01*
X0012487Y0001526D01*
X0012246Y0001547D01*
X0012006Y0001573D01*
X0011766Y0001605D01*
X0011527Y0001643D01*
X0011290Y0001686D01*
X0011053Y0001736D01*
X0010818Y0001791D01*
X0010584Y0001851D01*
X0010352Y0001918D01*
X0010121Y0001989D01*
X0009892Y0002067D01*
X0009665Y0002150D01*
X0009440Y0002238D01*
X0009217Y0002332D01*
X0008997Y0002431D01*
X0008779Y0002536D01*
X0008564Y0002645D01*
X0008351Y0002760D01*
X0008141Y0002880D01*
X0007935Y0003005D01*
X0007731Y0003135D01*
X0007530Y0003270D01*
X0007333Y0003410D01*
X0007139Y0003554D01*
X0006949Y0003703D01*
X0006763Y0003857D01*
X0006580Y0004015D01*
X0006401Y0004177D01*
X0006226Y0004344D01*
X0006055Y0004515D01*
X0005888Y0004690D01*
X0005726Y0004869D01*
X0005568Y0005052D01*
X0005414Y0005238D01*
X0005265Y0005428D01*
X0005121Y0005622D01*
X0004981Y0005819D01*
X0004846Y0006020D01*
X0004716Y0006224D01*
X0004591Y0006430D01*
X0004471Y0006640D01*
X0004356Y0006853D01*
X0004247Y0007068D01*
X0004142Y0007286D01*
X0004043Y0007506D01*
X0003949Y0007729D01*
X0003861Y0007954D01*
X0003778Y0008181D01*
X0003700Y0008410D01*
X0003629Y0008641D01*
X0003562Y0008873D01*
X0003502Y0009107D01*
X0003447Y0009342D01*
X0003397Y0009579D01*
X0003354Y0009816D01*
X0003316Y0010055D01*
X0003284Y0010295D01*
X0003258Y0010535D01*
X0003237Y0010776D01*
X0003223Y0011017D01*
X0003214Y0011258D01*
X0003211Y0011500D01*
D11*
X0006050Y0016867D02*
X0009119Y0016867D01*
X0009886Y0017634D01*
X0009886Y0019169D01*
X0009119Y0019936D01*
X0009886Y0021471D02*
X0009886Y0024540D01*
X0009886Y0023006D02*
X0005282Y0023006D01*
X0006817Y0021471D01*
X0006050Y0019936D02*
X0005282Y0019169D01*
X0005282Y0017634D01*
X0006050Y0016867D01*
X0015224Y0007752D02*
X0018294Y0007752D01*
X0019828Y0007752D02*
X0019828Y0010054D01*
X0022898Y0010054D01*
X0024432Y0010054D02*
X0024432Y0006985D01*
X0025967Y0005450D01*
X0027501Y0006985D01*
X0027501Y0010054D01*
X0022898Y0007752D02*
X0022898Y0006217D01*
X0022130Y0005450D01*
X0020596Y0005450D01*
X0019828Y0006217D01*
X0019828Y0007752D02*
X0021363Y0008519D01*
X0022130Y0008519D01*
X0022898Y0007752D01*
X0016759Y0009287D02*
X0016759Y0006217D01*
X0029117Y0022950D02*
X0030651Y0022950D01*
X0031419Y0023717D01*
X0031419Y0025252D01*
X0029884Y0025252D01*
X0031419Y0026787D02*
X0030651Y0027554D01*
X0029117Y0027554D01*
X0028349Y0026787D01*
X0028349Y0023717D01*
X0029117Y0022950D01*
X0032953Y0022950D02*
X0032953Y0027554D01*
X0036023Y0022950D01*
X0036023Y0027554D01*
X0037557Y0027554D02*
X0039859Y0027554D01*
X0040626Y0026787D01*
X0040626Y0023717D01*
X0039859Y0022950D01*
X0037557Y0022950D01*
X0037557Y0027554D01*
X0013636Y0036360D02*
X0009032Y0036360D01*
X0009032Y0037894D02*
X0009032Y0034825D01*
X0010567Y0039429D02*
X0009032Y0040964D01*
X0013636Y0040964D01*
X0013636Y0042498D02*
X0013636Y0039429D01*
X0013411Y0121828D02*
X0016480Y0121828D01*
X0018014Y0121828D02*
X0018014Y0126432D01*
X0019549Y0124897D01*
X0021084Y0126432D01*
X0021084Y0121828D01*
X0022618Y0122595D02*
X0023386Y0121828D01*
X0024920Y0121828D01*
X0025688Y0122595D01*
X0025688Y0123363D01*
X0024920Y0124130D01*
X0024153Y0124130D01*
X0024920Y0124130D02*
X0025688Y0124897D01*
X0025688Y0125665D01*
X0024920Y0126432D01*
X0023386Y0126432D01*
X0022618Y0125665D01*
X0027222Y0125665D02*
X0027222Y0124897D01*
X0027990Y0124130D01*
X0030292Y0124130D01*
X0031826Y0124130D02*
X0034896Y0124130D01*
X0036430Y0125665D02*
X0037197Y0126432D01*
X0038732Y0126432D01*
X0039499Y0125665D01*
X0036430Y0122595D01*
X0037197Y0121828D01*
X0038732Y0121828D01*
X0039499Y0122595D01*
X0039499Y0125665D01*
X0036430Y0125665D02*
X0036430Y0122595D01*
X0034128Y0121828D02*
X0034128Y0126432D01*
X0031826Y0124130D01*
X0030292Y0125665D02*
X0029524Y0126432D01*
X0027990Y0126432D01*
X0027222Y0125665D01*
X0027222Y0122595D02*
X0027990Y0121828D01*
X0029524Y0121828D01*
X0030292Y0122595D01*
X0030292Y0125665D01*
X0046536Y0132325D02*
X0046536Y0136929D01*
X0048838Y0136929D01*
X0049605Y0136162D01*
X0049605Y0134627D01*
X0048838Y0133860D01*
X0046536Y0133860D01*
X0048071Y0133860D02*
X0049605Y0132325D01*
X0051140Y0132325D02*
X0054209Y0135394D01*
X0054209Y0136162D01*
X0053442Y0136929D01*
X0051907Y0136929D01*
X0051140Y0136162D01*
X0051140Y0132325D02*
X0054209Y0132325D01*
X0065354Y0167183D02*
X0068423Y0167183D01*
X0069958Y0168717D02*
X0070725Y0167950D01*
X0072260Y0167950D01*
X0073027Y0168717D01*
X0073027Y0169485D01*
X0072260Y0170252D01*
X0070725Y0170252D01*
X0069958Y0171019D01*
X0069958Y0171787D01*
X0070725Y0172554D01*
X0072260Y0172554D01*
X0073027Y0171787D01*
X0063819Y0167950D02*
X0060750Y0167950D01*
X0062285Y0167950D02*
X0062285Y0172554D01*
X0060750Y0171019D01*
X0059215Y0171787D02*
X0059215Y0168717D01*
X0058448Y0167950D01*
X0056913Y0167950D01*
X0056146Y0168717D01*
X0059215Y0171787D01*
X0058448Y0172554D01*
X0056913Y0172554D01*
X0056146Y0171787D01*
X0056146Y0168717D01*
X0054611Y0168717D02*
X0053844Y0167950D01*
X0052309Y0167950D01*
X0051542Y0168717D01*
X0053077Y0170252D02*
X0053844Y0170252D01*
X0054611Y0169485D01*
X0054611Y0168717D01*
X0053844Y0170252D02*
X0054611Y0171019D01*
X0054611Y0171787D01*
X0053844Y0172554D01*
X0052309Y0172554D01*
X0051542Y0171787D01*
X0050008Y0171787D02*
X0046938Y0168717D01*
X0046938Y0167950D01*
X0046938Y0172554D02*
X0050008Y0172554D01*
X0050008Y0171787D01*
X0045404Y0172554D02*
X0042334Y0172554D01*
X0042334Y0167950D01*
X0040800Y0167950D02*
X0039265Y0169485D01*
X0040032Y0169485D02*
X0037730Y0169485D01*
X0037730Y0167950D02*
X0037730Y0172554D01*
X0040032Y0172554D01*
X0040800Y0171787D01*
X0040800Y0170252D01*
X0040032Y0169485D01*
X0042334Y0170252D02*
X0043869Y0170252D01*
X0036196Y0172554D02*
X0034661Y0172554D01*
X0035428Y0172554D02*
X0035428Y0167950D01*
X0034661Y0167950D02*
X0036196Y0167950D01*
X0013411Y0126432D02*
X0013411Y0121828D01*
X0065596Y0232940D02*
X0068665Y0232940D01*
X0070200Y0233707D02*
X0070967Y0232940D01*
X0072502Y0232940D01*
X0073269Y0233707D01*
X0073269Y0234475D01*
X0072502Y0235242D01*
X0070967Y0235242D01*
X0070200Y0236009D01*
X0070200Y0236777D01*
X0070967Y0237544D01*
X0072502Y0237544D01*
X0073269Y0236777D01*
X0074804Y0237544D02*
X0074804Y0232940D01*
X0075735Y0234128D02*
X0074967Y0235663D01*
X0074804Y0234475D02*
X0077106Y0234475D01*
X0077873Y0235242D01*
X0077873Y0236777D01*
X0077106Y0237544D01*
X0074804Y0237544D01*
X0075735Y0238732D02*
X0074967Y0240267D01*
X0075735Y0238732D02*
X0077269Y0237198D01*
X0077269Y0239500D01*
X0078037Y0240267D01*
X0078804Y0240267D01*
X0079571Y0239500D01*
X0079571Y0237965D01*
X0078804Y0237198D01*
X0077269Y0237198D01*
X0078037Y0235663D02*
X0077269Y0234896D01*
X0077269Y0232594D01*
X0078804Y0232594D01*
X0079571Y0233361D01*
X0079571Y0234896D01*
X0078804Y0235663D01*
X0078037Y0235663D01*
X0079408Y0235242D02*
X0082477Y0235242D01*
X0084012Y0236009D02*
X0085547Y0237544D01*
X0085547Y0232940D01*
X0087081Y0232940D02*
X0084012Y0232940D01*
X0088616Y0232940D02*
X0091685Y0236009D01*
X0091685Y0236777D01*
X0090918Y0237544D01*
X0089383Y0237544D01*
X0088616Y0236777D01*
X0088616Y0232940D02*
X0091685Y0232940D01*
X0093220Y0232940D02*
X0096289Y0232940D01*
X0094754Y0235242D02*
X0093220Y0235242D01*
X0093220Y0237544D02*
X0093220Y0232940D01*
X0093220Y0237544D02*
X0096289Y0237544D01*
X0079571Y0231059D02*
X0079571Y0227990D01*
X0076502Y0231059D01*
X0075735Y0231059D01*
X0074967Y0230292D01*
X0074967Y0228757D01*
X0075735Y0227990D01*
X0075735Y0226455D02*
X0076502Y0226455D01*
X0077269Y0225688D01*
X0077269Y0224153D01*
X0076502Y0223386D01*
X0075735Y0223386D01*
X0074967Y0224153D01*
X0074967Y0225688D01*
X0075735Y0226455D01*
X0077269Y0225688D02*
X0078037Y0226455D01*
X0078804Y0226455D01*
X0079571Y0225688D01*
X0079571Y0224153D01*
X0078804Y0223386D01*
X0078037Y0223386D01*
X0077269Y0224153D01*
X0077269Y0221851D02*
X0075735Y0221851D01*
X0074967Y0221084D01*
X0074967Y0218782D01*
X0079571Y0218782D01*
X0078037Y0218782D02*
X0078037Y0221084D01*
X0077269Y0221851D01*
X0078037Y0217247D02*
X0078804Y0217247D01*
X0079571Y0216480D01*
X0079571Y0214945D01*
X0078804Y0214178D01*
X0079571Y0212643D02*
X0079571Y0209574D01*
X0074967Y0209574D01*
X0074967Y0212643D01*
X0075735Y0214178D02*
X0074967Y0214945D01*
X0074967Y0216480D01*
X0075735Y0217247D01*
X0077269Y0216480D02*
X0078037Y0217247D01*
X0077269Y0216480D02*
X0077269Y0214945D01*
X0076502Y0214178D01*
X0075735Y0214178D01*
X0077269Y0211109D02*
X0077269Y0209574D01*
X0077269Y0232594D02*
X0075735Y0234128D01*
X0068665Y0237544D02*
X0065596Y0237544D01*
X0065596Y0232940D01*
X0065596Y0235242D02*
X0067131Y0235242D01*
X0035511Y0240450D02*
X0030907Y0240450D01*
X0030907Y0242752D01*
X0031675Y0243519D01*
X0033209Y0243519D01*
X0033977Y0242752D01*
X0033977Y0240450D01*
X0033977Y0241985D02*
X0035511Y0243519D01*
X0033209Y0245054D02*
X0033209Y0248123D01*
X0030907Y0247356D02*
X0033209Y0245054D01*
X0035511Y0247356D02*
X0030907Y0247356D01*
X0084036Y0172554D02*
X0085571Y0172554D01*
X0084803Y0172554D02*
X0084803Y0167950D01*
X0084036Y0167950D02*
X0085571Y0167950D01*
X0087105Y0167950D02*
X0087105Y0172554D01*
X0089407Y0172554D01*
X0090175Y0171787D01*
X0090175Y0170252D01*
X0089407Y0169485D01*
X0087105Y0169485D01*
X0088640Y0169485D02*
X0090175Y0167950D01*
X0091709Y0167950D02*
X0091709Y0172554D01*
X0094779Y0172554D01*
X0096313Y0172554D02*
X0099383Y0172554D01*
X0099383Y0171787D01*
X0096313Y0168717D01*
X0096313Y0167950D01*
X0093244Y0170252D02*
X0091709Y0170252D01*
X0100917Y0171787D02*
X0101684Y0172554D01*
X0103219Y0172554D01*
X0103986Y0171787D01*
X0103986Y0171019D01*
X0103219Y0170252D01*
X0103986Y0169485D01*
X0103986Y0168717D01*
X0103219Y0167950D01*
X0101684Y0167950D01*
X0100917Y0168717D01*
X0102452Y0170252D02*
X0103219Y0170252D01*
X0105521Y0168717D02*
X0105521Y0171787D01*
X0106288Y0172554D01*
X0107823Y0172554D01*
X0108590Y0171787D01*
X0105521Y0168717D01*
X0106288Y0167950D01*
X0107823Y0167950D01*
X0108590Y0168717D01*
X0108590Y0171787D01*
X0110125Y0171019D02*
X0111660Y0172554D01*
X0111660Y0167950D01*
X0113194Y0167950D02*
X0110125Y0167950D01*
X0114729Y0167183D02*
X0117798Y0167183D01*
X0119333Y0167950D02*
X0120868Y0169485D01*
X0122402Y0167950D01*
X0122402Y0172554D01*
X0123782Y0172482D02*
X0128986Y0172482D01*
X0128986Y0170779D02*
X0128119Y0169911D01*
X0124649Y0169911D01*
X0125517Y0169044D02*
X0125517Y0170779D01*
X0126384Y0172482D02*
X0125517Y0173349D01*
X0125517Y0175084D01*
X0126384Y0175951D01*
X0128986Y0175951D01*
X0128119Y0177638D02*
X0128986Y0178505D01*
X0128986Y0181108D01*
X0125517Y0181108D01*
X0125517Y0182794D02*
X0125517Y0185397D01*
X0126384Y0186264D01*
X0128119Y0186264D01*
X0128986Y0185397D01*
X0128986Y0182794D01*
X0123782Y0182794D01*
X0125517Y0177638D02*
X0128119Y0177638D01*
X0128119Y0187951D02*
X0128119Y0188818D01*
X0128986Y0188818D01*
X0128986Y0187951D01*
X0128119Y0187951D01*
X0128119Y0190529D02*
X0126384Y0190529D01*
X0125517Y0191396D01*
X0125517Y0193999D01*
X0126384Y0195685D02*
X0125517Y0196553D01*
X0125517Y0198288D01*
X0126384Y0199155D01*
X0128119Y0199155D01*
X0128986Y0198288D01*
X0128986Y0196553D01*
X0128119Y0195685D01*
X0126384Y0195685D01*
X0128986Y0193999D02*
X0128986Y0191396D01*
X0128119Y0190529D01*
X0132182Y0190529D02*
X0133917Y0192264D01*
X0132182Y0193999D01*
X0137386Y0193999D01*
X0136519Y0195685D02*
X0137386Y0196553D01*
X0137386Y0198288D01*
X0136519Y0199155D01*
X0134784Y0199155D01*
X0133917Y0198288D01*
X0133917Y0196553D01*
X0134784Y0195685D01*
X0136519Y0195685D01*
X0137386Y0190529D02*
X0132182Y0190529D01*
X0133917Y0188834D02*
X0133917Y0187967D01*
X0135651Y0186232D01*
X0133917Y0186232D02*
X0137386Y0186232D01*
X0136519Y0184545D02*
X0134784Y0184545D01*
X0133917Y0183678D01*
X0133917Y0181943D01*
X0134784Y0181076D01*
X0136519Y0181076D01*
X0137386Y0181943D01*
X0137386Y0183678D01*
X0136519Y0184545D01*
X0136519Y0179389D02*
X0135651Y0178521D01*
X0135651Y0176787D01*
X0134784Y0175919D01*
X0133917Y0176787D01*
X0133917Y0179389D01*
X0136519Y0179389D02*
X0137386Y0178521D01*
X0137386Y0175919D01*
X0137386Y0174232D02*
X0134784Y0174232D01*
X0133917Y0173365D01*
X0133917Y0170763D01*
X0137386Y0170763D01*
X0135651Y0169076D02*
X0135651Y0165606D01*
X0134784Y0165606D02*
X0136519Y0165606D01*
X0137386Y0166474D01*
X0137386Y0168209D01*
X0135651Y0169076D02*
X0134784Y0169076D01*
X0133917Y0168209D01*
X0133917Y0166474D01*
X0134784Y0165606D01*
X0135651Y0163920D02*
X0134784Y0163052D01*
X0134784Y0161317D01*
X0133917Y0160450D01*
X0133049Y0160450D01*
X0132182Y0161317D01*
X0132182Y0163052D01*
X0133049Y0163920D01*
X0130721Y0163052D02*
X0129854Y0163920D01*
X0125517Y0163920D01*
X0125517Y0161317D01*
X0126384Y0160450D01*
X0128119Y0160450D01*
X0128986Y0161317D01*
X0128986Y0163920D01*
X0128986Y0165606D02*
X0128986Y0167341D01*
X0128986Y0166474D02*
X0125517Y0166474D01*
X0125517Y0165606D01*
X0123782Y0166474D02*
X0122914Y0166474D01*
X0119333Y0167950D02*
X0119333Y0172554D01*
X0130721Y0163052D02*
X0130721Y0162185D01*
X0135651Y0163920D02*
X0136519Y0163920D01*
X0137386Y0163052D01*
X0137386Y0161317D01*
X0136519Y0160450D01*
X0142782Y0153148D02*
X0145084Y0150846D01*
X0145084Y0153915D01*
X0147386Y0153148D02*
X0142782Y0153148D01*
X0143550Y0149311D02*
X0142782Y0148544D01*
X0142782Y0147009D01*
X0143550Y0146242D01*
X0146619Y0146242D01*
X0147386Y0147009D01*
X0147386Y0148544D01*
X0146619Y0149311D01*
X0137386Y0200842D02*
X0133917Y0200842D01*
X0133917Y0203444D01*
X0134784Y0204311D01*
X0137386Y0204311D01*
X0137386Y0205998D02*
X0137386Y0207733D01*
X0137386Y0206866D02*
X0133917Y0206866D01*
X0133917Y0205998D01*
X0132182Y0206866D02*
X0131314Y0206866D01*
X0128986Y0205998D02*
X0123782Y0209468D01*
X0123782Y0211155D02*
X0128986Y0214624D01*
X0123782Y0214624D01*
X0125517Y0216311D02*
X0125517Y0217178D01*
X0128986Y0217178D01*
X0128986Y0216311D02*
X0128986Y0218046D01*
X0128119Y0219749D02*
X0128986Y0220616D01*
X0128986Y0223218D01*
X0128119Y0224905D02*
X0128986Y0225772D01*
X0128986Y0227507D01*
X0128119Y0228375D01*
X0126384Y0228375D01*
X0125517Y0227507D01*
X0125517Y0225772D01*
X0126384Y0224905D01*
X0128119Y0224905D01*
X0125517Y0223218D02*
X0125517Y0220616D01*
X0126384Y0219749D01*
X0128119Y0219749D01*
X0131314Y0223194D02*
X0132182Y0223194D01*
X0133917Y0223194D02*
X0133917Y0222327D01*
X0133917Y0223194D02*
X0137386Y0223194D01*
X0137386Y0222327D02*
X0137386Y0224062D01*
X0137386Y0225764D02*
X0133917Y0225764D01*
X0133917Y0228367D01*
X0134784Y0229234D01*
X0137386Y0229234D01*
X0136519Y0230921D02*
X0137386Y0231788D01*
X0137386Y0234390D01*
X0138254Y0234390D02*
X0139121Y0233523D01*
X0139121Y0232656D01*
X0138254Y0234390D02*
X0133917Y0234390D01*
X0133917Y0231788D01*
X0134784Y0230921D01*
X0136519Y0230921D01*
X0133917Y0220632D02*
X0133917Y0219765D01*
X0135651Y0218030D01*
X0133917Y0218030D02*
X0137386Y0218030D01*
X0136519Y0216343D02*
X0134784Y0216343D01*
X0133917Y0215476D01*
X0133917Y0213741D01*
X0134784Y0212873D01*
X0136519Y0212873D01*
X0137386Y0213741D01*
X0137386Y0215476D01*
X0136519Y0216343D01*
X0137386Y0211171D02*
X0136519Y0210303D01*
X0133049Y0210303D01*
X0133917Y0209436D02*
X0133917Y0211171D01*
X0128986Y0211155D02*
X0123782Y0211155D01*
X0123782Y0217178D02*
X0122914Y0217178D01*
X0123782Y0230061D02*
X0123782Y0233531D01*
X0124649Y0233531D01*
X0128119Y0230061D01*
X0128986Y0230061D01*
X0128986Y0233531D01*
X0128119Y0235218D02*
X0126384Y0235218D01*
X0125517Y0236085D01*
X0125517Y0237820D01*
X0126384Y0238687D01*
X0127251Y0238687D01*
X0127251Y0235218D01*
X0128119Y0235218D02*
X0128986Y0236085D01*
X0128986Y0237820D01*
X0128986Y0240374D02*
X0128986Y0242109D01*
X0128986Y0241242D02*
X0123782Y0241242D01*
X0123782Y0240374D01*
X0123782Y0243812D02*
X0123782Y0244679D01*
X0128986Y0244679D01*
X0128986Y0243812D02*
X0128986Y0245547D01*
X0128986Y0247249D02*
X0128986Y0248984D01*
X0128986Y0248117D02*
X0125517Y0248117D01*
X0125517Y0247249D01*
X0123782Y0248117D02*
X0122914Y0248117D01*
X0125517Y0250687D02*
X0125517Y0253289D01*
X0126384Y0254157D01*
X0128986Y0254157D01*
X0128119Y0255843D02*
X0128986Y0256711D01*
X0128986Y0259313D01*
X0129854Y0259313D02*
X0125517Y0259313D01*
X0125517Y0256711D01*
X0126384Y0255843D01*
X0128119Y0255843D01*
X0130721Y0258446D02*
X0129854Y0259313D01*
X0130721Y0258446D02*
X0130721Y0257578D01*
X0128119Y0261000D02*
X0128986Y0261867D01*
X0128986Y0263602D01*
X0127251Y0264469D02*
X0127251Y0261000D01*
X0126384Y0261000D02*
X0128119Y0261000D01*
X0126384Y0261000D02*
X0125517Y0261867D01*
X0125517Y0263602D01*
X0126384Y0264469D01*
X0127251Y0264469D01*
X0127251Y0266156D02*
X0125517Y0267891D01*
X0125517Y0268758D01*
X0125517Y0266156D02*
X0128986Y0266156D01*
X0128986Y0270453D02*
X0123782Y0273923D01*
X0125517Y0250687D02*
X0128986Y0250687D01*
X0128986Y0204311D02*
X0126384Y0204311D01*
X0125517Y0203444D01*
X0126384Y0202577D01*
X0128986Y0202577D01*
X0128986Y0200842D02*
X0125517Y0200842D01*
X0125517Y0201709D01*
X0126384Y0202577D01*
X0103442Y0136929D02*
X0101907Y0136929D01*
X0101140Y0136162D01*
X0099605Y0136162D02*
X0099605Y0134627D01*
X0098838Y0133860D01*
X0096536Y0133860D01*
X0098071Y0133860D02*
X0099605Y0132325D01*
X0101140Y0133092D02*
X0101907Y0132325D01*
X0103442Y0132325D01*
X0104209Y0133092D01*
X0104209Y0133860D01*
X0103442Y0134627D01*
X0102675Y0134627D01*
X0103442Y0134627D02*
X0104209Y0135394D01*
X0104209Y0136162D01*
X0103442Y0136929D01*
X0099605Y0136162D02*
X0098838Y0136929D01*
X0096536Y0136929D01*
X0096536Y0132325D01*
X0134261Y0062040D02*
X0134261Y0058971D01*
X0134261Y0057436D02*
X0134261Y0054367D01*
X0134261Y0052832D02*
X0132727Y0051298D01*
X0132727Y0052065D02*
X0132727Y0049763D01*
X0134261Y0049763D02*
X0129657Y0049763D01*
X0129657Y0052065D01*
X0130425Y0052832D01*
X0131959Y0052832D01*
X0132727Y0052065D01*
X0131192Y0054367D02*
X0129657Y0055902D01*
X0134261Y0055902D01*
X0134261Y0060506D02*
X0129657Y0060506D01*
X0131192Y0058971D01*
X0139657Y0056669D02*
X0139657Y0055134D01*
X0140425Y0054367D01*
X0143494Y0054367D01*
X0144261Y0055134D01*
X0144261Y0056669D01*
X0143494Y0057436D01*
X0143494Y0058971D02*
X0141959Y0058971D01*
X0141959Y0061273D01*
X0142727Y0062040D01*
X0143494Y0062040D01*
X0144261Y0061273D01*
X0144261Y0059738D01*
X0143494Y0058971D01*
X0141959Y0058971D02*
X0140425Y0060506D01*
X0139657Y0062040D01*
X0140425Y0057436D02*
X0139657Y0056669D01*
D12*
X0142086Y0087750D02*
X0146086Y0087750D01*
X0146146Y0087752D01*
X0146207Y0087757D01*
X0146266Y0087766D01*
X0146325Y0087779D01*
X0146384Y0087795D01*
X0146441Y0087815D01*
X0146496Y0087838D01*
X0146551Y0087865D01*
X0146603Y0087894D01*
X0146654Y0087927D01*
X0146703Y0087963D01*
X0146749Y0088001D01*
X0146793Y0088043D01*
X0146835Y0088087D01*
X0146873Y0088133D01*
X0146909Y0088182D01*
X0146942Y0088233D01*
X0146971Y0088285D01*
X0146998Y0088340D01*
X0147021Y0088395D01*
X0147041Y0088452D01*
X0147057Y0088511D01*
X0147070Y0088570D01*
X0147079Y0088629D01*
X0147084Y0088690D01*
X0147086Y0088750D01*
X0147086Y0131750D01*
X0147084Y0131810D01*
X0147079Y0131871D01*
X0147070Y0131930D01*
X0147057Y0131989D01*
X0147041Y0132048D01*
X0147021Y0132105D01*
X0146998Y0132160D01*
X0146971Y0132215D01*
X0146942Y0132267D01*
X0146909Y0132318D01*
X0146873Y0132367D01*
X0146835Y0132413D01*
X0146793Y0132457D01*
X0146749Y0132499D01*
X0146703Y0132537D01*
X0146654Y0132573D01*
X0146603Y0132606D01*
X0146551Y0132635D01*
X0146496Y0132662D01*
X0146441Y0132685D01*
X0146384Y0132705D01*
X0146325Y0132721D01*
X0146266Y0132734D01*
X0146207Y0132743D01*
X0146146Y0132748D01*
X0146086Y0132750D01*
X0142086Y0132750D01*
X0133086Y0132750D02*
X0129086Y0132750D01*
X0129026Y0132748D01*
X0128965Y0132743D01*
X0128906Y0132734D01*
X0128847Y0132721D01*
X0128788Y0132705D01*
X0128731Y0132685D01*
X0128676Y0132662D01*
X0128621Y0132635D01*
X0128569Y0132606D01*
X0128518Y0132573D01*
X0128469Y0132537D01*
X0128423Y0132499D01*
X0128379Y0132457D01*
X0128337Y0132413D01*
X0128299Y0132367D01*
X0128263Y0132318D01*
X0128230Y0132267D01*
X0128201Y0132215D01*
X0128174Y0132160D01*
X0128151Y0132105D01*
X0128131Y0132048D01*
X0128115Y0131989D01*
X0128102Y0131930D01*
X0128093Y0131871D01*
X0128088Y0131810D01*
X0128086Y0131750D01*
X0128086Y0088750D01*
X0128088Y0088690D01*
X0128093Y0088629D01*
X0128102Y0088570D01*
X0128115Y0088511D01*
X0128131Y0088452D01*
X0128151Y0088395D01*
X0128174Y0088340D01*
X0128201Y0088285D01*
X0128230Y0088233D01*
X0128263Y0088182D01*
X0128299Y0088133D01*
X0128337Y0088087D01*
X0128379Y0088043D01*
X0128423Y0088001D01*
X0128469Y0087963D01*
X0128518Y0087927D01*
X0128569Y0087894D01*
X0128621Y0087865D01*
X0128676Y0087838D01*
X0128731Y0087815D01*
X0128788Y0087795D01*
X0128847Y0087779D01*
X0128906Y0087766D01*
X0128965Y0087757D01*
X0129026Y0087752D01*
X0129086Y0087750D01*
X0133086Y0087750D01*
X0135086Y0107750D02*
X0137586Y0107750D01*
X0140086Y0107750D01*
X0140086Y0109250D02*
X0140086Y0111250D01*
X0135086Y0111250D01*
X0135086Y0109250D01*
X0140086Y0109250D01*
X0140086Y0112750D02*
X0137586Y0112750D01*
X0135086Y0112750D01*
X0038836Y0019000D02*
X0038836Y0014000D01*
X0036336Y0011500D01*
X0031336Y0011500D01*
X0028836Y0014000D01*
X0026336Y0011500D01*
X0021336Y0011500D01*
X0018836Y0014000D01*
X0018836Y0019000D01*
X0021336Y0021500D01*
X0026336Y0021500D01*
X0028836Y0019000D01*
X0031336Y0021500D01*
X0036336Y0021500D01*
X0038836Y0019000D01*
X0028836Y0019000D02*
X0028836Y0014000D01*
X0011969Y0141175D02*
X0008766Y0141175D01*
X0011969Y0141175D02*
X0013036Y0142243D01*
X0013036Y0145445D01*
X0008766Y0145445D01*
X0008766Y0147620D02*
X0008766Y0150823D01*
X0009833Y0151891D01*
X0013036Y0151891D01*
X0013036Y0154066D02*
X0013036Y0156201D01*
X0013036Y0155134D02*
X0008766Y0155134D01*
X0008766Y0154066D01*
X0006631Y0155134D02*
X0005563Y0155134D01*
X0008766Y0158363D02*
X0013036Y0160498D01*
X0008766Y0162633D01*
X0009833Y0164808D02*
X0008766Y0165876D01*
X0008766Y0168011D01*
X0009833Y0169079D01*
X0010901Y0169079D01*
X0010901Y0164808D01*
X0011969Y0164808D02*
X0009833Y0164808D01*
X0011969Y0164808D02*
X0013036Y0165876D01*
X0013036Y0168011D01*
X0013036Y0171254D02*
X0008766Y0171254D01*
X0010901Y0171254D02*
X0008766Y0173389D01*
X0008766Y0174457D01*
X0009833Y0176625D02*
X0008766Y0177693D01*
X0008766Y0180896D01*
X0010901Y0179828D02*
X0010901Y0177693D01*
X0009833Y0176625D01*
X0010901Y0179828D02*
X0011969Y0180896D01*
X0013036Y0179828D01*
X0013036Y0176625D01*
X0011969Y0183071D02*
X0010901Y0184138D01*
X0010901Y0187341D01*
X0009833Y0187341D02*
X0013036Y0187341D01*
X0013036Y0184138D01*
X0011969Y0183071D01*
X0008766Y0186273D02*
X0009833Y0187341D01*
X0008766Y0186273D02*
X0008766Y0184138D01*
X0006631Y0189516D02*
X0006631Y0190584D01*
X0013036Y0190584D01*
X0013036Y0191651D02*
X0013036Y0189516D01*
X0017131Y0183071D02*
X0023536Y0183071D01*
X0021401Y0183071D02*
X0023536Y0186273D01*
X0021401Y0183071D02*
X0019266Y0186273D01*
X0019266Y0180902D02*
X0019266Y0179835D01*
X0021401Y0177699D01*
X0023536Y0177699D02*
X0019266Y0177699D01*
X0020333Y0175524D02*
X0019266Y0174457D01*
X0019266Y0172322D01*
X0020333Y0171254D01*
X0022469Y0171254D01*
X0023536Y0172322D01*
X0023536Y0174457D01*
X0022469Y0175524D01*
X0020333Y0175524D01*
X0019266Y0169079D02*
X0022469Y0169079D01*
X0023536Y0168011D01*
X0022469Y0166944D01*
X0023536Y0165876D01*
X0022469Y0164808D01*
X0019266Y0164808D01*
X0019266Y0162647D02*
X0019266Y0160511D01*
X0018198Y0161579D02*
X0022469Y0161579D01*
X0023536Y0162647D01*
X0021401Y0158336D02*
X0020333Y0158336D01*
X0019266Y0157269D01*
X0019266Y0155134D01*
X0020333Y0154066D01*
X0022469Y0154066D01*
X0023536Y0155134D01*
X0023536Y0157269D01*
X0021401Y0158336D02*
X0021401Y0154066D01*
X0020333Y0151891D02*
X0023536Y0151891D01*
X0023536Y0147620D02*
X0019266Y0147620D01*
X0019266Y0150823D01*
X0020333Y0151891D01*
X0013036Y0147620D02*
X0008766Y0147620D01*
X0019266Y0194887D02*
X0019266Y0195955D01*
X0020333Y0197023D01*
X0019266Y0198090D01*
X0020333Y0199158D01*
X0023536Y0199158D01*
X0023536Y0197023D02*
X0020333Y0197023D01*
X0019266Y0194887D02*
X0023536Y0194887D01*
X0022469Y0201333D02*
X0020333Y0201333D01*
X0019266Y0202401D01*
X0019266Y0204536D01*
X0020333Y0205603D01*
X0022469Y0205603D01*
X0023536Y0204536D01*
X0023536Y0202401D01*
X0022469Y0201333D01*
X0022469Y0207778D02*
X0020333Y0207778D01*
X0019266Y0208846D01*
X0019266Y0212049D01*
X0019266Y0214224D02*
X0022469Y0214224D01*
X0023536Y0215292D01*
X0023536Y0218494D01*
X0019266Y0218494D01*
X0017131Y0220669D02*
X0017131Y0221737D01*
X0023536Y0221737D01*
X0023536Y0220669D02*
X0023536Y0222805D01*
X0022469Y0224966D02*
X0020333Y0224966D01*
X0019266Y0226034D01*
X0019266Y0228169D01*
X0020333Y0229237D01*
X0021401Y0229237D01*
X0021401Y0224966D01*
X0022469Y0224966D02*
X0023536Y0226034D01*
X0023536Y0228169D01*
X0019266Y0237857D02*
X0023536Y0239993D01*
X0019266Y0242128D01*
X0022469Y0244303D02*
X0022469Y0245371D01*
X0023536Y0245371D01*
X0023536Y0244303D01*
X0022469Y0244303D01*
X0023536Y0247526D02*
X0023536Y0251796D01*
X0023536Y0249661D02*
X0017131Y0249661D01*
X0019266Y0247526D01*
X0022469Y0253971D02*
X0022469Y0255039D01*
X0023536Y0255039D01*
X0023536Y0253971D01*
X0022469Y0253971D01*
X0022469Y0257194D02*
X0018198Y0261464D01*
X0022469Y0261464D01*
X0023536Y0260397D01*
X0023536Y0258262D01*
X0022469Y0257194D01*
X0018198Y0257194D01*
X0017131Y0258262D01*
X0017131Y0260397D01*
X0018198Y0261464D01*
X0013036Y0261484D02*
X0008766Y0261484D01*
X0008766Y0260417D01*
X0008766Y0258242D02*
X0008766Y0255039D01*
X0009833Y0253971D01*
X0010901Y0255039D01*
X0010901Y0257174D01*
X0011969Y0258242D01*
X0013036Y0257174D01*
X0013036Y0253971D01*
X0013036Y0251809D02*
X0013036Y0249674D01*
X0013036Y0250742D02*
X0008766Y0250742D01*
X0008766Y0249674D01*
X0008766Y0247499D02*
X0013036Y0247499D01*
X0013036Y0244296D01*
X0011969Y0243229D01*
X0008766Y0243229D01*
X0008766Y0241054D02*
X0008766Y0237851D01*
X0009833Y0236783D01*
X0011969Y0236783D01*
X0013036Y0237851D01*
X0013036Y0241054D01*
X0015171Y0241054D02*
X0008766Y0241054D01*
X0009833Y0234608D02*
X0013036Y0234608D01*
X0013036Y0231405D01*
X0011969Y0230338D01*
X0010901Y0231405D01*
X0010901Y0234608D01*
X0009833Y0234608D02*
X0008766Y0233540D01*
X0008766Y0231405D01*
X0009833Y0221717D02*
X0008766Y0220649D01*
X0008766Y0218514D01*
X0010901Y0218514D02*
X0010901Y0221717D01*
X0009833Y0221717D02*
X0013036Y0221717D01*
X0013036Y0218514D01*
X0011969Y0217447D01*
X0010901Y0218514D01*
X0013036Y0215285D02*
X0011969Y0214217D01*
X0007698Y0214217D01*
X0008766Y0213150D02*
X0008766Y0215285D01*
X0009833Y0210975D02*
X0008766Y0209907D01*
X0008766Y0207772D01*
X0010901Y0207772D02*
X0010901Y0210975D01*
X0009833Y0210975D02*
X0013036Y0210975D01*
X0013036Y0207772D01*
X0011969Y0206704D01*
X0010901Y0207772D01*
X0008766Y0204529D02*
X0008766Y0201326D01*
X0009833Y0200259D01*
X0011969Y0200259D01*
X0013036Y0201326D01*
X0013036Y0204529D01*
X0006631Y0204529D01*
X0017131Y0212049D02*
X0023536Y0212049D01*
X0023536Y0208846D01*
X0022469Y0207778D01*
X0006631Y0250742D02*
X0005563Y0250742D01*
X0005563Y0261484D02*
X0006631Y0261484D01*
X0008766Y0264714D02*
X0008766Y0266849D01*
X0007698Y0265781D02*
X0011969Y0265781D01*
X0013036Y0266849D01*
X0013036Y0269011D02*
X0013036Y0271146D01*
X0013036Y0270078D02*
X0008766Y0270078D01*
X0008766Y0269011D01*
X0006631Y0270078D02*
X0005563Y0270078D01*
X0009833Y0273308D02*
X0008766Y0274375D01*
X0008766Y0276510D01*
X0009833Y0277578D01*
X0011969Y0277578D01*
X0013036Y0276510D01*
X0013036Y0274375D01*
X0011969Y0273308D01*
X0009833Y0273308D01*
X0008766Y0279753D02*
X0008766Y0282956D01*
X0009833Y0284023D01*
X0013036Y0284023D01*
X0013036Y0279753D02*
X0008766Y0279753D01*
X0013036Y0262552D02*
X0013036Y0260417D01*
D13*
X0045711Y0283882D02*
X0045711Y0189000D01*
X0109491Y0189000D01*
X0109491Y0283882D01*
X0045711Y0283882D01*
X0045593Y0164500D02*
X0045595Y0164566D01*
X0045601Y0164632D01*
X0045611Y0164698D01*
X0045624Y0164763D01*
X0045642Y0164827D01*
X0045663Y0164889D01*
X0045688Y0164951D01*
X0045716Y0165011D01*
X0045748Y0165069D01*
X0045784Y0165125D01*
X0045822Y0165178D01*
X0045864Y0165230D01*
X0045909Y0165279D01*
X0045956Y0165325D01*
X0046007Y0165368D01*
X0046059Y0165408D01*
X0046114Y0165445D01*
X0046171Y0165479D01*
X0046230Y0165509D01*
X0046291Y0165536D01*
X0046353Y0165559D01*
X0046416Y0165578D01*
X0046481Y0165594D01*
X0046546Y0165606D01*
X0046612Y0165614D01*
X0046678Y0165618D01*
X0046744Y0165618D01*
X0046810Y0165614D01*
X0046876Y0165606D01*
X0046941Y0165594D01*
X0047006Y0165578D01*
X0047069Y0165559D01*
X0047131Y0165536D01*
X0047192Y0165509D01*
X0047251Y0165479D01*
X0047308Y0165445D01*
X0047363Y0165408D01*
X0047415Y0165368D01*
X0047466Y0165325D01*
X0047513Y0165279D01*
X0047558Y0165230D01*
X0047600Y0165178D01*
X0047638Y0165125D01*
X0047674Y0165069D01*
X0047706Y0165011D01*
X0047734Y0164951D01*
X0047759Y0164889D01*
X0047780Y0164827D01*
X0047798Y0164763D01*
X0047811Y0164698D01*
X0047821Y0164632D01*
X0047827Y0164566D01*
X0047829Y0164500D01*
X0047827Y0164434D01*
X0047821Y0164368D01*
X0047811Y0164302D01*
X0047798Y0164237D01*
X0047780Y0164173D01*
X0047759Y0164111D01*
X0047734Y0164049D01*
X0047706Y0163989D01*
X0047674Y0163931D01*
X0047638Y0163875D01*
X0047600Y0163822D01*
X0047558Y0163770D01*
X0047513Y0163721D01*
X0047466Y0163675D01*
X0047415Y0163632D01*
X0047363Y0163592D01*
X0047308Y0163555D01*
X0047251Y0163521D01*
X0047192Y0163491D01*
X0047131Y0163464D01*
X0047069Y0163441D01*
X0047006Y0163422D01*
X0046941Y0163406D01*
X0046876Y0163394D01*
X0046810Y0163386D01*
X0046744Y0163382D01*
X0046678Y0163382D01*
X0046612Y0163386D01*
X0046546Y0163394D01*
X0046481Y0163406D01*
X0046416Y0163422D01*
X0046353Y0163441D01*
X0046291Y0163464D01*
X0046230Y0163491D01*
X0046171Y0163521D01*
X0046114Y0163555D01*
X0046059Y0163592D01*
X0046007Y0163632D01*
X0045956Y0163675D01*
X0045909Y0163721D01*
X0045864Y0163770D01*
X0045822Y0163822D01*
X0045784Y0163875D01*
X0045748Y0163931D01*
X0045716Y0163989D01*
X0045688Y0164049D01*
X0045663Y0164111D01*
X0045642Y0164173D01*
X0045624Y0164237D01*
X0045611Y0164302D01*
X0045601Y0164368D01*
X0045595Y0164434D01*
X0045593Y0164500D01*
X0039397Y0117091D02*
X0047271Y0115122D01*
X0047271Y0111185D01*
X0047271Y0075752D01*
X0030539Y0075752D01*
X0030539Y0070831D01*
X0024633Y0070831D01*
X0024633Y0065909D01*
X0030539Y0065909D01*
X0030539Y0070831D01*
X0034476Y0070831D02*
X0034476Y0065909D01*
X0040381Y0065909D01*
X0040381Y0070831D01*
X0034476Y0070831D01*
X0034476Y0075752D01*
X0030539Y0075752D02*
X0024633Y0075752D01*
X0024633Y0070831D01*
X0020696Y0070831D02*
X0020696Y0065909D01*
X0014791Y0065909D01*
X0014791Y0060988D01*
X0020696Y0060988D01*
X0020696Y0065909D01*
X0024633Y0065909D02*
X0024633Y0060988D01*
X0030539Y0060988D01*
X0030539Y0065909D01*
X0034476Y0065909D02*
X0034476Y0060988D01*
X0040381Y0060988D01*
X0040381Y0065909D01*
X0040381Y0070831D02*
X0040381Y0075752D01*
X0045086Y0077750D02*
X0046961Y0075875D01*
X0045303Y0077720D02*
X0045303Y0109217D01*
X0009870Y0109217D01*
X0009870Y0077720D01*
X0045303Y0077720D01*
X0045711Y0058625D02*
X0045711Y0049625D01*
X0025711Y0049625D01*
X0025711Y0029625D01*
X0045711Y0029625D01*
X0045711Y0001625D01*
X0062711Y0001625D01*
X0072711Y0013625D01*
X0097711Y0013625D01*
X0106711Y0001625D01*
X0125711Y0001625D01*
X0125711Y0029625D01*
X0145711Y0029625D01*
X0145711Y0049625D01*
X0125711Y0049625D01*
X0125711Y0057625D01*
X0104711Y0079625D01*
X0065711Y0079625D01*
X0045711Y0058625D01*
X0024633Y0075752D02*
X0007901Y0075752D01*
X0007901Y0111185D01*
X0007901Y0115122D01*
X0015775Y0117091D01*
X0039397Y0117091D01*
X0046961Y0110875D02*
X0045086Y0109000D01*
X0047271Y0111185D02*
X0007901Y0111185D01*
X0008211Y0110875D02*
X0010086Y0109000D01*
X0010086Y0077750D02*
X0008211Y0075875D01*
X0014791Y0075752D02*
X0014791Y0070831D01*
X0020696Y0070831D01*
X0020696Y0075752D01*
X0014791Y0070831D02*
X0014791Y0065909D01*
X0095593Y0164500D02*
X0095595Y0164566D01*
X0095601Y0164632D01*
X0095611Y0164698D01*
X0095624Y0164763D01*
X0095642Y0164827D01*
X0095663Y0164889D01*
X0095688Y0164951D01*
X0095716Y0165011D01*
X0095748Y0165069D01*
X0095784Y0165125D01*
X0095822Y0165178D01*
X0095864Y0165230D01*
X0095909Y0165279D01*
X0095956Y0165325D01*
X0096007Y0165368D01*
X0096059Y0165408D01*
X0096114Y0165445D01*
X0096171Y0165479D01*
X0096230Y0165509D01*
X0096291Y0165536D01*
X0096353Y0165559D01*
X0096416Y0165578D01*
X0096481Y0165594D01*
X0096546Y0165606D01*
X0096612Y0165614D01*
X0096678Y0165618D01*
X0096744Y0165618D01*
X0096810Y0165614D01*
X0096876Y0165606D01*
X0096941Y0165594D01*
X0097006Y0165578D01*
X0097069Y0165559D01*
X0097131Y0165536D01*
X0097192Y0165509D01*
X0097251Y0165479D01*
X0097308Y0165445D01*
X0097363Y0165408D01*
X0097415Y0165368D01*
X0097466Y0165325D01*
X0097513Y0165279D01*
X0097558Y0165230D01*
X0097600Y0165178D01*
X0097638Y0165125D01*
X0097674Y0165069D01*
X0097706Y0165011D01*
X0097734Y0164951D01*
X0097759Y0164889D01*
X0097780Y0164827D01*
X0097798Y0164763D01*
X0097811Y0164698D01*
X0097821Y0164632D01*
X0097827Y0164566D01*
X0097829Y0164500D01*
X0097827Y0164434D01*
X0097821Y0164368D01*
X0097811Y0164302D01*
X0097798Y0164237D01*
X0097780Y0164173D01*
X0097759Y0164111D01*
X0097734Y0164049D01*
X0097706Y0163989D01*
X0097674Y0163931D01*
X0097638Y0163875D01*
X0097600Y0163822D01*
X0097558Y0163770D01*
X0097513Y0163721D01*
X0097466Y0163675D01*
X0097415Y0163632D01*
X0097363Y0163592D01*
X0097308Y0163555D01*
X0097251Y0163521D01*
X0097192Y0163491D01*
X0097131Y0163464D01*
X0097069Y0163441D01*
X0097006Y0163422D01*
X0096941Y0163406D01*
X0096876Y0163394D01*
X0096810Y0163386D01*
X0096744Y0163382D01*
X0096678Y0163382D01*
X0096612Y0163386D01*
X0096546Y0163394D01*
X0096481Y0163406D01*
X0096416Y0163422D01*
X0096353Y0163441D01*
X0096291Y0163464D01*
X0096230Y0163491D01*
X0096171Y0163521D01*
X0096114Y0163555D01*
X0096059Y0163592D01*
X0096007Y0163632D01*
X0095956Y0163675D01*
X0095909Y0163721D01*
X0095864Y0163770D01*
X0095822Y0163822D01*
X0095784Y0163875D01*
X0095748Y0163931D01*
X0095716Y0163989D01*
X0095688Y0164049D01*
X0095663Y0164111D01*
X0095642Y0164173D01*
X0095624Y0164237D01*
X0095611Y0164302D01*
X0095601Y0164368D01*
X0095595Y0164434D01*
X0095593Y0164500D01*
X0118833Y0131813D02*
X0118082Y0131062D01*
X0118082Y0129561D01*
X0118833Y0128810D01*
X0119584Y0128810D01*
X0120334Y0129561D01*
X0120334Y0131813D01*
X0121835Y0131813D02*
X0118833Y0131813D01*
X0121835Y0131813D02*
X0122586Y0131062D01*
X0122586Y0129561D01*
X0121835Y0128810D01*
X0120334Y0127209D02*
X0120334Y0124206D01*
X0118082Y0126458D01*
X0122586Y0126458D01*
X0121835Y0122605D02*
X0122586Y0121854D01*
X0122586Y0120353D01*
X0121835Y0119602D01*
X0118833Y0119602D01*
X0118082Y0120353D01*
X0118082Y0121854D01*
X0118833Y0122605D01*
X0118082Y0118001D02*
X0122586Y0118001D01*
X0122586Y0114999D02*
X0118082Y0114999D01*
X0120334Y0114999D02*
X0120334Y0118001D01*
X0120334Y0113397D02*
X0120334Y0110395D01*
X0118833Y0108793D02*
X0121835Y0105791D01*
X0122586Y0105791D01*
X0122586Y0108793D01*
X0122586Y0104189D02*
X0121085Y0102688D01*
X0121085Y0103439D02*
X0121085Y0101187D01*
X0122586Y0101187D02*
X0118082Y0101187D01*
X0118082Y0103439D01*
X0118833Y0104189D01*
X0120334Y0104189D01*
X0121085Y0103439D01*
X0120334Y0099585D02*
X0120334Y0096583D01*
X0119584Y0096583D02*
X0118082Y0098084D01*
X0119584Y0099585D01*
X0122586Y0099585D01*
X0122586Y0096583D02*
X0119584Y0096583D01*
X0118082Y0094981D02*
X0121835Y0094981D01*
X0122586Y0094231D01*
X0122586Y0092730D01*
X0121835Y0091979D01*
X0118082Y0091979D01*
X0118833Y0090378D02*
X0121835Y0090378D01*
X0122586Y0089627D01*
X0122586Y0088126D01*
X0121835Y0087375D01*
X0118833Y0087375D01*
X0118082Y0088126D01*
X0118082Y0089627D01*
X0118833Y0090378D01*
X0121085Y0088876D02*
X0122586Y0090378D01*
X0118082Y0105791D02*
X0118082Y0108793D01*
X0118833Y0108793D01*
D14*
X0129586Y0096750D02*
X0129586Y0123750D01*
X0132586Y0123750D02*
X0132586Y0096750D01*
X0132588Y0096617D01*
X0132593Y0096485D01*
X0132602Y0096353D01*
X0132614Y0096220D01*
X0132630Y0096089D01*
X0132649Y0095957D01*
X0132672Y0095827D01*
X0132698Y0095697D01*
X0132728Y0095567D01*
X0132761Y0095439D01*
X0132797Y0095311D01*
X0132837Y0095185D01*
X0132880Y0095059D01*
X0132927Y0094935D01*
X0132977Y0094812D01*
X0133030Y0094691D01*
X0133086Y0094571D01*
X0142086Y0090136D02*
X0142246Y0090247D01*
X0142402Y0090362D01*
X0142556Y0090481D01*
X0142708Y0090604D01*
X0142856Y0090731D01*
X0143000Y0090861D01*
X0143142Y0090994D01*
X0143281Y0091131D01*
X0143416Y0091271D01*
X0143547Y0091415D01*
X0143675Y0091561D01*
X0143800Y0091711D01*
X0143920Y0091864D01*
X0144037Y0092019D01*
X0144151Y0092178D01*
X0144260Y0092339D01*
X0144365Y0092503D01*
X0144467Y0092669D01*
X0144564Y0092837D01*
X0144657Y0093008D01*
X0144746Y0093182D01*
X0144831Y0093357D01*
X0144911Y0093534D01*
X0144987Y0093713D01*
X0145059Y0093894D01*
X0145126Y0094077D01*
X0145189Y0094261D01*
X0145247Y0094447D01*
X0145301Y0094634D01*
X0145350Y0094823D01*
X0145395Y0095012D01*
X0145435Y0095203D01*
X0145470Y0095394D01*
X0145501Y0095586D01*
X0145527Y0095779D01*
X0145548Y0095973D01*
X0145565Y0096167D01*
X0145577Y0096361D01*
X0145584Y0096556D01*
X0145586Y0096750D01*
X0145586Y0123750D01*
X0142586Y0123750D02*
X0142586Y0096750D01*
X0142584Y0096617D01*
X0142579Y0096485D01*
X0142570Y0096353D01*
X0142558Y0096220D01*
X0142542Y0096089D01*
X0142523Y0095957D01*
X0142500Y0095827D01*
X0142474Y0095697D01*
X0142444Y0095567D01*
X0142411Y0095439D01*
X0142375Y0095311D01*
X0142335Y0095185D01*
X0142292Y0095059D01*
X0142245Y0094935D01*
X0142195Y0094812D01*
X0142142Y0094691D01*
X0142086Y0094571D01*
X0133086Y0090135D02*
X0132927Y0090247D01*
X0132770Y0090362D01*
X0132616Y0090481D01*
X0132465Y0090604D01*
X0132317Y0090731D01*
X0132172Y0090861D01*
X0132030Y0090994D01*
X0131892Y0091131D01*
X0131757Y0091271D01*
X0131625Y0091415D01*
X0131497Y0091561D01*
X0131373Y0091711D01*
X0131252Y0091864D01*
X0131135Y0092019D01*
X0131022Y0092178D01*
X0130912Y0092339D01*
X0130807Y0092502D01*
X0130705Y0092669D01*
X0130608Y0092837D01*
X0130515Y0093008D01*
X0130426Y0093181D01*
X0130341Y0093357D01*
X0130261Y0093534D01*
X0130185Y0093713D01*
X0130113Y0093894D01*
X0130046Y0094077D01*
X0129983Y0094261D01*
X0129925Y0094447D01*
X0129871Y0094634D01*
X0129822Y0094822D01*
X0129777Y0095012D01*
X0129737Y0095202D01*
X0129702Y0095394D01*
X0129671Y0095586D01*
X0129645Y0095779D01*
X0129624Y0095972D01*
X0129607Y0096166D01*
X0129595Y0096361D01*
X0129588Y0096555D01*
X0129586Y0096750D01*
X0137586Y0106250D02*
X0137586Y0107750D01*
X0137586Y0112750D02*
X0137586Y0114250D01*
X0145586Y0123750D02*
X0145584Y0123945D01*
X0145577Y0124140D01*
X0145565Y0124334D01*
X0145548Y0124528D01*
X0145527Y0124721D01*
X0145501Y0124914D01*
X0145470Y0125107D01*
X0145435Y0125298D01*
X0145395Y0125489D01*
X0145350Y0125678D01*
X0145301Y0125866D01*
X0145247Y0126054D01*
X0145189Y0126239D01*
X0145126Y0126424D01*
X0145059Y0126606D01*
X0144987Y0126787D01*
X0144911Y0126966D01*
X0144831Y0127144D01*
X0144746Y0127319D01*
X0144657Y0127492D01*
X0144564Y0127663D01*
X0144466Y0127832D01*
X0144365Y0127998D01*
X0144260Y0128162D01*
X0144150Y0128323D01*
X0144037Y0128481D01*
X0143920Y0128637D01*
X0143799Y0128789D01*
X0143675Y0128939D01*
X0143547Y0129086D01*
X0143415Y0129229D01*
X0143280Y0129369D01*
X0143142Y0129506D01*
X0143000Y0129640D01*
X0142855Y0129770D01*
X0142707Y0129896D01*
X0142556Y0130019D01*
X0142402Y0130138D01*
X0142245Y0130253D01*
X0142086Y0130365D01*
X0133086Y0130364D02*
X0132926Y0130253D01*
X0132770Y0130138D01*
X0132616Y0130019D01*
X0132464Y0129896D01*
X0132316Y0129769D01*
X0132172Y0129639D01*
X0132030Y0129506D01*
X0131891Y0129369D01*
X0131756Y0129229D01*
X0131625Y0129085D01*
X0131497Y0128939D01*
X0131372Y0128789D01*
X0131252Y0128636D01*
X0131135Y0128481D01*
X0131021Y0128322D01*
X0130912Y0128161D01*
X0130807Y0127997D01*
X0130705Y0127831D01*
X0130608Y0127663D01*
X0130515Y0127492D01*
X0130426Y0127318D01*
X0130341Y0127143D01*
X0130261Y0126966D01*
X0130185Y0126787D01*
X0130113Y0126606D01*
X0130046Y0126423D01*
X0129983Y0126239D01*
X0129925Y0126053D01*
X0129871Y0125866D01*
X0129822Y0125677D01*
X0129777Y0125488D01*
X0129737Y0125297D01*
X0129702Y0125106D01*
X0129671Y0124914D01*
X0129645Y0124721D01*
X0129624Y0124527D01*
X0129607Y0124333D01*
X0129595Y0124139D01*
X0129588Y0123944D01*
X0129586Y0123750D01*
X0132586Y0123750D02*
X0132588Y0123883D01*
X0132593Y0124015D01*
X0132602Y0124147D01*
X0132614Y0124280D01*
X0132630Y0124411D01*
X0132649Y0124543D01*
X0132672Y0124673D01*
X0132698Y0124803D01*
X0132728Y0124933D01*
X0132761Y0125061D01*
X0132797Y0125189D01*
X0132837Y0125315D01*
X0132880Y0125441D01*
X0132927Y0125565D01*
X0132977Y0125688D01*
X0133030Y0125809D01*
X0133086Y0125929D01*
X0142086Y0125929D02*
X0142142Y0125809D01*
X0142195Y0125688D01*
X0142245Y0125565D01*
X0142292Y0125441D01*
X0142335Y0125315D01*
X0142375Y0125189D01*
X0142411Y0125061D01*
X0142444Y0124933D01*
X0142474Y0124803D01*
X0142500Y0124673D01*
X0142523Y0124543D01*
X0142542Y0124411D01*
X0142558Y0124280D01*
X0142570Y0124147D01*
X0142579Y0124015D01*
X0142584Y0123883D01*
X0142586Y0123750D01*
D15*
X0019286Y0044967D02*
X0019136Y0045117D01*
X0018535Y0045117D01*
X0018385Y0044967D01*
X0018385Y0044517D01*
X0019286Y0044517D01*
X0019286Y0044967D01*
X0019286Y0044196D02*
X0018385Y0044196D01*
X0018385Y0043596D02*
X0019286Y0044196D01*
X0019286Y0043596D02*
X0018385Y0043596D01*
X0018535Y0043276D02*
X0018385Y0043125D01*
X0018385Y0042825D01*
X0018535Y0042675D01*
X0019136Y0042675D01*
X0019286Y0042825D01*
X0019286Y0043125D01*
X0019136Y0043276D01*
X0018836Y0043276D01*
X0018836Y0042975D01*
X0019136Y0034117D02*
X0018535Y0034117D01*
X0018385Y0033967D01*
X0018385Y0033517D01*
X0019286Y0033517D01*
X0019286Y0033967D01*
X0019136Y0034117D01*
X0019136Y0033196D02*
X0018535Y0033196D01*
X0018385Y0033046D01*
X0018385Y0032596D01*
X0019286Y0032596D01*
X0019286Y0033046D01*
X0019136Y0033196D01*
X0018986Y0032276D02*
X0018385Y0032276D01*
X0018986Y0032276D02*
X0019286Y0031975D01*
X0018986Y0031675D01*
X0018385Y0031675D01*
D16*
X0085711Y0072306D03*
D17*
X0085804Y0072213D03*
M02*
