G75*
%MOIN*%
%OFA0B0*%
%FSLAX25Y25*%
%IPPOS*%
%LPD*%
%AMOC8*
5,1,8,0,0,1.08239X$1,22.5*
%
%ADD10C,0.00000*%
%ADD11C,0.00500*%
%ADD12C,0.09658*%
%ADD13R,0.04800X0.13800*%
D10*
X0005829Y0005829D02*
X0005829Y0105790D01*
X0106030Y0105790D01*
X0106030Y0005829D01*
X0005829Y0005829D01*
D11*
X0105829Y0005829D01*
X0105829Y0105829D01*
X0005829Y0105829D01*
X0005829Y0005829D01*
D12*
X0005829Y0015829D03*
X0005829Y0030829D03*
X0005829Y0045829D03*
X0005829Y0060829D03*
X0005829Y0075829D03*
X0005829Y0090829D03*
X0020829Y0105829D03*
X0035829Y0105829D03*
X0050829Y0105829D03*
X0065829Y0105829D03*
X0080829Y0105829D03*
X0095829Y0105829D03*
X0095829Y0005829D03*
X0080829Y0005829D03*
X0065829Y0005829D03*
X0050829Y0005829D03*
X0035829Y0005829D03*
X0020829Y0005829D03*
D13*
X0018329Y0045829D03*
X0028329Y0045829D03*
X0038329Y0045829D03*
X0048329Y0045829D03*
X0058329Y0045829D03*
X0068329Y0045829D03*
X0078329Y0045829D03*
X0088329Y0045829D03*
X0098329Y0045829D03*
X0098329Y0065829D03*
X0088329Y0065829D03*
X0078329Y0065829D03*
X0068329Y0065829D03*
X0058329Y0065829D03*
X0048329Y0065829D03*
X0038329Y0065829D03*
X0028329Y0065829D03*
X0018329Y0065829D03*
M02*
