G75*
%MOIN*%
%OFA0B0*%
%FSLAX25Y25*%
%IPPOS*%
%LPD*%
%AMOC8*
5,1,8,0,0,1.08239X$1,22.5*
%
%ADD10C,0.00000*%
%ADD11C,0.00500*%
%ADD12C,0.08858*%
%ADD13R,0.04000X0.13000*%
%ADD14C,0.01600*%
D10*
X0005829Y0005829D02*
X0005829Y0105790D01*
X0106030Y0105790D01*
X0106030Y0005829D01*
X0005829Y0005829D01*
D11*
X0105829Y0005829D01*
X0105829Y0105829D01*
X0005829Y0105829D01*
X0005829Y0005829D01*
D12*
X0005829Y0015829D03*
X0005829Y0030829D03*
X0005829Y0045829D03*
X0005829Y0060829D03*
X0005829Y0075829D03*
X0005829Y0090829D03*
X0020829Y0105829D03*
X0035829Y0105829D03*
X0050829Y0105829D03*
X0065829Y0105829D03*
X0080829Y0105829D03*
X0095829Y0105829D03*
X0095829Y0005829D03*
X0080829Y0005829D03*
X0065829Y0005829D03*
X0050829Y0005829D03*
X0035829Y0005829D03*
X0020829Y0005829D03*
D13*
X0018329Y0045829D03*
X0028329Y0045829D03*
X0038329Y0045829D03*
X0048329Y0045829D03*
X0058329Y0045829D03*
X0068329Y0045829D03*
X0078329Y0045829D03*
X0088329Y0045829D03*
X0098329Y0045829D03*
X0098329Y0065829D03*
X0088329Y0065829D03*
X0078329Y0065829D03*
X0068329Y0065829D03*
X0058329Y0065829D03*
X0048329Y0065829D03*
X0038329Y0065829D03*
X0028329Y0065829D03*
X0018329Y0065829D03*
D14*
X0018329Y0060829D01*
X0005829Y0060829D01*
X0011361Y0058429D02*
X0010940Y0057414D01*
X0010879Y0057353D01*
X0010879Y0049306D01*
X0010940Y0049244D01*
X0011361Y0048229D01*
X0014729Y0048229D01*
X0014729Y0052992D01*
X0015666Y0053929D01*
X0020992Y0053929D01*
X0021929Y0052992D01*
X0021929Y0038666D01*
X0020992Y0037729D01*
X0015666Y0037729D01*
X0014729Y0038666D01*
X0014729Y0043429D01*
X0011361Y0043429D01*
X0010940Y0042414D01*
X0010879Y0042353D01*
X0010879Y0034476D01*
X0011157Y0034094D01*
X0011602Y0033220D01*
X0011905Y0032288D01*
X0012029Y0031506D01*
X0010879Y0031506D01*
X0010879Y0030153D01*
X0012029Y0030153D01*
X0011905Y0029370D01*
X0011602Y0028438D01*
X0011157Y0027564D01*
X0010879Y0027182D01*
X0010879Y0019306D01*
X0010940Y0019244D01*
X0011361Y0018229D01*
X0018335Y0018229D01*
X0035929Y0035823D01*
X0035929Y0037729D01*
X0035666Y0037729D01*
X0034729Y0038666D01*
X0034729Y0052992D01*
X0035666Y0053929D01*
X0040992Y0053929D01*
X0041929Y0052992D01*
X0041929Y0038666D01*
X0040992Y0037729D01*
X0040729Y0037729D01*
X0040729Y0034352D01*
X0040364Y0033470D01*
X0021364Y0014470D01*
X0020689Y0013795D01*
X0019807Y0013429D01*
X0011361Y0013429D01*
X0010940Y0012414D01*
X0010879Y0012353D01*
X0010879Y0010879D01*
X0017353Y0010879D01*
X0017414Y0010940D01*
X0019630Y0011858D01*
X0022028Y0011858D01*
X0023044Y0011438D01*
X0045929Y0034323D01*
X0045929Y0037729D01*
X0045666Y0037729D01*
X0044729Y0038666D01*
X0044729Y0052992D01*
X0045666Y0053929D01*
X0050992Y0053929D01*
X0051929Y0052992D01*
X0051929Y0038666D01*
X0050992Y0037729D01*
X0050729Y0037729D01*
X0050729Y0032852D01*
X0050364Y0031970D01*
X0049689Y0031295D01*
X0029273Y0010879D01*
X0032353Y0010879D01*
X0032414Y0010940D01*
X0034630Y0011858D01*
X0037028Y0011858D01*
X0038044Y0011438D01*
X0055929Y0029323D01*
X0055929Y0037729D01*
X0055666Y0037729D01*
X0054729Y0038666D01*
X0054729Y0052992D01*
X0055666Y0053929D01*
X0060992Y0053929D01*
X0061929Y0052992D01*
X0061929Y0038666D01*
X0060992Y0037729D01*
X0060729Y0037729D01*
X0060729Y0027852D01*
X0060364Y0026970D01*
X0059689Y0026295D01*
X0044273Y0010879D01*
X0047353Y0010879D01*
X0047414Y0010940D01*
X0049630Y0011858D01*
X0052028Y0011858D01*
X0053044Y0011438D01*
X0065929Y0024323D01*
X0065929Y0037729D01*
X0065666Y0037729D01*
X0064729Y0038666D01*
X0064729Y0052992D01*
X0065666Y0053929D01*
X0070992Y0053929D01*
X0071929Y0052992D01*
X0071929Y0038666D01*
X0070992Y0037729D01*
X0070729Y0037729D01*
X0070729Y0022852D01*
X0070364Y0021970D01*
X0069689Y0021295D01*
X0059273Y0010879D01*
X0062353Y0010879D01*
X0062414Y0010940D01*
X0064630Y0011858D01*
X0067028Y0011858D01*
X0068044Y0011438D01*
X0075929Y0019323D01*
X0075929Y0037729D01*
X0075666Y0037729D01*
X0074729Y0038666D01*
X0074729Y0052992D01*
X0075666Y0053929D01*
X0080992Y0053929D01*
X0081929Y0052992D01*
X0081929Y0038666D01*
X0080992Y0037729D01*
X0080729Y0037729D01*
X0080729Y0017852D01*
X0080364Y0016970D01*
X0079689Y0016295D01*
X0074273Y0010879D01*
X0077353Y0010879D01*
X0077414Y0010940D01*
X0079630Y0011858D01*
X0082028Y0011858D01*
X0083044Y0011438D01*
X0085929Y0014323D01*
X0085929Y0037729D01*
X0085666Y0037729D01*
X0084729Y0038666D01*
X0084729Y0052992D01*
X0085666Y0053929D01*
X0090992Y0053929D01*
X0091929Y0052992D01*
X0091929Y0038666D01*
X0090992Y0037729D01*
X0090729Y0037729D01*
X0090729Y0012852D01*
X0090364Y0011970D01*
X0089689Y0011295D01*
X0089273Y0010879D01*
X0092353Y0010879D01*
X0092414Y0010940D01*
X0094630Y0011858D01*
X0095929Y0011858D01*
X0095929Y0037729D01*
X0095666Y0037729D01*
X0094729Y0038666D01*
X0094729Y0052992D01*
X0095666Y0053929D01*
X0100779Y0053929D01*
X0100779Y0057729D01*
X0095666Y0057729D01*
X0094729Y0058666D01*
X0094729Y0072992D01*
X0095666Y0073929D01*
X0095929Y0073929D01*
X0095929Y0099800D01*
X0094630Y0099800D01*
X0092414Y0100718D01*
X0092353Y0100779D01*
X0089273Y0100779D01*
X0089689Y0100364D01*
X0089689Y0100364D01*
X0090364Y0099689D01*
X0090729Y0098807D01*
X0090729Y0073929D01*
X0090992Y0073929D01*
X0091929Y0072992D01*
X0091929Y0058666D01*
X0090992Y0057729D01*
X0085666Y0057729D01*
X0084729Y0058666D01*
X0084729Y0072992D01*
X0085666Y0073929D01*
X0085929Y0073929D01*
X0085929Y0097335D01*
X0083044Y0100221D01*
X0082028Y0099800D01*
X0079630Y0099800D01*
X0077414Y0100718D01*
X0077353Y0100779D01*
X0074273Y0100779D01*
X0079689Y0095364D01*
X0080364Y0094689D01*
X0080729Y0093807D01*
X0080729Y0073929D01*
X0080992Y0073929D01*
X0081929Y0072992D01*
X0081929Y0058666D01*
X0080992Y0057729D01*
X0075666Y0057729D01*
X0074729Y0058666D01*
X0074729Y0072992D01*
X0075666Y0073929D01*
X0075929Y0073929D01*
X0075929Y0092335D01*
X0068044Y0100221D01*
X0067028Y0099800D01*
X0064630Y0099800D01*
X0062414Y0100718D01*
X0062353Y0100779D01*
X0059273Y0100779D01*
X0069689Y0090364D01*
X0070364Y0089689D01*
X0070729Y0088807D01*
X0070729Y0073929D01*
X0070992Y0073929D01*
X0071929Y0072992D01*
X0071929Y0058666D01*
X0070992Y0057729D01*
X0065666Y0057729D01*
X0064729Y0058666D01*
X0064729Y0072992D01*
X0065666Y0073929D01*
X0065929Y0073929D01*
X0065929Y0087335D01*
X0053044Y0100221D01*
X0052028Y0099800D01*
X0049630Y0099800D01*
X0047414Y0100718D01*
X0047353Y0100779D01*
X0044273Y0100779D01*
X0059689Y0085364D01*
X0060364Y0084689D01*
X0060729Y0083807D01*
X0060729Y0073929D01*
X0060992Y0073929D01*
X0061929Y0072992D01*
X0061929Y0058666D01*
X0060992Y0057729D01*
X0055666Y0057729D01*
X0054729Y0058666D01*
X0054729Y0072992D01*
X0055666Y0073929D01*
X0055929Y0073929D01*
X0055929Y0082335D01*
X0038044Y0100221D01*
X0037028Y0099800D01*
X0034630Y0099800D01*
X0032414Y0100718D01*
X0032353Y0100779D01*
X0029273Y0100779D01*
X0050364Y0079689D01*
X0050729Y0078807D01*
X0050729Y0073929D01*
X0050992Y0073929D01*
X0051929Y0072992D01*
X0051929Y0058666D01*
X0050992Y0057729D01*
X0045666Y0057729D01*
X0044729Y0058666D01*
X0044729Y0072992D01*
X0045666Y0073929D01*
X0045929Y0073929D01*
X0045929Y0077335D01*
X0023044Y0100221D01*
X0022028Y0099800D01*
X0019630Y0099800D01*
X0017414Y0100718D01*
X0017353Y0100779D01*
X0010879Y0100779D01*
X0010879Y0094306D01*
X0010940Y0094244D01*
X0011361Y0093229D01*
X0025307Y0093229D01*
X0026189Y0092864D01*
X0026864Y0092189D01*
X0040364Y0078689D01*
X0040729Y0077807D01*
X0040729Y0073929D01*
X0040992Y0073929D01*
X0041929Y0072992D01*
X0041929Y0058666D01*
X0040992Y0057729D01*
X0035666Y0057729D01*
X0034729Y0058666D01*
X0034729Y0072992D01*
X0035666Y0073929D01*
X0035929Y0073929D01*
X0035929Y0076335D01*
X0023835Y0088429D01*
X0011361Y0088429D01*
X0010940Y0087414D01*
X0010879Y0087353D01*
X0010879Y0079306D01*
X0010940Y0079244D01*
X0011154Y0078729D01*
X0028307Y0078729D01*
X0029189Y0078364D01*
X0029864Y0077689D01*
X0030364Y0077189D01*
X0030729Y0076307D01*
X0030729Y0073929D01*
X0030992Y0073929D01*
X0031929Y0072992D01*
X0031929Y0058666D01*
X0030992Y0057729D01*
X0025666Y0057729D01*
X0024729Y0058666D01*
X0024729Y0072992D01*
X0025666Y0073929D01*
X0025929Y0073929D01*
X0025929Y0073929D01*
X0011568Y0073929D01*
X0010940Y0072414D01*
X0010879Y0072353D01*
X0010879Y0064306D01*
X0010940Y0064244D01*
X0011361Y0063229D01*
X0014729Y0063229D01*
X0014729Y0072992D01*
X0015666Y0073929D01*
X0020992Y0073929D01*
X0021929Y0072992D01*
X0021929Y0058666D01*
X0020992Y0057729D01*
X0015666Y0057729D01*
X0014966Y0058429D01*
X0011361Y0058429D01*
X0010879Y0056981D02*
X0100779Y0056981D01*
X0100779Y0055383D02*
X0010879Y0055383D01*
X0010879Y0053784D02*
X0015522Y0053784D01*
X0014729Y0052186D02*
X0010879Y0052186D01*
X0010879Y0050587D02*
X0014729Y0050587D01*
X0014729Y0048989D02*
X0011046Y0048989D01*
X0005829Y0045829D02*
X0018329Y0045829D01*
X0021929Y0045792D02*
X0028129Y0045792D01*
X0028129Y0045629D02*
X0028129Y0046029D01*
X0024529Y0046029D01*
X0024529Y0052566D01*
X0024652Y0053024D01*
X0024889Y0053434D01*
X0025224Y0053769D01*
X0025634Y0054006D01*
X0026092Y0054129D01*
X0028129Y0054129D01*
X0028129Y0046029D01*
X0028529Y0046029D01*
X0028529Y0054129D01*
X0030566Y0054129D01*
X0031024Y0054006D01*
X0031434Y0053769D01*
X0031769Y0053434D01*
X0032006Y0053024D01*
X0032129Y0052566D01*
X0032129Y0046029D01*
X0028529Y0046029D01*
X0028529Y0045629D01*
X0028529Y0037529D01*
X0030566Y0037529D01*
X0031024Y0037652D01*
X0031434Y0037889D01*
X0031769Y0038224D01*
X0032006Y0038634D01*
X0032129Y0039092D01*
X0032129Y0045629D01*
X0028529Y0045629D01*
X0028129Y0045629D01*
X0028129Y0037529D01*
X0026092Y0037529D01*
X0025634Y0037652D01*
X0025224Y0037889D01*
X0024889Y0038224D01*
X0024652Y0038634D01*
X0024529Y0039092D01*
X0024529Y0045629D01*
X0028129Y0045629D01*
X0028329Y0045829D02*
X0028329Y0036829D01*
X0022329Y0030829D01*
X0005829Y0030829D01*
X0010879Y0031405D02*
X0031511Y0031405D01*
X0033110Y0033004D02*
X0011672Y0033004D01*
X0010879Y0034602D02*
X0034708Y0034602D01*
X0035929Y0036201D02*
X0010879Y0036201D01*
X0010879Y0037799D02*
X0015596Y0037799D01*
X0014729Y0039398D02*
X0010879Y0039398D01*
X0010879Y0040996D02*
X0014729Y0040996D01*
X0014729Y0042595D02*
X0011015Y0042595D01*
X0021062Y0037799D02*
X0025379Y0037799D01*
X0024529Y0039398D02*
X0021929Y0039398D01*
X0021929Y0040996D02*
X0024529Y0040996D01*
X0024529Y0042595D02*
X0021929Y0042595D01*
X0021929Y0044193D02*
X0024529Y0044193D01*
X0024529Y0047390D02*
X0021929Y0047390D01*
X0021929Y0048989D02*
X0024529Y0048989D01*
X0024529Y0050587D02*
X0021929Y0050587D01*
X0021929Y0052186D02*
X0024529Y0052186D01*
X0025250Y0053784D02*
X0021137Y0053784D01*
X0021843Y0058580D02*
X0024816Y0058580D01*
X0024729Y0060179D02*
X0021929Y0060179D01*
X0021929Y0061777D02*
X0024729Y0061777D01*
X0024729Y0063376D02*
X0021929Y0063376D01*
X0021929Y0064974D02*
X0024729Y0064974D01*
X0024729Y0066573D02*
X0021929Y0066573D01*
X0021929Y0068171D02*
X0024729Y0068171D01*
X0024729Y0069770D02*
X0021929Y0069770D01*
X0021929Y0071368D02*
X0024729Y0071368D01*
X0024729Y0072967D02*
X0021929Y0072967D01*
X0027829Y0076329D02*
X0005829Y0076329D01*
X0005829Y0075829D01*
X0011169Y0072967D02*
X0014729Y0072967D01*
X0014729Y0071368D02*
X0010879Y0071368D01*
X0010879Y0069770D02*
X0014729Y0069770D01*
X0014729Y0068171D02*
X0010879Y0068171D01*
X0010879Y0066573D02*
X0014729Y0066573D01*
X0014729Y0064974D02*
X0010879Y0064974D01*
X0011300Y0063376D02*
X0014729Y0063376D01*
X0027829Y0076329D02*
X0028329Y0075829D01*
X0028329Y0065829D01*
X0031929Y0066573D02*
X0034729Y0066573D01*
X0034729Y0064974D02*
X0031929Y0064974D01*
X0031929Y0063376D02*
X0034729Y0063376D01*
X0034729Y0061777D02*
X0031929Y0061777D01*
X0031929Y0060179D02*
X0034729Y0060179D01*
X0034816Y0058580D02*
X0031843Y0058580D01*
X0031408Y0053784D02*
X0035522Y0053784D01*
X0034729Y0052186D02*
X0032129Y0052186D01*
X0032129Y0050587D02*
X0034729Y0050587D01*
X0034729Y0048989D02*
X0032129Y0048989D01*
X0032129Y0047390D02*
X0034729Y0047390D01*
X0034729Y0045792D02*
X0028529Y0045792D01*
X0028529Y0047390D02*
X0028129Y0047390D01*
X0028129Y0048989D02*
X0028529Y0048989D01*
X0028529Y0050587D02*
X0028129Y0050587D01*
X0028129Y0052186D02*
X0028529Y0052186D01*
X0028529Y0053784D02*
X0028129Y0053784D01*
X0028129Y0044193D02*
X0028529Y0044193D01*
X0028529Y0042595D02*
X0028129Y0042595D01*
X0028129Y0040996D02*
X0028529Y0040996D01*
X0028529Y0039398D02*
X0028129Y0039398D01*
X0028129Y0037799D02*
X0028529Y0037799D01*
X0031279Y0037799D02*
X0035596Y0037799D01*
X0034729Y0039398D02*
X0032129Y0039398D01*
X0032129Y0040996D02*
X0034729Y0040996D01*
X0034729Y0042595D02*
X0032129Y0042595D01*
X0032129Y0044193D02*
X0034729Y0044193D01*
X0038329Y0045829D02*
X0038329Y0034829D01*
X0019329Y0015829D01*
X0005829Y0015829D01*
X0011200Y0018617D02*
X0018723Y0018617D01*
X0020322Y0020216D02*
X0010879Y0020216D01*
X0010879Y0021814D02*
X0021920Y0021814D01*
X0023519Y0023413D02*
X0010879Y0023413D01*
X0010879Y0025011D02*
X0025117Y0025011D01*
X0026716Y0026610D02*
X0010879Y0026610D01*
X0011485Y0028208D02*
X0028314Y0028208D01*
X0029913Y0029807D02*
X0011974Y0029807D01*
X0023913Y0017019D02*
X0028625Y0017019D01*
X0030223Y0018617D02*
X0025511Y0018617D01*
X0027110Y0020216D02*
X0031822Y0020216D01*
X0033420Y0021814D02*
X0028708Y0021814D01*
X0030307Y0023413D02*
X0035019Y0023413D01*
X0036617Y0025011D02*
X0031905Y0025011D01*
X0033504Y0026610D02*
X0038216Y0026610D01*
X0039814Y0028208D02*
X0035102Y0028208D01*
X0036701Y0029807D02*
X0041413Y0029807D01*
X0043011Y0031405D02*
X0038299Y0031405D01*
X0039898Y0033004D02*
X0044610Y0033004D01*
X0045929Y0034602D02*
X0040729Y0034602D01*
X0040729Y0036201D02*
X0045929Y0036201D01*
X0045596Y0037799D02*
X0041062Y0037799D01*
X0041929Y0039398D02*
X0044729Y0039398D01*
X0044729Y0040996D02*
X0041929Y0040996D01*
X0041929Y0042595D02*
X0044729Y0042595D01*
X0044729Y0044193D02*
X0041929Y0044193D01*
X0041929Y0045792D02*
X0044729Y0045792D01*
X0044729Y0047390D02*
X0041929Y0047390D01*
X0041929Y0048989D02*
X0044729Y0048989D01*
X0044729Y0050587D02*
X0041929Y0050587D01*
X0041929Y0052186D02*
X0044729Y0052186D01*
X0045522Y0053784D02*
X0041137Y0053784D01*
X0041843Y0058580D02*
X0044816Y0058580D01*
X0044729Y0060179D02*
X0041929Y0060179D01*
X0041929Y0061777D02*
X0044729Y0061777D01*
X0044729Y0063376D02*
X0041929Y0063376D01*
X0041929Y0064974D02*
X0044729Y0064974D01*
X0044729Y0066573D02*
X0041929Y0066573D01*
X0041929Y0068171D02*
X0044729Y0068171D01*
X0044729Y0069770D02*
X0041929Y0069770D01*
X0041929Y0071368D02*
X0044729Y0071368D01*
X0044729Y0072967D02*
X0041929Y0072967D01*
X0040729Y0074565D02*
X0045929Y0074565D01*
X0045929Y0076164D02*
X0040729Y0076164D01*
X0040729Y0077762D02*
X0045502Y0077762D01*
X0043903Y0079361D02*
X0039692Y0079361D01*
X0038093Y0080959D02*
X0042305Y0080959D01*
X0040706Y0082558D02*
X0036495Y0082558D01*
X0034896Y0084156D02*
X0039108Y0084156D01*
X0037509Y0085755D02*
X0033298Y0085755D01*
X0031699Y0087353D02*
X0035911Y0087353D01*
X0034312Y0088952D02*
X0030101Y0088952D01*
X0028502Y0090550D02*
X0032714Y0090550D01*
X0031115Y0092149D02*
X0026904Y0092149D01*
X0024829Y0090829D02*
X0005829Y0090829D01*
X0011146Y0093747D02*
X0029517Y0093747D01*
X0027918Y0095346D02*
X0010879Y0095346D01*
X0010879Y0096944D02*
X0026320Y0096944D01*
X0024721Y0098543D02*
X0010879Y0098543D01*
X0010879Y0100141D02*
X0018806Y0100141D01*
X0022852Y0100141D02*
X0023123Y0100141D01*
X0020829Y0105829D02*
X0048329Y0078329D01*
X0048329Y0065829D01*
X0051929Y0066573D02*
X0054729Y0066573D01*
X0054729Y0064974D02*
X0051929Y0064974D01*
X0051929Y0063376D02*
X0054729Y0063376D01*
X0054729Y0061777D02*
X0051929Y0061777D01*
X0051929Y0060179D02*
X0054729Y0060179D01*
X0054816Y0058580D02*
X0051843Y0058580D01*
X0051137Y0053784D02*
X0055522Y0053784D01*
X0054729Y0052186D02*
X0051929Y0052186D01*
X0051929Y0050587D02*
X0054729Y0050587D01*
X0054729Y0048989D02*
X0051929Y0048989D01*
X0051929Y0047390D02*
X0054729Y0047390D01*
X0054729Y0045792D02*
X0051929Y0045792D01*
X0051929Y0044193D02*
X0054729Y0044193D01*
X0054729Y0042595D02*
X0051929Y0042595D01*
X0051929Y0040996D02*
X0054729Y0040996D01*
X0054729Y0039398D02*
X0051929Y0039398D01*
X0051062Y0037799D02*
X0055596Y0037799D01*
X0055929Y0036201D02*
X0050729Y0036201D01*
X0050729Y0034602D02*
X0055929Y0034602D01*
X0055929Y0033004D02*
X0050729Y0033004D01*
X0049799Y0031405D02*
X0055929Y0031405D01*
X0055929Y0029807D02*
X0048201Y0029807D01*
X0046602Y0028208D02*
X0054814Y0028208D01*
X0053216Y0026610D02*
X0045004Y0026610D01*
X0043405Y0025011D02*
X0051617Y0025011D01*
X0050019Y0023413D02*
X0041807Y0023413D01*
X0040208Y0021814D02*
X0048420Y0021814D01*
X0046822Y0020216D02*
X0038610Y0020216D01*
X0037011Y0018617D02*
X0045223Y0018617D01*
X0043625Y0017019D02*
X0035413Y0017019D01*
X0033814Y0015420D02*
X0042026Y0015420D01*
X0040428Y0013822D02*
X0032216Y0013822D01*
X0030617Y0012223D02*
X0038829Y0012223D01*
X0035829Y0005829D02*
X0058329Y0028329D01*
X0058329Y0045829D01*
X0061929Y0045792D02*
X0064729Y0045792D01*
X0064729Y0047390D02*
X0061929Y0047390D01*
X0061929Y0048989D02*
X0064729Y0048989D01*
X0064729Y0050587D02*
X0061929Y0050587D01*
X0061929Y0052186D02*
X0064729Y0052186D01*
X0065522Y0053784D02*
X0061137Y0053784D01*
X0061843Y0058580D02*
X0064816Y0058580D01*
X0064729Y0060179D02*
X0061929Y0060179D01*
X0061929Y0061777D02*
X0064729Y0061777D01*
X0064729Y0063376D02*
X0061929Y0063376D01*
X0061929Y0064974D02*
X0064729Y0064974D01*
X0064729Y0066573D02*
X0061929Y0066573D01*
X0061929Y0068171D02*
X0064729Y0068171D01*
X0064729Y0069770D02*
X0061929Y0069770D01*
X0061929Y0071368D02*
X0064729Y0071368D01*
X0064729Y0072967D02*
X0061929Y0072967D01*
X0060729Y0074565D02*
X0065929Y0074565D01*
X0065929Y0076164D02*
X0060729Y0076164D01*
X0060729Y0077762D02*
X0065929Y0077762D01*
X0065929Y0079361D02*
X0060729Y0079361D01*
X0060729Y0080959D02*
X0065929Y0080959D01*
X0065929Y0082558D02*
X0060729Y0082558D01*
X0060584Y0084156D02*
X0065929Y0084156D01*
X0065929Y0085755D02*
X0059298Y0085755D01*
X0057699Y0087353D02*
X0065911Y0087353D01*
X0064312Y0088952D02*
X0056101Y0088952D01*
X0054502Y0090550D02*
X0062714Y0090550D01*
X0061115Y0092149D02*
X0052904Y0092149D01*
X0051305Y0093747D02*
X0059517Y0093747D01*
X0057918Y0095346D02*
X0049707Y0095346D01*
X0048108Y0096944D02*
X0056320Y0096944D01*
X0054721Y0098543D02*
X0046510Y0098543D01*
X0044911Y0100141D02*
X0048806Y0100141D01*
X0052852Y0100141D02*
X0053123Y0100141D01*
X0050829Y0105829D02*
X0068329Y0088329D01*
X0068329Y0065829D01*
X0071929Y0066573D02*
X0074729Y0066573D01*
X0074729Y0064974D02*
X0071929Y0064974D01*
X0071929Y0063376D02*
X0074729Y0063376D01*
X0074729Y0061777D02*
X0071929Y0061777D01*
X0071929Y0060179D02*
X0074729Y0060179D01*
X0074816Y0058580D02*
X0071843Y0058580D01*
X0071137Y0053784D02*
X0075522Y0053784D01*
X0074729Y0052186D02*
X0071929Y0052186D01*
X0071929Y0050587D02*
X0074729Y0050587D01*
X0074729Y0048989D02*
X0071929Y0048989D01*
X0071929Y0047390D02*
X0074729Y0047390D01*
X0074729Y0045792D02*
X0071929Y0045792D01*
X0071929Y0044193D02*
X0074729Y0044193D01*
X0074729Y0042595D02*
X0071929Y0042595D01*
X0071929Y0040996D02*
X0074729Y0040996D01*
X0074729Y0039398D02*
X0071929Y0039398D01*
X0071062Y0037799D02*
X0075596Y0037799D01*
X0075929Y0036201D02*
X0070729Y0036201D01*
X0070729Y0034602D02*
X0075929Y0034602D01*
X0075929Y0033004D02*
X0070729Y0033004D01*
X0070729Y0031405D02*
X0075929Y0031405D01*
X0075929Y0029807D02*
X0070729Y0029807D01*
X0070729Y0028208D02*
X0075929Y0028208D01*
X0075929Y0026610D02*
X0070729Y0026610D01*
X0070729Y0025011D02*
X0075929Y0025011D01*
X0075929Y0023413D02*
X0070729Y0023413D01*
X0070208Y0021814D02*
X0075929Y0021814D01*
X0075929Y0020216D02*
X0068610Y0020216D01*
X0067011Y0018617D02*
X0075223Y0018617D01*
X0073625Y0017019D02*
X0065413Y0017019D01*
X0063814Y0015420D02*
X0072026Y0015420D01*
X0070428Y0013822D02*
X0062216Y0013822D01*
X0060617Y0012223D02*
X0068829Y0012223D01*
X0065829Y0005829D02*
X0078329Y0018329D01*
X0078329Y0045829D01*
X0081929Y0045792D02*
X0084729Y0045792D01*
X0084729Y0047390D02*
X0081929Y0047390D01*
X0081929Y0048989D02*
X0084729Y0048989D01*
X0084729Y0050587D02*
X0081929Y0050587D01*
X0081929Y0052186D02*
X0084729Y0052186D01*
X0085522Y0053784D02*
X0081137Y0053784D01*
X0081843Y0058580D02*
X0084816Y0058580D01*
X0084729Y0060179D02*
X0081929Y0060179D01*
X0081929Y0061777D02*
X0084729Y0061777D01*
X0084729Y0063376D02*
X0081929Y0063376D01*
X0081929Y0064974D02*
X0084729Y0064974D01*
X0084729Y0066573D02*
X0081929Y0066573D01*
X0081929Y0068171D02*
X0084729Y0068171D01*
X0084729Y0069770D02*
X0081929Y0069770D01*
X0081929Y0071368D02*
X0084729Y0071368D01*
X0084729Y0072967D02*
X0081929Y0072967D01*
X0080729Y0074565D02*
X0085929Y0074565D01*
X0085929Y0076164D02*
X0080729Y0076164D01*
X0080729Y0077762D02*
X0085929Y0077762D01*
X0085929Y0079361D02*
X0080729Y0079361D01*
X0080729Y0080959D02*
X0085929Y0080959D01*
X0085929Y0082558D02*
X0080729Y0082558D01*
X0080729Y0084156D02*
X0085929Y0084156D01*
X0085929Y0085755D02*
X0080729Y0085755D01*
X0080729Y0087353D02*
X0085929Y0087353D01*
X0085929Y0088952D02*
X0080729Y0088952D01*
X0080729Y0090550D02*
X0085929Y0090550D01*
X0085929Y0092149D02*
X0080729Y0092149D01*
X0080729Y0093747D02*
X0085929Y0093747D01*
X0085929Y0095346D02*
X0079707Y0095346D01*
X0078108Y0096944D02*
X0085929Y0096944D01*
X0084721Y0098543D02*
X0076510Y0098543D01*
X0074911Y0100141D02*
X0078806Y0100141D01*
X0082852Y0100141D02*
X0083123Y0100141D01*
X0088329Y0098329D02*
X0080829Y0105829D01*
X0088329Y0098329D02*
X0088329Y0065829D01*
X0091929Y0066573D02*
X0094729Y0066573D01*
X0094729Y0064974D02*
X0091929Y0064974D01*
X0091929Y0063376D02*
X0094729Y0063376D01*
X0094729Y0061777D02*
X0091929Y0061777D01*
X0091929Y0060179D02*
X0094729Y0060179D01*
X0094816Y0058580D02*
X0091843Y0058580D01*
X0091137Y0053784D02*
X0095522Y0053784D01*
X0094729Y0052186D02*
X0091929Y0052186D01*
X0091929Y0050587D02*
X0094729Y0050587D01*
X0094729Y0048989D02*
X0091929Y0048989D01*
X0091929Y0047390D02*
X0094729Y0047390D01*
X0094729Y0045792D02*
X0091929Y0045792D01*
X0091929Y0044193D02*
X0094729Y0044193D01*
X0094729Y0042595D02*
X0091929Y0042595D01*
X0091929Y0040996D02*
X0094729Y0040996D01*
X0094729Y0039398D02*
X0091929Y0039398D01*
X0091062Y0037799D02*
X0095596Y0037799D01*
X0095929Y0036201D02*
X0090729Y0036201D01*
X0090729Y0034602D02*
X0095929Y0034602D01*
X0095929Y0033004D02*
X0090729Y0033004D01*
X0090729Y0031405D02*
X0095929Y0031405D01*
X0095929Y0029807D02*
X0090729Y0029807D01*
X0090729Y0028208D02*
X0095929Y0028208D01*
X0095929Y0026610D02*
X0090729Y0026610D01*
X0090729Y0025011D02*
X0095929Y0025011D01*
X0095929Y0023413D02*
X0090729Y0023413D01*
X0090729Y0021814D02*
X0095929Y0021814D01*
X0095929Y0020216D02*
X0090729Y0020216D01*
X0090729Y0018617D02*
X0095929Y0018617D01*
X0095929Y0017019D02*
X0090729Y0017019D01*
X0090729Y0015420D02*
X0095929Y0015420D01*
X0095929Y0013822D02*
X0090729Y0013822D01*
X0090469Y0012223D02*
X0095929Y0012223D01*
X0098329Y0008329D02*
X0098329Y0045829D01*
X0088329Y0045829D02*
X0088329Y0013329D01*
X0080829Y0005829D01*
X0083829Y0012223D02*
X0075617Y0012223D01*
X0077216Y0013822D02*
X0085428Y0013822D01*
X0085929Y0015420D02*
X0078814Y0015420D01*
X0080384Y0017019D02*
X0085929Y0017019D01*
X0085929Y0018617D02*
X0080729Y0018617D01*
X0080729Y0020216D02*
X0085929Y0020216D01*
X0085929Y0021814D02*
X0080729Y0021814D01*
X0080729Y0023413D02*
X0085929Y0023413D01*
X0085929Y0025011D02*
X0080729Y0025011D01*
X0080729Y0026610D02*
X0085929Y0026610D01*
X0085929Y0028208D02*
X0080729Y0028208D01*
X0080729Y0029807D02*
X0085929Y0029807D01*
X0085929Y0031405D02*
X0080729Y0031405D01*
X0080729Y0033004D02*
X0085929Y0033004D01*
X0085929Y0034602D02*
X0080729Y0034602D01*
X0080729Y0036201D02*
X0085929Y0036201D01*
X0085596Y0037799D02*
X0081062Y0037799D01*
X0081929Y0039398D02*
X0084729Y0039398D01*
X0084729Y0040996D02*
X0081929Y0040996D01*
X0081929Y0042595D02*
X0084729Y0042595D01*
X0084729Y0044193D02*
X0081929Y0044193D01*
X0068329Y0045829D02*
X0068329Y0023329D01*
X0050829Y0005829D01*
X0053829Y0012223D02*
X0045617Y0012223D01*
X0047216Y0013822D02*
X0055428Y0013822D01*
X0057026Y0015420D02*
X0048814Y0015420D01*
X0050413Y0017019D02*
X0058625Y0017019D01*
X0060223Y0018617D02*
X0052011Y0018617D01*
X0053610Y0020216D02*
X0061822Y0020216D01*
X0063420Y0021814D02*
X0055208Y0021814D01*
X0056807Y0023413D02*
X0065019Y0023413D01*
X0065929Y0025011D02*
X0058405Y0025011D01*
X0060004Y0026610D02*
X0065929Y0026610D01*
X0065929Y0028208D02*
X0060729Y0028208D01*
X0060729Y0029807D02*
X0065929Y0029807D01*
X0065929Y0031405D02*
X0060729Y0031405D01*
X0060729Y0033004D02*
X0065929Y0033004D01*
X0065929Y0034602D02*
X0060729Y0034602D01*
X0060729Y0036201D02*
X0065929Y0036201D01*
X0065596Y0037799D02*
X0061062Y0037799D01*
X0061929Y0039398D02*
X0064729Y0039398D01*
X0064729Y0040996D02*
X0061929Y0040996D01*
X0061929Y0042595D02*
X0064729Y0042595D01*
X0064729Y0044193D02*
X0061929Y0044193D01*
X0048329Y0045829D02*
X0048329Y0033329D01*
X0020829Y0005829D01*
X0023829Y0012223D02*
X0010879Y0012223D01*
X0020716Y0013822D02*
X0025428Y0013822D01*
X0027026Y0015420D02*
X0022314Y0015420D01*
X0038329Y0065829D02*
X0038329Y0077329D01*
X0024829Y0090829D01*
X0024911Y0087353D02*
X0010880Y0087353D01*
X0010879Y0085755D02*
X0026509Y0085755D01*
X0028108Y0084156D02*
X0010879Y0084156D01*
X0010879Y0082558D02*
X0029706Y0082558D01*
X0031305Y0080959D02*
X0010879Y0080959D01*
X0010879Y0079361D02*
X0032903Y0079361D01*
X0034502Y0077762D02*
X0029790Y0077762D01*
X0030729Y0076164D02*
X0035929Y0076164D01*
X0035929Y0074565D02*
X0030729Y0074565D01*
X0031929Y0072967D02*
X0034729Y0072967D01*
X0034729Y0071368D02*
X0031929Y0071368D01*
X0031929Y0069770D02*
X0034729Y0069770D01*
X0034729Y0068171D02*
X0031929Y0068171D01*
X0045896Y0084156D02*
X0054108Y0084156D01*
X0055706Y0082558D02*
X0047495Y0082558D01*
X0049093Y0080959D02*
X0055929Y0080959D01*
X0055929Y0079361D02*
X0050500Y0079361D01*
X0050729Y0077762D02*
X0055929Y0077762D01*
X0055929Y0076164D02*
X0050729Y0076164D01*
X0050729Y0074565D02*
X0055929Y0074565D01*
X0054729Y0072967D02*
X0051929Y0072967D01*
X0051929Y0071368D02*
X0054729Y0071368D01*
X0054729Y0069770D02*
X0051929Y0069770D01*
X0051929Y0068171D02*
X0054729Y0068171D01*
X0058329Y0065829D02*
X0058329Y0083329D01*
X0035829Y0105829D01*
X0033806Y0100141D02*
X0029911Y0100141D01*
X0031510Y0098543D02*
X0039721Y0098543D01*
X0038123Y0100141D02*
X0037852Y0100141D01*
X0041320Y0096944D02*
X0033108Y0096944D01*
X0034707Y0095346D02*
X0042918Y0095346D01*
X0044517Y0093747D02*
X0036305Y0093747D01*
X0037904Y0092149D02*
X0046115Y0092149D01*
X0047714Y0090550D02*
X0039502Y0090550D01*
X0041101Y0088952D02*
X0049312Y0088952D01*
X0050911Y0087353D02*
X0042699Y0087353D01*
X0044298Y0085755D02*
X0052509Y0085755D01*
X0063108Y0096944D02*
X0071320Y0096944D01*
X0072918Y0095346D02*
X0064707Y0095346D01*
X0066305Y0093747D02*
X0074517Y0093747D01*
X0075929Y0092149D02*
X0067904Y0092149D01*
X0069502Y0090550D02*
X0075929Y0090550D01*
X0075929Y0088952D02*
X0070669Y0088952D01*
X0070729Y0087353D02*
X0075929Y0087353D01*
X0075929Y0085755D02*
X0070729Y0085755D01*
X0070729Y0084156D02*
X0075929Y0084156D01*
X0075929Y0082558D02*
X0070729Y0082558D01*
X0070729Y0080959D02*
X0075929Y0080959D01*
X0075929Y0079361D02*
X0070729Y0079361D01*
X0070729Y0077762D02*
X0075929Y0077762D01*
X0075929Y0076164D02*
X0070729Y0076164D01*
X0070729Y0074565D02*
X0075929Y0074565D01*
X0074729Y0072967D02*
X0071929Y0072967D01*
X0071929Y0071368D02*
X0074729Y0071368D01*
X0074729Y0069770D02*
X0071929Y0069770D01*
X0071929Y0068171D02*
X0074729Y0068171D01*
X0078329Y0065829D02*
X0078329Y0093329D01*
X0065829Y0105829D01*
X0063806Y0100141D02*
X0059911Y0100141D01*
X0061510Y0098543D02*
X0069721Y0098543D01*
X0068123Y0100141D02*
X0067852Y0100141D01*
X0089911Y0100141D02*
X0093806Y0100141D01*
X0095929Y0098543D02*
X0090729Y0098543D01*
X0090729Y0096944D02*
X0095929Y0096944D01*
X0095929Y0095346D02*
X0090729Y0095346D01*
X0090729Y0093747D02*
X0095929Y0093747D01*
X0095929Y0092149D02*
X0090729Y0092149D01*
X0090729Y0090550D02*
X0095929Y0090550D01*
X0095929Y0088952D02*
X0090729Y0088952D01*
X0090729Y0087353D02*
X0095929Y0087353D01*
X0095929Y0085755D02*
X0090729Y0085755D01*
X0090729Y0084156D02*
X0095929Y0084156D01*
X0095929Y0082558D02*
X0090729Y0082558D01*
X0090729Y0080959D02*
X0095929Y0080959D01*
X0095929Y0079361D02*
X0090729Y0079361D01*
X0090729Y0077762D02*
X0095929Y0077762D01*
X0095929Y0076164D02*
X0090729Y0076164D01*
X0090729Y0074565D02*
X0095929Y0074565D01*
X0094729Y0072967D02*
X0091929Y0072967D01*
X0091929Y0071368D02*
X0094729Y0071368D01*
X0094729Y0069770D02*
X0091929Y0069770D01*
X0091929Y0068171D02*
X0094729Y0068171D01*
X0098329Y0065829D02*
X0098329Y0103329D01*
X0095829Y0105829D01*
X0098329Y0008329D02*
X0095829Y0005829D01*
M02*
