G75*
%MOIN*%
%OFA0B0*%
%FSLAX25Y25*%
%IPPOS*%
%LPD*%
%AMOC8*
5,1,8,0,0,1.08239X$1,22.5*
%
%ADD10C,0.00000*%
%ADD11C,0.00800*%
%ADD12C,0.00400*%
%ADD13C,0.00500*%
D10*
X0005629Y0005629D02*
X0005629Y0105590D01*
X0105629Y0105629D01*
X0105629Y0005629D01*
X0005629Y0005629D01*
D11*
X0069554Y0030923D02*
X0069554Y0033392D01*
X0070789Y0034626D01*
X0072023Y0034626D01*
X0073257Y0033392D01*
X0073257Y0030923D01*
X0072023Y0029689D01*
X0070789Y0029689D01*
X0069554Y0030923D01*
X0073257Y0030923D02*
X0074492Y0029689D01*
X0075726Y0029689D01*
X0076960Y0030923D01*
X0076960Y0033392D01*
X0075726Y0034626D01*
X0074492Y0034626D01*
X0073257Y0033392D01*
X0070789Y0037239D02*
X0069554Y0038474D01*
X0069554Y0040943D01*
X0070789Y0042177D01*
X0075726Y0037239D01*
X0070789Y0037239D01*
X0075726Y0037239D02*
X0076960Y0038474D01*
X0076960Y0040943D01*
X0075726Y0042177D01*
X0070789Y0042177D01*
X0070789Y0044790D02*
X0069554Y0046024D01*
X0069554Y0048493D01*
X0070789Y0049727D01*
X0072023Y0049727D01*
X0073257Y0048493D01*
X0073257Y0046024D01*
X0072023Y0044790D01*
X0070789Y0044790D01*
X0073257Y0046024D02*
X0074492Y0044790D01*
X0075726Y0044790D01*
X0076960Y0046024D01*
X0076960Y0048493D01*
X0075726Y0049727D01*
X0074492Y0049727D01*
X0073257Y0048493D01*
X0073257Y0052340D02*
X0073257Y0056043D01*
X0074492Y0057278D01*
X0075726Y0057278D01*
X0076960Y0056043D01*
X0076960Y0053575D01*
X0075726Y0052340D01*
X0070789Y0052340D01*
X0069554Y0053575D01*
X0069554Y0056043D01*
X0070789Y0057278D01*
X0073257Y0059891D02*
X0072023Y0061125D01*
X0072023Y0064828D01*
X0070789Y0067441D02*
X0069554Y0068676D01*
X0069554Y0071144D01*
X0070789Y0072379D01*
X0075726Y0072379D01*
X0076960Y0071144D01*
X0076960Y0068676D01*
X0075726Y0067441D01*
X0076960Y0064828D02*
X0076960Y0061125D01*
X0075726Y0059891D01*
X0073257Y0059891D01*
X0069554Y0064828D02*
X0076960Y0064828D01*
X0076960Y0074992D02*
X0069554Y0074992D01*
X0069554Y0079929D02*
X0076960Y0079929D01*
X0074492Y0077460D01*
X0076960Y0074992D01*
D12*
X0027481Y0080971D02*
X0026714Y0080204D01*
X0025179Y0080204D01*
X0024412Y0080971D01*
X0027481Y0084041D01*
X0027481Y0080971D01*
X0024412Y0080971D02*
X0024412Y0084041D01*
X0025179Y0084808D01*
X0026714Y0084808D01*
X0027481Y0084041D01*
X0022877Y0080204D02*
X0019808Y0080204D01*
X0018273Y0080204D02*
X0016739Y0081739D01*
X0017506Y0081739D02*
X0015204Y0081739D01*
X0015204Y0080204D02*
X0015204Y0084808D01*
X0017506Y0084808D01*
X0018273Y0084041D01*
X0018273Y0082506D01*
X0017506Y0081739D01*
X0019808Y0083273D02*
X0021343Y0084808D01*
X0021343Y0080204D01*
X0020006Y0069808D02*
X0017704Y0069808D01*
X0017704Y0065204D01*
X0017704Y0066739D02*
X0020006Y0066739D01*
X0020773Y0067506D01*
X0020773Y0069041D01*
X0020006Y0069808D01*
X0022308Y0069041D02*
X0022308Y0068273D01*
X0023075Y0067506D01*
X0025377Y0067506D01*
X0025377Y0065971D02*
X0025377Y0069041D01*
X0024610Y0069808D01*
X0023075Y0069808D01*
X0022308Y0069041D01*
X0022308Y0065971D02*
X0023075Y0065204D01*
X0024610Y0065204D01*
X0025377Y0065971D01*
X0020773Y0065204D02*
X0019239Y0066739D01*
D13*
X0005629Y0005629D02*
X0105629Y0005629D01*
X0105629Y0105629D01*
X0005629Y0105629D01*
X0005629Y0005629D01*
M02*
