G75*
%MOIN*%
%OFA0B0*%
%FSLAX25Y25*%
%IPPOS*%
%LPD*%
%AMOC8*
5,1,8,0,0,1.08239X$1,22.5*
%
%ADD10C,0.00000*%
%ADD11R,0.02200X0.06400*%
%ADD12R,0.05518X0.06306*%
%ADD13C,0.00500*%
%ADD14C,0.09258*%
D10*
X0005629Y0005629D02*
X0005629Y0105590D01*
X0105629Y0105629D01*
X0105629Y0005629D01*
X0005629Y0005629D01*
D11*
X0051829Y0047629D03*
X0054329Y0047629D03*
X0056929Y0047629D03*
X0059429Y0047629D03*
X0059429Y0063629D03*
X0056929Y0063629D03*
X0054329Y0063629D03*
X0051829Y0063629D03*
D12*
X0024994Y0060629D03*
X0017514Y0060629D03*
X0017514Y0075629D03*
X0024994Y0075629D03*
D13*
X0005629Y0005629D02*
X0105629Y0005629D01*
X0105629Y0105629D01*
X0005629Y0105629D01*
X0005629Y0005629D01*
D14*
X0005629Y0015629D03*
X0005629Y0030629D03*
X0005629Y0045629D03*
X0005629Y0060629D03*
X0005629Y0075629D03*
X0005629Y0090629D03*
X0020629Y0105629D03*
X0035629Y0105629D03*
X0050629Y0105629D03*
X0065629Y0105629D03*
X0080629Y0105629D03*
X0095629Y0105629D03*
X0095629Y0005629D03*
X0080629Y0005629D03*
X0065629Y0005629D03*
X0050629Y0005629D03*
X0035629Y0005629D03*
X0020629Y0005629D03*
M02*
