G75*
%MOIN*%
%OFA0B0*%
%FSLAX25Y25*%
%IPPOS*%
%LPD*%
%AMOC8*
5,1,8,0,0,1.08239X$1,22.5*
%
%ADD10C,0.00000*%
%ADD11C,0.00400*%
%ADD12C,0.00500*%
D10*
X0005829Y0005829D02*
X0005829Y0105790D01*
X0106030Y0105790D01*
X0106030Y0005829D01*
X0005829Y0005829D01*
D11*
X0016525Y0023717D02*
X0019595Y0023717D01*
X0021129Y0025252D01*
X0019595Y0026787D01*
X0016525Y0026787D01*
X0016525Y0028321D02*
X0016525Y0030623D01*
X0017293Y0031391D01*
X0020362Y0031391D01*
X0021129Y0030623D01*
X0021129Y0028321D01*
X0016525Y0028321D01*
X0016525Y0032925D02*
X0016525Y0035227D01*
X0017293Y0035994D01*
X0020362Y0035994D01*
X0021129Y0035227D01*
X0021129Y0032925D01*
X0016525Y0032925D01*
X0026525Y0032925D02*
X0026525Y0035227D01*
X0027293Y0035994D01*
X0030362Y0035994D01*
X0031129Y0035227D01*
X0031129Y0032925D01*
X0026525Y0032925D01*
X0026525Y0031391D02*
X0031129Y0031391D01*
X0026525Y0028321D01*
X0031129Y0028321D01*
X0030362Y0026787D02*
X0028827Y0026787D01*
X0028827Y0025252D01*
X0027293Y0026787D02*
X0026525Y0026019D01*
X0026525Y0024485D01*
X0027293Y0023717D01*
X0030362Y0023717D01*
X0031129Y0024485D01*
X0031129Y0026019D01*
X0030362Y0026787D01*
X0036525Y0026787D02*
X0041129Y0026787D01*
X0036525Y0023717D01*
X0041129Y0023717D01*
X0040362Y0022183D02*
X0038827Y0022183D01*
X0038827Y0020648D01*
X0037293Y0019113D02*
X0040362Y0019113D01*
X0041129Y0019881D01*
X0041129Y0021415D01*
X0040362Y0022183D01*
X0037293Y0022183D02*
X0036525Y0021415D01*
X0036525Y0019881D01*
X0037293Y0019113D01*
X0036525Y0028321D02*
X0036525Y0030623D01*
X0037293Y0031391D01*
X0040362Y0031391D01*
X0041129Y0030623D01*
X0041129Y0028321D01*
X0036525Y0028321D01*
X0037293Y0032925D02*
X0038060Y0032925D01*
X0038827Y0033692D01*
X0038827Y0035227D01*
X0039595Y0035994D01*
X0040362Y0035994D01*
X0041129Y0035227D01*
X0041129Y0033692D01*
X0040362Y0032925D01*
X0037293Y0032925D02*
X0036525Y0033692D01*
X0036525Y0035227D01*
X0037293Y0035994D01*
X0046525Y0035994D02*
X0051129Y0032925D01*
X0051129Y0029856D02*
X0046525Y0029856D01*
X0046525Y0028321D02*
X0046525Y0031391D01*
X0046525Y0032925D02*
X0051129Y0035994D01*
X0056525Y0035994D02*
X0061129Y0032925D01*
X0061129Y0031391D02*
X0059595Y0029856D01*
X0059595Y0030623D02*
X0059595Y0028321D01*
X0061129Y0028321D02*
X0056525Y0028321D01*
X0056525Y0030623D01*
X0057293Y0031391D01*
X0058827Y0031391D01*
X0059595Y0030623D01*
X0056525Y0032925D02*
X0061129Y0035994D01*
X0066525Y0035227D02*
X0068827Y0032925D01*
X0068827Y0035994D01*
X0071129Y0035227D02*
X0066525Y0035227D01*
X0068060Y0031391D02*
X0071129Y0031391D01*
X0068827Y0031391D02*
X0068827Y0028321D01*
X0068060Y0028321D02*
X0066525Y0029856D01*
X0068060Y0031391D01*
X0068060Y0028321D02*
X0071129Y0028321D01*
X0069595Y0026019D02*
X0069595Y0023717D01*
X0071129Y0023717D02*
X0066525Y0023717D01*
X0066525Y0026019D01*
X0067293Y0026787D01*
X0068827Y0026787D01*
X0069595Y0026019D01*
X0076525Y0026019D02*
X0076525Y0023717D01*
X0081129Y0023717D01*
X0079595Y0023717D02*
X0079595Y0026019D01*
X0078827Y0026787D01*
X0077293Y0026787D01*
X0076525Y0026019D01*
X0078060Y0028321D02*
X0076525Y0029856D01*
X0078060Y0031391D01*
X0081129Y0031391D01*
X0080362Y0032925D02*
X0081129Y0033692D01*
X0081129Y0035227D01*
X0080362Y0035994D01*
X0078827Y0035994D01*
X0078060Y0035227D01*
X0078060Y0034460D01*
X0078827Y0032925D01*
X0076525Y0032925D01*
X0076525Y0035994D01*
X0078827Y0031391D02*
X0078827Y0028321D01*
X0078060Y0028321D02*
X0081129Y0028321D01*
X0086525Y0029856D02*
X0088060Y0031391D01*
X0091129Y0031391D01*
X0090362Y0032925D02*
X0091129Y0033692D01*
X0091129Y0035227D01*
X0090362Y0035994D01*
X0089595Y0035994D01*
X0088827Y0035227D01*
X0088827Y0032925D01*
X0090362Y0032925D01*
X0088827Y0032925D02*
X0087293Y0034460D01*
X0086525Y0035994D01*
X0088827Y0031391D02*
X0088827Y0028321D01*
X0088060Y0028321D02*
X0086525Y0029856D01*
X0088060Y0028321D02*
X0091129Y0028321D01*
X0089595Y0026019D02*
X0089595Y0023717D01*
X0091129Y0023717D02*
X0086525Y0023717D01*
X0086525Y0026019D01*
X0087293Y0026787D01*
X0088827Y0026787D01*
X0089595Y0026019D01*
X0096525Y0026019D02*
X0096525Y0023717D01*
X0101129Y0023717D01*
X0099595Y0023717D02*
X0099595Y0026019D01*
X0098827Y0026787D01*
X0097293Y0026787D01*
X0096525Y0026019D01*
X0098060Y0028321D02*
X0096525Y0029856D01*
X0098060Y0031391D01*
X0101129Y0031391D01*
X0101129Y0032925D02*
X0100362Y0032925D01*
X0097293Y0035994D01*
X0096525Y0035994D01*
X0096525Y0032925D01*
X0098827Y0031391D02*
X0098827Y0028321D01*
X0098060Y0028321D02*
X0101129Y0028321D01*
X0100129Y0074529D02*
X0095525Y0074529D01*
X0095525Y0076831D01*
X0096293Y0077598D01*
X0097827Y0077598D01*
X0098595Y0076831D01*
X0098595Y0074529D01*
X0097827Y0079133D02*
X0097827Y0081435D01*
X0098595Y0082202D01*
X0099362Y0082202D01*
X0100129Y0081435D01*
X0100129Y0079133D01*
X0095525Y0079133D01*
X0095525Y0081435D01*
X0096293Y0082202D01*
X0097060Y0082202D01*
X0097827Y0081435D01*
X0096293Y0083737D02*
X0095525Y0084504D01*
X0095525Y0086039D01*
X0096293Y0086806D01*
X0099362Y0083737D01*
X0100129Y0084504D01*
X0100129Y0086039D01*
X0099362Y0086806D01*
X0096293Y0086806D01*
X0096293Y0083737D02*
X0099362Y0083737D01*
X0090129Y0083737D02*
X0090129Y0086806D01*
X0090129Y0085272D02*
X0085525Y0085272D01*
X0087060Y0083737D01*
X0087060Y0082202D02*
X0086293Y0082202D01*
X0085525Y0081435D01*
X0085525Y0079133D01*
X0090129Y0079133D01*
X0090129Y0081435D01*
X0089362Y0082202D01*
X0088595Y0082202D01*
X0087827Y0081435D01*
X0087827Y0079133D01*
X0087827Y0077598D02*
X0088595Y0076831D01*
X0088595Y0074529D01*
X0090129Y0074529D02*
X0085525Y0074529D01*
X0085525Y0076831D01*
X0086293Y0077598D01*
X0087827Y0077598D01*
X0087827Y0081435D02*
X0087060Y0082202D01*
X0080129Y0081435D02*
X0080129Y0079133D01*
X0075525Y0079133D01*
X0075525Y0081435D01*
X0076293Y0082202D01*
X0077060Y0082202D01*
X0077827Y0081435D01*
X0077827Y0079133D01*
X0077827Y0077598D02*
X0076293Y0077598D01*
X0075525Y0076831D01*
X0075525Y0074529D01*
X0080129Y0074529D01*
X0078595Y0074529D02*
X0078595Y0076831D01*
X0077827Y0077598D01*
X0077827Y0081435D02*
X0078595Y0082202D01*
X0079362Y0082202D01*
X0080129Y0081435D01*
X0080129Y0083737D02*
X0077060Y0086806D01*
X0076293Y0086806D01*
X0075525Y0086039D01*
X0075525Y0084504D01*
X0076293Y0083737D01*
X0080129Y0083737D02*
X0080129Y0086806D01*
X0070129Y0086039D02*
X0070129Y0084504D01*
X0069362Y0083737D01*
X0069362Y0082202D02*
X0070129Y0081435D01*
X0070129Y0079900D01*
X0069362Y0079133D01*
X0070129Y0077598D02*
X0065525Y0077598D01*
X0066293Y0079133D02*
X0067060Y0079133D01*
X0067827Y0079900D01*
X0067827Y0081435D01*
X0068595Y0082202D01*
X0069362Y0082202D01*
X0067060Y0083737D02*
X0067827Y0084504D01*
X0067827Y0086039D01*
X0068595Y0086806D01*
X0069362Y0086806D01*
X0070129Y0086039D01*
X0067060Y0083737D02*
X0066293Y0083737D01*
X0065525Y0084504D01*
X0065525Y0086039D01*
X0066293Y0086806D01*
X0066293Y0082202D02*
X0065525Y0081435D01*
X0065525Y0079900D01*
X0066293Y0079133D01*
X0070129Y0077598D02*
X0065525Y0074529D01*
X0070129Y0074529D01*
X0060129Y0075296D02*
X0059362Y0074529D01*
X0060129Y0075296D02*
X0060129Y0076831D01*
X0059362Y0077598D01*
X0058595Y0077598D01*
X0057827Y0076831D01*
X0057827Y0075296D01*
X0057060Y0074529D01*
X0056293Y0074529D01*
X0055525Y0075296D01*
X0055525Y0076831D01*
X0056293Y0077598D01*
X0056293Y0079133D02*
X0059362Y0079133D01*
X0060129Y0079900D01*
X0060129Y0081435D01*
X0059362Y0082202D01*
X0060129Y0083737D02*
X0055525Y0083737D01*
X0056293Y0082202D02*
X0055525Y0081435D01*
X0055525Y0079900D01*
X0056293Y0079133D01*
X0058595Y0083737D02*
X0055525Y0086806D01*
X0057827Y0084504D02*
X0060129Y0086806D01*
X0050129Y0087574D02*
X0049362Y0086806D01*
X0046293Y0086806D01*
X0045525Y0087574D01*
X0045525Y0089108D01*
X0046293Y0089876D01*
X0049362Y0089876D01*
X0050129Y0089108D01*
X0050129Y0087574D01*
X0049362Y0085272D02*
X0048595Y0085272D01*
X0047827Y0084504D01*
X0047827Y0082970D01*
X0047060Y0082202D01*
X0046293Y0082202D01*
X0045525Y0082970D01*
X0045525Y0084504D01*
X0046293Y0085272D01*
X0049362Y0085272D02*
X0050129Y0084504D01*
X0050129Y0082970D01*
X0049362Y0082202D01*
X0050129Y0080668D02*
X0050129Y0079133D01*
X0050129Y0079900D02*
X0045525Y0079900D01*
X0045525Y0079133D02*
X0045525Y0080668D01*
X0045525Y0077598D02*
X0050129Y0077598D01*
X0050129Y0074529D02*
X0045525Y0074529D01*
X0047060Y0076064D01*
X0045525Y0077598D01*
X0040129Y0077598D02*
X0035525Y0077598D01*
X0037060Y0076064D01*
X0035525Y0074529D01*
X0040129Y0074529D01*
X0039362Y0079133D02*
X0036293Y0079133D01*
X0035525Y0079900D01*
X0035525Y0081435D01*
X0036293Y0082202D01*
X0039362Y0082202D01*
X0040129Y0081435D01*
X0040129Y0079900D01*
X0039362Y0079133D01*
X0039362Y0083737D02*
X0040129Y0084504D01*
X0040129Y0086039D01*
X0039362Y0086806D01*
X0038595Y0086806D01*
X0037827Y0086039D01*
X0037827Y0084504D01*
X0037060Y0083737D01*
X0036293Y0083737D01*
X0035525Y0084504D01*
X0035525Y0086039D01*
X0036293Y0086806D01*
X0035525Y0088341D02*
X0035525Y0089876D01*
X0035525Y0089108D02*
X0040129Y0089108D01*
X0040129Y0088341D02*
X0040129Y0089876D01*
X0030129Y0086806D02*
X0030129Y0083737D01*
X0025525Y0083737D01*
X0026293Y0082202D02*
X0025525Y0081435D01*
X0025525Y0079900D01*
X0026293Y0079133D01*
X0029362Y0079133D01*
X0030129Y0079900D01*
X0030129Y0081435D01*
X0029362Y0082202D01*
X0029362Y0077598D02*
X0028595Y0077598D01*
X0027827Y0076831D01*
X0027827Y0075296D01*
X0027060Y0074529D01*
X0026293Y0074529D01*
X0025525Y0075296D01*
X0025525Y0076831D01*
X0026293Y0077598D01*
X0029362Y0077598D02*
X0030129Y0076831D01*
X0030129Y0075296D01*
X0029362Y0074529D01*
X0020129Y0075296D02*
X0019362Y0074529D01*
X0020129Y0075296D02*
X0020129Y0076831D01*
X0019362Y0077598D01*
X0018595Y0077598D01*
X0017827Y0076831D01*
X0017827Y0075296D01*
X0017060Y0074529D01*
X0016293Y0074529D01*
X0015525Y0075296D01*
X0015525Y0076831D01*
X0016293Y0077598D01*
X0015525Y0079133D02*
X0015525Y0081435D01*
X0016293Y0082202D01*
X0019362Y0082202D01*
X0020129Y0081435D01*
X0020129Y0079133D01*
X0015525Y0079133D01*
X0017060Y0083737D02*
X0015525Y0085272D01*
X0017060Y0086806D01*
X0020129Y0086806D01*
X0017827Y0086806D02*
X0017827Y0083737D01*
X0017060Y0083737D02*
X0020129Y0083737D01*
D12*
X0005829Y0005829D02*
X0105829Y0005829D01*
X0105829Y0105829D01*
X0005829Y0105829D01*
X0005829Y0005829D01*
M02*
