G75*
%MOIN*%
%OFA0B0*%
%FSLAX25Y25*%
%IPPOS*%
%LPD*%
%AMOC8*
5,1,8,0,0,1.08239X$1,22.5*
%
%ADD10C,0.00000*%
%ADD11C,0.00300*%
%ADD12C,0.00400*%
D10*
X0003211Y0011500D02*
X0003211Y0247406D01*
X0003214Y0247648D01*
X0003223Y0247889D01*
X0003237Y0248130D01*
X0003258Y0248371D01*
X0003284Y0248611D01*
X0003316Y0248851D01*
X0003354Y0249090D01*
X0003397Y0249327D01*
X0003447Y0249564D01*
X0003502Y0249799D01*
X0003562Y0250033D01*
X0003629Y0250265D01*
X0003700Y0250496D01*
X0003778Y0250725D01*
X0003861Y0250952D01*
X0003949Y0251177D01*
X0004043Y0251400D01*
X0004142Y0251620D01*
X0004247Y0251838D01*
X0004356Y0252053D01*
X0004471Y0252266D01*
X0004591Y0252476D01*
X0004716Y0252682D01*
X0004846Y0252886D01*
X0004981Y0253087D01*
X0005121Y0253284D01*
X0005265Y0253478D01*
X0005414Y0253668D01*
X0005568Y0253854D01*
X0005726Y0254037D01*
X0005888Y0254216D01*
X0006055Y0254391D01*
X0006226Y0254562D01*
X0006401Y0254729D01*
X0006580Y0254891D01*
X0006763Y0255049D01*
X0006949Y0255203D01*
X0007139Y0255352D01*
X0007333Y0255496D01*
X0007530Y0255636D01*
X0007731Y0255771D01*
X0007935Y0255901D01*
X0008141Y0256026D01*
X0008351Y0256146D01*
X0008564Y0256261D01*
X0008779Y0256370D01*
X0008997Y0256475D01*
X0009217Y0256574D01*
X0009440Y0256668D01*
X0009665Y0256756D01*
X0009892Y0256839D01*
X0010121Y0256917D01*
X0010352Y0256988D01*
X0010584Y0257055D01*
X0010818Y0257115D01*
X0011053Y0257170D01*
X0011290Y0257220D01*
X0011527Y0257263D01*
X0011766Y0257301D01*
X0012006Y0257333D01*
X0012246Y0257359D01*
X0012487Y0257380D01*
X0012728Y0257394D01*
X0012969Y0257403D01*
X0013211Y0257406D01*
X0138880Y0257406D01*
X0139122Y0257403D01*
X0139363Y0257394D01*
X0139604Y0257380D01*
X0139845Y0257359D01*
X0140085Y0257333D01*
X0140325Y0257301D01*
X0140564Y0257263D01*
X0140801Y0257220D01*
X0141038Y0257170D01*
X0141273Y0257115D01*
X0141507Y0257055D01*
X0141739Y0256988D01*
X0141970Y0256917D01*
X0142199Y0256839D01*
X0142426Y0256756D01*
X0142651Y0256668D01*
X0142874Y0256574D01*
X0143094Y0256475D01*
X0143312Y0256370D01*
X0143527Y0256261D01*
X0143740Y0256146D01*
X0143950Y0256026D01*
X0144156Y0255901D01*
X0144360Y0255771D01*
X0144561Y0255636D01*
X0144758Y0255496D01*
X0144952Y0255352D01*
X0145142Y0255203D01*
X0145328Y0255049D01*
X0145511Y0254891D01*
X0145690Y0254729D01*
X0145865Y0254562D01*
X0146036Y0254391D01*
X0146203Y0254216D01*
X0146365Y0254037D01*
X0146523Y0253854D01*
X0146677Y0253668D01*
X0146826Y0253478D01*
X0146970Y0253284D01*
X0147110Y0253087D01*
X0147245Y0252886D01*
X0147375Y0252682D01*
X0147500Y0252476D01*
X0147620Y0252266D01*
X0147735Y0252053D01*
X0147844Y0251838D01*
X0147949Y0251620D01*
X0148048Y0251400D01*
X0148142Y0251177D01*
X0148230Y0250952D01*
X0148313Y0250725D01*
X0148391Y0250496D01*
X0148462Y0250265D01*
X0148529Y0250033D01*
X0148589Y0249799D01*
X0148644Y0249564D01*
X0148694Y0249327D01*
X0148737Y0249090D01*
X0148775Y0248851D01*
X0148807Y0248611D01*
X0148833Y0248371D01*
X0148854Y0248130D01*
X0148868Y0247889D01*
X0148877Y0247648D01*
X0148880Y0247406D01*
X0148880Y0011500D01*
X0148877Y0011258D01*
X0148868Y0011017D01*
X0148854Y0010776D01*
X0148833Y0010535D01*
X0148807Y0010295D01*
X0148775Y0010055D01*
X0148737Y0009816D01*
X0148694Y0009579D01*
X0148644Y0009342D01*
X0148589Y0009107D01*
X0148529Y0008873D01*
X0148462Y0008641D01*
X0148391Y0008410D01*
X0148313Y0008181D01*
X0148230Y0007954D01*
X0148142Y0007729D01*
X0148048Y0007506D01*
X0147949Y0007286D01*
X0147844Y0007068D01*
X0147735Y0006853D01*
X0147620Y0006640D01*
X0147500Y0006430D01*
X0147375Y0006224D01*
X0147245Y0006020D01*
X0147110Y0005819D01*
X0146970Y0005622D01*
X0146826Y0005428D01*
X0146677Y0005238D01*
X0146523Y0005052D01*
X0146365Y0004869D01*
X0146203Y0004690D01*
X0146036Y0004515D01*
X0145865Y0004344D01*
X0145690Y0004177D01*
X0145511Y0004015D01*
X0145328Y0003857D01*
X0145142Y0003703D01*
X0144952Y0003554D01*
X0144758Y0003410D01*
X0144561Y0003270D01*
X0144360Y0003135D01*
X0144156Y0003005D01*
X0143950Y0002880D01*
X0143740Y0002760D01*
X0143527Y0002645D01*
X0143312Y0002536D01*
X0143094Y0002431D01*
X0142874Y0002332D01*
X0142651Y0002238D01*
X0142426Y0002150D01*
X0142199Y0002067D01*
X0141970Y0001989D01*
X0141739Y0001918D01*
X0141507Y0001851D01*
X0141273Y0001791D01*
X0141038Y0001736D01*
X0140801Y0001686D01*
X0140564Y0001643D01*
X0140325Y0001605D01*
X0140085Y0001573D01*
X0139845Y0001547D01*
X0139604Y0001526D01*
X0139363Y0001512D01*
X0139122Y0001503D01*
X0138880Y0001500D01*
X0013211Y0001500D01*
X0012969Y0001503D01*
X0012728Y0001512D01*
X0012487Y0001526D01*
X0012246Y0001547D01*
X0012006Y0001573D01*
X0011766Y0001605D01*
X0011527Y0001643D01*
X0011290Y0001686D01*
X0011053Y0001736D01*
X0010818Y0001791D01*
X0010584Y0001851D01*
X0010352Y0001918D01*
X0010121Y0001989D01*
X0009892Y0002067D01*
X0009665Y0002150D01*
X0009440Y0002238D01*
X0009217Y0002332D01*
X0008997Y0002431D01*
X0008779Y0002536D01*
X0008564Y0002645D01*
X0008351Y0002760D01*
X0008141Y0002880D01*
X0007935Y0003005D01*
X0007731Y0003135D01*
X0007530Y0003270D01*
X0007333Y0003410D01*
X0007139Y0003554D01*
X0006949Y0003703D01*
X0006763Y0003857D01*
X0006580Y0004015D01*
X0006401Y0004177D01*
X0006226Y0004344D01*
X0006055Y0004515D01*
X0005888Y0004690D01*
X0005726Y0004869D01*
X0005568Y0005052D01*
X0005414Y0005238D01*
X0005265Y0005428D01*
X0005121Y0005622D01*
X0004981Y0005819D01*
X0004846Y0006020D01*
X0004716Y0006224D01*
X0004591Y0006430D01*
X0004471Y0006640D01*
X0004356Y0006853D01*
X0004247Y0007068D01*
X0004142Y0007286D01*
X0004043Y0007506D01*
X0003949Y0007729D01*
X0003861Y0007954D01*
X0003778Y0008181D01*
X0003700Y0008410D01*
X0003629Y0008641D01*
X0003562Y0008873D01*
X0003502Y0009107D01*
X0003447Y0009342D01*
X0003397Y0009579D01*
X0003354Y0009816D01*
X0003316Y0010055D01*
X0003284Y0010295D01*
X0003258Y0010535D01*
X0003237Y0010776D01*
X0003223Y0011017D01*
X0003214Y0011258D01*
X0003211Y0011500D01*
D11*
X0033985Y0009728D02*
X0036454Y0007259D01*
X0035836Y0007877D02*
X0033985Y0006025D01*
X0036454Y0006025D02*
X0036454Y0009728D01*
X0037668Y0006025D02*
X0040137Y0006025D01*
X0040137Y0009728D01*
X0041351Y0009111D02*
X0041968Y0009728D01*
X0043203Y0009728D01*
X0043820Y0009111D01*
X0043820Y0006642D01*
X0043203Y0006025D01*
X0041968Y0006025D01*
X0041351Y0006642D01*
X0045034Y0006025D02*
X0045034Y0009728D01*
X0046269Y0007259D02*
X0045034Y0006025D01*
X0046269Y0007259D02*
X0047503Y0006025D01*
X0047503Y0009728D01*
X0048717Y0009111D02*
X0049335Y0009728D01*
X0050569Y0009728D01*
X0051186Y0009111D01*
X0051186Y0008494D01*
X0050569Y0007877D01*
X0049335Y0007877D01*
X0048717Y0007259D01*
X0048717Y0006642D01*
X0049335Y0006025D01*
X0050569Y0006025D01*
X0051186Y0006642D01*
X0057668Y0006642D02*
X0058285Y0006025D01*
X0059520Y0006025D01*
X0060137Y0006642D01*
X0061351Y0007259D02*
X0061351Y0009728D01*
X0060137Y0009111D02*
X0059520Y0009728D01*
X0058285Y0009728D01*
X0057668Y0009111D01*
X0057668Y0008494D01*
X0058285Y0007877D01*
X0057668Y0007259D01*
X0057668Y0006642D01*
X0058285Y0007877D02*
X0058902Y0007877D01*
X0061351Y0007259D02*
X0062585Y0006025D01*
X0063820Y0007259D01*
X0063820Y0009728D01*
X0065034Y0009111D02*
X0065034Y0008494D01*
X0065651Y0007877D01*
X0065034Y0007259D01*
X0065034Y0006642D01*
X0065651Y0006025D01*
X0066886Y0006025D01*
X0067503Y0006642D01*
X0068717Y0007877D02*
X0071186Y0007877D01*
X0069952Y0009111D02*
X0069952Y0006642D01*
X0067503Y0009111D02*
X0066886Y0009728D01*
X0065651Y0009728D01*
X0065034Y0009111D01*
X0065651Y0007877D02*
X0066269Y0007877D01*
X0073353Y0023525D02*
X0072736Y0024142D01*
X0072736Y0025377D01*
X0073353Y0025994D01*
X0074588Y0025994D01*
X0074588Y0024759D01*
X0075822Y0023525D02*
X0073353Y0023525D01*
X0072736Y0027208D02*
X0076439Y0027208D01*
X0072736Y0029677D01*
X0076439Y0029677D01*
X0076439Y0030891D02*
X0076439Y0032743D01*
X0075822Y0033360D01*
X0073353Y0033360D01*
X0072736Y0032743D01*
X0072736Y0030891D01*
X0076439Y0030891D01*
X0075822Y0025994D02*
X0076439Y0025377D01*
X0076439Y0024142D01*
X0075822Y0023525D01*
X0080093Y0009728D02*
X0081945Y0009728D01*
X0081945Y0006025D01*
X0080093Y0006025D01*
X0079476Y0006642D01*
X0079476Y0009111D01*
X0080093Y0009728D01*
X0083159Y0009728D02*
X0083159Y0006025D01*
X0085628Y0009728D01*
X0085628Y0006025D01*
X0086842Y0006642D02*
X0086842Y0007877D01*
X0088077Y0007877D01*
X0089311Y0009111D02*
X0089311Y0006642D01*
X0088694Y0006025D01*
X0087460Y0006025D01*
X0086842Y0006642D01*
X0086842Y0009111D02*
X0087460Y0009728D01*
X0088694Y0009728D01*
X0089311Y0009111D01*
X0092736Y0023525D02*
X0096439Y0023525D01*
X0096439Y0025377D01*
X0095822Y0025994D01*
X0094588Y0025994D01*
X0093971Y0025377D01*
X0093971Y0023525D01*
X0093971Y0024759D02*
X0092736Y0025994D01*
X0092736Y0027208D02*
X0096439Y0029677D01*
X0096439Y0027208D02*
X0092736Y0029677D01*
X0101909Y0009728D02*
X0104378Y0006025D01*
X0101909Y0006025D02*
X0104378Y0009728D01*
X0105592Y0009728D02*
X0108061Y0009728D01*
X0106827Y0009728D02*
X0106827Y0006025D01*
X0056439Y0024142D02*
X0055822Y0023525D01*
X0055205Y0023525D01*
X0054588Y0024142D01*
X0054588Y0025377D01*
X0053971Y0025994D01*
X0053353Y0025994D01*
X0052736Y0025377D01*
X0052736Y0024142D01*
X0053353Y0023525D01*
X0052736Y0027208D02*
X0053971Y0028443D01*
X0052736Y0029677D01*
X0056439Y0029677D01*
X0056439Y0030891D02*
X0056439Y0032743D01*
X0055822Y0033360D01*
X0053353Y0033360D01*
X0052736Y0032743D01*
X0052736Y0030891D01*
X0056439Y0030891D01*
X0056439Y0027208D02*
X0052736Y0027208D01*
X0055822Y0025994D02*
X0056439Y0025377D01*
X0056439Y0024142D01*
X0056439Y0034574D02*
X0056439Y0035809D01*
X0056439Y0035192D02*
X0052736Y0035192D01*
X0052736Y0035809D02*
X0052736Y0034574D01*
X0053353Y0037030D02*
X0052736Y0037647D01*
X0052736Y0038881D01*
X0053353Y0039499D01*
X0055822Y0039499D01*
X0056439Y0038881D01*
X0056439Y0037647D01*
X0055822Y0037030D01*
X0053353Y0037030D01*
D12*
X0055089Y0059619D02*
X0056623Y0059619D01*
X0057391Y0060386D01*
X0057391Y0061153D01*
X0056623Y0061921D01*
X0055089Y0061921D01*
X0054321Y0061153D01*
X0054321Y0060386D01*
X0055089Y0059619D01*
X0055089Y0061921D02*
X0054321Y0062688D01*
X0054321Y0063455D01*
X0055089Y0064223D01*
X0056623Y0064223D01*
X0057391Y0063455D01*
X0057391Y0062688D01*
X0056623Y0061921D01*
X0058925Y0063455D02*
X0059693Y0064223D01*
X0061227Y0064223D01*
X0061995Y0063455D01*
X0061995Y0060386D01*
X0061227Y0059619D01*
X0059693Y0059619D01*
X0058925Y0060386D01*
X0063529Y0059619D02*
X0066599Y0059619D01*
X0065064Y0059619D02*
X0065064Y0064223D01*
X0066599Y0062688D01*
X0068133Y0061921D02*
X0068133Y0060386D01*
X0068900Y0059619D01*
X0070435Y0059619D01*
X0071202Y0060386D01*
X0071202Y0061921D02*
X0069668Y0062688D01*
X0068900Y0062688D01*
X0068133Y0061921D01*
X0068133Y0064223D02*
X0071202Y0064223D01*
X0071202Y0061921D01*
X0072737Y0063455D02*
X0075806Y0060386D01*
X0075039Y0059619D01*
X0073504Y0059619D01*
X0072737Y0060386D01*
X0072737Y0063455D01*
X0073504Y0064223D01*
X0075039Y0064223D01*
X0075806Y0063455D01*
X0075806Y0060386D01*
X0077341Y0059619D02*
X0080410Y0059619D01*
X0080410Y0064223D01*
X0081945Y0063455D02*
X0081945Y0062688D01*
X0085014Y0059619D01*
X0081945Y0059619D01*
X0081945Y0063455D02*
X0082712Y0064223D01*
X0084247Y0064223D01*
X0085014Y0063455D01*
X0086549Y0063455D02*
X0086549Y0062688D01*
X0087316Y0061921D01*
X0086549Y0061153D01*
X0086549Y0060386D01*
X0087316Y0059619D01*
X0088851Y0059619D01*
X0089618Y0060386D01*
X0091153Y0059619D02*
X0091153Y0064223D01*
X0092687Y0062688D01*
X0094222Y0064223D01*
X0094222Y0059619D01*
X0097291Y0059619D02*
X0097291Y0064223D01*
X0095757Y0064223D02*
X0098826Y0064223D01*
X0100361Y0063455D02*
X0101128Y0064223D01*
X0102663Y0064223D01*
X0103430Y0063455D01*
X0103430Y0062688D01*
X0102663Y0061921D01*
X0101128Y0061921D01*
X0100361Y0061153D01*
X0100361Y0060386D01*
X0101128Y0059619D01*
X0102663Y0059619D01*
X0103430Y0060386D01*
X0089618Y0063455D02*
X0088851Y0064223D01*
X0087316Y0064223D01*
X0086549Y0063455D01*
X0087316Y0061921D02*
X0088084Y0061921D01*
X0118376Y0109200D02*
X0117609Y0109967D01*
X0117609Y0113037D01*
X0120678Y0109967D01*
X0119911Y0109200D01*
X0118376Y0109200D01*
X0120678Y0109967D02*
X0120678Y0113037D01*
X0119911Y0113804D01*
X0118376Y0113804D01*
X0117609Y0113037D01*
X0122213Y0109200D02*
X0125282Y0109200D01*
X0123748Y0109200D02*
X0123748Y0113804D01*
X0125282Y0112269D01*
X0126817Y0113037D02*
X0127584Y0113804D01*
X0129119Y0113804D01*
X0129886Y0113037D01*
X0129886Y0109967D01*
X0129119Y0109200D01*
X0127584Y0109200D01*
X0126817Y0109967D01*
X0127584Y0103804D02*
X0126817Y0103037D01*
X0126817Y0101502D01*
X0127584Y0100735D01*
X0129886Y0100735D01*
X0128352Y0100735D02*
X0126817Y0099200D01*
X0125282Y0099967D02*
X0125282Y0100735D01*
X0124515Y0101502D01*
X0122980Y0101502D01*
X0122213Y0100735D01*
X0122213Y0099967D01*
X0122980Y0099200D01*
X0124515Y0099200D01*
X0125282Y0099967D01*
X0124515Y0101502D02*
X0125282Y0102269D01*
X0125282Y0103037D01*
X0124515Y0103804D01*
X0122980Y0103804D01*
X0122213Y0103037D01*
X0122213Y0102269D01*
X0122980Y0101502D01*
X0127584Y0103804D02*
X0129886Y0103804D01*
X0129886Y0099200D01*
X0129886Y0093804D02*
X0127584Y0093804D01*
X0126817Y0093037D01*
X0126817Y0091502D01*
X0127584Y0090735D01*
X0129886Y0090735D01*
X0128352Y0090735D02*
X0126817Y0089200D01*
X0125282Y0089200D02*
X0125282Y0089967D01*
X0122213Y0093037D01*
X0122213Y0093804D01*
X0125282Y0093804D01*
X0129886Y0093804D02*
X0129886Y0089200D01*
X0132188Y0063804D02*
X0131421Y0063037D01*
X0131421Y0059967D01*
X0132188Y0059200D01*
X0133723Y0059200D01*
X0134490Y0059967D01*
X0136025Y0059967D02*
X0136792Y0059200D01*
X0138327Y0059200D01*
X0139094Y0059967D01*
X0139094Y0063037D01*
X0138327Y0063804D01*
X0136792Y0063804D01*
X0136025Y0063037D01*
X0134490Y0063037D02*
X0134490Y0062269D01*
X0133723Y0061502D01*
X0131421Y0061502D01*
X0132188Y0063804D02*
X0133723Y0063804D01*
X0134490Y0063037D01*
X0134490Y0052554D02*
X0131421Y0052554D01*
X0132188Y0051019D02*
X0131421Y0050252D01*
X0131421Y0048717D01*
X0132188Y0047950D01*
X0133723Y0047950D01*
X0134490Y0048717D01*
X0136025Y0048717D02*
X0136792Y0047950D01*
X0138327Y0047950D01*
X0139094Y0048717D01*
X0139094Y0051787D01*
X0138327Y0052554D01*
X0136792Y0052554D01*
X0136025Y0051787D01*
X0134490Y0052554D02*
X0134490Y0050252D01*
X0132955Y0051019D01*
X0132188Y0051019D01*
X0131421Y0041304D02*
X0131421Y0040537D01*
X0134490Y0037467D01*
X0134490Y0036700D01*
X0136025Y0037467D02*
X0136792Y0036700D01*
X0138327Y0036700D01*
X0139094Y0037467D01*
X0139094Y0040537D01*
X0138327Y0041304D01*
X0136792Y0041304D01*
X0136025Y0040537D01*
X0134490Y0041304D02*
X0131421Y0041304D01*
X0140286Y0033148D02*
X0140286Y0031613D01*
X0141053Y0030846D01*
X0141053Y0029311D02*
X0140286Y0028544D01*
X0140286Y0027009D01*
X0141053Y0026242D01*
X0144123Y0026242D01*
X0144890Y0027009D01*
X0144890Y0028544D01*
X0144123Y0029311D01*
X0144123Y0030846D02*
X0144890Y0031613D01*
X0144890Y0033148D01*
X0144123Y0033915D01*
X0143355Y0033915D01*
X0142588Y0033148D01*
X0141821Y0033915D01*
X0141053Y0033915D01*
X0140286Y0033148D01*
X0142588Y0033148D02*
X0142588Y0032381D01*
X0052787Y0064223D02*
X0049717Y0064223D01*
X0051252Y0064223D02*
X0051252Y0059619D01*
X0048183Y0060386D02*
X0047416Y0059619D01*
X0045881Y0059619D01*
X0045114Y0060386D01*
X0045114Y0061153D01*
X0045881Y0061921D01*
X0048183Y0061921D01*
X0048183Y0060386D01*
X0048183Y0061921D02*
X0046648Y0063455D01*
X0045114Y0064223D01*
X0034323Y0089200D02*
X0034323Y0093804D01*
X0032021Y0093804D01*
X0031254Y0093037D01*
X0031254Y0091502D01*
X0032021Y0090735D01*
X0034323Y0090735D01*
X0032788Y0090735D02*
X0031254Y0089200D01*
X0029719Y0089200D02*
X0026650Y0089200D01*
X0028184Y0089200D02*
X0028184Y0093804D01*
X0029719Y0092269D01*
X0029719Y0099200D02*
X0029719Y0103804D01*
X0027417Y0103804D01*
X0026650Y0103037D01*
X0026650Y0101502D01*
X0027417Y0100735D01*
X0029719Y0100735D01*
X0028184Y0100735D02*
X0026650Y0099200D01*
X0025115Y0099967D02*
X0024348Y0099200D01*
X0022813Y0099200D01*
X0022046Y0099967D01*
X0022046Y0103037D01*
X0022813Y0103804D01*
X0024348Y0103804D01*
X0025115Y0103037D01*
X0025115Y0102269D01*
X0024348Y0101502D01*
X0022046Y0101502D01*
X0022813Y0109200D02*
X0024348Y0109200D01*
X0025115Y0109967D01*
X0022046Y0113037D01*
X0022046Y0109967D01*
X0022813Y0109200D01*
X0025115Y0109967D02*
X0025115Y0113037D01*
X0024348Y0113804D01*
X0022813Y0113804D01*
X0022046Y0113037D01*
X0026650Y0109200D02*
X0029719Y0109200D01*
X0028184Y0109200D02*
X0028184Y0113804D01*
X0029719Y0112269D01*
X0031254Y0111502D02*
X0032021Y0110735D01*
X0034323Y0110735D01*
X0032788Y0110735D02*
X0031254Y0109200D01*
X0031254Y0111502D02*
X0031254Y0113037D01*
X0032021Y0113804D01*
X0034323Y0113804D01*
X0034323Y0109200D01*
X0024348Y0093804D02*
X0025115Y0093037D01*
X0024348Y0093804D02*
X0022813Y0093804D01*
X0022046Y0093037D01*
X0022046Y0092269D01*
X0025115Y0089200D01*
X0022046Y0089200D01*
X0023834Y0063804D02*
X0023067Y0063037D01*
X0023067Y0061502D01*
X0023834Y0060735D01*
X0026136Y0060735D01*
X0024602Y0060735D02*
X0023067Y0059200D01*
X0021532Y0059200D02*
X0018463Y0059200D01*
X0019998Y0059200D02*
X0019998Y0063804D01*
X0021532Y0062269D01*
X0023834Y0063804D02*
X0026136Y0063804D01*
X0026136Y0059200D01*
X0026136Y0052554D02*
X0023834Y0052554D01*
X0023067Y0051787D01*
X0023067Y0050252D01*
X0023834Y0049485D01*
X0026136Y0049485D01*
X0024602Y0049485D02*
X0023067Y0047950D01*
X0021532Y0048717D02*
X0020765Y0047950D01*
X0019230Y0047950D01*
X0018463Y0048717D01*
X0018463Y0049485D01*
X0019230Y0050252D01*
X0021532Y0050252D01*
X0021532Y0048717D01*
X0021532Y0050252D02*
X0019998Y0051787D01*
X0018463Y0052554D01*
X0019230Y0041304D02*
X0018463Y0040537D01*
X0018463Y0039769D01*
X0019230Y0039002D01*
X0020765Y0039002D01*
X0021532Y0039769D01*
X0021532Y0040537D01*
X0020765Y0041304D01*
X0019230Y0041304D01*
X0019230Y0039002D02*
X0018463Y0038235D01*
X0018463Y0037467D01*
X0019230Y0036700D01*
X0020765Y0036700D01*
X0021532Y0037467D01*
X0021532Y0038235D01*
X0020765Y0039002D01*
X0023067Y0040537D02*
X0023834Y0041304D01*
X0025369Y0041304D01*
X0026136Y0040537D01*
X0026136Y0037467D01*
X0025369Y0036700D01*
X0023834Y0036700D01*
X0023067Y0037467D01*
X0026136Y0047950D02*
X0026136Y0052554D01*
M02*
