G75*
%MOIN*%
%OFA0B0*%
%FSLAX25Y25*%
%IPPOS*%
%LPD*%
%AMOC8*
5,1,8,0,0,1.08239X$1,22.5*
%
%ADD10C,0.00000*%
%ADD11R,0.05906X0.05118*%
%ADD12R,0.07874X0.04724*%
%ADD13R,0.04724X0.07874*%
%ADD14R,0.08661X0.02362*%
%ADD15R,0.05906X0.15748*%
%ADD16R,0.40000X0.25000*%
%ADD17R,0.07600X0.21000*%
%ADD18R,0.05118X0.05906*%
%ADD19R,0.07087X0.06299*%
%ADD20C,0.40000*%
%ADD21R,0.20000X0.20000*%
%ADD22R,0.04000X0.13000*%
%ADD23C,0.01000*%
%ADD24C,0.03169*%
%ADD25C,0.03562*%
%ADD26C,0.01600*%
D10*
X0003211Y0011500D02*
X0003211Y0247406D01*
X0003214Y0247648D01*
X0003223Y0247889D01*
X0003237Y0248130D01*
X0003258Y0248371D01*
X0003284Y0248611D01*
X0003316Y0248851D01*
X0003354Y0249090D01*
X0003397Y0249327D01*
X0003447Y0249564D01*
X0003502Y0249799D01*
X0003562Y0250033D01*
X0003629Y0250265D01*
X0003700Y0250496D01*
X0003778Y0250725D01*
X0003861Y0250952D01*
X0003949Y0251177D01*
X0004043Y0251400D01*
X0004142Y0251620D01*
X0004247Y0251838D01*
X0004356Y0252053D01*
X0004471Y0252266D01*
X0004591Y0252476D01*
X0004716Y0252682D01*
X0004846Y0252886D01*
X0004981Y0253087D01*
X0005121Y0253284D01*
X0005265Y0253478D01*
X0005414Y0253668D01*
X0005568Y0253854D01*
X0005726Y0254037D01*
X0005888Y0254216D01*
X0006055Y0254391D01*
X0006226Y0254562D01*
X0006401Y0254729D01*
X0006580Y0254891D01*
X0006763Y0255049D01*
X0006949Y0255203D01*
X0007139Y0255352D01*
X0007333Y0255496D01*
X0007530Y0255636D01*
X0007731Y0255771D01*
X0007935Y0255901D01*
X0008141Y0256026D01*
X0008351Y0256146D01*
X0008564Y0256261D01*
X0008779Y0256370D01*
X0008997Y0256475D01*
X0009217Y0256574D01*
X0009440Y0256668D01*
X0009665Y0256756D01*
X0009892Y0256839D01*
X0010121Y0256917D01*
X0010352Y0256988D01*
X0010584Y0257055D01*
X0010818Y0257115D01*
X0011053Y0257170D01*
X0011290Y0257220D01*
X0011527Y0257263D01*
X0011766Y0257301D01*
X0012006Y0257333D01*
X0012246Y0257359D01*
X0012487Y0257380D01*
X0012728Y0257394D01*
X0012969Y0257403D01*
X0013211Y0257406D01*
X0138880Y0257406D01*
X0139122Y0257403D01*
X0139363Y0257394D01*
X0139604Y0257380D01*
X0139845Y0257359D01*
X0140085Y0257333D01*
X0140325Y0257301D01*
X0140564Y0257263D01*
X0140801Y0257220D01*
X0141038Y0257170D01*
X0141273Y0257115D01*
X0141507Y0257055D01*
X0141739Y0256988D01*
X0141970Y0256917D01*
X0142199Y0256839D01*
X0142426Y0256756D01*
X0142651Y0256668D01*
X0142874Y0256574D01*
X0143094Y0256475D01*
X0143312Y0256370D01*
X0143527Y0256261D01*
X0143740Y0256146D01*
X0143950Y0256026D01*
X0144156Y0255901D01*
X0144360Y0255771D01*
X0144561Y0255636D01*
X0144758Y0255496D01*
X0144952Y0255352D01*
X0145142Y0255203D01*
X0145328Y0255049D01*
X0145511Y0254891D01*
X0145690Y0254729D01*
X0145865Y0254562D01*
X0146036Y0254391D01*
X0146203Y0254216D01*
X0146365Y0254037D01*
X0146523Y0253854D01*
X0146677Y0253668D01*
X0146826Y0253478D01*
X0146970Y0253284D01*
X0147110Y0253087D01*
X0147245Y0252886D01*
X0147375Y0252682D01*
X0147500Y0252476D01*
X0147620Y0252266D01*
X0147735Y0252053D01*
X0147844Y0251838D01*
X0147949Y0251620D01*
X0148048Y0251400D01*
X0148142Y0251177D01*
X0148230Y0250952D01*
X0148313Y0250725D01*
X0148391Y0250496D01*
X0148462Y0250265D01*
X0148529Y0250033D01*
X0148589Y0249799D01*
X0148644Y0249564D01*
X0148694Y0249327D01*
X0148737Y0249090D01*
X0148775Y0248851D01*
X0148807Y0248611D01*
X0148833Y0248371D01*
X0148854Y0248130D01*
X0148868Y0247889D01*
X0148877Y0247648D01*
X0148880Y0247406D01*
X0148880Y0011500D01*
X0148877Y0011258D01*
X0148868Y0011017D01*
X0148854Y0010776D01*
X0148833Y0010535D01*
X0148807Y0010295D01*
X0148775Y0010055D01*
X0148737Y0009816D01*
X0148694Y0009579D01*
X0148644Y0009342D01*
X0148589Y0009107D01*
X0148529Y0008873D01*
X0148462Y0008641D01*
X0148391Y0008410D01*
X0148313Y0008181D01*
X0148230Y0007954D01*
X0148142Y0007729D01*
X0148048Y0007506D01*
X0147949Y0007286D01*
X0147844Y0007068D01*
X0147735Y0006853D01*
X0147620Y0006640D01*
X0147500Y0006430D01*
X0147375Y0006224D01*
X0147245Y0006020D01*
X0147110Y0005819D01*
X0146970Y0005622D01*
X0146826Y0005428D01*
X0146677Y0005238D01*
X0146523Y0005052D01*
X0146365Y0004869D01*
X0146203Y0004690D01*
X0146036Y0004515D01*
X0145865Y0004344D01*
X0145690Y0004177D01*
X0145511Y0004015D01*
X0145328Y0003857D01*
X0145142Y0003703D01*
X0144952Y0003554D01*
X0144758Y0003410D01*
X0144561Y0003270D01*
X0144360Y0003135D01*
X0144156Y0003005D01*
X0143950Y0002880D01*
X0143740Y0002760D01*
X0143527Y0002645D01*
X0143312Y0002536D01*
X0143094Y0002431D01*
X0142874Y0002332D01*
X0142651Y0002238D01*
X0142426Y0002150D01*
X0142199Y0002067D01*
X0141970Y0001989D01*
X0141739Y0001918D01*
X0141507Y0001851D01*
X0141273Y0001791D01*
X0141038Y0001736D01*
X0140801Y0001686D01*
X0140564Y0001643D01*
X0140325Y0001605D01*
X0140085Y0001573D01*
X0139845Y0001547D01*
X0139604Y0001526D01*
X0139363Y0001512D01*
X0139122Y0001503D01*
X0138880Y0001500D01*
X0013211Y0001500D01*
X0012969Y0001503D01*
X0012728Y0001512D01*
X0012487Y0001526D01*
X0012246Y0001547D01*
X0012006Y0001573D01*
X0011766Y0001605D01*
X0011527Y0001643D01*
X0011290Y0001686D01*
X0011053Y0001736D01*
X0010818Y0001791D01*
X0010584Y0001851D01*
X0010352Y0001918D01*
X0010121Y0001989D01*
X0009892Y0002067D01*
X0009665Y0002150D01*
X0009440Y0002238D01*
X0009217Y0002332D01*
X0008997Y0002431D01*
X0008779Y0002536D01*
X0008564Y0002645D01*
X0008351Y0002760D01*
X0008141Y0002880D01*
X0007935Y0003005D01*
X0007731Y0003135D01*
X0007530Y0003270D01*
X0007333Y0003410D01*
X0007139Y0003554D01*
X0006949Y0003703D01*
X0006763Y0003857D01*
X0006580Y0004015D01*
X0006401Y0004177D01*
X0006226Y0004344D01*
X0006055Y0004515D01*
X0005888Y0004690D01*
X0005726Y0004869D01*
X0005568Y0005052D01*
X0005414Y0005238D01*
X0005265Y0005428D01*
X0005121Y0005622D01*
X0004981Y0005819D01*
X0004846Y0006020D01*
X0004716Y0006224D01*
X0004591Y0006430D01*
X0004471Y0006640D01*
X0004356Y0006853D01*
X0004247Y0007068D01*
X0004142Y0007286D01*
X0004043Y0007506D01*
X0003949Y0007729D01*
X0003861Y0007954D01*
X0003778Y0008181D01*
X0003700Y0008410D01*
X0003629Y0008641D01*
X0003562Y0008873D01*
X0003502Y0009107D01*
X0003447Y0009342D01*
X0003397Y0009579D01*
X0003354Y0009816D01*
X0003316Y0010055D01*
X0003284Y0010295D01*
X0003258Y0010535D01*
X0003237Y0010776D01*
X0003223Y0011017D01*
X0003214Y0011258D01*
X0003211Y0011500D01*
D11*
X0014461Y0017760D03*
X0014461Y0025240D03*
X0032586Y0229010D03*
X0032586Y0236490D03*
X0132586Y0075240D03*
X0132586Y0067760D03*
X0142586Y0067760D03*
X0142586Y0075240D03*
X0137586Y0146510D03*
X0137586Y0153990D03*
D12*
X0109491Y0196874D03*
X0109491Y0204748D03*
X0109491Y0212622D03*
X0109491Y0220496D03*
X0109491Y0228370D03*
X0109491Y0236244D03*
X0109491Y0244118D03*
X0109491Y0251992D03*
X0045711Y0251992D03*
X0045711Y0244118D03*
X0045711Y0236244D03*
X0045711Y0228370D03*
X0045711Y0220496D03*
X0045711Y0212622D03*
X0045711Y0204748D03*
X0045711Y0196874D03*
D13*
X0057522Y0189000D03*
X0065396Y0189000D03*
X0073270Y0189000D03*
X0081144Y0189000D03*
X0089018Y0189000D03*
X0096892Y0189000D03*
D14*
X0090475Y0164000D03*
X0090475Y0159000D03*
X0090475Y0154000D03*
X0090475Y0149000D03*
X0110947Y0149000D03*
X0110947Y0154000D03*
X0110947Y0159000D03*
X0110947Y0164000D03*
X0060947Y0164000D03*
X0060947Y0159000D03*
X0060947Y0154000D03*
X0060947Y0149000D03*
X0040475Y0149000D03*
X0040475Y0154000D03*
X0040475Y0159000D03*
X0040475Y0164000D03*
D15*
X0037429Y0064925D03*
X0027586Y0064925D03*
X0017744Y0064925D03*
D16*
X0027586Y0106500D03*
D17*
X0137586Y0091250D03*
X0137586Y0129250D03*
D18*
X0104451Y0141500D03*
X0096971Y0141500D03*
X0054451Y0141500D03*
X0046971Y0141500D03*
D19*
X0018836Y0045137D03*
X0018836Y0034113D03*
D20*
X0085711Y0039625D03*
D21*
X0035711Y0039625D03*
X0135711Y0039625D03*
D22*
X0033836Y0011500D03*
X0023836Y0021500D03*
D23*
X0005638Y0007641D02*
X0007201Y0005490D01*
X0009352Y0003926D01*
X0011881Y0003105D01*
X0013211Y0003000D01*
X0138880Y0003000D01*
X0140210Y0003105D01*
X0142739Y0003926D01*
X0144891Y0005490D01*
X0146454Y0007641D01*
X0147276Y0010170D01*
X0147380Y0011500D01*
X0147380Y0247405D01*
X0147276Y0248735D01*
X0146454Y0251264D01*
X0144891Y0253416D01*
X0142739Y0254979D01*
X0140210Y0255801D01*
X0138880Y0255906D01*
X0013211Y0255906D01*
X0011881Y0255801D01*
X0009352Y0254979D01*
X0007201Y0253416D01*
X0005638Y0251264D01*
X0004816Y0248735D01*
X0004711Y0247406D01*
X0004711Y0126655D01*
X0004872Y0126816D01*
X0005822Y0127209D01*
X0006850Y0127209D01*
X0006896Y0127190D01*
X0006877Y0127236D01*
X0006877Y0128264D01*
X0007270Y0129214D01*
X0007997Y0129941D01*
X0008947Y0130334D01*
X0009975Y0130334D01*
X0010925Y0129941D01*
X0011616Y0129250D01*
X0047306Y0129250D01*
X0047997Y0129941D01*
X0048744Y0130250D01*
X0047997Y0130559D01*
X0047306Y0131250D01*
X0014465Y0131250D01*
X0013586Y0132129D01*
X0012961Y0132754D01*
X0012961Y0252121D01*
X0013840Y0253000D01*
X0040774Y0253000D01*
X0040774Y0254769D01*
X0041360Y0255354D01*
X0050062Y0255354D01*
X0050648Y0254769D01*
X0050648Y0249216D01*
X0050062Y0248630D01*
X0041360Y0248630D01*
X0040774Y0249216D01*
X0040774Y0250000D01*
X0015961Y0250000D01*
X0015961Y0134250D01*
X0047306Y0134250D01*
X0047431Y0134375D01*
X0031965Y0134375D01*
X0031086Y0135254D01*
X0031086Y0225451D01*
X0029219Y0225451D01*
X0028633Y0226037D01*
X0028633Y0231983D01*
X0029219Y0232569D01*
X0035953Y0232569D01*
X0036539Y0231983D01*
X0036539Y0226037D01*
X0035953Y0225451D01*
X0034086Y0225451D01*
X0034086Y0198625D01*
X0040774Y0198625D01*
X0040774Y0199650D01*
X0041360Y0200236D01*
X0050062Y0200236D01*
X0050461Y0199837D01*
X0050461Y0201785D01*
X0050062Y0201386D01*
X0041360Y0201386D01*
X0040774Y0201972D01*
X0040774Y0207524D01*
X0041360Y0208110D01*
X0050062Y0208110D01*
X0050461Y0207711D01*
X0050461Y0209659D01*
X0050062Y0209260D01*
X0041360Y0209260D01*
X0040774Y0209846D01*
X0040774Y0215398D01*
X0041360Y0215984D01*
X0050062Y0215984D01*
X0050461Y0215585D01*
X0050461Y0217533D01*
X0050062Y0217134D01*
X0041360Y0217134D01*
X0040774Y0217720D01*
X0040774Y0223272D01*
X0041360Y0223858D01*
X0050062Y0223858D01*
X0050461Y0223459D01*
X0050461Y0225407D01*
X0050062Y0225008D01*
X0041360Y0225008D01*
X0040774Y0225594D01*
X0040774Y0231146D01*
X0041360Y0231732D01*
X0050062Y0231732D01*
X0050461Y0231333D01*
X0050461Y0233281D01*
X0050062Y0232882D01*
X0041360Y0232882D01*
X0040774Y0233468D01*
X0040774Y0234990D01*
X0036539Y0234990D01*
X0036539Y0233517D01*
X0035953Y0232931D01*
X0029219Y0232931D01*
X0028633Y0233517D01*
X0028633Y0239463D01*
X0029219Y0240049D01*
X0035953Y0240049D01*
X0036539Y0239463D01*
X0036539Y0237990D01*
X0040774Y0237990D01*
X0040774Y0239021D01*
X0041360Y0239606D01*
X0050062Y0239606D01*
X0050461Y0239207D01*
X0050461Y0241155D01*
X0050062Y0240756D01*
X0041360Y0240756D01*
X0040774Y0241342D01*
X0040774Y0246895D01*
X0041360Y0247480D01*
X0050062Y0247480D01*
X0050648Y0246895D01*
X0050648Y0243558D01*
X0051340Y0244250D01*
X0083322Y0244250D01*
X0083353Y0244325D01*
X0084136Y0245108D01*
X0085158Y0245531D01*
X0086264Y0245531D01*
X0087286Y0245108D01*
X0088069Y0244325D01*
X0088492Y0243303D01*
X0088492Y0242197D01*
X0088069Y0241175D01*
X0087286Y0240392D01*
X0086264Y0239969D01*
X0085158Y0239969D01*
X0084136Y0240392D01*
X0083353Y0241175D01*
X0083322Y0241250D01*
X0053461Y0241250D01*
X0053461Y0197129D01*
X0052582Y0196250D01*
X0051957Y0195625D01*
X0050648Y0195625D01*
X0050648Y0194098D01*
X0050062Y0193512D01*
X0041360Y0193512D01*
X0040774Y0194098D01*
X0040774Y0195625D01*
X0034086Y0195625D01*
X0034086Y0159496D01*
X0035090Y0160500D01*
X0035144Y0160500D01*
X0035144Y0160595D01*
X0035730Y0161181D01*
X0045220Y0161181D01*
X0045806Y0160595D01*
X0045806Y0157405D01*
X0045220Y0156819D01*
X0035961Y0156819D01*
X0035961Y0156681D01*
X0040384Y0156681D01*
X0040384Y0154091D01*
X0040565Y0154091D01*
X0040565Y0156681D01*
X0045003Y0156681D01*
X0045385Y0156579D01*
X0045727Y0156381D01*
X0046006Y0156102D01*
X0046203Y0155760D01*
X0046306Y0155379D01*
X0046306Y0154091D01*
X0040566Y0154091D01*
X0040566Y0153909D01*
X0046306Y0153909D01*
X0046306Y0152621D01*
X0046203Y0152240D01*
X0046006Y0151898D01*
X0045727Y0151619D01*
X0045385Y0151421D01*
X0045003Y0151319D01*
X0040565Y0151319D01*
X0040565Y0153909D01*
X0040384Y0153909D01*
X0040384Y0151319D01*
X0035961Y0151319D01*
X0035961Y0151181D01*
X0045220Y0151181D01*
X0045806Y0150595D01*
X0045806Y0147405D01*
X0045220Y0146819D01*
X0042211Y0146819D01*
X0042211Y0143000D01*
X0043412Y0143000D01*
X0043412Y0144867D01*
X0043998Y0145453D01*
X0049944Y0145453D01*
X0050530Y0144867D01*
X0050530Y0138133D01*
X0049944Y0137547D01*
X0043998Y0137547D01*
X0043412Y0138133D01*
X0043412Y0140000D01*
X0040090Y0140000D01*
X0039211Y0140879D01*
X0039211Y0146819D01*
X0035730Y0146819D01*
X0035144Y0147405D01*
X0035144Y0147500D01*
X0035090Y0147500D01*
X0034086Y0148504D01*
X0034086Y0137375D01*
X0052582Y0137375D01*
X0056332Y0133625D01*
X0057211Y0132746D01*
X0057211Y0129905D01*
X0057902Y0129214D01*
X0058295Y0128264D01*
X0058295Y0127236D01*
X0057902Y0126286D01*
X0057741Y0126125D01*
X0075707Y0126125D01*
X0076586Y0125246D01*
X0081586Y0120246D01*
X0081586Y0101996D01*
X0081711Y0102121D01*
X0081711Y0120879D01*
X0062590Y0140000D01*
X0058010Y0140000D01*
X0058010Y0138133D01*
X0057425Y0137547D01*
X0051478Y0137547D01*
X0050892Y0138133D01*
X0050892Y0144867D01*
X0051478Y0145453D01*
X0057425Y0145453D01*
X0058010Y0144867D01*
X0058010Y0143000D01*
X0063832Y0143000D01*
X0064711Y0142121D01*
X0069377Y0137456D01*
X0069377Y0138264D01*
X0069431Y0138395D01*
X0061007Y0146819D01*
X0056202Y0146819D01*
X0055617Y0147405D01*
X0055617Y0150595D01*
X0056202Y0151181D01*
X0059447Y0151181D01*
X0059447Y0151819D01*
X0056202Y0151819D01*
X0055617Y0152405D01*
X0055617Y0155595D01*
X0056202Y0156181D01*
X0059447Y0156181D01*
X0059447Y0156819D01*
X0056202Y0156819D01*
X0055617Y0157405D01*
X0055617Y0160595D01*
X0056202Y0161181D01*
X0059447Y0161181D01*
X0059447Y0161819D01*
X0056202Y0161819D01*
X0055617Y0162405D01*
X0055617Y0165595D01*
X0056202Y0166181D01*
X0065692Y0166181D01*
X0066278Y0165595D01*
X0066278Y0162405D01*
X0065692Y0161819D01*
X0062447Y0161819D01*
X0062447Y0161181D01*
X0065692Y0161181D01*
X0066278Y0160595D01*
X0066278Y0157405D01*
X0065692Y0156819D01*
X0062447Y0156819D01*
X0062447Y0156181D01*
X0065692Y0156181D01*
X0066278Y0155595D01*
X0066278Y0152405D01*
X0065692Y0151819D01*
X0062447Y0151819D01*
X0062447Y0151181D01*
X0065692Y0151181D01*
X0066278Y0150595D01*
X0066278Y0147405D01*
X0065692Y0146819D01*
X0065250Y0146819D01*
X0071734Y0140334D01*
X0072475Y0140334D01*
X0073425Y0139941D01*
X0074152Y0139214D01*
X0074545Y0138264D01*
X0074545Y0137236D01*
X0074152Y0136286D01*
X0073425Y0135559D01*
X0072475Y0135166D01*
X0071667Y0135166D01*
X0084711Y0122121D01*
X0084711Y0101371D01*
X0084836Y0101496D01*
X0084836Y0122129D01*
X0075715Y0131250D01*
X0074836Y0132129D01*
X0074836Y0167746D01*
X0080149Y0173059D01*
X0081027Y0173937D01*
X0104152Y0173937D01*
X0104211Y0173996D01*
X0104211Y0186504D01*
X0100402Y0190312D01*
X0100254Y0190460D01*
X0100254Y0184649D01*
X0099669Y0184063D01*
X0094116Y0184063D01*
X0093530Y0184649D01*
X0093530Y0193351D01*
X0094116Y0193937D01*
X0099524Y0193937D01*
X0099524Y0252434D01*
X0100715Y0253625D01*
X0104554Y0253625D01*
X0104554Y0254769D01*
X0105139Y0255354D01*
X0113842Y0255354D01*
X0114428Y0254769D01*
X0114428Y0249216D01*
X0113842Y0248630D01*
X0105139Y0248630D01*
X0104554Y0249216D01*
X0104554Y0250625D01*
X0102524Y0250625D01*
X0102524Y0244809D01*
X0102902Y0245187D01*
X0103215Y0245500D01*
X0104554Y0245500D01*
X0104554Y0246895D01*
X0105139Y0247480D01*
X0113842Y0247480D01*
X0114428Y0246895D01*
X0114428Y0241342D01*
X0113842Y0240756D01*
X0105139Y0240756D01*
X0105024Y0240872D01*
X0105024Y0239490D01*
X0105139Y0239606D01*
X0113842Y0239606D01*
X0114428Y0239021D01*
X0114428Y0233468D01*
X0113842Y0232882D01*
X0105139Y0232882D01*
X0105024Y0232998D01*
X0105024Y0231616D01*
X0105139Y0231732D01*
X0113842Y0231732D01*
X0114428Y0231146D01*
X0114428Y0225594D01*
X0113842Y0225008D01*
X0105139Y0225008D01*
X0105024Y0225124D01*
X0105024Y0223742D01*
X0105139Y0223858D01*
X0113842Y0223858D01*
X0114428Y0223272D01*
X0114428Y0217720D01*
X0113842Y0217134D01*
X0105139Y0217134D01*
X0105024Y0217250D01*
X0105024Y0215868D01*
X0105139Y0215984D01*
X0113842Y0215984D01*
X0114428Y0215398D01*
X0114428Y0209846D01*
X0113842Y0209260D01*
X0105139Y0209260D01*
X0105024Y0209376D01*
X0105024Y0207994D01*
X0105139Y0208110D01*
X0113842Y0208110D01*
X0114428Y0207524D01*
X0114428Y0201972D01*
X0113842Y0201386D01*
X0105139Y0201386D01*
X0105024Y0201502D01*
X0105024Y0200120D01*
X0105139Y0200236D01*
X0113842Y0200236D01*
X0114428Y0199650D01*
X0114428Y0194098D01*
X0113842Y0193512D01*
X0112447Y0193512D01*
X0112447Y0166181D01*
X0115692Y0166181D01*
X0116278Y0165595D01*
X0116278Y0162405D01*
X0115692Y0161819D01*
X0112447Y0161819D01*
X0112447Y0161181D01*
X0115692Y0161181D01*
X0116278Y0160595D01*
X0116278Y0157405D01*
X0115692Y0156819D01*
X0112447Y0156819D01*
X0112447Y0156181D01*
X0115692Y0156181D01*
X0116278Y0155595D01*
X0116278Y0152405D01*
X0115692Y0151819D01*
X0112447Y0151819D01*
X0112447Y0151181D01*
X0115692Y0151181D01*
X0116278Y0150595D01*
X0116278Y0147405D01*
X0115692Y0146819D01*
X0106202Y0146819D01*
X0105617Y0147405D01*
X0105617Y0150595D01*
X0106202Y0151181D01*
X0109447Y0151181D01*
X0109447Y0151819D01*
X0106202Y0151819D01*
X0105617Y0152405D01*
X0105617Y0155595D01*
X0106202Y0156181D01*
X0109447Y0156181D01*
X0109447Y0156819D01*
X0106202Y0156819D01*
X0105617Y0157405D01*
X0105617Y0160595D01*
X0106202Y0161181D01*
X0109447Y0161181D01*
X0109447Y0161819D01*
X0106202Y0161819D01*
X0105617Y0162405D01*
X0105617Y0165595D01*
X0106202Y0166181D01*
X0109447Y0166181D01*
X0109447Y0171240D01*
X0106332Y0168125D01*
X0083832Y0168125D01*
X0080961Y0165254D01*
X0080961Y0134621D01*
X0082502Y0133081D01*
X0082502Y0133264D01*
X0082895Y0134214D01*
X0083622Y0134941D01*
X0084572Y0135334D01*
X0085600Y0135334D01*
X0086550Y0134941D01*
X0087277Y0134214D01*
X0087670Y0133264D01*
X0087670Y0132287D01*
X0094086Y0125871D01*
X0094086Y0099496D01*
X0094211Y0099621D01*
X0094211Y0127121D01*
X0102951Y0135861D01*
X0102951Y0137547D01*
X0101478Y0137547D01*
X0100892Y0138133D01*
X0100892Y0144867D01*
X0101478Y0145453D01*
X0107425Y0145453D01*
X0108010Y0144867D01*
X0108010Y0138133D01*
X0107425Y0137547D01*
X0105951Y0137547D01*
X0105951Y0134619D01*
X0097211Y0125879D01*
X0097211Y0098379D01*
X0096332Y0097500D01*
X0080795Y0081963D01*
X0080795Y0080986D01*
X0080402Y0080036D01*
X0079675Y0079309D01*
X0078725Y0078916D01*
X0077697Y0078916D01*
X0076747Y0079309D01*
X0076020Y0080036D01*
X0075756Y0080674D01*
X0066420Y0071338D01*
X0066420Y0070361D01*
X0066356Y0070206D01*
X0066460Y0070263D01*
X0066679Y0070418D01*
X0066727Y0070410D01*
X0069745Y0072079D01*
X0069763Y0072123D01*
X0070011Y0072226D01*
X0070246Y0072356D01*
X0070293Y0072342D01*
X0073479Y0073662D01*
X0073502Y0073704D01*
X0073760Y0073779D01*
X0074008Y0073881D01*
X0074053Y0073863D01*
X0077367Y0074818D01*
X0077395Y0074857D01*
X0077659Y0074902D01*
X0077917Y0074976D01*
X0077960Y0074953D01*
X0081360Y0075531D01*
X0081392Y0075567D01*
X0081660Y0075582D01*
X0081925Y0075627D01*
X0081964Y0075599D01*
X0085407Y0075792D01*
X0085443Y0075824D01*
X0085711Y0075809D01*
X0085979Y0075824D01*
X0086015Y0075792D01*
X0089458Y0075599D01*
X0089498Y0075627D01*
X0089762Y0075582D01*
X0090031Y0075567D01*
X0090063Y0075531D01*
X0093463Y0074953D01*
X0093505Y0074976D01*
X0093763Y0074902D01*
X0094028Y0074857D01*
X0094056Y0074818D01*
X0097369Y0073863D01*
X0097414Y0073881D01*
X0097662Y0073779D01*
X0097920Y0073704D01*
X0097943Y0073662D01*
X0100028Y0072799D01*
X0100002Y0072861D01*
X0100002Y0073889D01*
X0100395Y0074839D01*
X0101086Y0075530D01*
X0101086Y0089345D01*
X0100395Y0090036D01*
X0100002Y0090986D01*
X0100002Y0092014D01*
X0100395Y0092964D01*
X0101122Y0093691D01*
X0102072Y0094084D01*
X0102772Y0094084D01*
X0102502Y0094736D01*
X0102502Y0095764D01*
X0102895Y0096714D01*
X0103056Y0096875D01*
X0102582Y0096875D01*
X0100795Y0095088D01*
X0100795Y0094111D01*
X0100402Y0093161D01*
X0099675Y0092434D01*
X0098725Y0092041D01*
X0097697Y0092041D01*
X0096747Y0092434D01*
X0096020Y0093161D01*
X0095627Y0094111D01*
X0095627Y0095139D01*
X0096020Y0096089D01*
X0096747Y0096816D01*
X0097697Y0097209D01*
X0098674Y0097209D01*
X0101340Y0099875D01*
X0121332Y0099875D01*
X0122211Y0098996D01*
X0122211Y0073446D01*
X0122270Y0073589D01*
X0122997Y0074316D01*
X0123947Y0074709D01*
X0124975Y0074709D01*
X0125925Y0074316D01*
X0126652Y0073589D01*
X0127045Y0072639D01*
X0127045Y0071662D01*
X0128633Y0070074D01*
X0128633Y0070733D01*
X0129219Y0071319D01*
X0135953Y0071319D01*
X0136539Y0070733D01*
X0136539Y0064787D01*
X0135953Y0064201D01*
X0129219Y0064201D01*
X0128633Y0064787D01*
X0128633Y0066250D01*
X0128215Y0066250D01*
X0127336Y0067129D01*
X0124924Y0069541D01*
X0123947Y0069541D01*
X0122997Y0069934D01*
X0122270Y0070661D01*
X0122211Y0070804D01*
X0122211Y0067746D01*
X0136332Y0053625D01*
X0137211Y0052746D01*
X0137211Y0050625D01*
X0146125Y0050625D01*
X0146711Y0050039D01*
X0146711Y0029211D01*
X0146125Y0028625D01*
X0125297Y0028625D01*
X0124711Y0029211D01*
X0124711Y0050039D01*
X0125297Y0050625D01*
X0134211Y0050625D01*
X0134211Y0051504D01*
X0119211Y0066504D01*
X0119211Y0096875D01*
X0107116Y0096875D01*
X0107277Y0096714D01*
X0107670Y0095764D01*
X0107670Y0094787D01*
X0107836Y0094621D01*
X0107836Y0074280D01*
X0108527Y0073589D01*
X0108920Y0072639D01*
X0108920Y0071611D01*
X0108527Y0070661D01*
X0107800Y0069934D01*
X0106850Y0069541D01*
X0105980Y0069541D01*
X0108023Y0068091D01*
X0108071Y0068094D01*
X0108272Y0067915D01*
X0108491Y0067760D01*
X0108499Y0067712D01*
X0111070Y0065414D01*
X0111118Y0065411D01*
X0111297Y0065211D01*
X0111497Y0065032D01*
X0111500Y0064984D01*
X0113798Y0062413D01*
X0113846Y0062405D01*
X0114001Y0062186D01*
X0114180Y0061985D01*
X0114177Y0061937D01*
X0116173Y0059125D01*
X0116219Y0059111D01*
X0116349Y0058876D01*
X0116505Y0058657D01*
X0116497Y0058610D01*
X0118165Y0055591D01*
X0118209Y0055573D01*
X0118312Y0055325D01*
X0118442Y0055090D01*
X0118429Y0055043D01*
X0119748Y0051857D01*
X0119791Y0051834D01*
X0119865Y0051576D01*
X0119968Y0051328D01*
X0119949Y0051283D01*
X0120904Y0047969D01*
X0120943Y0047941D01*
X0120988Y0047677D01*
X0121062Y0047419D01*
X0121039Y0047376D01*
X0121617Y0043977D01*
X0121653Y0043944D01*
X0121668Y0043676D01*
X0121713Y0043412D01*
X0121685Y0043372D01*
X0121878Y0039929D01*
X0121910Y0039893D01*
X0121895Y0039625D01*
X0121910Y0039357D01*
X0121878Y0039321D01*
X0121685Y0035878D01*
X0121713Y0035838D01*
X0121668Y0035574D01*
X0121653Y0035306D01*
X0121617Y0035273D01*
X0121039Y0031874D01*
X0121062Y0031831D01*
X0120988Y0031573D01*
X0120943Y0031309D01*
X0120904Y0031281D01*
X0119949Y0027967D01*
X0119968Y0027922D01*
X0119865Y0027674D01*
X0119791Y0027416D01*
X0119748Y0027393D01*
X0118429Y0024207D01*
X0118442Y0024160D01*
X0118312Y0023925D01*
X0118209Y0023677D01*
X0118165Y0023659D01*
X0116497Y0020640D01*
X0116505Y0020593D01*
X0116349Y0020374D01*
X0116219Y0020139D01*
X0116173Y0020125D01*
X0114177Y0017313D01*
X0114180Y0017265D01*
X0114001Y0017064D01*
X0113846Y0016845D01*
X0113798Y0016837D01*
X0111500Y0014266D01*
X0111497Y0014218D01*
X0111297Y0014039D01*
X0111118Y0013839D01*
X0111070Y0013836D01*
X0108499Y0011538D01*
X0108491Y0011490D01*
X0108272Y0011335D01*
X0108071Y0011156D01*
X0108023Y0011159D01*
X0105211Y0009163D01*
X0105197Y0009117D01*
X0104962Y0008987D01*
X0104743Y0008832D01*
X0104696Y0008840D01*
X0101677Y0007171D01*
X0101659Y0007127D01*
X0101411Y0007024D01*
X0101176Y0006894D01*
X0101130Y0006908D01*
X0097943Y0005588D01*
X0097920Y0005546D01*
X0097662Y0005471D01*
X0097414Y0005369D01*
X0097369Y0005387D01*
X0094056Y0004432D01*
X0094028Y0004393D01*
X0093763Y0004348D01*
X0093505Y0004274D01*
X0093463Y0004297D01*
X0090063Y0003719D01*
X0090031Y0003683D01*
X0089762Y0003668D01*
X0089498Y0003623D01*
X0089458Y0003651D01*
X0086015Y0003458D01*
X0085979Y0003426D01*
X0085711Y0003441D01*
X0085443Y0003426D01*
X0085407Y0003458D01*
X0081964Y0003651D01*
X0081925Y0003623D01*
X0081660Y0003668D01*
X0081392Y0003683D01*
X0081360Y0003719D01*
X0077960Y0004297D01*
X0077917Y0004274D01*
X0077659Y0004348D01*
X0077395Y0004393D01*
X0077367Y0004432D01*
X0074053Y0005387D01*
X0074008Y0005369D01*
X0073760Y0005471D01*
X0073502Y0005546D01*
X0073479Y0005588D01*
X0070293Y0006908D01*
X0070246Y0006894D01*
X0070011Y0007024D01*
X0069763Y0007127D01*
X0069745Y0007171D01*
X0066727Y0008840D01*
X0066679Y0008832D01*
X0066460Y0008987D01*
X0066225Y0009117D01*
X0066212Y0009163D01*
X0063399Y0011159D01*
X0063351Y0011156D01*
X0063151Y0011335D01*
X0062932Y0011490D01*
X0062924Y0011538D01*
X0060352Y0013836D01*
X0060304Y0013839D01*
X0060125Y0014039D01*
X0059925Y0014218D01*
X0059922Y0014266D01*
X0057624Y0016837D01*
X0057577Y0016845D01*
X0057421Y0017064D01*
X0057242Y0017265D01*
X0057245Y0017313D01*
X0055249Y0020125D01*
X0055203Y0020139D01*
X0055073Y0020374D01*
X0054918Y0020593D01*
X0054926Y0020640D01*
X0053258Y0023659D01*
X0053213Y0023677D01*
X0053110Y0023925D01*
X0052980Y0024160D01*
X0052994Y0024207D01*
X0051674Y0027393D01*
X0051632Y0027416D01*
X0051557Y0027674D01*
X0051455Y0027922D01*
X0051473Y0027967D01*
X0050518Y0031281D01*
X0050479Y0031309D01*
X0050434Y0031573D01*
X0050360Y0031831D01*
X0050383Y0031874D01*
X0049805Y0035273D01*
X0049769Y0035306D01*
X0049754Y0035574D01*
X0049709Y0035838D01*
X0049737Y0035878D01*
X0049544Y0039321D01*
X0049512Y0039357D01*
X0049527Y0039625D01*
X0049512Y0039893D01*
X0049544Y0039929D01*
X0049737Y0043372D01*
X0049709Y0043412D01*
X0049754Y0043676D01*
X0049769Y0043944D01*
X0049805Y0043977D01*
X0050383Y0047376D01*
X0050360Y0047419D01*
X0050434Y0047677D01*
X0050479Y0047941D01*
X0050518Y0047969D01*
X0051473Y0051283D01*
X0051455Y0051328D01*
X0051557Y0051576D01*
X0051632Y0051834D01*
X0051674Y0051857D01*
X0052994Y0055043D01*
X0052980Y0055090D01*
X0053110Y0055325D01*
X0053213Y0055573D01*
X0053258Y0055591D01*
X0054926Y0058610D01*
X0054918Y0058657D01*
X0055073Y0058876D01*
X0055203Y0059111D01*
X0055249Y0059125D01*
X0057245Y0061937D01*
X0057242Y0061985D01*
X0057421Y0062186D01*
X0057577Y0062405D01*
X0057624Y0062413D01*
X0059922Y0064984D01*
X0059925Y0065032D01*
X0060125Y0065211D01*
X0060304Y0065411D01*
X0060352Y0065414D01*
X0062924Y0067712D01*
X0062932Y0067760D01*
X0063151Y0067915D01*
X0063351Y0068094D01*
X0063399Y0068091D01*
X0063680Y0068291D01*
X0063322Y0068291D01*
X0062372Y0068684D01*
X0061961Y0069095D01*
X0061550Y0068684D01*
X0060600Y0068291D01*
X0059572Y0068291D01*
X0058622Y0068684D01*
X0058211Y0069095D01*
X0058116Y0069000D01*
X0058527Y0068589D01*
X0058920Y0067639D01*
X0058920Y0066611D01*
X0058527Y0065661D01*
X0057800Y0064934D01*
X0056850Y0064541D01*
X0055822Y0064541D01*
X0054872Y0064934D01*
X0054181Y0065625D01*
X0041381Y0065625D01*
X0041381Y0056637D01*
X0040796Y0056051D01*
X0038929Y0056051D01*
X0038929Y0050625D01*
X0046125Y0050625D01*
X0046711Y0050039D01*
X0046711Y0029211D01*
X0046125Y0028625D01*
X0026625Y0028625D01*
X0026836Y0028414D01*
X0026836Y0014586D01*
X0026250Y0014000D01*
X0021422Y0014000D01*
X0020836Y0014586D01*
X0020836Y0023440D01*
X0018414Y0023440D01*
X0018414Y0022267D01*
X0017891Y0021744D01*
X0017993Y0021717D01*
X0018335Y0021519D01*
X0018614Y0021240D01*
X0018812Y0020898D01*
X0018914Y0020516D01*
X0018914Y0018260D01*
X0014961Y0018260D01*
X0014961Y0017260D01*
X0018914Y0017260D01*
X0018914Y0015003D01*
X0018812Y0014622D01*
X0018614Y0014280D01*
X0018335Y0014000D01*
X0017993Y0013803D01*
X0017611Y0013701D01*
X0014961Y0013701D01*
X0014961Y0017260D01*
X0013961Y0017260D01*
X0010008Y0017260D01*
X0010008Y0015003D01*
X0010111Y0014622D01*
X0010308Y0014280D01*
X0010587Y0014000D01*
X0010929Y0013803D01*
X0011311Y0013701D01*
X0013961Y0013701D01*
X0013961Y0017260D01*
X0013961Y0018260D01*
X0010008Y0018260D01*
X0010008Y0020516D01*
X0010111Y0020898D01*
X0010308Y0021240D01*
X0010587Y0021519D01*
X0010929Y0021717D01*
X0011031Y0021744D01*
X0010508Y0022267D01*
X0010508Y0024782D01*
X0008286Y0027004D01*
X0008286Y0055996D01*
X0013791Y0061500D01*
X0013791Y0073213D01*
X0014377Y0073799D01*
X0021111Y0073799D01*
X0021696Y0073213D01*
X0021696Y0056637D01*
X0021111Y0056051D01*
X0014377Y0056051D01*
X0013905Y0056523D01*
X0011886Y0054504D01*
X0011886Y0028799D01*
X0017828Y0028799D01*
X0018414Y0028213D01*
X0018414Y0027040D01*
X0020836Y0027040D01*
X0020836Y0028414D01*
X0021422Y0029000D01*
X0024922Y0029000D01*
X0024711Y0029211D01*
X0024711Y0032500D01*
X0023379Y0032500D01*
X0023379Y0030549D01*
X0022794Y0029964D01*
X0014879Y0029964D01*
X0014293Y0030549D01*
X0014293Y0037677D01*
X0014879Y0038263D01*
X0022794Y0038263D01*
X0023379Y0037677D01*
X0023379Y0035500D01*
X0024711Y0035500D01*
X0024711Y0047879D01*
X0023797Y0048793D01*
X0023879Y0048484D01*
X0023879Y0045637D01*
X0019336Y0045637D01*
X0019336Y0044637D01*
X0023879Y0044637D01*
X0023879Y0041790D01*
X0023777Y0041408D01*
X0023580Y0041066D01*
X0023300Y0040787D01*
X0022958Y0040589D01*
X0022577Y0040487D01*
X0019336Y0040487D01*
X0019336Y0044637D01*
X0018336Y0044637D01*
X0013793Y0044637D01*
X0013793Y0041790D01*
X0013895Y0041408D01*
X0014093Y0041066D01*
X0014372Y0040787D01*
X0014714Y0040589D01*
X0015095Y0040487D01*
X0018336Y0040487D01*
X0018336Y0044637D01*
X0018336Y0045637D01*
X0013793Y0045637D01*
X0013793Y0048484D01*
X0013895Y0048865D01*
X0014093Y0049207D01*
X0014372Y0049487D01*
X0014714Y0049684D01*
X0015095Y0049786D01*
X0017520Y0049786D01*
X0017270Y0050036D01*
X0016877Y0050986D01*
X0016877Y0052014D01*
X0017270Y0052964D01*
X0017997Y0053691D01*
X0018947Y0054084D01*
X0019975Y0054084D01*
X0020925Y0053691D01*
X0021616Y0053000D01*
X0023832Y0053000D01*
X0026207Y0050625D01*
X0035929Y0050625D01*
X0035929Y0056051D01*
X0034062Y0056051D01*
X0033476Y0056637D01*
X0033476Y0073213D01*
X0034062Y0073799D01*
X0035606Y0073799D01*
X0036122Y0074316D01*
X0037072Y0074709D01*
X0038100Y0074709D01*
X0039050Y0074316D01*
X0039567Y0073799D01*
X0040796Y0073799D01*
X0041381Y0073213D01*
X0041381Y0068625D01*
X0054181Y0068625D01*
X0054556Y0069000D01*
X0054145Y0069411D01*
X0053752Y0070361D01*
X0053752Y0071389D01*
X0054145Y0072339D01*
X0054872Y0073066D01*
X0055822Y0073459D01*
X0056799Y0073459D01*
X0066135Y0082795D01*
X0065497Y0083059D01*
X0064770Y0083786D01*
X0064377Y0084736D01*
X0064377Y0085764D01*
X0064770Y0086714D01*
X0065497Y0087441D01*
X0066447Y0087834D01*
X0067424Y0087834D01*
X0075215Y0095625D01*
X0070366Y0095625D01*
X0069675Y0094934D01*
X0068725Y0094541D01*
X0067697Y0094541D01*
X0066747Y0094934D01*
X0066020Y0095661D01*
X0065627Y0096611D01*
X0065627Y0097639D01*
X0066020Y0098589D01*
X0066747Y0099316D01*
X0067697Y0099709D01*
X0068725Y0099709D01*
X0069675Y0099316D01*
X0070366Y0098625D01*
X0070640Y0098625D01*
X0070497Y0098684D01*
X0069770Y0099411D01*
X0069377Y0100361D01*
X0069377Y0101389D01*
X0069770Y0102339D01*
X0070497Y0103066D01*
X0071447Y0103459D01*
X0072475Y0103459D01*
X0073425Y0103066D01*
X0073978Y0102513D01*
X0075461Y0103996D01*
X0075461Y0118379D01*
X0073840Y0120000D01*
X0048707Y0120000D01*
X0048786Y0119921D01*
X0048984Y0119579D01*
X0049086Y0119197D01*
X0049086Y0107000D01*
X0028086Y0107000D01*
X0028086Y0106000D01*
X0028086Y0092500D01*
X0047784Y0092500D01*
X0047961Y0092548D01*
X0047961Y0082405D01*
X0047270Y0081714D01*
X0046877Y0080764D01*
X0046877Y0079736D01*
X0047270Y0078786D01*
X0047997Y0078059D01*
X0048947Y0077666D01*
X0049975Y0077666D01*
X0050925Y0078059D01*
X0051652Y0078786D01*
X0052045Y0079736D01*
X0052045Y0080764D01*
X0051652Y0081714D01*
X0050961Y0082405D01*
X0050961Y0087679D01*
X0051020Y0087536D01*
X0051747Y0086809D01*
X0052697Y0086416D01*
X0053725Y0086416D01*
X0054675Y0086809D01*
X0055366Y0087500D01*
X0059181Y0087500D01*
X0059872Y0086809D01*
X0060822Y0086416D01*
X0061850Y0086416D01*
X0062800Y0086809D01*
X0063527Y0087536D01*
X0063920Y0088486D01*
X0063920Y0089514D01*
X0063527Y0090464D01*
X0062800Y0091191D01*
X0061850Y0091584D01*
X0060822Y0091584D01*
X0059872Y0091191D01*
X0059181Y0090500D01*
X0055366Y0090500D01*
X0054675Y0091191D01*
X0053725Y0091584D01*
X0052697Y0091584D01*
X0051747Y0091191D01*
X0051020Y0090464D01*
X0050961Y0090321D01*
X0050961Y0096504D01*
X0051498Y0097041D01*
X0052475Y0097041D01*
X0053425Y0097434D01*
X0054152Y0098161D01*
X0054545Y0099111D01*
X0054545Y0100139D01*
X0054152Y0101089D01*
X0053425Y0101816D01*
X0052475Y0102209D01*
X0051447Y0102209D01*
X0050497Y0101816D01*
X0049770Y0101089D01*
X0049377Y0100139D01*
X0049377Y0099162D01*
X0049086Y0098871D01*
X0049086Y0106000D01*
X0028086Y0106000D01*
X0027086Y0106000D01*
X0006086Y0106000D01*
X0006086Y0093803D01*
X0006188Y0093421D01*
X0006386Y0093079D01*
X0006665Y0092800D01*
X0007007Y0092602D01*
X0007389Y0092500D01*
X0027086Y0092500D01*
X0027086Y0106000D01*
X0027086Y0107000D01*
X0006086Y0107000D01*
X0006086Y0119197D01*
X0006188Y0119579D01*
X0006386Y0119921D01*
X0006665Y0120200D01*
X0007007Y0120398D01*
X0007109Y0120425D01*
X0006877Y0120986D01*
X0006877Y0122014D01*
X0006896Y0122060D01*
X0006850Y0122041D01*
X0005822Y0122041D01*
X0004872Y0122434D01*
X0004711Y0122595D01*
X0004711Y0011500D01*
X0004816Y0010170D01*
X0005638Y0007641D01*
X0005747Y0007491D02*
X0030336Y0007491D01*
X0030336Y0006493D02*
X0006472Y0006493D01*
X0007197Y0005494D02*
X0030336Y0005494D01*
X0030336Y0004803D02*
X0030438Y0004421D01*
X0030636Y0004079D01*
X0030915Y0003800D01*
X0031257Y0003602D01*
X0031639Y0003500D01*
X0033336Y0003500D01*
X0033336Y0011000D01*
X0030336Y0011000D01*
X0030336Y0004803D01*
X0030418Y0004496D02*
X0008569Y0004496D01*
X0010674Y0003497D02*
X0084709Y0003497D01*
X0086713Y0003497D02*
X0141418Y0003497D01*
X0143523Y0004496D02*
X0094275Y0004496D01*
X0097741Y0005494D02*
X0144894Y0005494D01*
X0145620Y0006493D02*
X0100128Y0006493D01*
X0102256Y0007491D02*
X0146345Y0007491D01*
X0146730Y0008490D02*
X0104062Y0008490D01*
X0105669Y0009488D02*
X0147054Y0009488D01*
X0147301Y0010487D02*
X0107076Y0010487D01*
X0108483Y0011485D02*
X0147379Y0011485D01*
X0147380Y0012484D02*
X0109557Y0012484D01*
X0110674Y0013482D02*
X0147380Y0013482D01*
X0147380Y0014481D02*
X0111692Y0014481D01*
X0112584Y0015479D02*
X0147380Y0015479D01*
X0147380Y0016478D02*
X0113477Y0016478D01*
X0114293Y0017476D02*
X0147380Y0017476D01*
X0147380Y0018475D02*
X0115002Y0018475D01*
X0115710Y0019473D02*
X0147380Y0019473D01*
X0147380Y0020472D02*
X0116419Y0020472D01*
X0116955Y0021470D02*
X0147380Y0021470D01*
X0147380Y0022469D02*
X0117507Y0022469D01*
X0118059Y0023467D02*
X0147380Y0023467D01*
X0147380Y0024466D02*
X0118536Y0024466D01*
X0118949Y0025464D02*
X0147380Y0025464D01*
X0147380Y0026463D02*
X0119363Y0026463D01*
X0119804Y0027461D02*
X0147380Y0027461D01*
X0147380Y0028460D02*
X0120091Y0028460D01*
X0120379Y0029458D02*
X0124711Y0029458D01*
X0124711Y0030457D02*
X0120667Y0030457D01*
X0120968Y0031455D02*
X0124711Y0031455D01*
X0124711Y0032454D02*
X0121138Y0032454D01*
X0121307Y0033452D02*
X0124711Y0033452D01*
X0124711Y0034451D02*
X0121477Y0034451D01*
X0121661Y0035449D02*
X0124711Y0035449D01*
X0124711Y0036448D02*
X0121717Y0036448D01*
X0121773Y0037446D02*
X0124711Y0037446D01*
X0124711Y0038445D02*
X0121829Y0038445D01*
X0121906Y0039443D02*
X0124711Y0039443D01*
X0124711Y0040442D02*
X0121849Y0040442D01*
X0121793Y0041440D02*
X0124711Y0041440D01*
X0124711Y0042439D02*
X0121737Y0042439D01*
X0121708Y0043437D02*
X0124711Y0043437D01*
X0124711Y0044436D02*
X0121539Y0044436D01*
X0121369Y0045434D02*
X0124711Y0045434D01*
X0124711Y0046433D02*
X0121199Y0046433D01*
X0121059Y0047432D02*
X0124711Y0047432D01*
X0124711Y0048430D02*
X0120771Y0048430D01*
X0120483Y0049429D02*
X0124711Y0049429D01*
X0125099Y0050427D02*
X0120196Y0050427D01*
X0119927Y0051426D02*
X0134211Y0051426D01*
X0133291Y0052424D02*
X0119514Y0052424D01*
X0119100Y0053423D02*
X0132292Y0053423D01*
X0131294Y0054421D02*
X0118686Y0054421D01*
X0118273Y0055420D02*
X0130295Y0055420D01*
X0129297Y0056418D02*
X0117708Y0056418D01*
X0117156Y0057417D02*
X0128298Y0057417D01*
X0127300Y0058415D02*
X0116604Y0058415D01*
X0115968Y0059414D02*
X0126301Y0059414D01*
X0125303Y0060412D02*
X0115259Y0060412D01*
X0114551Y0061411D02*
X0124304Y0061411D01*
X0123306Y0062409D02*
X0113818Y0062409D01*
X0112909Y0063408D02*
X0122307Y0063408D01*
X0121309Y0064406D02*
X0112017Y0064406D01*
X0111124Y0065405D02*
X0120310Y0065405D01*
X0119312Y0066403D02*
X0109963Y0066403D01*
X0108846Y0067402D02*
X0119211Y0067402D01*
X0119211Y0068400D02*
X0107588Y0068400D01*
X0106180Y0069399D02*
X0119211Y0069399D01*
X0119211Y0070397D02*
X0108263Y0070397D01*
X0108831Y0071396D02*
X0119211Y0071396D01*
X0119211Y0072394D02*
X0108920Y0072394D01*
X0108608Y0073393D02*
X0119211Y0073393D01*
X0119211Y0074391D02*
X0107836Y0074391D01*
X0107836Y0075390D02*
X0119211Y0075390D01*
X0119211Y0076388D02*
X0107836Y0076388D01*
X0107836Y0077387D02*
X0119211Y0077387D01*
X0119211Y0078385D02*
X0107836Y0078385D01*
X0107836Y0079384D02*
X0119211Y0079384D01*
X0119211Y0080382D02*
X0107836Y0080382D01*
X0107836Y0081381D02*
X0119211Y0081381D01*
X0119211Y0082379D02*
X0107836Y0082379D01*
X0107836Y0083378D02*
X0119211Y0083378D01*
X0119211Y0084376D02*
X0107836Y0084376D01*
X0107836Y0085375D02*
X0119211Y0085375D01*
X0119211Y0086373D02*
X0107836Y0086373D01*
X0107836Y0087372D02*
X0119211Y0087372D01*
X0119211Y0088370D02*
X0107836Y0088370D01*
X0107836Y0089369D02*
X0119211Y0089369D01*
X0119211Y0090368D02*
X0107836Y0090368D01*
X0107836Y0091366D02*
X0119211Y0091366D01*
X0119211Y0092365D02*
X0107836Y0092365D01*
X0107836Y0093363D02*
X0119211Y0093363D01*
X0119211Y0094362D02*
X0107836Y0094362D01*
X0107670Y0095360D02*
X0119211Y0095360D01*
X0119211Y0096359D02*
X0107424Y0096359D01*
X0105086Y0095250D02*
X0106336Y0094000D01*
X0106336Y0072125D01*
X0102586Y0073375D02*
X0102586Y0091500D01*
X0100795Y0093363D02*
X0100486Y0093363D01*
X0100795Y0094362D02*
X0102657Y0094362D01*
X0102502Y0095360D02*
X0101068Y0095360D01*
X0102066Y0096359D02*
X0102748Y0096359D01*
X0101961Y0098375D02*
X0098211Y0094625D01*
X0096290Y0096359D02*
X0095191Y0096359D01*
X0095718Y0095360D02*
X0094193Y0095360D01*
X0093194Y0094362D02*
X0095627Y0094362D01*
X0095937Y0093363D02*
X0092195Y0093363D01*
X0091197Y0092365D02*
X0096915Y0092365D01*
X0099507Y0092365D02*
X0100147Y0092365D01*
X0100002Y0091366D02*
X0090198Y0091366D01*
X0089200Y0090368D02*
X0100258Y0090368D01*
X0101062Y0089369D02*
X0088201Y0089369D01*
X0087203Y0088370D02*
X0101086Y0088370D01*
X0101086Y0087372D02*
X0086204Y0087372D01*
X0085206Y0086373D02*
X0101086Y0086373D01*
X0101086Y0085375D02*
X0084207Y0085375D01*
X0083209Y0084376D02*
X0101086Y0084376D01*
X0101086Y0083378D02*
X0082210Y0083378D01*
X0081212Y0082379D02*
X0101086Y0082379D01*
X0101086Y0081381D02*
X0080795Y0081381D01*
X0080545Y0080382D02*
X0101086Y0080382D01*
X0101086Y0079384D02*
X0079750Y0079384D01*
X0078211Y0081500D02*
X0095711Y0099000D01*
X0095711Y0126500D01*
X0104451Y0135240D01*
X0104451Y0141500D01*
X0104461Y0141490D01*
X0105951Y0137298D02*
X0132786Y0137298D01*
X0132786Y0138296D02*
X0108010Y0138296D01*
X0108010Y0139295D02*
X0132786Y0139295D01*
X0132786Y0140164D02*
X0132786Y0124250D01*
X0104741Y0124250D01*
X0104050Y0124941D01*
X0103100Y0125334D01*
X0102072Y0125334D01*
X0101122Y0124941D01*
X0100395Y0124214D01*
X0100002Y0123264D01*
X0100002Y0122236D01*
X0100395Y0121286D01*
X0100806Y0120875D01*
X0100395Y0120464D01*
X0100002Y0119514D01*
X0100002Y0118486D01*
X0100395Y0117536D01*
X0100806Y0117125D01*
X0100395Y0116714D01*
X0100002Y0115764D01*
X0100002Y0114736D01*
X0100395Y0113786D01*
X0100806Y0113375D01*
X0100395Y0112964D01*
X0100002Y0112014D01*
X0100002Y0110986D01*
X0100395Y0110036D01*
X0100806Y0109625D01*
X0100395Y0109214D01*
X0100002Y0108264D01*
X0100002Y0107236D01*
X0100395Y0106286D01*
X0101122Y0105559D01*
X0102072Y0105166D01*
X0103100Y0105166D01*
X0104050Y0105559D01*
X0104741Y0106250D01*
X0123215Y0106250D01*
X0124211Y0105254D01*
X0124211Y0088655D01*
X0123520Y0087964D01*
X0123127Y0087014D01*
X0123127Y0085986D01*
X0123520Y0085036D01*
X0124247Y0084309D01*
X0125197Y0083916D01*
X0126225Y0083916D01*
X0127175Y0084309D01*
X0127902Y0085036D01*
X0128295Y0085986D01*
X0128295Y0087014D01*
X0127902Y0087964D01*
X0127211Y0088655D01*
X0127211Y0106496D01*
X0126332Y0107375D01*
X0124505Y0109202D01*
X0125197Y0108916D01*
X0126225Y0108916D01*
X0127175Y0109309D01*
X0127902Y0110036D01*
X0128295Y0110986D01*
X0128295Y0112014D01*
X0127902Y0112964D01*
X0127491Y0113375D01*
X0127902Y0113786D01*
X0128295Y0114736D01*
X0128295Y0115764D01*
X0127902Y0116714D01*
X0127491Y0117125D01*
X0127902Y0117536D01*
X0128295Y0118486D01*
X0128295Y0119514D01*
X0127902Y0120464D01*
X0127175Y0121191D01*
X0127032Y0121250D01*
X0132786Y0121250D01*
X0132786Y0118336D01*
X0133372Y0117750D01*
X0141800Y0117750D01*
X0142386Y0118336D01*
X0142386Y0140164D01*
X0141800Y0140750D01*
X0139086Y0140750D01*
X0139086Y0142951D01*
X0140953Y0142951D01*
X0141539Y0143537D01*
X0141539Y0149483D01*
X0141016Y0150006D01*
X0141118Y0150033D01*
X0141460Y0150231D01*
X0141739Y0150510D01*
X0141937Y0150852D01*
X0142039Y0151234D01*
X0142039Y0153490D01*
X0138086Y0153490D01*
X0138086Y0154490D01*
X0137086Y0154490D01*
X0137086Y0153490D01*
X0133133Y0153490D01*
X0133133Y0151234D01*
X0133236Y0150852D01*
X0133433Y0150510D01*
X0133712Y0150231D01*
X0134054Y0150033D01*
X0134156Y0150006D01*
X0133633Y0149483D01*
X0133633Y0143537D01*
X0134219Y0142951D01*
X0136086Y0142951D01*
X0136086Y0140750D01*
X0133372Y0140750D01*
X0132786Y0140164D01*
X0132915Y0140293D02*
X0108010Y0140293D01*
X0108010Y0141292D02*
X0136086Y0141292D01*
X0136086Y0142290D02*
X0108010Y0142290D01*
X0108010Y0143289D02*
X0133881Y0143289D01*
X0133633Y0144287D02*
X0108010Y0144287D01*
X0107592Y0145286D02*
X0133633Y0145286D01*
X0133633Y0146284D02*
X0092211Y0146284D01*
X0092211Y0146819D02*
X0095220Y0146819D01*
X0095806Y0147405D01*
X0095806Y0150595D01*
X0095220Y0151181D01*
X0085961Y0151181D01*
X0085961Y0151319D01*
X0090384Y0151319D01*
X0090384Y0153909D01*
X0090565Y0153909D01*
X0090565Y0151319D01*
X0095003Y0151319D01*
X0095385Y0151421D01*
X0095727Y0151619D01*
X0096006Y0151898D01*
X0096203Y0152240D01*
X0096306Y0152621D01*
X0096306Y0153909D01*
X0090566Y0153909D01*
X0090566Y0154091D01*
X0096306Y0154091D01*
X0096306Y0155379D01*
X0096203Y0155760D01*
X0096006Y0156102D01*
X0095727Y0156381D01*
X0095385Y0156579D01*
X0095003Y0156681D01*
X0090565Y0156681D01*
X0090565Y0154091D01*
X0090384Y0154091D01*
X0090384Y0156681D01*
X0085961Y0156681D01*
X0085961Y0156819D01*
X0095220Y0156819D01*
X0095806Y0157405D01*
X0095806Y0160595D01*
X0095220Y0161181D01*
X0085730Y0161181D01*
X0085144Y0160595D01*
X0085144Y0160500D01*
X0085090Y0160500D01*
X0083840Y0159250D01*
X0082961Y0158371D01*
X0082961Y0149629D01*
X0083840Y0148750D01*
X0085090Y0147500D01*
X0085144Y0147500D01*
X0085144Y0147405D01*
X0085730Y0146819D01*
X0089211Y0146819D01*
X0089211Y0140879D01*
X0090090Y0140000D01*
X0093412Y0140000D01*
X0093412Y0138133D01*
X0093998Y0137547D01*
X0099944Y0137547D01*
X0100530Y0138133D01*
X0100530Y0144867D01*
X0099944Y0145453D01*
X0093998Y0145453D01*
X0093412Y0144867D01*
X0093412Y0143000D01*
X0092211Y0143000D01*
X0092211Y0146819D01*
X0092211Y0145286D02*
X0093831Y0145286D01*
X0093412Y0144287D02*
X0092211Y0144287D01*
X0092211Y0143289D02*
X0093412Y0143289D01*
X0095684Y0147283D02*
X0105739Y0147283D01*
X0105617Y0148281D02*
X0095806Y0148281D01*
X0095806Y0149280D02*
X0105617Y0149280D01*
X0105617Y0150278D02*
X0095806Y0150278D01*
X0096213Y0152275D02*
X0105746Y0152275D01*
X0105617Y0153274D02*
X0096306Y0153274D01*
X0096306Y0154272D02*
X0105617Y0154272D01*
X0105617Y0155271D02*
X0096306Y0155271D01*
X0095839Y0156269D02*
X0109447Y0156269D01*
X0110947Y0154000D02*
X0110947Y0159000D01*
X0110947Y0164000D01*
X0110947Y0195417D01*
X0109491Y0196874D01*
X0112447Y0193214D02*
X0147380Y0193214D01*
X0147380Y0192216D02*
X0112447Y0192216D01*
X0112447Y0191217D02*
X0147380Y0191217D01*
X0147380Y0190219D02*
X0112447Y0190219D01*
X0112447Y0189220D02*
X0147380Y0189220D01*
X0147380Y0188222D02*
X0112447Y0188222D01*
X0112447Y0187223D02*
X0147380Y0187223D01*
X0147380Y0186225D02*
X0112447Y0186225D01*
X0112447Y0185226D02*
X0147380Y0185226D01*
X0147380Y0184228D02*
X0112447Y0184228D01*
X0112447Y0183229D02*
X0147380Y0183229D01*
X0147380Y0182231D02*
X0112447Y0182231D01*
X0112447Y0181232D02*
X0147380Y0181232D01*
X0147380Y0180234D02*
X0112447Y0180234D01*
X0112447Y0179235D02*
X0147380Y0179235D01*
X0147380Y0178237D02*
X0112447Y0178237D01*
X0112447Y0177238D02*
X0147380Y0177238D01*
X0147380Y0176239D02*
X0112447Y0176239D01*
X0112447Y0175241D02*
X0147380Y0175241D01*
X0147380Y0174242D02*
X0112447Y0174242D01*
X0112447Y0173244D02*
X0147380Y0173244D01*
X0147380Y0172245D02*
X0112447Y0172245D01*
X0112447Y0171247D02*
X0147380Y0171247D01*
X0147380Y0170248D02*
X0112447Y0170248D01*
X0112447Y0169250D02*
X0147380Y0169250D01*
X0147380Y0168251D02*
X0112447Y0168251D01*
X0112447Y0167253D02*
X0147380Y0167253D01*
X0147380Y0166254D02*
X0112447Y0166254D01*
X0109447Y0166254D02*
X0095854Y0166254D01*
X0095727Y0166381D02*
X0096006Y0166102D01*
X0096203Y0165760D01*
X0096306Y0165379D01*
X0096306Y0164091D01*
X0090566Y0164091D01*
X0090566Y0163909D01*
X0096306Y0163909D01*
X0096306Y0162621D01*
X0096203Y0162240D01*
X0096006Y0161898D01*
X0095727Y0161619D01*
X0095385Y0161421D01*
X0095003Y0161319D01*
X0090565Y0161319D01*
X0090565Y0163909D01*
X0090384Y0163909D01*
X0090384Y0161319D01*
X0085947Y0161319D01*
X0085565Y0161421D01*
X0085223Y0161619D01*
X0084944Y0161898D01*
X0084746Y0162240D01*
X0084644Y0162621D01*
X0084644Y0163909D01*
X0090384Y0163909D01*
X0090384Y0164091D01*
X0090384Y0166681D01*
X0085947Y0166681D01*
X0085565Y0166579D01*
X0085223Y0166381D01*
X0084944Y0166102D01*
X0084746Y0165760D01*
X0084644Y0165379D01*
X0084644Y0164091D01*
X0090384Y0164091D01*
X0090565Y0164091D01*
X0090565Y0166681D01*
X0095003Y0166681D01*
X0095385Y0166579D01*
X0095727Y0166381D01*
X0096306Y0165256D02*
X0105617Y0165256D01*
X0105617Y0164257D02*
X0096306Y0164257D01*
X0096306Y0163259D02*
X0105617Y0163259D01*
X0105761Y0162260D02*
X0096209Y0162260D01*
X0095806Y0160263D02*
X0105617Y0160263D01*
X0105617Y0159265D02*
X0095806Y0159265D01*
X0095806Y0158266D02*
X0105617Y0158266D01*
X0105754Y0157268D02*
X0095669Y0157268D01*
X0090565Y0156269D02*
X0090384Y0156269D01*
X0090384Y0155271D02*
X0090565Y0155271D01*
X0090565Y0154272D02*
X0090384Y0154272D01*
X0090384Y0153274D02*
X0090565Y0153274D01*
X0090565Y0152275D02*
X0090384Y0152275D01*
X0090475Y0149000D02*
X0085711Y0149000D01*
X0084461Y0150250D01*
X0084461Y0157750D01*
X0085711Y0159000D01*
X0090475Y0159000D01*
X0090384Y0162260D02*
X0090565Y0162260D01*
X0090565Y0163259D02*
X0090384Y0163259D01*
X0090384Y0164257D02*
X0090565Y0164257D01*
X0090565Y0165256D02*
X0090384Y0165256D01*
X0090384Y0166254D02*
X0090565Y0166254D01*
X0085096Y0166254D02*
X0081962Y0166254D01*
X0080963Y0165256D02*
X0084644Y0165256D01*
X0084644Y0164257D02*
X0080961Y0164257D01*
X0080961Y0163259D02*
X0084644Y0163259D01*
X0084741Y0162260D02*
X0080961Y0162260D01*
X0080961Y0161262D02*
X0109447Y0161262D01*
X0112447Y0161262D02*
X0147380Y0161262D01*
X0147380Y0162260D02*
X0116134Y0162260D01*
X0116278Y0163259D02*
X0147380Y0163259D01*
X0147380Y0164257D02*
X0116278Y0164257D01*
X0116278Y0165256D02*
X0147380Y0165256D01*
X0147380Y0160263D02*
X0116278Y0160263D01*
X0116278Y0159265D02*
X0147380Y0159265D01*
X0147380Y0158266D02*
X0116278Y0158266D01*
X0116141Y0157268D02*
X0133316Y0157268D01*
X0133236Y0157128D02*
X0133133Y0156747D01*
X0133133Y0154490D01*
X0137086Y0154490D01*
X0137086Y0158049D01*
X0134436Y0158049D01*
X0134054Y0157947D01*
X0133712Y0157749D01*
X0133433Y0157470D01*
X0133236Y0157128D01*
X0133133Y0156269D02*
X0112447Y0156269D01*
X0110947Y0154000D02*
X0110947Y0149000D01*
X0109447Y0151277D02*
X0085961Y0151277D01*
X0083310Y0149280D02*
X0080961Y0149280D01*
X0080961Y0150278D02*
X0082961Y0150278D01*
X0082961Y0151277D02*
X0080961Y0151277D01*
X0080961Y0152275D02*
X0082961Y0152275D01*
X0082961Y0153274D02*
X0080961Y0153274D01*
X0080961Y0154272D02*
X0082961Y0154272D01*
X0082961Y0155271D02*
X0080961Y0155271D01*
X0080961Y0156269D02*
X0082961Y0156269D01*
X0082961Y0157268D02*
X0080961Y0157268D01*
X0080961Y0158266D02*
X0082961Y0158266D01*
X0083855Y0159265D02*
X0080961Y0159265D01*
X0080961Y0160263D02*
X0084853Y0160263D01*
X0082960Y0167253D02*
X0109447Y0167253D01*
X0109447Y0168251D02*
X0106459Y0168251D01*
X0107457Y0169250D02*
X0109447Y0169250D01*
X0109447Y0170248D02*
X0108456Y0170248D01*
X0108211Y0172125D02*
X0105711Y0169625D01*
X0083211Y0169625D01*
X0079461Y0165875D01*
X0079461Y0134000D01*
X0089461Y0124000D01*
X0089461Y0100250D01*
X0060086Y0070875D01*
X0059308Y0068400D02*
X0058605Y0068400D01*
X0058920Y0067402D02*
X0062576Y0067402D01*
X0063058Y0068400D02*
X0060865Y0068400D01*
X0061459Y0066403D02*
X0058834Y0066403D01*
X0058271Y0065405D02*
X0060298Y0065405D01*
X0059406Y0064406D02*
X0041381Y0064406D01*
X0041381Y0063408D02*
X0058513Y0063408D01*
X0057604Y0062409D02*
X0041381Y0062409D01*
X0041381Y0061411D02*
X0056871Y0061411D01*
X0056163Y0060412D02*
X0041381Y0060412D01*
X0041381Y0059414D02*
X0055454Y0059414D01*
X0054818Y0058415D02*
X0041381Y0058415D01*
X0041381Y0057417D02*
X0054266Y0057417D01*
X0053715Y0056418D02*
X0041163Y0056418D01*
X0038929Y0055420D02*
X0053150Y0055420D01*
X0052736Y0054421D02*
X0038929Y0054421D01*
X0038929Y0053423D02*
X0052322Y0053423D01*
X0051909Y0052424D02*
X0038929Y0052424D01*
X0038929Y0051426D02*
X0051495Y0051426D01*
X0051226Y0050427D02*
X0046323Y0050427D01*
X0046711Y0049429D02*
X0050939Y0049429D01*
X0050651Y0048430D02*
X0046711Y0048430D01*
X0046711Y0047432D02*
X0050363Y0047432D01*
X0050223Y0046433D02*
X0046711Y0046433D01*
X0046711Y0045434D02*
X0050053Y0045434D01*
X0049883Y0044436D02*
X0046711Y0044436D01*
X0046711Y0043437D02*
X0049714Y0043437D01*
X0049685Y0042439D02*
X0046711Y0042439D01*
X0046711Y0041440D02*
X0049629Y0041440D01*
X0049573Y0040442D02*
X0046711Y0040442D01*
X0046711Y0039443D02*
X0049517Y0039443D01*
X0049593Y0038445D02*
X0046711Y0038445D01*
X0046711Y0037446D02*
X0049649Y0037446D01*
X0049705Y0036448D02*
X0046711Y0036448D01*
X0046711Y0035449D02*
X0049761Y0035449D01*
X0049945Y0034451D02*
X0046711Y0034451D01*
X0046711Y0033452D02*
X0050115Y0033452D01*
X0050284Y0032454D02*
X0046711Y0032454D01*
X0046711Y0031455D02*
X0050454Y0031455D01*
X0050756Y0030457D02*
X0046711Y0030457D01*
X0046711Y0029458D02*
X0051043Y0029458D01*
X0051331Y0028460D02*
X0026791Y0028460D01*
X0026836Y0027461D02*
X0051619Y0027461D01*
X0052059Y0026463D02*
X0026836Y0026463D01*
X0026836Y0025464D02*
X0052473Y0025464D01*
X0052886Y0024466D02*
X0026836Y0024466D01*
X0026836Y0023467D02*
X0053363Y0023467D01*
X0053915Y0022469D02*
X0026836Y0022469D01*
X0026836Y0021470D02*
X0054467Y0021470D01*
X0055004Y0020472D02*
X0026836Y0020472D01*
X0026836Y0019473D02*
X0031539Y0019473D01*
X0031639Y0019500D02*
X0031257Y0019398D01*
X0030915Y0019200D01*
X0030636Y0018921D01*
X0030438Y0018579D01*
X0030336Y0018197D01*
X0030336Y0012000D01*
X0033336Y0012000D01*
X0033336Y0011000D01*
X0034336Y0011000D01*
X0034336Y0003500D01*
X0036034Y0003500D01*
X0036415Y0003602D01*
X0036757Y0003800D01*
X0037036Y0004079D01*
X0037234Y0004421D01*
X0037336Y0004803D01*
X0037336Y0011000D01*
X0034336Y0011000D01*
X0034336Y0012000D01*
X0033336Y0012000D01*
X0033336Y0019500D01*
X0031639Y0019500D01*
X0030410Y0018475D02*
X0026836Y0018475D01*
X0026836Y0017476D02*
X0030336Y0017476D01*
X0030336Y0016478D02*
X0026836Y0016478D01*
X0026836Y0015479D02*
X0030336Y0015479D01*
X0030336Y0014481D02*
X0026731Y0014481D01*
X0030336Y0013482D02*
X0004711Y0013482D01*
X0004711Y0012484D02*
X0030336Y0012484D01*
X0030336Y0010487D02*
X0004791Y0010487D01*
X0004712Y0011485D02*
X0033336Y0011485D01*
X0033336Y0010487D02*
X0034336Y0010487D01*
X0034336Y0011485D02*
X0062939Y0011485D01*
X0061865Y0012484D02*
X0037336Y0012484D01*
X0037336Y0012000D02*
X0037336Y0018197D01*
X0037234Y0018579D01*
X0037036Y0018921D01*
X0036757Y0019200D01*
X0036415Y0019398D01*
X0036034Y0019500D01*
X0034336Y0019500D01*
X0034336Y0012000D01*
X0037336Y0012000D01*
X0037336Y0013482D02*
X0060748Y0013482D01*
X0059730Y0014481D02*
X0037336Y0014481D01*
X0037336Y0015479D02*
X0058838Y0015479D01*
X0057946Y0016478D02*
X0037336Y0016478D01*
X0037336Y0017476D02*
X0057129Y0017476D01*
X0056421Y0018475D02*
X0037262Y0018475D01*
X0036134Y0019473D02*
X0055712Y0019473D01*
X0064346Y0010487D02*
X0037336Y0010487D01*
X0037336Y0009488D02*
X0065754Y0009488D01*
X0067360Y0008490D02*
X0037336Y0008490D01*
X0037336Y0007491D02*
X0069166Y0007491D01*
X0071295Y0006493D02*
X0037336Y0006493D01*
X0037336Y0005494D02*
X0073681Y0005494D01*
X0077147Y0004496D02*
X0037254Y0004496D01*
X0034336Y0004496D02*
X0033336Y0004496D01*
X0033336Y0005494D02*
X0034336Y0005494D01*
X0034336Y0006493D02*
X0033336Y0006493D01*
X0033336Y0007491D02*
X0034336Y0007491D01*
X0034336Y0008490D02*
X0033336Y0008490D01*
X0033336Y0009488D02*
X0034336Y0009488D01*
X0034336Y0012484D02*
X0033336Y0012484D01*
X0033336Y0013482D02*
X0034336Y0013482D01*
X0034336Y0014481D02*
X0033336Y0014481D01*
X0033336Y0015479D02*
X0034336Y0015479D01*
X0034336Y0016478D02*
X0033336Y0016478D01*
X0033336Y0017476D02*
X0034336Y0017476D01*
X0034336Y0018475D02*
X0033336Y0018475D01*
X0033336Y0019473D02*
X0034336Y0019473D01*
X0030336Y0009488D02*
X0005037Y0009488D01*
X0005362Y0008490D02*
X0030336Y0008490D01*
X0020941Y0014481D02*
X0018730Y0014481D01*
X0018914Y0015479D02*
X0020836Y0015479D01*
X0020836Y0016478D02*
X0018914Y0016478D01*
X0018914Y0018475D02*
X0020836Y0018475D01*
X0020836Y0019473D02*
X0018914Y0019473D01*
X0018914Y0020472D02*
X0020836Y0020472D01*
X0020836Y0021470D02*
X0018384Y0021470D01*
X0018414Y0022469D02*
X0020836Y0022469D01*
X0020836Y0017476D02*
X0014961Y0017476D01*
X0014961Y0016478D02*
X0013961Y0016478D01*
X0013961Y0017476D02*
X0004711Y0017476D01*
X0004711Y0016478D02*
X0010008Y0016478D01*
X0010008Y0015479D02*
X0004711Y0015479D01*
X0004711Y0014481D02*
X0010192Y0014481D01*
X0010008Y0018475D02*
X0004711Y0018475D01*
X0004711Y0019473D02*
X0010008Y0019473D01*
X0010008Y0020472D02*
X0004711Y0020472D01*
X0004711Y0021470D02*
X0010538Y0021470D01*
X0010508Y0022469D02*
X0004711Y0022469D01*
X0004711Y0023467D02*
X0010508Y0023467D01*
X0010508Y0024466D02*
X0004711Y0024466D01*
X0004711Y0025464D02*
X0009826Y0025464D01*
X0008828Y0026463D02*
X0004711Y0026463D01*
X0004711Y0027461D02*
X0008286Y0027461D01*
X0008286Y0028460D02*
X0004711Y0028460D01*
X0004711Y0029458D02*
X0008286Y0029458D01*
X0008286Y0030457D02*
X0004711Y0030457D01*
X0004711Y0031455D02*
X0008286Y0031455D01*
X0008286Y0032454D02*
X0004711Y0032454D01*
X0004711Y0033452D02*
X0008286Y0033452D01*
X0008286Y0034451D02*
X0004711Y0034451D01*
X0004711Y0035449D02*
X0008286Y0035449D01*
X0008286Y0036448D02*
X0004711Y0036448D01*
X0004711Y0037446D02*
X0008286Y0037446D01*
X0008286Y0038445D02*
X0004711Y0038445D01*
X0004711Y0039443D02*
X0008286Y0039443D01*
X0008286Y0040442D02*
X0004711Y0040442D01*
X0004711Y0041440D02*
X0008286Y0041440D01*
X0008286Y0042439D02*
X0004711Y0042439D01*
X0004711Y0043437D02*
X0008286Y0043437D01*
X0008286Y0044436D02*
X0004711Y0044436D01*
X0004711Y0045434D02*
X0008286Y0045434D01*
X0008286Y0046433D02*
X0004711Y0046433D01*
X0004711Y0047432D02*
X0008286Y0047432D01*
X0008286Y0048430D02*
X0004711Y0048430D01*
X0004711Y0049429D02*
X0008286Y0049429D01*
X0008286Y0050427D02*
X0004711Y0050427D01*
X0004711Y0051426D02*
X0008286Y0051426D01*
X0008286Y0052424D02*
X0004711Y0052424D01*
X0004711Y0053423D02*
X0008286Y0053423D01*
X0008286Y0054421D02*
X0004711Y0054421D01*
X0004711Y0055420D02*
X0008286Y0055420D01*
X0008709Y0056418D02*
X0004711Y0056418D01*
X0004711Y0057417D02*
X0009707Y0057417D01*
X0010706Y0058415D02*
X0004711Y0058415D01*
X0004711Y0059414D02*
X0011704Y0059414D01*
X0012703Y0060412D02*
X0004711Y0060412D01*
X0004711Y0061411D02*
X0013701Y0061411D01*
X0013791Y0062409D02*
X0004711Y0062409D01*
X0004711Y0063408D02*
X0013791Y0063408D01*
X0013791Y0064406D02*
X0004711Y0064406D01*
X0004711Y0065405D02*
X0013791Y0065405D01*
X0013791Y0066403D02*
X0004711Y0066403D01*
X0004711Y0067402D02*
X0013791Y0067402D01*
X0013791Y0068400D02*
X0004711Y0068400D01*
X0004711Y0069399D02*
X0013791Y0069399D01*
X0013791Y0070397D02*
X0004711Y0070397D01*
X0004711Y0071396D02*
X0013791Y0071396D01*
X0013791Y0072394D02*
X0004711Y0072394D01*
X0004711Y0073393D02*
X0013970Y0073393D01*
X0021517Y0073393D02*
X0023244Y0073393D01*
X0023236Y0073378D02*
X0023133Y0072997D01*
X0023133Y0065425D01*
X0027086Y0065425D01*
X0027086Y0064425D01*
X0028086Y0064425D01*
X0028086Y0055551D01*
X0030736Y0055551D01*
X0031118Y0055653D01*
X0031460Y0055851D01*
X0031739Y0056130D01*
X0031937Y0056472D01*
X0032039Y0056854D01*
X0032039Y0064425D01*
X0028086Y0064425D01*
X0028086Y0065425D01*
X0032039Y0065425D01*
X0032039Y0072997D01*
X0031937Y0073378D01*
X0031739Y0073720D01*
X0031460Y0073999D01*
X0031118Y0074197D01*
X0030736Y0074299D01*
X0028086Y0074299D01*
X0028086Y0065425D01*
X0027086Y0065425D01*
X0027086Y0074299D01*
X0024436Y0074299D01*
X0024054Y0074197D01*
X0023712Y0073999D01*
X0023433Y0073720D01*
X0023236Y0073378D01*
X0023133Y0072394D02*
X0021696Y0072394D01*
X0021696Y0071396D02*
X0023133Y0071396D01*
X0023133Y0070397D02*
X0021696Y0070397D01*
X0021696Y0069399D02*
X0023133Y0069399D01*
X0023133Y0068400D02*
X0021696Y0068400D01*
X0021696Y0067402D02*
X0023133Y0067402D01*
X0023133Y0066403D02*
X0021696Y0066403D01*
X0021696Y0065405D02*
X0027086Y0065405D01*
X0027586Y0064925D02*
X0027586Y0085250D01*
X0027586Y0106500D01*
X0027086Y0106344D02*
X0004711Y0106344D01*
X0004711Y0107342D02*
X0006086Y0107342D01*
X0006086Y0108341D02*
X0004711Y0108341D01*
X0004711Y0109339D02*
X0006086Y0109339D01*
X0006086Y0110338D02*
X0004711Y0110338D01*
X0004711Y0111336D02*
X0006086Y0111336D01*
X0006086Y0112335D02*
X0004711Y0112335D01*
X0004711Y0113333D02*
X0006086Y0113333D01*
X0006086Y0114332D02*
X0004711Y0114332D01*
X0004711Y0115330D02*
X0006086Y0115330D01*
X0006086Y0116329D02*
X0004711Y0116329D01*
X0004711Y0117327D02*
X0006086Y0117327D01*
X0006086Y0118326D02*
X0004711Y0118326D01*
X0004711Y0119324D02*
X0006120Y0119324D01*
X0006877Y0120323D02*
X0004711Y0120323D01*
X0004711Y0121321D02*
X0006877Y0121321D01*
X0005148Y0122320D02*
X0004711Y0122320D01*
X0006336Y0124625D02*
X0075086Y0124625D01*
X0080086Y0119625D01*
X0080086Y0102125D01*
X0075086Y0097125D01*
X0068211Y0097125D01*
X0066321Y0095360D02*
X0050961Y0095360D01*
X0050961Y0094362D02*
X0073951Y0094362D01*
X0074950Y0095360D02*
X0070101Y0095360D01*
X0071954Y0092365D02*
X0050961Y0092365D01*
X0050961Y0093363D02*
X0072953Y0093363D01*
X0070956Y0091366D02*
X0062377Y0091366D01*
X0063567Y0090368D02*
X0069957Y0090368D01*
X0068959Y0089369D02*
X0063920Y0089369D01*
X0063873Y0088370D02*
X0067960Y0088370D01*
X0066961Y0085250D02*
X0083211Y0101500D01*
X0083211Y0121500D01*
X0063211Y0141500D01*
X0054451Y0141500D01*
X0052660Y0137298D02*
X0065292Y0137298D01*
X0064294Y0138296D02*
X0058010Y0138296D01*
X0058010Y0139295D02*
X0063295Y0139295D01*
X0065541Y0141292D02*
X0066534Y0141292D01*
X0066539Y0140293D02*
X0067533Y0140293D01*
X0067538Y0139295D02*
X0068531Y0139295D01*
X0068536Y0138296D02*
X0069390Y0138296D01*
X0071961Y0137986D02*
X0071961Y0137750D01*
X0071961Y0137986D02*
X0060947Y0149000D01*
X0060947Y0154000D01*
X0060947Y0159000D01*
X0060947Y0164000D01*
X0059447Y0161262D02*
X0034086Y0161262D01*
X0034086Y0162260D02*
X0034741Y0162260D01*
X0034746Y0162240D02*
X0034944Y0161898D01*
X0035223Y0161619D01*
X0035565Y0161421D01*
X0035947Y0161319D01*
X0040384Y0161319D01*
X0040384Y0163909D01*
X0040565Y0163909D01*
X0040565Y0161319D01*
X0045003Y0161319D01*
X0045385Y0161421D01*
X0045727Y0161619D01*
X0046006Y0161898D01*
X0046203Y0162240D01*
X0046306Y0162621D01*
X0046306Y0163909D01*
X0040566Y0163909D01*
X0040566Y0164091D01*
X0046306Y0164091D01*
X0046306Y0165379D01*
X0046203Y0165760D01*
X0046006Y0166102D01*
X0045727Y0166381D01*
X0045385Y0166579D01*
X0045003Y0166681D01*
X0040565Y0166681D01*
X0040565Y0164091D01*
X0040384Y0164091D01*
X0040384Y0166681D01*
X0035947Y0166681D01*
X0035565Y0166579D01*
X0035223Y0166381D01*
X0034944Y0166102D01*
X0034746Y0165760D01*
X0034644Y0165379D01*
X0034644Y0164091D01*
X0040384Y0164091D01*
X0040384Y0163909D01*
X0034644Y0163909D01*
X0034644Y0162621D01*
X0034746Y0162240D01*
X0034644Y0163259D02*
X0034086Y0163259D01*
X0034086Y0164257D02*
X0034644Y0164257D01*
X0034644Y0165256D02*
X0034086Y0165256D01*
X0034086Y0166254D02*
X0035096Y0166254D01*
X0034086Y0167253D02*
X0074836Y0167253D01*
X0074836Y0166254D02*
X0045854Y0166254D01*
X0046306Y0165256D02*
X0055617Y0165256D01*
X0055617Y0164257D02*
X0046306Y0164257D01*
X0046306Y0163259D02*
X0055617Y0163259D01*
X0055761Y0162260D02*
X0046209Y0162260D01*
X0045806Y0160263D02*
X0055617Y0160263D01*
X0055617Y0159265D02*
X0045806Y0159265D01*
X0045806Y0158266D02*
X0055617Y0158266D01*
X0055754Y0157268D02*
X0045669Y0157268D01*
X0045839Y0156269D02*
X0059447Y0156269D01*
X0059447Y0151277D02*
X0035961Y0151277D01*
X0034461Y0150250D02*
X0034461Y0157750D01*
X0035711Y0159000D01*
X0040475Y0159000D01*
X0040384Y0156269D02*
X0040565Y0156269D01*
X0040565Y0155271D02*
X0040384Y0155271D01*
X0040384Y0154272D02*
X0040565Y0154272D01*
X0040565Y0153274D02*
X0040384Y0153274D01*
X0040384Y0152275D02*
X0040565Y0152275D01*
X0040475Y0149000D02*
X0035711Y0149000D01*
X0034461Y0150250D01*
X0034309Y0148281D02*
X0034086Y0148281D01*
X0034086Y0147283D02*
X0035266Y0147283D01*
X0034086Y0146284D02*
X0039211Y0146284D01*
X0039211Y0145286D02*
X0034086Y0145286D01*
X0034086Y0144287D02*
X0039211Y0144287D01*
X0039211Y0143289D02*
X0034086Y0143289D01*
X0034086Y0142290D02*
X0039211Y0142290D01*
X0039211Y0141292D02*
X0034086Y0141292D01*
X0034086Y0140293D02*
X0039797Y0140293D01*
X0040711Y0141500D02*
X0046971Y0141500D01*
X0043412Y0143289D02*
X0042211Y0143289D01*
X0042211Y0144287D02*
X0043412Y0144287D01*
X0043831Y0145286D02*
X0042211Y0145286D01*
X0042211Y0146284D02*
X0061542Y0146284D01*
X0062540Y0145286D02*
X0057592Y0145286D01*
X0058010Y0144287D02*
X0063539Y0144287D01*
X0064537Y0143289D02*
X0058010Y0143289D01*
X0055739Y0147283D02*
X0045684Y0147283D01*
X0045806Y0148281D02*
X0055617Y0148281D01*
X0055617Y0149280D02*
X0045806Y0149280D01*
X0045806Y0150278D02*
X0055617Y0150278D01*
X0055746Y0152275D02*
X0046213Y0152275D01*
X0046306Y0153274D02*
X0055617Y0153274D01*
X0055617Y0154272D02*
X0046306Y0154272D01*
X0046306Y0155271D02*
X0055617Y0155271D01*
X0062447Y0156269D02*
X0074836Y0156269D01*
X0074836Y0155271D02*
X0066278Y0155271D01*
X0066278Y0154272D02*
X0074836Y0154272D01*
X0074836Y0153274D02*
X0066278Y0153274D01*
X0066149Y0152275D02*
X0074836Y0152275D01*
X0074836Y0151277D02*
X0062447Y0151277D01*
X0065785Y0146284D02*
X0074836Y0146284D01*
X0074836Y0145286D02*
X0066783Y0145286D01*
X0067782Y0144287D02*
X0074836Y0144287D01*
X0074836Y0143289D02*
X0068780Y0143289D01*
X0069779Y0142290D02*
X0074836Y0142290D01*
X0074836Y0141292D02*
X0070777Y0141292D01*
X0072575Y0140293D02*
X0074836Y0140293D01*
X0074836Y0139295D02*
X0074071Y0139295D01*
X0074532Y0138296D02*
X0074836Y0138296D01*
X0074836Y0137298D02*
X0074545Y0137298D01*
X0074836Y0136299D02*
X0074157Y0136299D01*
X0074836Y0135301D02*
X0072801Y0135301D01*
X0072530Y0134302D02*
X0074836Y0134302D01*
X0074836Y0133303D02*
X0073529Y0133303D01*
X0074527Y0132305D02*
X0074836Y0132305D01*
X0075526Y0131306D02*
X0075658Y0131306D01*
X0076524Y0130308D02*
X0076657Y0130308D01*
X0077523Y0129309D02*
X0077655Y0129309D01*
X0078522Y0128311D02*
X0078654Y0128311D01*
X0079520Y0127312D02*
X0079652Y0127312D01*
X0080519Y0126314D02*
X0080651Y0126314D01*
X0081517Y0125315D02*
X0081649Y0125315D01*
X0082516Y0124317D02*
X0082648Y0124317D01*
X0083514Y0123318D02*
X0083646Y0123318D01*
X0084513Y0122320D02*
X0084645Y0122320D01*
X0084711Y0121321D02*
X0084836Y0121321D01*
X0084836Y0120323D02*
X0084711Y0120323D01*
X0084711Y0119324D02*
X0084836Y0119324D01*
X0084836Y0118326D02*
X0084711Y0118326D01*
X0084711Y0117327D02*
X0084836Y0117327D01*
X0084836Y0116329D02*
X0084711Y0116329D01*
X0084711Y0115330D02*
X0084836Y0115330D01*
X0084836Y0114332D02*
X0084711Y0114332D01*
X0084711Y0113333D02*
X0084836Y0113333D01*
X0084836Y0112335D02*
X0084711Y0112335D01*
X0084711Y0111336D02*
X0084836Y0111336D01*
X0084836Y0110338D02*
X0084711Y0110338D01*
X0084711Y0109339D02*
X0084836Y0109339D01*
X0084836Y0108341D02*
X0084711Y0108341D01*
X0084711Y0107342D02*
X0084836Y0107342D01*
X0084836Y0106344D02*
X0084711Y0106344D01*
X0084711Y0105345D02*
X0084836Y0105345D01*
X0084836Y0104347D02*
X0084711Y0104347D01*
X0084711Y0103348D02*
X0084836Y0103348D01*
X0084836Y0102350D02*
X0084711Y0102350D01*
X0086336Y0100875D02*
X0086336Y0122750D01*
X0076336Y0132750D01*
X0076336Y0167125D01*
X0081649Y0172438D01*
X0104774Y0172438D01*
X0105711Y0173375D01*
X0105711Y0187125D01*
X0101024Y0191812D01*
X0101024Y0251812D01*
X0101336Y0252125D01*
X0109358Y0252125D01*
X0109491Y0251992D01*
X0114428Y0252126D02*
X0145828Y0252126D01*
X0146498Y0251128D02*
X0114428Y0251128D01*
X0114428Y0250129D02*
X0146823Y0250129D01*
X0147147Y0249131D02*
X0114343Y0249131D01*
X0114188Y0247134D02*
X0147380Y0247134D01*
X0147380Y0246135D02*
X0114428Y0246135D01*
X0114428Y0245137D02*
X0147380Y0245137D01*
X0147380Y0244138D02*
X0114428Y0244138D01*
X0114428Y0243140D02*
X0147380Y0243140D01*
X0147380Y0242141D02*
X0114428Y0242141D01*
X0114229Y0241143D02*
X0147380Y0241143D01*
X0147380Y0240144D02*
X0105024Y0240144D01*
X0103524Y0243687D02*
X0103524Y0193062D01*
X0108211Y0188375D01*
X0108211Y0172125D01*
X0104211Y0174242D02*
X0034086Y0174242D01*
X0034086Y0173244D02*
X0080334Y0173244D01*
X0079335Y0172245D02*
X0034086Y0172245D01*
X0034086Y0171247D02*
X0078337Y0171247D01*
X0077338Y0170248D02*
X0034086Y0170248D01*
X0034086Y0169250D02*
X0076340Y0169250D01*
X0075341Y0168251D02*
X0034086Y0168251D01*
X0031086Y0168251D02*
X0015961Y0168251D01*
X0015961Y0167253D02*
X0031086Y0167253D01*
X0031086Y0166254D02*
X0015961Y0166254D01*
X0015961Y0165256D02*
X0031086Y0165256D01*
X0031086Y0164257D02*
X0015961Y0164257D01*
X0015961Y0163259D02*
X0031086Y0163259D01*
X0031086Y0162260D02*
X0015961Y0162260D01*
X0015961Y0161262D02*
X0031086Y0161262D01*
X0031086Y0160263D02*
X0015961Y0160263D01*
X0015961Y0159265D02*
X0031086Y0159265D01*
X0031086Y0158266D02*
X0015961Y0158266D01*
X0015961Y0157268D02*
X0031086Y0157268D01*
X0031086Y0156269D02*
X0015961Y0156269D01*
X0015961Y0155271D02*
X0031086Y0155271D01*
X0031086Y0154272D02*
X0015961Y0154272D01*
X0015961Y0153274D02*
X0031086Y0153274D01*
X0031086Y0152275D02*
X0015961Y0152275D01*
X0015961Y0151277D02*
X0031086Y0151277D01*
X0031086Y0150278D02*
X0015961Y0150278D01*
X0015961Y0149280D02*
X0031086Y0149280D01*
X0031086Y0148281D02*
X0015961Y0148281D01*
X0015961Y0147283D02*
X0031086Y0147283D01*
X0031086Y0146284D02*
X0015961Y0146284D01*
X0015961Y0145286D02*
X0031086Y0145286D01*
X0031086Y0144287D02*
X0015961Y0144287D01*
X0015961Y0143289D02*
X0031086Y0143289D01*
X0031086Y0142290D02*
X0015961Y0142290D01*
X0015961Y0141292D02*
X0031086Y0141292D01*
X0031086Y0140293D02*
X0015961Y0140293D01*
X0015961Y0139295D02*
X0031086Y0139295D01*
X0031086Y0138296D02*
X0015961Y0138296D01*
X0015961Y0137298D02*
X0031086Y0137298D01*
X0031086Y0136299D02*
X0015961Y0136299D01*
X0015961Y0135301D02*
X0031086Y0135301D01*
X0032586Y0135875D02*
X0051961Y0135875D01*
X0055711Y0132125D01*
X0055711Y0127750D01*
X0057806Y0129309D02*
X0073280Y0129309D01*
X0074279Y0128311D02*
X0058276Y0128311D01*
X0058295Y0127312D02*
X0075277Y0127312D01*
X0076276Y0126314D02*
X0057913Y0126314D01*
X0057211Y0130308D02*
X0072282Y0130308D01*
X0071283Y0131306D02*
X0057211Y0131306D01*
X0057211Y0132305D02*
X0070285Y0132305D01*
X0069286Y0133303D02*
X0056654Y0133303D01*
X0055655Y0134302D02*
X0068288Y0134302D01*
X0067289Y0135301D02*
X0054657Y0135301D01*
X0053658Y0136299D02*
X0066291Y0136299D01*
X0065536Y0142290D02*
X0064542Y0142290D01*
X0066156Y0147283D02*
X0074836Y0147283D01*
X0074836Y0148281D02*
X0066278Y0148281D01*
X0066278Y0149280D02*
X0074836Y0149280D01*
X0074836Y0150278D02*
X0066278Y0150278D01*
X0066141Y0157268D02*
X0074836Y0157268D01*
X0074836Y0158266D02*
X0066278Y0158266D01*
X0066278Y0159265D02*
X0074836Y0159265D01*
X0074836Y0160263D02*
X0066278Y0160263D01*
X0066134Y0162260D02*
X0074836Y0162260D01*
X0074836Y0161262D02*
X0062447Y0161262D01*
X0066278Y0163259D02*
X0074836Y0163259D01*
X0074836Y0164257D02*
X0066278Y0164257D01*
X0066278Y0165256D02*
X0074836Y0165256D01*
X0080961Y0148281D02*
X0084309Y0148281D01*
X0085266Y0147283D02*
X0080961Y0147283D01*
X0080961Y0146284D02*
X0089211Y0146284D01*
X0089211Y0145286D02*
X0080961Y0145286D01*
X0080961Y0144287D02*
X0089211Y0144287D01*
X0089211Y0143289D02*
X0080961Y0143289D01*
X0080961Y0142290D02*
X0089211Y0142290D01*
X0089211Y0141292D02*
X0080961Y0141292D01*
X0080961Y0140293D02*
X0089797Y0140293D01*
X0090711Y0141500D02*
X0096971Y0141500D01*
X0100530Y0141292D02*
X0100892Y0141292D01*
X0100892Y0142290D02*
X0100530Y0142290D01*
X0100530Y0143289D02*
X0100892Y0143289D01*
X0100892Y0144287D02*
X0100530Y0144287D01*
X0100111Y0145286D02*
X0101311Y0145286D01*
X0100892Y0140293D02*
X0100530Y0140293D01*
X0100530Y0139295D02*
X0100892Y0139295D01*
X0100892Y0138296D02*
X0100530Y0138296D01*
X0101392Y0134302D02*
X0087189Y0134302D01*
X0087654Y0133303D02*
X0100393Y0133303D01*
X0099395Y0132305D02*
X0087670Y0132305D01*
X0088651Y0131306D02*
X0098396Y0131306D01*
X0097398Y0130308D02*
X0089649Y0130308D01*
X0090648Y0129309D02*
X0096399Y0129309D01*
X0095401Y0128311D02*
X0091647Y0128311D01*
X0092645Y0127312D02*
X0094402Y0127312D01*
X0094211Y0126314D02*
X0093644Y0126314D01*
X0094086Y0125315D02*
X0094211Y0125315D01*
X0094211Y0124317D02*
X0094086Y0124317D01*
X0094086Y0123318D02*
X0094211Y0123318D01*
X0094211Y0122320D02*
X0094086Y0122320D01*
X0094086Y0121321D02*
X0094211Y0121321D01*
X0094211Y0120323D02*
X0094086Y0120323D01*
X0094086Y0119324D02*
X0094211Y0119324D01*
X0094211Y0118326D02*
X0094086Y0118326D01*
X0094086Y0117327D02*
X0094211Y0117327D01*
X0094211Y0116329D02*
X0094086Y0116329D01*
X0094086Y0115330D02*
X0094211Y0115330D01*
X0094211Y0114332D02*
X0094086Y0114332D01*
X0094086Y0113333D02*
X0094211Y0113333D01*
X0094211Y0112335D02*
X0094086Y0112335D01*
X0094086Y0111336D02*
X0094211Y0111336D01*
X0094211Y0110338D02*
X0094086Y0110338D01*
X0094086Y0109339D02*
X0094211Y0109339D01*
X0094211Y0108341D02*
X0094086Y0108341D01*
X0094086Y0107342D02*
X0094211Y0107342D01*
X0094211Y0106344D02*
X0094086Y0106344D01*
X0094086Y0105345D02*
X0094211Y0105345D01*
X0094211Y0104347D02*
X0094086Y0104347D01*
X0094086Y0103348D02*
X0094211Y0103348D01*
X0094211Y0102350D02*
X0094086Y0102350D01*
X0094086Y0101351D02*
X0094211Y0101351D01*
X0094211Y0100353D02*
X0094086Y0100353D01*
X0092586Y0099625D02*
X0092586Y0125250D01*
X0085086Y0132750D01*
X0084491Y0135301D02*
X0080961Y0135301D01*
X0080961Y0136299D02*
X0102951Y0136299D01*
X0102951Y0137298D02*
X0080961Y0137298D01*
X0080961Y0138296D02*
X0093412Y0138296D01*
X0093412Y0139295D02*
X0080961Y0139295D01*
X0081280Y0134302D02*
X0082983Y0134302D01*
X0082518Y0133303D02*
X0082279Y0133303D01*
X0085682Y0135301D02*
X0102390Y0135301D01*
X0104636Y0133303D02*
X0132786Y0133303D01*
X0132786Y0132305D02*
X0103637Y0132305D01*
X0102639Y0131306D02*
X0132786Y0131306D01*
X0132786Y0130308D02*
X0101640Y0130308D01*
X0100642Y0129309D02*
X0132786Y0129309D01*
X0132786Y0128311D02*
X0099643Y0128311D01*
X0098645Y0127312D02*
X0132786Y0127312D01*
X0132786Y0126314D02*
X0097646Y0126314D01*
X0097211Y0125315D02*
X0102027Y0125315D01*
X0103146Y0125315D02*
X0132786Y0125315D01*
X0132786Y0124317D02*
X0104674Y0124317D01*
X0102586Y0122750D02*
X0137586Y0122750D01*
X0137586Y0129250D01*
X0137586Y0146510D01*
X0133633Y0147283D02*
X0116156Y0147283D01*
X0116278Y0148281D02*
X0133633Y0148281D01*
X0133633Y0149280D02*
X0116278Y0149280D01*
X0116278Y0150278D02*
X0133665Y0150278D01*
X0133133Y0151277D02*
X0112447Y0151277D01*
X0116149Y0152275D02*
X0133133Y0152275D01*
X0133133Y0153274D02*
X0116278Y0153274D01*
X0116278Y0154272D02*
X0137086Y0154272D01*
X0137086Y0155271D02*
X0138086Y0155271D01*
X0138086Y0154490D02*
X0138086Y0158049D01*
X0140736Y0158049D01*
X0141118Y0157947D01*
X0141460Y0157749D01*
X0141739Y0157470D01*
X0141937Y0157128D01*
X0142039Y0156747D01*
X0142039Y0154490D01*
X0138086Y0154490D01*
X0138086Y0154272D02*
X0147380Y0154272D01*
X0147380Y0153274D02*
X0142039Y0153274D01*
X0142039Y0152275D02*
X0147380Y0152275D01*
X0147380Y0151277D02*
X0142039Y0151277D01*
X0141507Y0150278D02*
X0147380Y0150278D01*
X0147380Y0149280D02*
X0141539Y0149280D01*
X0141539Y0148281D02*
X0147380Y0148281D01*
X0147380Y0147283D02*
X0141539Y0147283D01*
X0141539Y0146284D02*
X0147380Y0146284D01*
X0147380Y0145286D02*
X0141539Y0145286D01*
X0141539Y0144287D02*
X0147380Y0144287D01*
X0147380Y0143289D02*
X0141291Y0143289D01*
X0139086Y0142290D02*
X0147380Y0142290D01*
X0147380Y0141292D02*
X0139086Y0141292D01*
X0142257Y0140293D02*
X0147380Y0140293D01*
X0147380Y0139295D02*
X0142386Y0139295D01*
X0142386Y0138296D02*
X0147380Y0138296D01*
X0147380Y0137298D02*
X0142386Y0137298D01*
X0142386Y0136299D02*
X0147380Y0136299D01*
X0147380Y0135301D02*
X0142386Y0135301D01*
X0142386Y0134302D02*
X0147380Y0134302D01*
X0147380Y0133303D02*
X0142386Y0133303D01*
X0142386Y0132305D02*
X0147380Y0132305D01*
X0147380Y0131306D02*
X0142386Y0131306D01*
X0142386Y0130308D02*
X0147380Y0130308D01*
X0147380Y0129309D02*
X0142386Y0129309D01*
X0142386Y0128311D02*
X0147380Y0128311D01*
X0147380Y0127312D02*
X0142386Y0127312D01*
X0142386Y0126314D02*
X0147380Y0126314D01*
X0147380Y0125315D02*
X0142386Y0125315D01*
X0142386Y0124317D02*
X0147380Y0124317D01*
X0147380Y0123318D02*
X0142386Y0123318D01*
X0142386Y0122320D02*
X0147380Y0122320D01*
X0147380Y0121321D02*
X0142386Y0121321D01*
X0142386Y0120323D02*
X0147380Y0120323D01*
X0147380Y0119324D02*
X0142386Y0119324D01*
X0142376Y0118326D02*
X0147380Y0118326D01*
X0147380Y0117327D02*
X0127693Y0117327D01*
X0128061Y0116329D02*
X0147380Y0116329D01*
X0147380Y0115330D02*
X0128295Y0115330D01*
X0128128Y0114332D02*
X0147380Y0114332D01*
X0147380Y0113333D02*
X0127533Y0113333D01*
X0128163Y0112335D02*
X0147380Y0112335D01*
X0147380Y0111336D02*
X0128295Y0111336D01*
X0128027Y0110338D02*
X0147380Y0110338D01*
X0147380Y0109339D02*
X0127205Y0109339D01*
X0125367Y0108341D02*
X0147380Y0108341D01*
X0147380Y0107342D02*
X0126365Y0107342D01*
X0127211Y0106344D02*
X0147380Y0106344D01*
X0147380Y0105345D02*
X0127211Y0105345D01*
X0127211Y0104347D02*
X0147380Y0104347D01*
X0147380Y0103348D02*
X0127211Y0103348D01*
X0127211Y0102350D02*
X0132972Y0102350D01*
X0132786Y0102164D02*
X0132786Y0080336D01*
X0133372Y0079750D01*
X0136086Y0079750D01*
X0136086Y0078666D01*
X0135953Y0078799D01*
X0129219Y0078799D01*
X0128633Y0078213D01*
X0128633Y0072267D01*
X0129219Y0071681D01*
X0135953Y0071681D01*
X0136539Y0072267D01*
X0136539Y0073740D01*
X0138633Y0073740D01*
X0138633Y0072267D01*
X0139156Y0071744D01*
X0139054Y0071717D01*
X0138712Y0071519D01*
X0138433Y0071240D01*
X0138236Y0070898D01*
X0138133Y0070516D01*
X0138133Y0068260D01*
X0142086Y0068260D01*
X0142086Y0067260D01*
X0138133Y0067260D01*
X0138133Y0065003D01*
X0138236Y0064622D01*
X0138433Y0064280D01*
X0138712Y0064000D01*
X0139054Y0063803D01*
X0139436Y0063701D01*
X0142086Y0063701D01*
X0142086Y0067260D01*
X0143086Y0067260D01*
X0143086Y0068260D01*
X0147039Y0068260D01*
X0147039Y0070516D01*
X0146937Y0070898D01*
X0146739Y0071240D01*
X0146460Y0071519D01*
X0146118Y0071717D01*
X0146016Y0071744D01*
X0146539Y0072267D01*
X0146539Y0078213D01*
X0145953Y0078799D01*
X0139219Y0078799D01*
X0139086Y0078666D01*
X0139086Y0079750D01*
X0141800Y0079750D01*
X0142386Y0080336D01*
X0142386Y0102164D01*
X0141800Y0102750D01*
X0133372Y0102750D01*
X0132786Y0102164D01*
X0132786Y0101351D02*
X0127211Y0101351D01*
X0127211Y0100353D02*
X0132786Y0100353D01*
X0132786Y0099354D02*
X0127211Y0099354D01*
X0127211Y0098356D02*
X0132786Y0098356D01*
X0132786Y0097357D02*
X0127211Y0097357D01*
X0127211Y0096359D02*
X0132786Y0096359D01*
X0132786Y0095360D02*
X0127211Y0095360D01*
X0127211Y0094362D02*
X0132786Y0094362D01*
X0132786Y0093363D02*
X0127211Y0093363D01*
X0127211Y0092365D02*
X0132786Y0092365D01*
X0132786Y0091366D02*
X0127211Y0091366D01*
X0127211Y0090368D02*
X0132786Y0090368D01*
X0132786Y0089369D02*
X0127211Y0089369D01*
X0127495Y0088370D02*
X0132786Y0088370D01*
X0132786Y0087372D02*
X0128147Y0087372D01*
X0128295Y0086373D02*
X0132786Y0086373D01*
X0132786Y0085375D02*
X0128042Y0085375D01*
X0127242Y0084376D02*
X0132786Y0084376D01*
X0132786Y0083378D02*
X0122211Y0083378D01*
X0122211Y0084376D02*
X0124180Y0084376D01*
X0123380Y0085375D02*
X0122211Y0085375D01*
X0122211Y0086373D02*
X0123127Y0086373D01*
X0123275Y0087372D02*
X0122211Y0087372D01*
X0122211Y0088370D02*
X0123927Y0088370D01*
X0124211Y0089369D02*
X0122211Y0089369D01*
X0122211Y0090368D02*
X0124211Y0090368D01*
X0124211Y0091366D02*
X0122211Y0091366D01*
X0122211Y0092365D02*
X0124211Y0092365D01*
X0124211Y0093363D02*
X0122211Y0093363D01*
X0122211Y0094362D02*
X0124211Y0094362D01*
X0124211Y0095360D02*
X0122211Y0095360D01*
X0122211Y0096359D02*
X0124211Y0096359D01*
X0124211Y0097357D02*
X0122211Y0097357D01*
X0122211Y0098356D02*
X0124211Y0098356D01*
X0124211Y0099354D02*
X0121853Y0099354D01*
X0120711Y0098375D02*
X0101961Y0098375D01*
X0100819Y0099354D02*
X0097211Y0099354D01*
X0097211Y0100353D02*
X0124211Y0100353D01*
X0124211Y0101351D02*
X0097211Y0101351D01*
X0097211Y0102350D02*
X0124211Y0102350D01*
X0124211Y0103348D02*
X0097211Y0103348D01*
X0097211Y0104347D02*
X0124211Y0104347D01*
X0124120Y0105345D02*
X0103533Y0105345D01*
X0101639Y0105345D02*
X0097211Y0105345D01*
X0097211Y0106344D02*
X0100371Y0106344D01*
X0100002Y0107342D02*
X0097211Y0107342D01*
X0097211Y0108341D02*
X0100034Y0108341D01*
X0100521Y0109339D02*
X0097211Y0109339D01*
X0097211Y0110338D02*
X0100270Y0110338D01*
X0100002Y0111336D02*
X0097211Y0111336D01*
X0097211Y0112335D02*
X0100135Y0112335D01*
X0100765Y0113333D02*
X0097211Y0113333D01*
X0097211Y0114332D02*
X0100169Y0114332D01*
X0100002Y0115330D02*
X0097211Y0115330D01*
X0097211Y0116329D02*
X0100236Y0116329D01*
X0100604Y0117327D02*
X0097211Y0117327D01*
X0097211Y0118326D02*
X0100068Y0118326D01*
X0100002Y0119324D02*
X0097211Y0119324D01*
X0097211Y0120323D02*
X0100337Y0120323D01*
X0100381Y0121321D02*
X0097211Y0121321D01*
X0097211Y0122320D02*
X0100002Y0122320D01*
X0100024Y0123318D02*
X0097211Y0123318D01*
X0097211Y0124317D02*
X0100498Y0124317D01*
X0102586Y0119000D02*
X0125711Y0119000D01*
X0128295Y0119324D02*
X0132786Y0119324D01*
X0132796Y0118326D02*
X0128229Y0118326D01*
X0127960Y0120323D02*
X0132786Y0120323D01*
X0137336Y0129000D02*
X0137586Y0129250D01*
X0132786Y0134302D02*
X0105634Y0134302D01*
X0105951Y0135301D02*
X0132786Y0135301D01*
X0132786Y0136299D02*
X0105951Y0136299D01*
X0102586Y0115250D02*
X0125711Y0115250D01*
X0125711Y0111500D02*
X0102586Y0111500D01*
X0102586Y0107750D02*
X0123836Y0107750D01*
X0125711Y0105875D01*
X0125711Y0086500D01*
X0122211Y0082379D02*
X0132786Y0082379D01*
X0132786Y0081381D02*
X0122211Y0081381D01*
X0122211Y0080382D02*
X0132786Y0080382D01*
X0136086Y0079384D02*
X0122211Y0079384D01*
X0122211Y0078385D02*
X0128805Y0078385D01*
X0128633Y0077387D02*
X0122211Y0077387D01*
X0122211Y0076388D02*
X0128633Y0076388D01*
X0128633Y0075390D02*
X0122211Y0075390D01*
X0122211Y0074391D02*
X0123180Y0074391D01*
X0124471Y0072135D02*
X0124461Y0072125D01*
X0128836Y0067750D01*
X0130711Y0067750D01*
X0130721Y0067760D01*
X0132586Y0067760D01*
X0131961Y0067750D02*
X0130711Y0067750D01*
X0129014Y0064406D02*
X0125551Y0064406D01*
X0124553Y0065405D02*
X0128633Y0065405D01*
X0128062Y0066403D02*
X0123554Y0066403D01*
X0122556Y0067402D02*
X0127063Y0067402D01*
X0126065Y0068400D02*
X0122211Y0068400D01*
X0122211Y0069399D02*
X0125066Y0069399D01*
X0122534Y0070397D02*
X0122211Y0070397D01*
X0120711Y0067125D02*
X0135711Y0052125D01*
X0135711Y0039625D01*
X0137211Y0051426D02*
X0147380Y0051426D01*
X0147380Y0052424D02*
X0137211Y0052424D01*
X0136535Y0053423D02*
X0147380Y0053423D01*
X0147380Y0054421D02*
X0135536Y0054421D01*
X0134538Y0055420D02*
X0147380Y0055420D01*
X0147380Y0056418D02*
X0133539Y0056418D01*
X0132541Y0057417D02*
X0147380Y0057417D01*
X0147380Y0058415D02*
X0131542Y0058415D01*
X0130544Y0059414D02*
X0147380Y0059414D01*
X0147380Y0060412D02*
X0129545Y0060412D01*
X0128547Y0061411D02*
X0147380Y0061411D01*
X0147380Y0062409D02*
X0127548Y0062409D01*
X0126550Y0063408D02*
X0147380Y0063408D01*
X0147380Y0064406D02*
X0146812Y0064406D01*
X0146739Y0064280D02*
X0146937Y0064622D01*
X0147039Y0065003D01*
X0147039Y0067260D01*
X0143086Y0067260D01*
X0143086Y0063701D01*
X0145736Y0063701D01*
X0146118Y0063803D01*
X0146460Y0064000D01*
X0146739Y0064280D01*
X0147039Y0065405D02*
X0147380Y0065405D01*
X0147380Y0066403D02*
X0147039Y0066403D01*
X0147380Y0067402D02*
X0143086Y0067402D01*
X0143086Y0066403D02*
X0142086Y0066403D01*
X0142086Y0065405D02*
X0143086Y0065405D01*
X0143086Y0064406D02*
X0142086Y0064406D01*
X0142086Y0067402D02*
X0136539Y0067402D01*
X0136539Y0068400D02*
X0138133Y0068400D01*
X0138133Y0069399D02*
X0136539Y0069399D01*
X0136539Y0070397D02*
X0138133Y0070397D01*
X0138589Y0071396D02*
X0127312Y0071396D01*
X0127045Y0072394D02*
X0128633Y0072394D01*
X0128633Y0073393D02*
X0126733Y0073393D01*
X0125743Y0074391D02*
X0128633Y0074391D01*
X0128633Y0070397D02*
X0128310Y0070397D01*
X0132586Y0075240D02*
X0137596Y0075240D01*
X0142586Y0075240D01*
X0138633Y0073393D02*
X0136539Y0073393D01*
X0136539Y0072394D02*
X0138633Y0072394D01*
X0137596Y0075240D02*
X0137586Y0075250D01*
X0137586Y0091250D01*
X0142386Y0091366D02*
X0147380Y0091366D01*
X0147380Y0090368D02*
X0142386Y0090368D01*
X0142386Y0089369D02*
X0147380Y0089369D01*
X0147380Y0088370D02*
X0142386Y0088370D01*
X0142386Y0087372D02*
X0147380Y0087372D01*
X0147380Y0086373D02*
X0142386Y0086373D01*
X0142386Y0085375D02*
X0147380Y0085375D01*
X0147380Y0084376D02*
X0142386Y0084376D01*
X0142386Y0083378D02*
X0147380Y0083378D01*
X0147380Y0082379D02*
X0142386Y0082379D01*
X0142386Y0081381D02*
X0147380Y0081381D01*
X0147380Y0080382D02*
X0142386Y0080382D01*
X0139086Y0079384D02*
X0147380Y0079384D01*
X0147380Y0078385D02*
X0146367Y0078385D01*
X0146539Y0077387D02*
X0147380Y0077387D01*
X0147380Y0076388D02*
X0146539Y0076388D01*
X0146539Y0075390D02*
X0147380Y0075390D01*
X0147380Y0074391D02*
X0146539Y0074391D01*
X0146539Y0073393D02*
X0147380Y0073393D01*
X0147380Y0072394D02*
X0146539Y0072394D01*
X0146583Y0071396D02*
X0147380Y0071396D01*
X0147380Y0070397D02*
X0147039Y0070397D01*
X0147039Y0069399D02*
X0147380Y0069399D01*
X0147380Y0068400D02*
X0147039Y0068400D01*
X0138360Y0064406D02*
X0136159Y0064406D01*
X0136539Y0065405D02*
X0138133Y0065405D01*
X0138133Y0066403D02*
X0136539Y0066403D01*
X0146323Y0050427D02*
X0147380Y0050427D01*
X0147380Y0049429D02*
X0146711Y0049429D01*
X0146711Y0048430D02*
X0147380Y0048430D01*
X0147380Y0047432D02*
X0146711Y0047432D01*
X0146711Y0046433D02*
X0147380Y0046433D01*
X0147380Y0045434D02*
X0146711Y0045434D01*
X0146711Y0044436D02*
X0147380Y0044436D01*
X0147380Y0043437D02*
X0146711Y0043437D01*
X0146711Y0042439D02*
X0147380Y0042439D01*
X0147380Y0041440D02*
X0146711Y0041440D01*
X0146711Y0040442D02*
X0147380Y0040442D01*
X0147380Y0039443D02*
X0146711Y0039443D01*
X0146711Y0038445D02*
X0147380Y0038445D01*
X0147380Y0037446D02*
X0146711Y0037446D01*
X0146711Y0036448D02*
X0147380Y0036448D01*
X0147380Y0035449D02*
X0146711Y0035449D01*
X0146711Y0034451D02*
X0147380Y0034451D01*
X0147380Y0033452D02*
X0146711Y0033452D01*
X0146711Y0032454D02*
X0147380Y0032454D01*
X0147380Y0031455D02*
X0146711Y0031455D01*
X0146711Y0030457D02*
X0147380Y0030457D01*
X0147380Y0029458D02*
X0146711Y0029458D01*
X0120711Y0067125D02*
X0120711Y0098375D01*
X0101086Y0078385D02*
X0073468Y0078385D01*
X0072469Y0077387D02*
X0101086Y0077387D01*
X0101086Y0076388D02*
X0071471Y0076388D01*
X0070472Y0075390D02*
X0080531Y0075390D01*
X0075887Y0074391D02*
X0069474Y0074391D01*
X0068475Y0073393D02*
X0072829Y0073393D01*
X0070418Y0072394D02*
X0067477Y0072394D01*
X0066478Y0071396D02*
X0068509Y0071396D01*
X0066649Y0070397D02*
X0066420Y0070397D01*
X0063836Y0070875D02*
X0092586Y0099625D01*
X0096190Y0097357D02*
X0098822Y0097357D01*
X0099820Y0098356D02*
X0097188Y0098356D01*
X0086336Y0100875D02*
X0056336Y0070875D01*
X0055662Y0073393D02*
X0041202Y0073393D01*
X0041381Y0072394D02*
X0054201Y0072394D01*
X0053755Y0071396D02*
X0041381Y0071396D01*
X0041381Y0070397D02*
X0053752Y0070397D01*
X0054158Y0069399D02*
X0041381Y0069399D01*
X0041381Y0065405D02*
X0054402Y0065405D01*
X0056336Y0067125D02*
X0037586Y0067125D01*
X0037586Y0063375D01*
X0038836Y0064625D01*
X0037429Y0064925D02*
X0036961Y0065393D01*
X0037586Y0072125D01*
X0037586Y0067125D01*
X0037429Y0064925D02*
X0037429Y0041343D01*
X0035711Y0039625D01*
X0033836Y0039625D01*
X0033211Y0039000D01*
X0030721Y0039000D01*
X0030711Y0039010D01*
X0030711Y0042750D01*
X0030711Y0044000D01*
X0023211Y0051500D01*
X0019461Y0051500D01*
X0017729Y0053423D02*
X0011886Y0053423D01*
X0011886Y0054421D02*
X0035929Y0054421D01*
X0035929Y0053423D02*
X0021193Y0053423D01*
X0021478Y0056418D02*
X0023267Y0056418D01*
X0023236Y0056472D02*
X0023433Y0056130D01*
X0023712Y0055851D01*
X0024054Y0055653D01*
X0024436Y0055551D01*
X0027086Y0055551D01*
X0027086Y0064425D01*
X0023133Y0064425D01*
X0023133Y0056854D01*
X0023236Y0056472D01*
X0023133Y0057417D02*
X0021696Y0057417D01*
X0021696Y0058415D02*
X0023133Y0058415D01*
X0023133Y0059414D02*
X0021696Y0059414D01*
X0021696Y0060412D02*
X0023133Y0060412D01*
X0023133Y0061411D02*
X0021696Y0061411D01*
X0021696Y0062409D02*
X0023133Y0062409D01*
X0023133Y0063408D02*
X0021696Y0063408D01*
X0021696Y0064406D02*
X0023133Y0064406D01*
X0027086Y0064406D02*
X0028086Y0064406D01*
X0027586Y0064925D02*
X0027586Y0062125D01*
X0028211Y0061500D01*
X0028086Y0061411D02*
X0027086Y0061411D01*
X0027086Y0062409D02*
X0028086Y0062409D01*
X0028086Y0063408D02*
X0027086Y0063408D01*
X0028086Y0065405D02*
X0033476Y0065405D01*
X0033476Y0066403D02*
X0032039Y0066403D01*
X0032039Y0067402D02*
X0033476Y0067402D01*
X0033476Y0068400D02*
X0032039Y0068400D01*
X0032039Y0069399D02*
X0033476Y0069399D01*
X0033476Y0070397D02*
X0032039Y0070397D01*
X0032039Y0071396D02*
X0033476Y0071396D01*
X0033476Y0072394D02*
X0032039Y0072394D01*
X0031928Y0073393D02*
X0033655Y0073393D01*
X0036305Y0074391D02*
X0004711Y0074391D01*
X0004711Y0075390D02*
X0058730Y0075390D01*
X0059728Y0076388D02*
X0004711Y0076388D01*
X0004711Y0077387D02*
X0060727Y0077387D01*
X0061725Y0078385D02*
X0051251Y0078385D01*
X0051900Y0079384D02*
X0062724Y0079384D01*
X0063722Y0080382D02*
X0052045Y0080382D01*
X0051790Y0081381D02*
X0064721Y0081381D01*
X0065719Y0082379D02*
X0050986Y0082379D01*
X0050961Y0083378D02*
X0065179Y0083378D01*
X0064526Y0084376D02*
X0050961Y0084376D01*
X0050961Y0085375D02*
X0064377Y0085375D01*
X0064629Y0086373D02*
X0050961Y0086373D01*
X0050961Y0087372D02*
X0051184Y0087372D01*
X0053211Y0089000D02*
X0061336Y0089000D01*
X0060295Y0091366D02*
X0054252Y0091366D01*
X0052170Y0091366D02*
X0050961Y0091366D01*
X0050961Y0090368D02*
X0050980Y0090368D01*
X0047961Y0090368D02*
X0004711Y0090368D01*
X0004711Y0091366D02*
X0047961Y0091366D01*
X0047961Y0092365D02*
X0004711Y0092365D01*
X0004711Y0093363D02*
X0006222Y0093363D01*
X0006086Y0094362D02*
X0004711Y0094362D01*
X0004711Y0095360D02*
X0006086Y0095360D01*
X0006086Y0096359D02*
X0004711Y0096359D01*
X0004711Y0097357D02*
X0006086Y0097357D01*
X0006086Y0098356D02*
X0004711Y0098356D01*
X0004711Y0099354D02*
X0006086Y0099354D01*
X0006086Y0100353D02*
X0004711Y0100353D01*
X0004711Y0101351D02*
X0006086Y0101351D01*
X0006086Y0102350D02*
X0004711Y0102350D01*
X0004711Y0103348D02*
X0006086Y0103348D01*
X0006086Y0104347D02*
X0004711Y0104347D01*
X0004711Y0105345D02*
X0006086Y0105345D01*
X0004711Y0089369D02*
X0047961Y0089369D01*
X0047961Y0088370D02*
X0004711Y0088370D01*
X0004711Y0087372D02*
X0047961Y0087372D01*
X0047961Y0086373D02*
X0004711Y0086373D01*
X0004711Y0085375D02*
X0047961Y0085375D01*
X0047961Y0084376D02*
X0004711Y0084376D01*
X0004711Y0083378D02*
X0047961Y0083378D01*
X0047936Y0082379D02*
X0004711Y0082379D01*
X0004711Y0081381D02*
X0047132Y0081381D01*
X0046877Y0080382D02*
X0004711Y0080382D01*
X0004711Y0079384D02*
X0047023Y0079384D01*
X0047671Y0078385D02*
X0004711Y0078385D01*
X0013800Y0056418D02*
X0014010Y0056418D01*
X0012801Y0055420D02*
X0035929Y0055420D01*
X0033695Y0056418D02*
X0031905Y0056418D01*
X0032039Y0057417D02*
X0033476Y0057417D01*
X0033476Y0058415D02*
X0032039Y0058415D01*
X0032039Y0059414D02*
X0033476Y0059414D01*
X0033476Y0060412D02*
X0032039Y0060412D01*
X0032039Y0061411D02*
X0033476Y0061411D01*
X0033476Y0062409D02*
X0032039Y0062409D01*
X0032039Y0063408D02*
X0033476Y0063408D01*
X0033476Y0064406D02*
X0032039Y0064406D01*
X0028086Y0066403D02*
X0027086Y0066403D01*
X0027086Y0067402D02*
X0028086Y0067402D01*
X0028086Y0068400D02*
X0027086Y0068400D01*
X0027086Y0069399D02*
X0028086Y0069399D01*
X0028086Y0070397D02*
X0027086Y0070397D01*
X0027086Y0071396D02*
X0028086Y0071396D01*
X0028086Y0072394D02*
X0027086Y0072394D01*
X0027086Y0073393D02*
X0028086Y0073393D01*
X0028086Y0060412D02*
X0027086Y0060412D01*
X0027086Y0059414D02*
X0028086Y0059414D01*
X0028086Y0058415D02*
X0027086Y0058415D01*
X0027086Y0057417D02*
X0028086Y0057417D01*
X0028086Y0056418D02*
X0027086Y0056418D01*
X0025407Y0051426D02*
X0035929Y0051426D01*
X0035929Y0052424D02*
X0024408Y0052424D01*
X0024160Y0048430D02*
X0023879Y0048430D01*
X0023879Y0047432D02*
X0024711Y0047432D01*
X0024711Y0046433D02*
X0023879Y0046433D01*
X0024711Y0045434D02*
X0019336Y0045434D01*
X0018836Y0045137D02*
X0016336Y0047637D01*
X0014314Y0049429D02*
X0011886Y0049429D01*
X0011886Y0050427D02*
X0017108Y0050427D01*
X0016877Y0051426D02*
X0011886Y0051426D01*
X0011886Y0052424D02*
X0017047Y0052424D01*
X0013793Y0048430D02*
X0011886Y0048430D01*
X0011886Y0047432D02*
X0013793Y0047432D01*
X0013793Y0046433D02*
X0011886Y0046433D01*
X0011886Y0045434D02*
X0018336Y0045434D01*
X0018336Y0044436D02*
X0019336Y0044436D01*
X0019336Y0043437D02*
X0018336Y0043437D01*
X0018336Y0042439D02*
X0019336Y0042439D01*
X0019336Y0041440D02*
X0018336Y0041440D01*
X0014293Y0037446D02*
X0011886Y0037446D01*
X0011886Y0036448D02*
X0014293Y0036448D01*
X0014293Y0035449D02*
X0011886Y0035449D01*
X0011886Y0034451D02*
X0014293Y0034451D01*
X0014293Y0033452D02*
X0011886Y0033452D01*
X0011886Y0032454D02*
X0014293Y0032454D01*
X0014293Y0031455D02*
X0011886Y0031455D01*
X0011886Y0030457D02*
X0014385Y0030457D01*
X0011886Y0029458D02*
X0024711Y0029458D01*
X0024711Y0030457D02*
X0023287Y0030457D01*
X0023379Y0031455D02*
X0024711Y0031455D01*
X0024711Y0032454D02*
X0023379Y0032454D01*
X0023379Y0036448D02*
X0024711Y0036448D01*
X0024711Y0037446D02*
X0023379Y0037446D01*
X0024711Y0038445D02*
X0011886Y0038445D01*
X0011886Y0039443D02*
X0024711Y0039443D01*
X0024711Y0040442D02*
X0011886Y0040442D01*
X0011886Y0041440D02*
X0013886Y0041440D01*
X0013793Y0042439D02*
X0011886Y0042439D01*
X0011886Y0043437D02*
X0013793Y0043437D01*
X0013793Y0044436D02*
X0011886Y0044436D01*
X0018836Y0034113D02*
X0018949Y0034000D01*
X0028211Y0034000D01*
X0033211Y0039000D01*
X0024711Y0041440D02*
X0023786Y0041440D01*
X0023879Y0042439D02*
X0024711Y0042439D01*
X0024711Y0043437D02*
X0023879Y0043437D01*
X0023879Y0044436D02*
X0024711Y0044436D01*
X0020882Y0028460D02*
X0018167Y0028460D01*
X0018414Y0027461D02*
X0020836Y0027461D01*
X0014961Y0015479D02*
X0013961Y0015479D01*
X0013961Y0014481D02*
X0014961Y0014481D01*
X0038868Y0074391D02*
X0057731Y0074391D01*
X0059461Y0083375D02*
X0052586Y0082750D01*
X0049461Y0080250D02*
X0049461Y0097125D01*
X0051961Y0099625D01*
X0053890Y0101351D02*
X0069377Y0101351D01*
X0069380Y0100353D02*
X0054457Y0100353D01*
X0054545Y0099354D02*
X0066840Y0099354D01*
X0065924Y0098356D02*
X0054232Y0098356D01*
X0053239Y0097357D02*
X0065627Y0097357D01*
X0065731Y0096359D02*
X0050961Y0096359D01*
X0049377Y0099354D02*
X0049086Y0099354D01*
X0049086Y0100353D02*
X0049465Y0100353D01*
X0049086Y0101351D02*
X0050033Y0101351D01*
X0049086Y0102350D02*
X0069781Y0102350D01*
X0071179Y0103348D02*
X0049086Y0103348D01*
X0049086Y0104347D02*
X0075461Y0104347D01*
X0075461Y0105345D02*
X0049086Y0105345D01*
X0049086Y0107342D02*
X0075461Y0107342D01*
X0075461Y0106344D02*
X0028086Y0106344D01*
X0028086Y0105345D02*
X0027086Y0105345D01*
X0027086Y0104347D02*
X0028086Y0104347D01*
X0028086Y0103348D02*
X0027086Y0103348D01*
X0027086Y0102350D02*
X0028086Y0102350D01*
X0028086Y0101351D02*
X0027086Y0101351D01*
X0027086Y0100353D02*
X0028086Y0100353D01*
X0028086Y0099354D02*
X0027086Y0099354D01*
X0027086Y0098356D02*
X0028086Y0098356D01*
X0028086Y0097357D02*
X0027086Y0097357D01*
X0027086Y0096359D02*
X0028086Y0096359D01*
X0028086Y0095360D02*
X0027086Y0095360D01*
X0027086Y0094362D02*
X0028086Y0094362D01*
X0028086Y0093363D02*
X0027086Y0093363D01*
X0009461Y0121500D02*
X0074461Y0121500D01*
X0076961Y0119000D01*
X0076961Y0103375D01*
X0074461Y0100875D01*
X0071961Y0100875D01*
X0072743Y0103348D02*
X0074813Y0103348D01*
X0075461Y0108341D02*
X0049086Y0108341D01*
X0049086Y0109339D02*
X0075461Y0109339D01*
X0075461Y0110338D02*
X0049086Y0110338D01*
X0049086Y0111336D02*
X0075461Y0111336D01*
X0075461Y0112335D02*
X0049086Y0112335D01*
X0049086Y0113333D02*
X0075461Y0113333D01*
X0075461Y0114332D02*
X0049086Y0114332D01*
X0049086Y0115330D02*
X0075461Y0115330D01*
X0075461Y0116329D02*
X0049086Y0116329D01*
X0049086Y0117327D02*
X0075461Y0117327D01*
X0075461Y0118326D02*
X0049086Y0118326D01*
X0049052Y0119324D02*
X0074515Y0119324D01*
X0073836Y0114000D02*
X0065086Y0114000D01*
X0066961Y0114000D01*
X0065086Y0114000D02*
X0065086Y0089000D01*
X0059461Y0083375D01*
X0059309Y0087372D02*
X0055238Y0087372D01*
X0063363Y0087372D02*
X0065428Y0087372D01*
X0069583Y0099354D02*
X0069827Y0099354D01*
X0075465Y0080382D02*
X0075877Y0080382D01*
X0076673Y0079384D02*
X0074466Y0079384D01*
X0085711Y0076500D02*
X0091961Y0076500D01*
X0090892Y0075390D02*
X0100946Y0075390D01*
X0100210Y0074391D02*
X0095536Y0074391D01*
X0098594Y0073393D02*
X0100002Y0073393D01*
X0085711Y0076500D02*
X0085711Y0039625D01*
X0081711Y0102350D02*
X0081586Y0102350D01*
X0081586Y0103348D02*
X0081711Y0103348D01*
X0081711Y0104347D02*
X0081586Y0104347D01*
X0081586Y0105345D02*
X0081711Y0105345D01*
X0081711Y0106344D02*
X0081586Y0106344D01*
X0081586Y0107342D02*
X0081711Y0107342D01*
X0081711Y0108341D02*
X0081586Y0108341D01*
X0081586Y0109339D02*
X0081711Y0109339D01*
X0081711Y0110338D02*
X0081586Y0110338D01*
X0081586Y0111336D02*
X0081711Y0111336D01*
X0081711Y0112335D02*
X0081586Y0112335D01*
X0081586Y0113333D02*
X0081711Y0113333D01*
X0081711Y0114332D02*
X0081586Y0114332D01*
X0081586Y0115330D02*
X0081711Y0115330D01*
X0081711Y0116329D02*
X0081586Y0116329D01*
X0081586Y0117327D02*
X0081711Y0117327D01*
X0081711Y0118326D02*
X0081586Y0118326D01*
X0081586Y0119324D02*
X0081711Y0119324D01*
X0081711Y0120323D02*
X0081510Y0120323D01*
X0081268Y0121321D02*
X0080511Y0121321D01*
X0080270Y0122320D02*
X0079513Y0122320D01*
X0079271Y0123318D02*
X0078514Y0123318D01*
X0078273Y0124317D02*
X0077516Y0124317D01*
X0077274Y0125315D02*
X0076517Y0125315D01*
X0090711Y0141500D02*
X0090711Y0148764D01*
X0090475Y0149000D01*
X0104211Y0175241D02*
X0034086Y0175241D01*
X0034086Y0176239D02*
X0104211Y0176239D01*
X0104211Y0177238D02*
X0034086Y0177238D01*
X0034086Y0178237D02*
X0104211Y0178237D01*
X0104211Y0179235D02*
X0034086Y0179235D01*
X0034086Y0180234D02*
X0104211Y0180234D01*
X0104211Y0181232D02*
X0034086Y0181232D01*
X0034086Y0182231D02*
X0104211Y0182231D01*
X0104211Y0183229D02*
X0034086Y0183229D01*
X0034086Y0184228D02*
X0054581Y0184228D01*
X0054746Y0184063D02*
X0060299Y0184063D01*
X0060884Y0184649D01*
X0060884Y0193351D01*
X0060299Y0193937D01*
X0054746Y0193937D01*
X0054160Y0193351D01*
X0054160Y0184649D01*
X0054746Y0184063D01*
X0054160Y0185226D02*
X0034086Y0185226D01*
X0034086Y0186225D02*
X0054160Y0186225D01*
X0054160Y0187223D02*
X0034086Y0187223D01*
X0034086Y0188222D02*
X0054160Y0188222D01*
X0054160Y0189220D02*
X0034086Y0189220D01*
X0034086Y0190219D02*
X0054160Y0190219D01*
X0054160Y0191217D02*
X0034086Y0191217D01*
X0034086Y0192216D02*
X0054160Y0192216D01*
X0054160Y0193214D02*
X0034086Y0193214D01*
X0034086Y0194213D02*
X0040774Y0194213D01*
X0040774Y0195211D02*
X0034086Y0195211D01*
X0032586Y0197125D02*
X0032586Y0229010D01*
X0028633Y0229161D02*
X0015961Y0229161D01*
X0015961Y0230159D02*
X0028633Y0230159D01*
X0028633Y0231158D02*
X0015961Y0231158D01*
X0015961Y0232156D02*
X0028806Y0232156D01*
X0028996Y0233155D02*
X0015961Y0233155D01*
X0015961Y0234153D02*
X0028633Y0234153D01*
X0028633Y0235152D02*
X0015961Y0235152D01*
X0015961Y0236150D02*
X0028633Y0236150D01*
X0028633Y0237149D02*
X0015961Y0237149D01*
X0015961Y0238147D02*
X0028633Y0238147D01*
X0028633Y0239146D02*
X0015961Y0239146D01*
X0015961Y0240144D02*
X0050461Y0240144D01*
X0050449Y0241143D02*
X0050461Y0241143D01*
X0051961Y0242750D02*
X0085711Y0242750D01*
X0084735Y0240144D02*
X0053461Y0240144D01*
X0053461Y0239146D02*
X0099524Y0239146D01*
X0099524Y0240144D02*
X0086688Y0240144D01*
X0088037Y0241143D02*
X0099524Y0241143D01*
X0099524Y0242141D02*
X0088469Y0242141D01*
X0088492Y0243140D02*
X0099524Y0243140D01*
X0099524Y0244138D02*
X0088146Y0244138D01*
X0087216Y0245137D02*
X0099524Y0245137D01*
X0099524Y0246135D02*
X0050648Y0246135D01*
X0050648Y0245137D02*
X0084206Y0245137D01*
X0083385Y0241143D02*
X0053461Y0241143D01*
X0051961Y0242750D02*
X0051961Y0197750D01*
X0051336Y0197125D01*
X0046710Y0197125D01*
X0046085Y0196500D01*
X0045711Y0196874D01*
X0045460Y0197125D01*
X0032586Y0197125D01*
X0032586Y0135875D01*
X0034086Y0138296D02*
X0043412Y0138296D01*
X0043412Y0139295D02*
X0034086Y0139295D01*
X0040711Y0141500D02*
X0040711Y0148764D01*
X0040475Y0149000D01*
X0034853Y0160263D02*
X0034086Y0160263D01*
X0031086Y0169250D02*
X0015961Y0169250D01*
X0015961Y0170248D02*
X0031086Y0170248D01*
X0031086Y0171247D02*
X0015961Y0171247D01*
X0015961Y0172245D02*
X0031086Y0172245D01*
X0031086Y0173244D02*
X0015961Y0173244D01*
X0015961Y0174242D02*
X0031086Y0174242D01*
X0031086Y0175241D02*
X0015961Y0175241D01*
X0015961Y0176239D02*
X0031086Y0176239D01*
X0031086Y0177238D02*
X0015961Y0177238D01*
X0015961Y0178237D02*
X0031086Y0178237D01*
X0031086Y0179235D02*
X0015961Y0179235D01*
X0015961Y0180234D02*
X0031086Y0180234D01*
X0031086Y0181232D02*
X0015961Y0181232D01*
X0015961Y0182231D02*
X0031086Y0182231D01*
X0031086Y0183229D02*
X0015961Y0183229D01*
X0015961Y0184228D02*
X0031086Y0184228D01*
X0031086Y0185226D02*
X0015961Y0185226D01*
X0015961Y0186225D02*
X0031086Y0186225D01*
X0031086Y0187223D02*
X0015961Y0187223D01*
X0015961Y0188222D02*
X0031086Y0188222D01*
X0031086Y0189220D02*
X0015961Y0189220D01*
X0015961Y0190219D02*
X0031086Y0190219D01*
X0031086Y0191217D02*
X0015961Y0191217D01*
X0015961Y0192216D02*
X0031086Y0192216D01*
X0031086Y0193214D02*
X0015961Y0193214D01*
X0015961Y0194213D02*
X0031086Y0194213D01*
X0031086Y0195211D02*
X0015961Y0195211D01*
X0015961Y0196210D02*
X0031086Y0196210D01*
X0031086Y0197208D02*
X0015961Y0197208D01*
X0015961Y0198207D02*
X0031086Y0198207D01*
X0031086Y0199205D02*
X0015961Y0199205D01*
X0015961Y0200204D02*
X0031086Y0200204D01*
X0031086Y0201202D02*
X0015961Y0201202D01*
X0015961Y0202201D02*
X0031086Y0202201D01*
X0031086Y0203199D02*
X0015961Y0203199D01*
X0015961Y0204198D02*
X0031086Y0204198D01*
X0031086Y0205196D02*
X0015961Y0205196D01*
X0015961Y0206195D02*
X0031086Y0206195D01*
X0031086Y0207193D02*
X0015961Y0207193D01*
X0015961Y0208192D02*
X0031086Y0208192D01*
X0031086Y0209190D02*
X0015961Y0209190D01*
X0015961Y0210189D02*
X0031086Y0210189D01*
X0031086Y0211187D02*
X0015961Y0211187D01*
X0015961Y0212186D02*
X0031086Y0212186D01*
X0031086Y0213184D02*
X0015961Y0213184D01*
X0015961Y0214183D02*
X0031086Y0214183D01*
X0031086Y0215181D02*
X0015961Y0215181D01*
X0015961Y0216180D02*
X0031086Y0216180D01*
X0031086Y0217178D02*
X0015961Y0217178D01*
X0015961Y0218177D02*
X0031086Y0218177D01*
X0031086Y0219175D02*
X0015961Y0219175D01*
X0015961Y0220174D02*
X0031086Y0220174D01*
X0031086Y0221172D02*
X0015961Y0221172D01*
X0015961Y0222171D02*
X0031086Y0222171D01*
X0031086Y0223170D02*
X0015961Y0223170D01*
X0015961Y0224168D02*
X0031086Y0224168D01*
X0031086Y0225167D02*
X0015961Y0225167D01*
X0015961Y0226165D02*
X0028633Y0226165D01*
X0028633Y0227164D02*
X0015961Y0227164D01*
X0015961Y0228162D02*
X0028633Y0228162D01*
X0032586Y0236490D02*
X0045711Y0236490D01*
X0045711Y0236244D01*
X0045455Y0236500D01*
X0040899Y0239146D02*
X0036539Y0239146D01*
X0036539Y0238147D02*
X0040774Y0238147D01*
X0040973Y0241143D02*
X0015961Y0241143D01*
X0015961Y0242141D02*
X0040774Y0242141D01*
X0040774Y0243140D02*
X0015961Y0243140D01*
X0015961Y0244138D02*
X0040774Y0244138D01*
X0040774Y0245137D02*
X0015961Y0245137D01*
X0015961Y0246135D02*
X0040774Y0246135D01*
X0041013Y0247134D02*
X0015961Y0247134D01*
X0015961Y0248132D02*
X0099524Y0248132D01*
X0099524Y0247134D02*
X0050409Y0247134D01*
X0050563Y0249131D02*
X0099524Y0249131D01*
X0099524Y0250129D02*
X0050648Y0250129D01*
X0050648Y0251128D02*
X0099524Y0251128D01*
X0099524Y0252126D02*
X0050648Y0252126D01*
X0050648Y0253125D02*
X0100215Y0253125D01*
X0102524Y0250129D02*
X0104554Y0250129D01*
X0104639Y0249131D02*
X0102524Y0249131D01*
X0102524Y0248132D02*
X0147323Y0248132D01*
X0145102Y0253125D02*
X0114428Y0253125D01*
X0114428Y0254123D02*
X0143917Y0254123D01*
X0142300Y0255122D02*
X0114074Y0255122D01*
X0109491Y0244118D02*
X0109373Y0244000D01*
X0103836Y0244000D01*
X0103524Y0243687D01*
X0102852Y0245137D02*
X0102524Y0245137D01*
X0102524Y0246135D02*
X0104554Y0246135D01*
X0104793Y0247134D02*
X0102524Y0247134D01*
X0104554Y0254123D02*
X0050648Y0254123D01*
X0050295Y0255122D02*
X0104907Y0255122D01*
X0099524Y0238147D02*
X0053461Y0238147D01*
X0053461Y0237149D02*
X0099524Y0237149D01*
X0099524Y0236150D02*
X0053461Y0236150D01*
X0053461Y0235152D02*
X0099524Y0235152D01*
X0099524Y0234153D02*
X0053461Y0234153D01*
X0053461Y0233155D02*
X0099524Y0233155D01*
X0099524Y0232156D02*
X0053461Y0232156D01*
X0053461Y0231158D02*
X0099524Y0231158D01*
X0099524Y0230159D02*
X0053461Y0230159D01*
X0053461Y0229161D02*
X0099524Y0229161D01*
X0099524Y0228162D02*
X0053461Y0228162D01*
X0053461Y0227164D02*
X0099524Y0227164D01*
X0099524Y0226165D02*
X0053461Y0226165D01*
X0053461Y0225167D02*
X0099524Y0225167D01*
X0099524Y0224168D02*
X0053461Y0224168D01*
X0053461Y0223170D02*
X0099524Y0223170D01*
X0099524Y0222171D02*
X0053461Y0222171D01*
X0053461Y0221172D02*
X0099524Y0221172D01*
X0099524Y0220174D02*
X0053461Y0220174D01*
X0053461Y0219175D02*
X0099524Y0219175D01*
X0099524Y0218177D02*
X0053461Y0218177D01*
X0053461Y0217178D02*
X0099524Y0217178D01*
X0099524Y0216180D02*
X0053461Y0216180D01*
X0053461Y0215181D02*
X0099524Y0215181D01*
X0099524Y0214183D02*
X0053461Y0214183D01*
X0053461Y0213184D02*
X0099524Y0213184D01*
X0099524Y0212186D02*
X0053461Y0212186D01*
X0053461Y0211187D02*
X0099524Y0211187D01*
X0099524Y0210189D02*
X0053461Y0210189D01*
X0053461Y0209190D02*
X0099524Y0209190D01*
X0099524Y0208192D02*
X0053461Y0208192D01*
X0053461Y0207193D02*
X0099524Y0207193D01*
X0099524Y0206195D02*
X0053461Y0206195D01*
X0053461Y0205196D02*
X0099524Y0205196D01*
X0099524Y0204198D02*
X0053461Y0204198D01*
X0053461Y0203199D02*
X0099524Y0203199D01*
X0099524Y0202201D02*
X0053461Y0202201D01*
X0053461Y0201202D02*
X0099524Y0201202D01*
X0099524Y0200204D02*
X0053461Y0200204D01*
X0053461Y0199205D02*
X0099524Y0199205D01*
X0099524Y0198207D02*
X0053461Y0198207D01*
X0053461Y0197208D02*
X0099524Y0197208D01*
X0099524Y0196210D02*
X0052542Y0196210D01*
X0050648Y0195211D02*
X0099524Y0195211D01*
X0099524Y0194213D02*
X0050648Y0194213D01*
X0050461Y0200204D02*
X0050095Y0200204D01*
X0050461Y0201202D02*
X0034086Y0201202D01*
X0034086Y0200204D02*
X0041327Y0200204D01*
X0040774Y0199205D02*
X0034086Y0199205D01*
X0034086Y0202201D02*
X0040774Y0202201D01*
X0040774Y0203199D02*
X0034086Y0203199D01*
X0034086Y0204198D02*
X0040774Y0204198D01*
X0040774Y0205196D02*
X0034086Y0205196D01*
X0034086Y0206195D02*
X0040774Y0206195D01*
X0040774Y0207193D02*
X0034086Y0207193D01*
X0034086Y0208192D02*
X0050461Y0208192D01*
X0050461Y0209190D02*
X0034086Y0209190D01*
X0034086Y0210189D02*
X0040774Y0210189D01*
X0040774Y0211187D02*
X0034086Y0211187D01*
X0034086Y0212186D02*
X0040774Y0212186D01*
X0040774Y0213184D02*
X0034086Y0213184D01*
X0034086Y0214183D02*
X0040774Y0214183D01*
X0040774Y0215181D02*
X0034086Y0215181D01*
X0034086Y0216180D02*
X0050461Y0216180D01*
X0050461Y0217178D02*
X0050107Y0217178D01*
X0050461Y0224168D02*
X0034086Y0224168D01*
X0034086Y0223170D02*
X0040774Y0223170D01*
X0040774Y0222171D02*
X0034086Y0222171D01*
X0034086Y0221172D02*
X0040774Y0221172D01*
X0040774Y0220174D02*
X0034086Y0220174D01*
X0034086Y0219175D02*
X0040774Y0219175D01*
X0040774Y0218177D02*
X0034086Y0218177D01*
X0034086Y0217178D02*
X0041315Y0217178D01*
X0041201Y0225167D02*
X0034086Y0225167D01*
X0036539Y0226165D02*
X0040774Y0226165D01*
X0040774Y0227164D02*
X0036539Y0227164D01*
X0036539Y0228162D02*
X0040774Y0228162D01*
X0040774Y0229161D02*
X0036539Y0229161D01*
X0036539Y0230159D02*
X0040774Y0230159D01*
X0040785Y0231158D02*
X0036539Y0231158D01*
X0036366Y0232156D02*
X0050461Y0232156D01*
X0050461Y0233155D02*
X0050335Y0233155D01*
X0050221Y0225167D02*
X0050461Y0225167D01*
X0041087Y0233155D02*
X0036177Y0233155D01*
X0036539Y0234153D02*
X0040774Y0234153D01*
X0040859Y0249131D02*
X0015961Y0249131D01*
X0014461Y0251500D02*
X0014461Y0133375D01*
X0015086Y0132750D01*
X0049461Y0132750D01*
X0048604Y0130308D02*
X0010039Y0130308D01*
X0008884Y0130308D02*
X0004711Y0130308D01*
X0004711Y0131306D02*
X0014408Y0131306D01*
X0013410Y0132305D02*
X0004711Y0132305D01*
X0004711Y0133303D02*
X0012961Y0133303D01*
X0012961Y0134302D02*
X0004711Y0134302D01*
X0004711Y0135301D02*
X0012961Y0135301D01*
X0012961Y0136299D02*
X0004711Y0136299D01*
X0004711Y0137298D02*
X0012961Y0137298D01*
X0012961Y0138296D02*
X0004711Y0138296D01*
X0004711Y0139295D02*
X0012961Y0139295D01*
X0012961Y0140293D02*
X0004711Y0140293D01*
X0004711Y0141292D02*
X0012961Y0141292D01*
X0012961Y0142290D02*
X0004711Y0142290D01*
X0004711Y0143289D02*
X0012961Y0143289D01*
X0012961Y0144287D02*
X0004711Y0144287D01*
X0004711Y0145286D02*
X0012961Y0145286D01*
X0012961Y0146284D02*
X0004711Y0146284D01*
X0004711Y0147283D02*
X0012961Y0147283D01*
X0012961Y0148281D02*
X0004711Y0148281D01*
X0004711Y0149280D02*
X0012961Y0149280D01*
X0012961Y0150278D02*
X0004711Y0150278D01*
X0004711Y0151277D02*
X0012961Y0151277D01*
X0012961Y0152275D02*
X0004711Y0152275D01*
X0004711Y0153274D02*
X0012961Y0153274D01*
X0012961Y0154272D02*
X0004711Y0154272D01*
X0004711Y0155271D02*
X0012961Y0155271D01*
X0012961Y0156269D02*
X0004711Y0156269D01*
X0004711Y0157268D02*
X0012961Y0157268D01*
X0012961Y0158266D02*
X0004711Y0158266D01*
X0004711Y0159265D02*
X0012961Y0159265D01*
X0012961Y0160263D02*
X0004711Y0160263D01*
X0004711Y0161262D02*
X0012961Y0161262D01*
X0012961Y0162260D02*
X0004711Y0162260D01*
X0004711Y0163259D02*
X0012961Y0163259D01*
X0012961Y0164257D02*
X0004711Y0164257D01*
X0004711Y0165256D02*
X0012961Y0165256D01*
X0012961Y0166254D02*
X0004711Y0166254D01*
X0004711Y0167253D02*
X0012961Y0167253D01*
X0012961Y0168251D02*
X0004711Y0168251D01*
X0004711Y0169250D02*
X0012961Y0169250D01*
X0012961Y0170248D02*
X0004711Y0170248D01*
X0004711Y0171247D02*
X0012961Y0171247D01*
X0012961Y0172245D02*
X0004711Y0172245D01*
X0004711Y0173244D02*
X0012961Y0173244D01*
X0012961Y0174242D02*
X0004711Y0174242D01*
X0004711Y0175241D02*
X0012961Y0175241D01*
X0012961Y0176239D02*
X0004711Y0176239D01*
X0004711Y0177238D02*
X0012961Y0177238D01*
X0012961Y0178237D02*
X0004711Y0178237D01*
X0004711Y0179235D02*
X0012961Y0179235D01*
X0012961Y0180234D02*
X0004711Y0180234D01*
X0004711Y0181232D02*
X0012961Y0181232D01*
X0012961Y0182231D02*
X0004711Y0182231D01*
X0004711Y0183229D02*
X0012961Y0183229D01*
X0012961Y0184228D02*
X0004711Y0184228D01*
X0004711Y0185226D02*
X0012961Y0185226D01*
X0012961Y0186225D02*
X0004711Y0186225D01*
X0004711Y0187223D02*
X0012961Y0187223D01*
X0012961Y0188222D02*
X0004711Y0188222D01*
X0004711Y0189220D02*
X0012961Y0189220D01*
X0012961Y0190219D02*
X0004711Y0190219D01*
X0004711Y0191217D02*
X0012961Y0191217D01*
X0012961Y0192216D02*
X0004711Y0192216D01*
X0004711Y0193214D02*
X0012961Y0193214D01*
X0012961Y0194213D02*
X0004711Y0194213D01*
X0004711Y0195211D02*
X0012961Y0195211D01*
X0012961Y0196210D02*
X0004711Y0196210D01*
X0004711Y0197208D02*
X0012961Y0197208D01*
X0012961Y0198207D02*
X0004711Y0198207D01*
X0004711Y0199205D02*
X0012961Y0199205D01*
X0012961Y0200204D02*
X0004711Y0200204D01*
X0004711Y0201202D02*
X0012961Y0201202D01*
X0012961Y0202201D02*
X0004711Y0202201D01*
X0004711Y0203199D02*
X0012961Y0203199D01*
X0012961Y0204198D02*
X0004711Y0204198D01*
X0004711Y0205196D02*
X0012961Y0205196D01*
X0012961Y0206195D02*
X0004711Y0206195D01*
X0004711Y0207193D02*
X0012961Y0207193D01*
X0012961Y0208192D02*
X0004711Y0208192D01*
X0004711Y0209190D02*
X0012961Y0209190D01*
X0012961Y0210189D02*
X0004711Y0210189D01*
X0004711Y0211187D02*
X0012961Y0211187D01*
X0012961Y0212186D02*
X0004711Y0212186D01*
X0004711Y0213184D02*
X0012961Y0213184D01*
X0012961Y0214183D02*
X0004711Y0214183D01*
X0004711Y0215181D02*
X0012961Y0215181D01*
X0012961Y0216180D02*
X0004711Y0216180D01*
X0004711Y0217178D02*
X0012961Y0217178D01*
X0012961Y0218177D02*
X0004711Y0218177D01*
X0004711Y0219175D02*
X0012961Y0219175D01*
X0012961Y0220174D02*
X0004711Y0220174D01*
X0004711Y0221172D02*
X0012961Y0221172D01*
X0012961Y0222171D02*
X0004711Y0222171D01*
X0004711Y0223170D02*
X0012961Y0223170D01*
X0012961Y0224168D02*
X0004711Y0224168D01*
X0004711Y0225167D02*
X0012961Y0225167D01*
X0012961Y0226165D02*
X0004711Y0226165D01*
X0004711Y0227164D02*
X0012961Y0227164D01*
X0012961Y0228162D02*
X0004711Y0228162D01*
X0004711Y0229161D02*
X0012961Y0229161D01*
X0012961Y0230159D02*
X0004711Y0230159D01*
X0004711Y0231158D02*
X0012961Y0231158D01*
X0012961Y0232156D02*
X0004711Y0232156D01*
X0004711Y0233155D02*
X0012961Y0233155D01*
X0012961Y0234153D02*
X0004711Y0234153D01*
X0004711Y0235152D02*
X0012961Y0235152D01*
X0012961Y0236150D02*
X0004711Y0236150D01*
X0004711Y0237149D02*
X0012961Y0237149D01*
X0012961Y0238147D02*
X0004711Y0238147D01*
X0004711Y0239146D02*
X0012961Y0239146D01*
X0012961Y0240144D02*
X0004711Y0240144D01*
X0004711Y0241143D02*
X0012961Y0241143D01*
X0012961Y0242141D02*
X0004711Y0242141D01*
X0004711Y0243140D02*
X0012961Y0243140D01*
X0012961Y0244138D02*
X0004711Y0244138D01*
X0004711Y0245137D02*
X0012961Y0245137D01*
X0012961Y0246135D02*
X0004711Y0246135D01*
X0004711Y0247134D02*
X0012961Y0247134D01*
X0012961Y0248132D02*
X0004768Y0248132D01*
X0004944Y0249131D02*
X0012961Y0249131D01*
X0012961Y0250129D02*
X0005269Y0250129D01*
X0005593Y0251128D02*
X0012961Y0251128D01*
X0012966Y0252126D02*
X0006264Y0252126D01*
X0006989Y0253125D02*
X0040774Y0253125D01*
X0040774Y0254123D02*
X0008174Y0254123D01*
X0009792Y0255122D02*
X0041127Y0255122D01*
X0045219Y0251500D02*
X0014461Y0251500D01*
X0045219Y0251500D02*
X0045711Y0251992D01*
X0050648Y0244138D02*
X0051228Y0244138D01*
X0062620Y0193937D02*
X0062034Y0193351D01*
X0062034Y0184649D01*
X0062620Y0184063D01*
X0068173Y0184063D01*
X0068758Y0184649D01*
X0068758Y0193351D01*
X0068173Y0193937D01*
X0062620Y0193937D01*
X0062034Y0193214D02*
X0060884Y0193214D01*
X0060884Y0192216D02*
X0062034Y0192216D01*
X0062034Y0191217D02*
X0060884Y0191217D01*
X0060884Y0190219D02*
X0062034Y0190219D01*
X0062034Y0189220D02*
X0060884Y0189220D01*
X0060884Y0188222D02*
X0062034Y0188222D01*
X0062034Y0187223D02*
X0060884Y0187223D01*
X0060884Y0186225D02*
X0062034Y0186225D01*
X0062034Y0185226D02*
X0060884Y0185226D01*
X0060463Y0184228D02*
X0062455Y0184228D01*
X0068337Y0184228D02*
X0070329Y0184228D01*
X0070494Y0184063D02*
X0076047Y0184063D01*
X0076632Y0184649D01*
X0076632Y0193351D01*
X0076047Y0193937D01*
X0070494Y0193937D01*
X0069908Y0193351D01*
X0069908Y0184649D01*
X0070494Y0184063D01*
X0069908Y0185226D02*
X0068758Y0185226D01*
X0068758Y0186225D02*
X0069908Y0186225D01*
X0069908Y0187223D02*
X0068758Y0187223D01*
X0068758Y0188222D02*
X0069908Y0188222D01*
X0069908Y0189220D02*
X0068758Y0189220D01*
X0068758Y0190219D02*
X0069908Y0190219D01*
X0069908Y0191217D02*
X0068758Y0191217D01*
X0068758Y0192216D02*
X0069908Y0192216D01*
X0069908Y0193214D02*
X0068758Y0193214D01*
X0076632Y0193214D02*
X0077782Y0193214D01*
X0077782Y0193351D02*
X0077782Y0184649D01*
X0078368Y0184063D01*
X0083921Y0184063D01*
X0084506Y0184649D01*
X0084506Y0193351D01*
X0083921Y0193937D01*
X0078368Y0193937D01*
X0077782Y0193351D01*
X0077782Y0192216D02*
X0076632Y0192216D01*
X0076632Y0191217D02*
X0077782Y0191217D01*
X0077782Y0190219D02*
X0076632Y0190219D01*
X0076632Y0189220D02*
X0077782Y0189220D01*
X0077782Y0188222D02*
X0076632Y0188222D01*
X0076632Y0187223D02*
X0077782Y0187223D01*
X0077782Y0186225D02*
X0076632Y0186225D01*
X0076632Y0185226D02*
X0077782Y0185226D01*
X0078203Y0184228D02*
X0076211Y0184228D01*
X0084085Y0184228D02*
X0086077Y0184228D01*
X0086242Y0184063D02*
X0091795Y0184063D01*
X0092380Y0184649D01*
X0092380Y0193351D01*
X0091795Y0193937D01*
X0086242Y0193937D01*
X0085656Y0193351D01*
X0085656Y0184649D01*
X0086242Y0184063D01*
X0085656Y0185226D02*
X0084506Y0185226D01*
X0084506Y0186225D02*
X0085656Y0186225D01*
X0085656Y0187223D02*
X0084506Y0187223D01*
X0084506Y0188222D02*
X0085656Y0188222D01*
X0085656Y0189220D02*
X0084506Y0189220D01*
X0084506Y0190219D02*
X0085656Y0190219D01*
X0085656Y0191217D02*
X0084506Y0191217D01*
X0084506Y0192216D02*
X0085656Y0192216D01*
X0085656Y0193214D02*
X0084506Y0193214D01*
X0092380Y0193214D02*
X0093530Y0193214D01*
X0093530Y0192216D02*
X0092380Y0192216D01*
X0092380Y0191217D02*
X0093530Y0191217D01*
X0093530Y0190219D02*
X0092380Y0190219D01*
X0092380Y0189220D02*
X0093530Y0189220D01*
X0093530Y0188222D02*
X0092380Y0188222D01*
X0092380Y0187223D02*
X0093530Y0187223D01*
X0093530Y0186225D02*
X0092380Y0186225D01*
X0092380Y0185226D02*
X0093530Y0185226D01*
X0093951Y0184228D02*
X0091959Y0184228D01*
X0099833Y0184228D02*
X0104211Y0184228D01*
X0104211Y0185226D02*
X0100254Y0185226D01*
X0100254Y0186225D02*
X0104211Y0186225D01*
X0103492Y0187223D02*
X0100254Y0187223D01*
X0100254Y0188222D02*
X0102493Y0188222D01*
X0101495Y0189220D02*
X0100254Y0189220D01*
X0100254Y0190219D02*
X0100496Y0190219D01*
X0105024Y0200204D02*
X0105107Y0200204D01*
X0105024Y0201202D02*
X0147380Y0201202D01*
X0147380Y0200204D02*
X0113874Y0200204D01*
X0114428Y0199205D02*
X0147380Y0199205D01*
X0147380Y0198207D02*
X0114428Y0198207D01*
X0114428Y0197208D02*
X0147380Y0197208D01*
X0147380Y0196210D02*
X0114428Y0196210D01*
X0114428Y0195211D02*
X0147380Y0195211D01*
X0147380Y0194213D02*
X0114428Y0194213D01*
X0114428Y0202201D02*
X0147380Y0202201D01*
X0147380Y0203199D02*
X0114428Y0203199D01*
X0114428Y0204198D02*
X0147380Y0204198D01*
X0147380Y0205196D02*
X0114428Y0205196D01*
X0114428Y0206195D02*
X0147380Y0206195D01*
X0147380Y0207193D02*
X0114428Y0207193D01*
X0114428Y0210189D02*
X0147380Y0210189D01*
X0147380Y0211187D02*
X0114428Y0211187D01*
X0114428Y0212186D02*
X0147380Y0212186D01*
X0147380Y0213184D02*
X0114428Y0213184D01*
X0114428Y0214183D02*
X0147380Y0214183D01*
X0147380Y0215181D02*
X0114428Y0215181D01*
X0113886Y0217178D02*
X0147380Y0217178D01*
X0147380Y0216180D02*
X0105024Y0216180D01*
X0105024Y0217178D02*
X0105095Y0217178D01*
X0105024Y0224168D02*
X0147380Y0224168D01*
X0147380Y0223170D02*
X0114428Y0223170D01*
X0114428Y0222171D02*
X0147380Y0222171D01*
X0147380Y0221172D02*
X0114428Y0221172D01*
X0114428Y0220174D02*
X0147380Y0220174D01*
X0147380Y0219175D02*
X0114428Y0219175D01*
X0114428Y0218177D02*
X0147380Y0218177D01*
X0147380Y0225167D02*
X0114001Y0225167D01*
X0114428Y0226165D02*
X0147380Y0226165D01*
X0147380Y0227164D02*
X0114428Y0227164D01*
X0114428Y0228162D02*
X0147380Y0228162D01*
X0147380Y0229161D02*
X0114428Y0229161D01*
X0114428Y0230159D02*
X0147380Y0230159D01*
X0147380Y0231158D02*
X0114417Y0231158D01*
X0114115Y0233155D02*
X0147380Y0233155D01*
X0147380Y0234153D02*
X0114428Y0234153D01*
X0114428Y0235152D02*
X0147380Y0235152D01*
X0147380Y0236150D02*
X0114428Y0236150D01*
X0114428Y0237149D02*
X0147380Y0237149D01*
X0147380Y0238147D02*
X0114428Y0238147D01*
X0114302Y0239146D02*
X0147380Y0239146D01*
X0147380Y0232156D02*
X0105024Y0232156D01*
X0105024Y0209190D02*
X0147380Y0209190D01*
X0147380Y0208192D02*
X0105024Y0208192D01*
X0116278Y0155271D02*
X0133133Y0155271D01*
X0137086Y0156269D02*
X0138086Y0156269D01*
X0138086Y0157268D02*
X0137086Y0157268D01*
X0141856Y0157268D02*
X0147380Y0157268D01*
X0147380Y0156269D02*
X0142039Y0156269D01*
X0142039Y0155271D02*
X0147380Y0155271D01*
X0147380Y0102350D02*
X0142201Y0102350D01*
X0142386Y0101351D02*
X0147380Y0101351D01*
X0147380Y0100353D02*
X0142386Y0100353D01*
X0142386Y0099354D02*
X0147380Y0099354D01*
X0147380Y0098356D02*
X0142386Y0098356D01*
X0142386Y0097357D02*
X0147380Y0097357D01*
X0147380Y0096359D02*
X0142386Y0096359D01*
X0142386Y0095360D02*
X0147380Y0095360D01*
X0147380Y0094362D02*
X0142386Y0094362D01*
X0142386Y0093363D02*
X0147380Y0093363D01*
X0147380Y0092365D02*
X0142386Y0092365D01*
X0050892Y0138296D02*
X0050530Y0138296D01*
X0050530Y0139295D02*
X0050892Y0139295D01*
X0050892Y0140293D02*
X0050530Y0140293D01*
X0050530Y0141292D02*
X0050892Y0141292D01*
X0050892Y0142290D02*
X0050530Y0142290D01*
X0050530Y0143289D02*
X0050892Y0143289D01*
X0050892Y0144287D02*
X0050530Y0144287D01*
X0050111Y0145286D02*
X0051311Y0145286D01*
X0047358Y0134302D02*
X0015961Y0134302D01*
X0011556Y0129309D02*
X0047366Y0129309D01*
X0049461Y0127750D02*
X0009461Y0127750D01*
X0007366Y0129309D02*
X0004711Y0129309D01*
X0004711Y0128311D02*
X0006896Y0128311D01*
X0006877Y0127312D02*
X0004711Y0127312D01*
X0040384Y0162260D02*
X0040565Y0162260D01*
X0040565Y0163259D02*
X0040384Y0163259D01*
X0040384Y0164257D02*
X0040565Y0164257D01*
X0040565Y0165256D02*
X0040384Y0165256D01*
X0040384Y0166254D02*
X0040565Y0166254D01*
D24*
X0049461Y0132750D03*
X0049461Y0127750D03*
X0055711Y0127750D03*
X0065086Y0114000D03*
X0071961Y0100875D03*
X0068211Y0097125D03*
X0061336Y0089000D03*
X0066961Y0085250D03*
X0063836Y0070875D03*
X0060086Y0070875D03*
X0056336Y0070875D03*
X0056336Y0067125D03*
X0049461Y0080250D03*
X0052586Y0082750D03*
X0053211Y0089000D03*
X0051961Y0099625D03*
X0037586Y0072125D03*
X0028211Y0061500D03*
X0019461Y0051500D03*
X0030711Y0042750D03*
X0027586Y0085250D03*
X0009461Y0121500D03*
X0006336Y0124625D03*
X0009461Y0127750D03*
X0071961Y0137750D03*
X0085086Y0132750D03*
X0073836Y0114000D03*
X0078211Y0081500D03*
X0091961Y0076500D03*
X0102586Y0073375D03*
X0106336Y0072125D03*
X0102586Y0091500D03*
X0105086Y0095250D03*
X0098211Y0094625D03*
X0102586Y0107750D03*
X0102586Y0111500D03*
X0102586Y0115250D03*
X0102586Y0119000D03*
X0102586Y0122750D03*
X0125711Y0119000D03*
X0125711Y0115250D03*
X0125711Y0111500D03*
X0125711Y0086500D03*
X0124461Y0072125D03*
D25*
X0135711Y0039625D03*
X0085711Y0242750D03*
D26*
X0019619Y0064782D02*
X0017744Y0064925D01*
X0017744Y0062907D01*
X0010086Y0055250D01*
X0010086Y0027750D01*
X0012596Y0025240D01*
X0014461Y0025240D01*
X0024461Y0025240D01*
X0023836Y0021500D01*
X0024461Y0023365D01*
X0014461Y0025240D02*
X0012586Y0023365D01*
M02*
