%
M48
M72
T01C0.0197
T02C0.0236
%
T01
X4946Y13275
X4946Y12775
X5571Y12775
X6509Y11400
X7196Y10088
X6821Y9713
X6134Y8900
X6696Y8525
X6384Y7088
X6009Y7088
X5634Y7088
X5634Y6713
X4946Y8025
X5259Y8275
X5321Y8900
X5196Y9963
X3759Y7213
X2821Y6150
X1946Y5150
X3071Y4275
X2759Y8525
X946Y12150
X634Y12463
X946Y12775
X7196Y13775
X8509Y13275
X7384Y11400
X7821Y8150
X9196Y7650
X10259Y7338
X10634Y7213
X10259Y9150
X10509Y9525
X9821Y9463
X10259Y10775
X10259Y11150
X10259Y11525
X10259Y11900
X10259Y12275
X12571Y11900
X12571Y11525
X12571Y11150
X12571Y8650
X12446Y7213
T02
X8571Y24275
X13571Y3963
M30
