G75*
%MOIN*%
%OFA0B0*%
%FSLAX25Y25*%
%IPPOS*%
%LPD*%
%AMOC8*
5,1,8,0,0,1.08239X$1,22.5*
%
%ADD10C,0.00000*%
%ADD11C,0.00500*%
%ADD12C,0.08858*%
%ADD13R,0.04000X0.13000*%
%ADD14C,0.01600*%
D10*
X0005829Y0005829D02*
X0005829Y0105790D01*
X0106030Y0105790D01*
X0106030Y0005829D01*
X0005829Y0005829D01*
D11*
X0105829Y0005829D01*
X0105829Y0105829D01*
X0005829Y0105829D01*
X0005829Y0005829D01*
D12*
X0005829Y0015829D03*
X0005829Y0030829D03*
X0005829Y0045829D03*
X0005829Y0060829D03*
X0005829Y0075829D03*
X0005829Y0090829D03*
X0020829Y0105829D03*
X0035829Y0105829D03*
X0050829Y0105829D03*
X0065829Y0105829D03*
X0080829Y0105829D03*
X0095829Y0105829D03*
X0095829Y0005829D03*
X0080829Y0005829D03*
X0065829Y0005829D03*
X0050829Y0005829D03*
X0035829Y0005829D03*
X0020829Y0005829D03*
D13*
X0018329Y0042329D03*
X0028329Y0042329D03*
X0038329Y0042329D03*
X0048329Y0042329D03*
X0058329Y0042329D03*
X0068329Y0042329D03*
X0078329Y0042329D03*
X0088329Y0042329D03*
X0098329Y0042329D03*
X0098329Y0062329D03*
X0088329Y0062329D03*
X0078329Y0062329D03*
X0068329Y0062329D03*
X0058329Y0062329D03*
X0048329Y0062329D03*
X0038329Y0062329D03*
X0028329Y0062329D03*
X0018329Y0062329D03*
D14*
X0007329Y0062329D01*
X0005829Y0060829D01*
X0007329Y0074329D02*
X0005829Y0075829D01*
X0007329Y0074329D02*
X0025829Y0074329D01*
X0028329Y0071829D01*
X0028329Y0062329D01*
X0038329Y0062329D02*
X0038329Y0070829D01*
X0019829Y0089329D01*
X0007329Y0089329D01*
X0005829Y0090829D01*
X0020829Y0105829D02*
X0048329Y0078329D01*
X0048329Y0062329D01*
X0058329Y0062329D02*
X0058329Y0083329D01*
X0035829Y0105829D01*
X0050829Y0105829D02*
X0068329Y0088329D01*
X0068329Y0062329D01*
X0078329Y0062329D02*
X0078329Y0093329D01*
X0065829Y0105829D01*
X0080829Y0105829D02*
X0088329Y0098329D01*
X0088329Y0062329D01*
X0098329Y0062329D02*
X0098329Y0103329D01*
X0095829Y0105829D01*
X0098329Y0042329D02*
X0098329Y0008329D01*
X0095829Y0005829D01*
X0088329Y0013329D02*
X0080829Y0005829D01*
X0088329Y0013329D02*
X0088329Y0042329D01*
X0078329Y0042329D02*
X0078329Y0018329D01*
X0065829Y0005829D01*
X0050829Y0005829D02*
X0068329Y0023329D01*
X0068329Y0042329D01*
X0058329Y0042329D02*
X0058329Y0028329D01*
X0035829Y0005829D01*
X0020829Y0005829D02*
X0048329Y0033329D01*
X0048329Y0042329D01*
X0038329Y0042329D02*
X0038329Y0035329D01*
X0018829Y0015829D01*
X0005829Y0015829D01*
X0006829Y0029829D02*
X0005829Y0030829D01*
X0006829Y0029829D02*
X0025329Y0029829D01*
X0028329Y0032829D01*
X0028329Y0042329D01*
X0018329Y0042329D02*
X0009329Y0042329D01*
X0005829Y0045829D01*
M02*
