G75*
%MOIN*%
%OFA0B0*%
%FSLAX25Y25*%
%IPPOS*%
%LPD*%
%AMOC8*
5,1,8,0,0,1.08239X$1,22.5*
%
%ADD10C,0.00000*%
%ADD11C,0.00400*%
%ADD12C,0.00500*%
D10*
X0005829Y0005829D02*
X0005829Y0105790D01*
X0106030Y0105790D01*
X0106030Y0005829D01*
X0005829Y0005829D01*
D11*
X0016525Y0020217D02*
X0019595Y0020217D01*
X0021129Y0021752D01*
X0019595Y0023287D01*
X0016525Y0023287D01*
X0016525Y0024821D02*
X0016525Y0027123D01*
X0017293Y0027891D01*
X0020362Y0027891D01*
X0021129Y0027123D01*
X0021129Y0024821D01*
X0016525Y0024821D01*
X0016525Y0029425D02*
X0016525Y0031727D01*
X0017293Y0032494D01*
X0020362Y0032494D01*
X0021129Y0031727D01*
X0021129Y0029425D01*
X0016525Y0029425D01*
X0026525Y0029425D02*
X0026525Y0031727D01*
X0027293Y0032494D01*
X0030362Y0032494D01*
X0031129Y0031727D01*
X0031129Y0029425D01*
X0026525Y0029425D01*
X0026525Y0027891D02*
X0031129Y0027891D01*
X0026525Y0024821D01*
X0031129Y0024821D01*
X0030362Y0023287D02*
X0028827Y0023287D01*
X0028827Y0021752D01*
X0027293Y0023287D02*
X0026525Y0022519D01*
X0026525Y0020985D01*
X0027293Y0020217D01*
X0030362Y0020217D01*
X0031129Y0020985D01*
X0031129Y0022519D01*
X0030362Y0023287D01*
X0036525Y0023287D02*
X0041129Y0023287D01*
X0036525Y0020217D01*
X0041129Y0020217D01*
X0040362Y0018683D02*
X0038827Y0018683D01*
X0038827Y0017148D01*
X0040362Y0018683D02*
X0041129Y0017915D01*
X0041129Y0016381D01*
X0040362Y0015613D01*
X0037293Y0015613D01*
X0036525Y0016381D01*
X0036525Y0017915D01*
X0037293Y0018683D01*
X0036525Y0024821D02*
X0036525Y0027123D01*
X0037293Y0027891D01*
X0040362Y0027891D01*
X0041129Y0027123D01*
X0041129Y0024821D01*
X0036525Y0024821D01*
X0037293Y0029425D02*
X0038060Y0029425D01*
X0038827Y0030192D01*
X0038827Y0031727D01*
X0039595Y0032494D01*
X0040362Y0032494D01*
X0041129Y0031727D01*
X0041129Y0030192D01*
X0040362Y0029425D01*
X0037293Y0029425D02*
X0036525Y0030192D01*
X0036525Y0031727D01*
X0037293Y0032494D01*
X0046525Y0032494D02*
X0051129Y0029425D01*
X0051129Y0026356D02*
X0046525Y0026356D01*
X0046525Y0024821D02*
X0046525Y0027891D01*
X0046525Y0029425D02*
X0051129Y0032494D01*
X0056525Y0032494D02*
X0061129Y0029425D01*
X0061129Y0027891D02*
X0059595Y0026356D01*
X0059595Y0027123D02*
X0058827Y0027891D01*
X0057293Y0027891D01*
X0056525Y0027123D01*
X0056525Y0024821D01*
X0061129Y0024821D01*
X0059595Y0024821D02*
X0059595Y0027123D01*
X0056525Y0029425D02*
X0061129Y0032494D01*
X0066525Y0031727D02*
X0068827Y0029425D01*
X0068827Y0032494D01*
X0071129Y0031727D02*
X0066525Y0031727D01*
X0068060Y0027891D02*
X0071129Y0027891D01*
X0068827Y0027891D02*
X0068827Y0024821D01*
X0068060Y0024821D02*
X0066525Y0026356D01*
X0068060Y0027891D01*
X0068060Y0024821D02*
X0071129Y0024821D01*
X0069595Y0022519D02*
X0069595Y0020217D01*
X0071129Y0020217D02*
X0066525Y0020217D01*
X0066525Y0022519D01*
X0067293Y0023287D01*
X0068827Y0023287D01*
X0069595Y0022519D01*
X0076525Y0022519D02*
X0076525Y0020217D01*
X0081129Y0020217D01*
X0079595Y0020217D02*
X0079595Y0022519D01*
X0078827Y0023287D01*
X0077293Y0023287D01*
X0076525Y0022519D01*
X0078060Y0024821D02*
X0076525Y0026356D01*
X0078060Y0027891D01*
X0081129Y0027891D01*
X0080362Y0029425D02*
X0081129Y0030192D01*
X0081129Y0031727D01*
X0080362Y0032494D01*
X0078827Y0032494D01*
X0078060Y0031727D01*
X0078060Y0030960D01*
X0078827Y0029425D01*
X0076525Y0029425D01*
X0076525Y0032494D01*
X0078827Y0027891D02*
X0078827Y0024821D01*
X0078060Y0024821D02*
X0081129Y0024821D01*
X0086525Y0026356D02*
X0088060Y0027891D01*
X0091129Y0027891D01*
X0090362Y0029425D02*
X0091129Y0030192D01*
X0091129Y0031727D01*
X0090362Y0032494D01*
X0089595Y0032494D01*
X0088827Y0031727D01*
X0088827Y0029425D01*
X0090362Y0029425D01*
X0088827Y0029425D02*
X0087293Y0030960D01*
X0086525Y0032494D01*
X0088827Y0027891D02*
X0088827Y0024821D01*
X0088060Y0024821D02*
X0086525Y0026356D01*
X0088060Y0024821D02*
X0091129Y0024821D01*
X0089595Y0022519D02*
X0089595Y0020217D01*
X0091129Y0020217D02*
X0086525Y0020217D01*
X0086525Y0022519D01*
X0087293Y0023287D01*
X0088827Y0023287D01*
X0089595Y0022519D01*
X0096525Y0022519D02*
X0096525Y0020217D01*
X0101129Y0020217D01*
X0099595Y0020217D02*
X0099595Y0022519D01*
X0098827Y0023287D01*
X0097293Y0023287D01*
X0096525Y0022519D01*
X0098060Y0024821D02*
X0096525Y0026356D01*
X0098060Y0027891D01*
X0101129Y0027891D01*
X0101129Y0029425D02*
X0100362Y0029425D01*
X0097293Y0032494D01*
X0096525Y0032494D01*
X0096525Y0029425D01*
X0098827Y0027891D02*
X0098827Y0024821D01*
X0098060Y0024821D02*
X0101129Y0024821D01*
X0100129Y0071029D02*
X0095525Y0071029D01*
X0095525Y0073331D01*
X0096293Y0074098D01*
X0097827Y0074098D01*
X0098595Y0073331D01*
X0098595Y0071029D01*
X0097827Y0075633D02*
X0097827Y0077935D01*
X0098595Y0078702D01*
X0099362Y0078702D01*
X0100129Y0077935D01*
X0100129Y0075633D01*
X0095525Y0075633D01*
X0095525Y0077935D01*
X0096293Y0078702D01*
X0097060Y0078702D01*
X0097827Y0077935D01*
X0096293Y0080237D02*
X0095525Y0081004D01*
X0095525Y0082539D01*
X0096293Y0083306D01*
X0099362Y0080237D01*
X0100129Y0081004D01*
X0100129Y0082539D01*
X0099362Y0083306D01*
X0096293Y0083306D01*
X0096293Y0080237D02*
X0099362Y0080237D01*
X0090129Y0080237D02*
X0090129Y0083306D01*
X0090129Y0081772D02*
X0085525Y0081772D01*
X0087060Y0080237D01*
X0087060Y0078702D02*
X0086293Y0078702D01*
X0085525Y0077935D01*
X0085525Y0075633D01*
X0090129Y0075633D01*
X0090129Y0077935D01*
X0089362Y0078702D01*
X0088595Y0078702D01*
X0087827Y0077935D01*
X0087827Y0075633D01*
X0087827Y0074098D02*
X0088595Y0073331D01*
X0088595Y0071029D01*
X0090129Y0071029D02*
X0085525Y0071029D01*
X0085525Y0073331D01*
X0086293Y0074098D01*
X0087827Y0074098D01*
X0087827Y0077935D02*
X0087060Y0078702D01*
X0080129Y0077935D02*
X0080129Y0075633D01*
X0075525Y0075633D01*
X0075525Y0077935D01*
X0076293Y0078702D01*
X0077060Y0078702D01*
X0077827Y0077935D01*
X0077827Y0075633D01*
X0077827Y0074098D02*
X0076293Y0074098D01*
X0075525Y0073331D01*
X0075525Y0071029D01*
X0080129Y0071029D01*
X0078595Y0071029D02*
X0078595Y0073331D01*
X0077827Y0074098D01*
X0077827Y0077935D02*
X0078595Y0078702D01*
X0079362Y0078702D01*
X0080129Y0077935D01*
X0080129Y0080237D02*
X0077060Y0083306D01*
X0076293Y0083306D01*
X0075525Y0082539D01*
X0075525Y0081004D01*
X0076293Y0080237D01*
X0080129Y0080237D02*
X0080129Y0083306D01*
X0070129Y0082539D02*
X0070129Y0081004D01*
X0069362Y0080237D01*
X0069362Y0078702D02*
X0070129Y0077935D01*
X0070129Y0076400D01*
X0069362Y0075633D01*
X0070129Y0074098D02*
X0065525Y0074098D01*
X0066293Y0075633D02*
X0067060Y0075633D01*
X0067827Y0076400D01*
X0067827Y0077935D01*
X0068595Y0078702D01*
X0069362Y0078702D01*
X0067060Y0080237D02*
X0067827Y0081004D01*
X0067827Y0082539D01*
X0068595Y0083306D01*
X0069362Y0083306D01*
X0070129Y0082539D01*
X0067060Y0080237D02*
X0066293Y0080237D01*
X0065525Y0081004D01*
X0065525Y0082539D01*
X0066293Y0083306D01*
X0066293Y0078702D02*
X0065525Y0077935D01*
X0065525Y0076400D01*
X0066293Y0075633D01*
X0070129Y0074098D02*
X0065525Y0071029D01*
X0070129Y0071029D01*
X0060129Y0071796D02*
X0059362Y0071029D01*
X0060129Y0071796D02*
X0060129Y0073331D01*
X0059362Y0074098D01*
X0058595Y0074098D01*
X0057827Y0073331D01*
X0057827Y0071796D01*
X0057060Y0071029D01*
X0056293Y0071029D01*
X0055525Y0071796D01*
X0055525Y0073331D01*
X0056293Y0074098D01*
X0056293Y0075633D02*
X0059362Y0075633D01*
X0060129Y0076400D01*
X0060129Y0077935D01*
X0059362Y0078702D01*
X0060129Y0080237D02*
X0055525Y0080237D01*
X0056293Y0078702D02*
X0055525Y0077935D01*
X0055525Y0076400D01*
X0056293Y0075633D01*
X0058595Y0080237D02*
X0055525Y0083306D01*
X0057827Y0081004D02*
X0060129Y0083306D01*
X0050129Y0084074D02*
X0049362Y0083306D01*
X0046293Y0083306D01*
X0045525Y0084074D01*
X0045525Y0085608D01*
X0046293Y0086376D01*
X0049362Y0086376D01*
X0050129Y0085608D01*
X0050129Y0084074D01*
X0049362Y0081772D02*
X0048595Y0081772D01*
X0047827Y0081004D01*
X0047827Y0079470D01*
X0047060Y0078702D01*
X0046293Y0078702D01*
X0045525Y0079470D01*
X0045525Y0081004D01*
X0046293Y0081772D01*
X0049362Y0081772D02*
X0050129Y0081004D01*
X0050129Y0079470D01*
X0049362Y0078702D01*
X0050129Y0077168D02*
X0050129Y0075633D01*
X0050129Y0076400D02*
X0045525Y0076400D01*
X0045525Y0075633D02*
X0045525Y0077168D01*
X0045525Y0074098D02*
X0050129Y0074098D01*
X0050129Y0071029D02*
X0045525Y0071029D01*
X0047060Y0072564D01*
X0045525Y0074098D01*
X0040129Y0074098D02*
X0035525Y0074098D01*
X0037060Y0072564D01*
X0035525Y0071029D01*
X0040129Y0071029D01*
X0039362Y0075633D02*
X0036293Y0075633D01*
X0035525Y0076400D01*
X0035525Y0077935D01*
X0036293Y0078702D01*
X0039362Y0078702D01*
X0040129Y0077935D01*
X0040129Y0076400D01*
X0039362Y0075633D01*
X0039362Y0080237D02*
X0040129Y0081004D01*
X0040129Y0082539D01*
X0039362Y0083306D01*
X0038595Y0083306D01*
X0037827Y0082539D01*
X0037827Y0081004D01*
X0037060Y0080237D01*
X0036293Y0080237D01*
X0035525Y0081004D01*
X0035525Y0082539D01*
X0036293Y0083306D01*
X0035525Y0084841D02*
X0035525Y0086376D01*
X0035525Y0085608D02*
X0040129Y0085608D01*
X0040129Y0084841D02*
X0040129Y0086376D01*
X0030129Y0083306D02*
X0030129Y0080237D01*
X0025525Y0080237D01*
X0026293Y0078702D02*
X0025525Y0077935D01*
X0025525Y0076400D01*
X0026293Y0075633D01*
X0029362Y0075633D01*
X0030129Y0076400D01*
X0030129Y0077935D01*
X0029362Y0078702D01*
X0029362Y0074098D02*
X0028595Y0074098D01*
X0027827Y0073331D01*
X0027827Y0071796D01*
X0027060Y0071029D01*
X0026293Y0071029D01*
X0025525Y0071796D01*
X0025525Y0073331D01*
X0026293Y0074098D01*
X0029362Y0074098D02*
X0030129Y0073331D01*
X0030129Y0071796D01*
X0029362Y0071029D01*
X0020129Y0071796D02*
X0019362Y0071029D01*
X0020129Y0071796D02*
X0020129Y0073331D01*
X0019362Y0074098D01*
X0018595Y0074098D01*
X0017827Y0073331D01*
X0017827Y0071796D01*
X0017060Y0071029D01*
X0016293Y0071029D01*
X0015525Y0071796D01*
X0015525Y0073331D01*
X0016293Y0074098D01*
X0015525Y0075633D02*
X0015525Y0077935D01*
X0016293Y0078702D01*
X0019362Y0078702D01*
X0020129Y0077935D01*
X0020129Y0075633D01*
X0015525Y0075633D01*
X0017060Y0080237D02*
X0015525Y0081772D01*
X0017060Y0083306D01*
X0020129Y0083306D01*
X0017827Y0083306D02*
X0017827Y0080237D01*
X0017060Y0080237D02*
X0020129Y0080237D01*
D12*
X0005829Y0005829D02*
X0105829Y0005829D01*
X0105829Y0105829D01*
X0005829Y0105829D01*
X0005829Y0005829D01*
X0014030Y0064779D02*
X0013279Y0065530D01*
X0014030Y0064779D02*
X0014780Y0064779D01*
X0015531Y0065530D01*
X0015531Y0069283D01*
X0014780Y0069283D02*
X0016282Y0069283D01*
X0017883Y0069283D02*
X0020135Y0069283D01*
X0020886Y0068532D01*
X0020886Y0067031D01*
X0020135Y0066280D01*
X0017883Y0066280D01*
X0017883Y0064779D02*
X0017883Y0069283D01*
X0022487Y0067782D02*
X0023988Y0069283D01*
X0023988Y0064779D01*
X0022487Y0064779D02*
X0025490Y0064779D01*
M02*
