G75*
%MOIN*%
%OFA0B0*%
%FSLAX25Y25*%
%IPPOS*%
%LPD*%
%AMOC8*
5,1,8,0,0,1.08239X$1,22.5*
%
%ADD10C,0.00000*%
%ADD11R,0.01800X0.06000*%
%ADD12R,0.05118X0.05906*%
%ADD13C,0.00500*%
%ADD14C,0.08858*%
%ADD15C,0.01000*%
%ADD16C,0.03562*%
D10*
X0005629Y0005629D02*
X0005629Y0105590D01*
X0105629Y0105629D01*
X0105629Y0005629D01*
X0005629Y0005629D01*
D11*
X0051829Y0047629D03*
X0054329Y0047629D03*
X0056929Y0047629D03*
X0059429Y0047629D03*
X0059429Y0063629D03*
X0056929Y0063629D03*
X0054329Y0063629D03*
X0051829Y0063629D03*
D12*
X0024994Y0060629D03*
X0017514Y0060629D03*
X0017514Y0075629D03*
X0024994Y0075629D03*
D13*
X0005629Y0005629D02*
X0105629Y0005629D01*
X0105629Y0105629D01*
X0005629Y0105629D01*
X0005629Y0005629D01*
D14*
X0005629Y0015629D03*
X0005629Y0030629D03*
X0005629Y0045629D03*
X0005629Y0060629D03*
X0005629Y0075629D03*
X0005629Y0090629D03*
X0020629Y0105629D03*
X0035629Y0105629D03*
X0050629Y0105629D03*
X0065629Y0105629D03*
X0080629Y0105629D03*
X0095629Y0105629D03*
X0095629Y0005629D03*
X0080629Y0005629D03*
X0065629Y0005629D03*
X0050629Y0005629D03*
X0035629Y0005629D03*
X0020629Y0005629D03*
D15*
X0010884Y0017129D02*
X0010232Y0018704D01*
X0008704Y0020232D01*
X0007379Y0020781D01*
X0007379Y0024963D01*
X0007905Y0025134D01*
X0008737Y0025558D01*
X0009492Y0026107D01*
X0010152Y0026767D01*
X0010700Y0027522D01*
X0011124Y0028353D01*
X0011412Y0029241D01*
X0011553Y0030129D01*
X0007379Y0030129D01*
X0007379Y0031129D01*
X0011553Y0031129D01*
X0011412Y0032018D01*
X0011124Y0032905D01*
X0010700Y0033737D01*
X0010152Y0034492D01*
X0009492Y0035152D01*
X0008737Y0035700D01*
X0007905Y0036124D01*
X0007379Y0036295D01*
X0007379Y0040478D01*
X0008704Y0041027D01*
X0010232Y0042554D01*
X0010884Y0044129D01*
X0021875Y0044129D01*
X0028125Y0050379D01*
X0028750Y0051004D01*
X0049477Y0051004D01*
X0049429Y0050827D01*
X0049429Y0047629D01*
X0049429Y0044432D01*
X0049531Y0044050D01*
X0049729Y0043708D01*
X0050008Y0043429D01*
X0050350Y0043231D01*
X0050732Y0043129D01*
X0051829Y0043129D01*
X0051829Y0047629D01*
X0051829Y0047629D01*
X0049429Y0047629D01*
X0051829Y0047629D01*
X0051829Y0047629D01*
X0051879Y0047579D01*
X0051879Y0039379D01*
X0043129Y0030629D01*
X0005629Y0030629D01*
X0007379Y0030592D02*
X0056596Y0030592D01*
X0057594Y0031590D02*
X0011480Y0031590D01*
X0011227Y0032589D02*
X0058593Y0032589D01*
X0059591Y0033587D02*
X0010776Y0033587D01*
X0010057Y0034586D02*
X0060590Y0034586D01*
X0061588Y0035584D02*
X0008896Y0035584D01*
X0007379Y0036583D02*
X0062254Y0036583D01*
X0062254Y0036250D02*
X0043133Y0017129D01*
X0010884Y0017129D01*
X0010685Y0017611D02*
X0043615Y0017611D01*
X0044613Y0018610D02*
X0010271Y0018610D01*
X0009328Y0019608D02*
X0045612Y0019608D01*
X0046610Y0020607D02*
X0007799Y0020607D01*
X0007379Y0021605D02*
X0047609Y0021605D01*
X0048608Y0022604D02*
X0007379Y0022604D01*
X0007379Y0023602D02*
X0049606Y0023602D01*
X0050605Y0024601D02*
X0007379Y0024601D01*
X0008793Y0025599D02*
X0051603Y0025599D01*
X0052602Y0026598D02*
X0009983Y0026598D01*
X0010738Y0027596D02*
X0053600Y0027596D01*
X0054599Y0028595D02*
X0011202Y0028595D01*
X0011468Y0029593D02*
X0055597Y0029593D01*
X0062254Y0036250D02*
X0062254Y0050008D01*
X0061329Y0050933D01*
X0061329Y0044215D01*
X0060743Y0043629D01*
X0058950Y0043629D01*
X0058750Y0043429D01*
X0058408Y0043231D01*
X0058027Y0043129D01*
X0056929Y0043129D01*
X0056929Y0047629D01*
X0056929Y0047629D01*
X0054529Y0047629D01*
X0054329Y0047629D01*
X0054329Y0047629D01*
X0054329Y0043129D01*
X0053232Y0043129D01*
X0053079Y0043170D01*
X0052927Y0043129D01*
X0051829Y0043129D01*
X0051829Y0047629D01*
X0051829Y0047629D01*
X0051929Y0047629D01*
X0054329Y0047629D01*
X0054329Y0047629D01*
X0054329Y0043129D01*
X0055427Y0043129D01*
X0055629Y0043183D01*
X0055832Y0043129D01*
X0056929Y0043129D01*
X0056929Y0047629D01*
X0056929Y0047629D01*
X0054329Y0047629D01*
X0051829Y0047629D01*
X0051829Y0047567D02*
X0051829Y0047567D01*
X0051829Y0046568D02*
X0051829Y0046568D01*
X0051829Y0045570D02*
X0051829Y0045570D01*
X0051829Y0044571D02*
X0051829Y0044571D01*
X0051829Y0043573D02*
X0051829Y0043573D01*
X0049864Y0043573D02*
X0010654Y0043573D01*
X0010240Y0042574D02*
X0062254Y0042574D01*
X0062254Y0041576D02*
X0009253Y0041576D01*
X0007619Y0040577D02*
X0062254Y0040577D01*
X0062254Y0039579D02*
X0007379Y0039579D01*
X0007379Y0038580D02*
X0062254Y0038580D01*
X0062254Y0037581D02*
X0007379Y0037581D01*
X0005629Y0045629D02*
X0021254Y0045629D01*
X0027504Y0051879D01*
X0024994Y0054389D01*
X0024994Y0060629D01*
X0024994Y0075629D01*
X0017514Y0075629D02*
X0005629Y0075629D01*
X0005629Y0060629D02*
X0017514Y0060629D01*
X0017504Y0060629D01*
X0017504Y0055004D01*
X0015004Y0052504D01*
X0017504Y0060619D02*
X0017514Y0060629D01*
X0027504Y0051879D02*
X0028129Y0052504D01*
X0059379Y0052504D01*
X0059429Y0052454D01*
X0059429Y0047629D01*
X0061329Y0047567D02*
X0062254Y0047567D01*
X0062254Y0048565D02*
X0061329Y0048565D01*
X0061329Y0049564D02*
X0062254Y0049564D01*
X0061700Y0050562D02*
X0061329Y0050562D01*
X0063754Y0050629D02*
X0063754Y0035629D01*
X0043754Y0015629D01*
X0005629Y0015629D01*
X0022317Y0044571D02*
X0049429Y0044571D01*
X0049429Y0045570D02*
X0023316Y0045570D01*
X0024314Y0046568D02*
X0049429Y0046568D01*
X0049429Y0047567D02*
X0025313Y0047567D01*
X0026311Y0048565D02*
X0049429Y0048565D01*
X0049429Y0049564D02*
X0027310Y0049564D01*
X0028308Y0050562D02*
X0049429Y0050562D01*
X0054329Y0047629D02*
X0054329Y0047629D01*
X0054329Y0047567D02*
X0054329Y0047567D01*
X0054329Y0046568D02*
X0054329Y0046568D01*
X0054329Y0045570D02*
X0054329Y0045570D01*
X0054329Y0044571D02*
X0054329Y0044571D01*
X0054329Y0043573D02*
X0054329Y0043573D01*
X0056929Y0043573D02*
X0056929Y0043573D01*
X0056929Y0044571D02*
X0056929Y0044571D01*
X0056929Y0045570D02*
X0056929Y0045570D01*
X0056929Y0046568D02*
X0056929Y0046568D01*
X0056929Y0047567D02*
X0056929Y0047567D01*
X0058894Y0043573D02*
X0062254Y0043573D01*
X0062254Y0044571D02*
X0061329Y0044571D01*
X0061329Y0045570D02*
X0062254Y0045570D01*
X0062254Y0046568D02*
X0061329Y0046568D01*
X0063754Y0050629D02*
X0058754Y0055629D01*
X0051879Y0055629D01*
X0051829Y0055679D01*
X0051829Y0063629D01*
X0054329Y0063629D02*
X0054329Y0071929D01*
X0035629Y0090629D01*
X0005629Y0090629D01*
X0056879Y0075629D02*
X0056929Y0075629D01*
X0056929Y0063629D01*
X0059429Y0063629D02*
X0059429Y0059954D01*
X0066879Y0052504D01*
D16*
X0066879Y0052504D03*
X0056879Y0075629D03*
X0015004Y0052504D03*
M02*
