G75*
%MOIN*%
%OFA0B0*%
%FSLAX25Y25*%
%IPPOS*%
%LPD*%
%AMOC8*
5,1,8,0,0,1.08239X$1,22.5*
%
%ADD10C,0.00000*%
%ADD11C,0.00300*%
%ADD12C,0.00500*%
D10*
X0005629Y0005629D02*
X0005629Y0105590D01*
X0105629Y0105629D01*
X0105629Y0005629D01*
X0005629Y0005629D01*
D11*
X0023725Y0024904D02*
X0022490Y0026139D01*
X0022490Y0027373D01*
X0023725Y0028607D01*
X0024939Y0027990D02*
X0025556Y0028607D01*
X0026791Y0028607D01*
X0027408Y0027990D01*
X0027408Y0025521D01*
X0026791Y0024904D01*
X0025556Y0024904D01*
X0024939Y0025521D01*
X0028626Y0027373D02*
X0028626Y0027990D01*
X0029243Y0028607D01*
X0029860Y0028607D01*
X0030477Y0027990D01*
X0030477Y0027373D01*
X0029860Y0026756D01*
X0029243Y0026756D01*
X0028626Y0027373D01*
X0031691Y0026756D02*
X0031691Y0025521D01*
X0032309Y0024904D01*
X0033543Y0024904D01*
X0034160Y0025521D01*
X0034160Y0026756D02*
X0032926Y0027373D01*
X0032309Y0027373D01*
X0031691Y0026756D01*
X0031691Y0028607D02*
X0034160Y0028607D01*
X0034160Y0026756D01*
X0035375Y0027373D02*
X0035375Y0027990D01*
X0035992Y0028607D01*
X0037226Y0028607D01*
X0037843Y0027990D01*
X0040292Y0028607D02*
X0040292Y0024904D01*
X0039058Y0024904D02*
X0041527Y0024904D01*
X0042741Y0026756D02*
X0045210Y0026756D01*
X0043975Y0027990D02*
X0043975Y0025521D01*
X0044586Y0022607D02*
X0043969Y0021990D01*
X0043969Y0021373D01*
X0044586Y0020756D01*
X0045820Y0020756D01*
X0046437Y0021373D01*
X0046437Y0021990D01*
X0045820Y0022607D01*
X0044586Y0022607D01*
X0044586Y0020756D02*
X0043969Y0020139D01*
X0043969Y0019521D01*
X0044586Y0018904D01*
X0045820Y0018904D01*
X0046437Y0019521D01*
X0046437Y0020139D01*
X0045820Y0020756D01*
X0047652Y0020756D02*
X0050121Y0020756D01*
X0051335Y0020756D02*
X0051335Y0021990D01*
X0051952Y0022607D01*
X0053804Y0022607D01*
X0053804Y0018904D01*
X0055018Y0019521D02*
X0055018Y0021990D01*
X0055635Y0022607D01*
X0056870Y0022607D01*
X0057487Y0021990D01*
X0057487Y0019521D01*
X0056870Y0018904D01*
X0055635Y0018904D01*
X0055018Y0019521D01*
X0053804Y0020139D02*
X0051952Y0020139D01*
X0051335Y0020756D01*
X0050724Y0024904D02*
X0050107Y0025521D01*
X0050107Y0026756D01*
X0050724Y0027373D01*
X0051959Y0027373D01*
X0052576Y0026756D01*
X0052576Y0025521D01*
X0051959Y0024904D01*
X0050724Y0024904D01*
X0053797Y0024904D02*
X0054414Y0025521D01*
X0054414Y0027990D01*
X0055031Y0027373D02*
X0053797Y0027373D01*
X0059932Y0027373D02*
X0060549Y0026756D01*
X0061167Y0026756D01*
X0061784Y0027373D01*
X0061784Y0027990D01*
X0061167Y0028607D01*
X0060549Y0028607D01*
X0059932Y0027990D01*
X0059932Y0027373D01*
X0062998Y0027990D02*
X0062998Y0025521D01*
X0063615Y0024904D01*
X0064850Y0024904D01*
X0065467Y0025521D01*
X0062998Y0027990D01*
X0063615Y0028607D01*
X0064850Y0028607D01*
X0065467Y0027990D01*
X0065467Y0025521D01*
X0067299Y0024904D02*
X0067299Y0028607D01*
X0069150Y0026756D01*
X0066681Y0026756D01*
X0070364Y0026756D02*
X0072833Y0026756D01*
X0074054Y0028607D02*
X0075289Y0027373D01*
X0075289Y0026139D01*
X0074054Y0024904D01*
X0072216Y0021990D02*
X0072216Y0019521D01*
X0071599Y0018904D01*
X0070378Y0018904D02*
X0070378Y0019521D01*
X0069761Y0019521D01*
X0069761Y0018904D01*
X0070378Y0018904D01*
X0070378Y0020756D02*
X0070378Y0021373D01*
X0069761Y0021373D01*
X0069761Y0020756D01*
X0070378Y0020756D01*
X0071599Y0021373D02*
X0072833Y0021373D01*
X0074048Y0020756D02*
X0074048Y0018904D01*
X0074048Y0020756D02*
X0074665Y0021373D01*
X0076516Y0021373D01*
X0076516Y0018904D01*
X0077737Y0018904D02*
X0078972Y0018904D01*
X0078355Y0018904D02*
X0078355Y0021373D01*
X0078972Y0021373D01*
X0080190Y0021373D02*
X0080807Y0021373D01*
X0082041Y0020139D01*
X0082041Y0021373D02*
X0082041Y0018904D01*
X0083255Y0019521D02*
X0083873Y0018904D01*
X0085724Y0018904D01*
X0086945Y0018904D02*
X0087563Y0019521D01*
X0087563Y0021990D01*
X0088180Y0021373D02*
X0086945Y0021373D01*
X0085724Y0021373D02*
X0083873Y0021373D01*
X0083255Y0020756D01*
X0083255Y0019521D01*
X0085724Y0017670D02*
X0085724Y0021373D01*
X0086328Y0023670D02*
X0085711Y0024287D01*
X0085711Y0027373D01*
X0087563Y0027373D01*
X0088180Y0026756D01*
X0088180Y0025521D01*
X0087563Y0024904D01*
X0085711Y0024904D01*
X0086328Y0023670D02*
X0086945Y0023670D01*
X0089394Y0024904D02*
X0089394Y0026756D01*
X0090011Y0027373D01*
X0091863Y0027373D01*
X0091863Y0024904D01*
X0093077Y0024904D02*
X0094929Y0024904D01*
X0095546Y0025521D01*
X0094929Y0026139D01*
X0093077Y0026139D01*
X0093077Y0026756D02*
X0093077Y0024904D01*
X0093077Y0026756D02*
X0093694Y0027373D01*
X0094929Y0027373D01*
X0096760Y0027990D02*
X0096760Y0026756D01*
X0097378Y0026139D01*
X0099229Y0026139D01*
X0097995Y0026139D02*
X0096760Y0024904D01*
X0096760Y0022607D02*
X0099229Y0022607D01*
X0099229Y0018904D01*
X0099229Y0020756D02*
X0097995Y0020756D01*
X0095546Y0020756D02*
X0095546Y0019521D01*
X0094929Y0018904D01*
X0093694Y0018904D01*
X0093077Y0019521D01*
X0093077Y0020756D01*
X0093694Y0021373D01*
X0094929Y0021373D01*
X0095546Y0020756D01*
X0091863Y0020756D02*
X0091863Y0019521D01*
X0091246Y0018904D01*
X0090011Y0018904D01*
X0089394Y0019521D01*
X0089394Y0020756D01*
X0090011Y0021373D01*
X0091246Y0021373D01*
X0091863Y0020756D01*
X0099229Y0024904D02*
X0099229Y0028607D01*
X0097378Y0028607D01*
X0096760Y0027990D01*
X0097378Y0030904D02*
X0099229Y0030904D01*
X0099229Y0034607D01*
X0097378Y0034607D01*
X0096760Y0033990D01*
X0096760Y0033373D01*
X0097378Y0032756D01*
X0099229Y0032756D01*
X0097378Y0032756D02*
X0096760Y0032139D01*
X0096760Y0031521D01*
X0097378Y0030904D01*
X0095546Y0031521D02*
X0094929Y0030904D01*
X0093077Y0030904D01*
X0093077Y0033373D01*
X0091863Y0032756D02*
X0091246Y0032139D01*
X0090011Y0032139D01*
X0089394Y0031521D01*
X0090011Y0030904D01*
X0091863Y0030904D01*
X0091863Y0032756D02*
X0091246Y0033373D01*
X0089394Y0033373D01*
X0088180Y0033373D02*
X0088180Y0032756D01*
X0087563Y0032756D01*
X0087563Y0033373D01*
X0088180Y0033373D01*
X0088180Y0031521D02*
X0087563Y0031521D01*
X0087563Y0030904D01*
X0088180Y0030904D01*
X0088180Y0031521D01*
X0088180Y0035670D02*
X0088180Y0039373D01*
X0086328Y0039373D01*
X0085711Y0038756D01*
X0085711Y0037521D01*
X0086328Y0036904D01*
X0088180Y0036904D01*
X0089394Y0036904D02*
X0089394Y0038756D01*
X0090011Y0039373D01*
X0090628Y0038756D01*
X0090628Y0036904D01*
X0091863Y0036904D02*
X0091863Y0039373D01*
X0091246Y0039373D01*
X0090628Y0038756D01*
X0093077Y0038756D02*
X0093077Y0038139D01*
X0095546Y0038139D01*
X0095546Y0038756D02*
X0094929Y0039373D01*
X0093694Y0039373D01*
X0093077Y0038756D01*
X0093694Y0036904D02*
X0094929Y0036904D01*
X0095546Y0037521D01*
X0095546Y0038756D01*
X0096760Y0040607D02*
X0099229Y0040607D01*
X0097995Y0040607D02*
X0097995Y0036904D01*
X0095546Y0033373D02*
X0095546Y0031521D01*
X0095546Y0042904D02*
X0095546Y0045373D01*
X0096760Y0045373D02*
X0096760Y0045990D01*
X0097378Y0046607D01*
X0099229Y0046607D01*
X0099229Y0042904D01*
X0097378Y0042904D01*
X0096760Y0043521D01*
X0096760Y0044139D01*
X0097378Y0044756D01*
X0099229Y0044756D01*
X0097378Y0044756D02*
X0096760Y0045373D01*
X0095546Y0044139D02*
X0094312Y0045373D01*
X0093694Y0045373D01*
X0092477Y0044756D02*
X0092477Y0043521D01*
X0091860Y0042904D01*
X0090625Y0042904D01*
X0090008Y0044139D02*
X0092477Y0044139D01*
X0092477Y0044756D02*
X0091860Y0045373D01*
X0090625Y0045373D01*
X0090008Y0044756D01*
X0090008Y0044139D01*
X0088794Y0043521D02*
X0088176Y0042904D01*
X0086325Y0042904D01*
X0086325Y0044756D01*
X0086942Y0045373D01*
X0088176Y0045373D01*
X0088176Y0044139D02*
X0086325Y0044139D01*
X0085110Y0044139D02*
X0083259Y0045373D01*
X0082041Y0045373D02*
X0080190Y0045373D01*
X0079572Y0044756D01*
X0079572Y0043521D01*
X0080190Y0042904D01*
X0082041Y0042904D01*
X0082041Y0046607D01*
X0085110Y0046607D02*
X0085110Y0042904D01*
X0085110Y0044139D02*
X0083259Y0042904D01*
X0078358Y0043521D02*
X0077741Y0042904D01*
X0076506Y0042904D01*
X0075889Y0043521D01*
X0075889Y0044756D01*
X0076506Y0045373D01*
X0077741Y0045373D01*
X0078358Y0044756D01*
X0078358Y0043521D01*
X0078355Y0040607D02*
X0077120Y0040607D01*
X0076503Y0039990D01*
X0077120Y0038756D02*
X0076503Y0038139D01*
X0076503Y0037521D01*
X0077120Y0036904D01*
X0078355Y0036904D01*
X0078972Y0037521D01*
X0078355Y0038756D02*
X0077120Y0038756D01*
X0075289Y0038756D02*
X0075289Y0037521D01*
X0074672Y0036904D01*
X0073437Y0036904D01*
X0072820Y0038139D02*
X0075289Y0038139D01*
X0075289Y0038756D02*
X0074672Y0039373D01*
X0073437Y0039373D01*
X0072820Y0038756D01*
X0072820Y0038139D01*
X0071606Y0036904D02*
X0071606Y0039373D01*
X0069754Y0039373D01*
X0069137Y0038756D01*
X0069137Y0036904D01*
X0067922Y0036904D02*
X0066071Y0036904D01*
X0065454Y0037521D01*
X0066071Y0038139D01*
X0067305Y0038139D01*
X0067922Y0038756D01*
X0067305Y0039373D01*
X0065454Y0039373D01*
X0064239Y0038756D02*
X0064239Y0037521D01*
X0063622Y0036904D01*
X0062388Y0036904D01*
X0061770Y0037521D01*
X0061770Y0038756D01*
X0062388Y0039373D01*
X0063622Y0039373D01*
X0064239Y0038756D01*
X0060556Y0039373D02*
X0060556Y0036904D01*
X0060556Y0038139D02*
X0059322Y0039373D01*
X0058705Y0039373D01*
X0053804Y0040607D02*
X0053804Y0036904D01*
X0052569Y0039373D02*
X0051335Y0040607D01*
X0051335Y0036904D01*
X0050121Y0037521D02*
X0049503Y0036904D01*
X0048269Y0036904D01*
X0047652Y0037521D01*
X0046437Y0036904D02*
X0046437Y0040607D01*
X0044586Y0040607D01*
X0043969Y0039990D01*
X0043969Y0038756D01*
X0044586Y0038139D01*
X0046437Y0038139D01*
X0047652Y0039990D02*
X0048269Y0040607D01*
X0049503Y0040607D01*
X0050121Y0039990D01*
X0050121Y0037521D01*
X0052569Y0039373D02*
X0053804Y0040607D01*
X0063622Y0042904D02*
X0064239Y0042904D01*
X0064239Y0043521D01*
X0063622Y0043521D01*
X0063622Y0042904D01*
X0065454Y0042904D02*
X0067305Y0042904D01*
X0067922Y0043521D01*
X0067922Y0044756D01*
X0067305Y0045373D01*
X0065454Y0045373D01*
X0065454Y0046607D02*
X0065454Y0042904D01*
X0064239Y0044756D02*
X0064239Y0045373D01*
X0063622Y0045373D01*
X0063622Y0044756D01*
X0064239Y0044756D01*
X0069140Y0045373D02*
X0069757Y0045373D01*
X0070992Y0044139D01*
X0072206Y0044139D02*
X0074058Y0044139D01*
X0074675Y0043521D01*
X0074058Y0042904D01*
X0072206Y0042904D01*
X0072206Y0044756D01*
X0072823Y0045373D01*
X0074058Y0045373D01*
X0070992Y0045373D02*
X0070992Y0042904D01*
X0078355Y0040607D02*
X0078972Y0039990D01*
X0078972Y0039373D01*
X0078355Y0038756D01*
X0078348Y0034607D02*
X0079582Y0034607D01*
X0080200Y0033990D01*
X0078348Y0034607D02*
X0077731Y0033990D01*
X0077731Y0033373D01*
X0080200Y0030904D01*
X0077731Y0030904D01*
X0076516Y0031521D02*
X0075899Y0030904D01*
X0074665Y0030904D01*
X0074048Y0031521D01*
X0076516Y0031521D02*
X0076516Y0033990D01*
X0075899Y0034607D01*
X0074665Y0034607D01*
X0074048Y0033990D01*
X0080196Y0027373D02*
X0080196Y0026756D01*
X0080813Y0026756D01*
X0080813Y0027373D01*
X0080196Y0027373D01*
X0080196Y0025521D02*
X0080196Y0024904D01*
X0080813Y0024904D01*
X0080813Y0025521D01*
X0080196Y0025521D01*
X0082028Y0026139D02*
X0082028Y0026756D01*
X0082645Y0027373D01*
X0083879Y0027373D01*
X0084497Y0026756D01*
X0084497Y0025521D01*
X0083879Y0024904D01*
X0082645Y0024904D01*
X0082028Y0026139D02*
X0084497Y0026139D01*
X0082655Y0030904D02*
X0081421Y0030904D01*
X0082038Y0030904D02*
X0082038Y0034607D01*
X0082655Y0034607D02*
X0081421Y0034607D01*
X0083879Y0036904D02*
X0084497Y0036904D01*
X0084497Y0037521D01*
X0083879Y0037521D01*
X0083879Y0036904D01*
X0088794Y0043521D02*
X0088176Y0044139D01*
X0078355Y0023224D02*
X0078355Y0022607D01*
X0064853Y0022607D02*
X0064853Y0018904D01*
X0062384Y0018904D02*
X0062384Y0022607D01*
X0063619Y0021373D01*
X0064853Y0022607D01*
X0061170Y0021990D02*
X0061170Y0021373D01*
X0060553Y0020756D01*
X0059318Y0020756D01*
X0058701Y0020139D01*
X0058701Y0019521D01*
X0059318Y0018904D01*
X0060553Y0018904D01*
X0061170Y0019521D01*
X0061170Y0021990D02*
X0060553Y0022607D01*
X0059318Y0022607D01*
X0058701Y0021990D01*
X0042754Y0037521D02*
X0042137Y0036904D01*
X0040903Y0036904D01*
X0040285Y0037521D01*
X0040285Y0039990D01*
X0040903Y0040607D01*
X0042137Y0040607D01*
X0042754Y0039990D01*
X0042754Y0039373D01*
X0042137Y0038756D01*
X0040285Y0038756D01*
X0039071Y0039373D02*
X0039071Y0039990D01*
X0038454Y0040607D01*
X0037220Y0040607D01*
X0036602Y0039990D01*
X0036602Y0039373D01*
X0037220Y0038756D01*
X0038454Y0038756D01*
X0039071Y0039373D01*
X0038454Y0038756D02*
X0039071Y0038139D01*
X0039071Y0037521D01*
X0038454Y0036904D01*
X0037220Y0036904D01*
X0036602Y0037521D01*
X0036602Y0038139D01*
X0037220Y0038756D01*
X0035388Y0039990D02*
X0035388Y0037521D01*
X0032919Y0039990D01*
X0032919Y0037521D01*
X0033536Y0036904D01*
X0034771Y0036904D01*
X0035388Y0037521D01*
X0035388Y0039990D02*
X0034771Y0040607D01*
X0033536Y0040607D01*
X0032919Y0039990D01*
X0031705Y0039990D02*
X0031088Y0040607D01*
X0029853Y0040607D01*
X0029236Y0039990D01*
X0029236Y0039373D01*
X0029853Y0038756D01*
X0031088Y0038756D01*
X0031705Y0039373D01*
X0031705Y0039990D01*
X0031088Y0038756D02*
X0031705Y0038139D01*
X0031705Y0037521D01*
X0031088Y0036904D01*
X0029853Y0036904D01*
X0029236Y0037521D01*
X0029236Y0038139D01*
X0029853Y0038756D01*
X0035375Y0027373D02*
X0037843Y0024904D01*
X0035375Y0024904D01*
X0040292Y0028607D02*
X0041527Y0027373D01*
X0047041Y0083920D02*
X0046424Y0084537D01*
X0046424Y0087623D01*
X0048276Y0087623D01*
X0048893Y0087006D01*
X0048893Y0085771D01*
X0048276Y0085154D01*
X0046424Y0085154D01*
X0047041Y0083920D02*
X0047658Y0083920D01*
X0050107Y0085154D02*
X0050107Y0087006D01*
X0050724Y0087623D01*
X0052576Y0087623D01*
X0052576Y0085154D01*
X0053797Y0085154D02*
X0055031Y0085154D01*
X0054414Y0085154D02*
X0054414Y0087623D01*
X0055031Y0087623D01*
X0056249Y0087623D02*
X0056866Y0087623D01*
X0058101Y0086389D01*
X0058101Y0087623D02*
X0058101Y0085154D01*
X0059315Y0085771D02*
X0059315Y0087006D01*
X0059932Y0087623D01*
X0061167Y0087623D01*
X0061784Y0087006D01*
X0061784Y0085771D01*
X0061167Y0085154D01*
X0059932Y0085154D01*
X0059315Y0085771D01*
X0063005Y0085154D02*
X0063622Y0085771D01*
X0063622Y0088240D01*
X0064239Y0087623D02*
X0063005Y0087623D01*
X0066078Y0087623D02*
X0066078Y0085154D01*
X0066695Y0085154D02*
X0065460Y0085154D01*
X0067909Y0085154D02*
X0067909Y0087006D01*
X0068526Y0087623D01*
X0070378Y0087623D01*
X0070378Y0085154D01*
X0071592Y0085771D02*
X0071592Y0087006D01*
X0072209Y0087623D01*
X0073444Y0087623D01*
X0074061Y0087006D01*
X0074061Y0085771D01*
X0073444Y0085154D01*
X0072209Y0085154D01*
X0071592Y0085771D01*
X0075275Y0085154D02*
X0075275Y0088857D01*
X0076510Y0087623D01*
X0077744Y0088857D01*
X0077744Y0085154D01*
X0078962Y0087623D02*
X0079579Y0087623D01*
X0080813Y0086389D01*
X0080813Y0087623D02*
X0080813Y0085154D01*
X0082028Y0085771D02*
X0082028Y0087006D01*
X0082645Y0087623D01*
X0083879Y0087623D01*
X0084497Y0087006D01*
X0084497Y0085771D01*
X0083879Y0085154D01*
X0082645Y0085154D01*
X0082028Y0085771D01*
X0085711Y0085771D02*
X0086328Y0085154D01*
X0088180Y0085154D01*
X0089394Y0085154D02*
X0089394Y0087006D01*
X0090011Y0087623D01*
X0091863Y0087623D01*
X0091863Y0085154D01*
X0093077Y0086389D02*
X0095546Y0086389D01*
X0095546Y0087006D02*
X0095546Y0085771D01*
X0094929Y0085154D01*
X0093694Y0085154D01*
X0093077Y0086389D02*
X0093077Y0087006D01*
X0093694Y0087623D01*
X0094929Y0087623D01*
X0095546Y0087006D01*
X0096760Y0086389D02*
X0096760Y0085771D01*
X0097378Y0085154D01*
X0098612Y0085154D01*
X0099229Y0085771D01*
X0098612Y0087006D02*
X0097378Y0087006D01*
X0096760Y0086389D01*
X0096760Y0088240D02*
X0097378Y0088857D01*
X0098612Y0088857D01*
X0099229Y0088240D01*
X0099229Y0087623D01*
X0098612Y0087006D01*
X0097995Y0089920D02*
X0097378Y0089920D01*
X0096760Y0090537D01*
X0096760Y0093623D01*
X0098612Y0093623D01*
X0099229Y0093006D01*
X0099229Y0091771D01*
X0098612Y0091154D01*
X0096760Y0091154D01*
X0095546Y0091154D02*
X0094312Y0091154D01*
X0094929Y0091154D02*
X0094929Y0093623D01*
X0095546Y0093623D01*
X0094929Y0094857D02*
X0094929Y0095474D01*
X0093091Y0093623D02*
X0091856Y0093623D01*
X0092473Y0094240D02*
X0092473Y0091771D01*
X0091856Y0091154D01*
X0090635Y0091154D02*
X0090635Y0094857D01*
X0090018Y0093623D02*
X0088784Y0093623D01*
X0088166Y0093006D01*
X0088166Y0091154D01*
X0086952Y0091771D02*
X0086335Y0091154D01*
X0084483Y0091154D01*
X0084483Y0093623D01*
X0083269Y0093623D02*
X0081417Y0093623D01*
X0080800Y0093006D01*
X0080800Y0091771D01*
X0081417Y0091154D01*
X0083269Y0091154D01*
X0083269Y0094857D01*
X0079586Y0091771D02*
X0078969Y0091771D01*
X0078969Y0091154D01*
X0079586Y0091154D01*
X0079586Y0091771D01*
X0077744Y0091771D02*
X0077127Y0091154D01*
X0075275Y0091154D01*
X0074061Y0091771D02*
X0073444Y0091154D01*
X0072209Y0091154D01*
X0071592Y0091771D01*
X0071592Y0093006D01*
X0072209Y0093623D01*
X0073444Y0093623D01*
X0074061Y0093006D01*
X0074061Y0091771D01*
X0075275Y0093623D02*
X0077127Y0093623D01*
X0077744Y0093006D01*
X0077744Y0091771D01*
X0070378Y0091154D02*
X0070378Y0093623D01*
X0069761Y0093623D01*
X0069143Y0093006D01*
X0068526Y0093623D01*
X0067909Y0093006D01*
X0067909Y0091154D01*
X0066695Y0091154D02*
X0064226Y0094857D01*
X0063012Y0094857D02*
X0060543Y0091154D01*
X0060543Y0094857D01*
X0059328Y0093623D02*
X0058711Y0093623D01*
X0058711Y0091154D01*
X0059328Y0091154D02*
X0058094Y0091154D01*
X0056873Y0091771D02*
X0056256Y0091154D01*
X0054404Y0091154D01*
X0053190Y0091771D02*
X0052573Y0091154D01*
X0051338Y0091154D01*
X0050721Y0091771D01*
X0050721Y0093006D01*
X0051338Y0093623D01*
X0052573Y0093623D01*
X0053190Y0093006D01*
X0053190Y0091771D01*
X0054404Y0093623D02*
X0056256Y0093623D01*
X0056873Y0093006D01*
X0056873Y0091771D01*
X0054414Y0089474D02*
X0054414Y0088857D01*
X0049507Y0091154D02*
X0047038Y0091154D01*
X0045824Y0091771D02*
X0045824Y0093006D01*
X0045206Y0093623D01*
X0043972Y0093623D01*
X0043355Y0093006D01*
X0043355Y0092389D01*
X0045824Y0092389D01*
X0045824Y0091771D02*
X0045206Y0091154D01*
X0043972Y0091154D01*
X0042140Y0091154D02*
X0040906Y0091154D01*
X0041523Y0091154D02*
X0041523Y0094857D01*
X0042140Y0094857D01*
X0039685Y0094857D02*
X0039068Y0094857D01*
X0039068Y0091154D01*
X0039685Y0091154D02*
X0038451Y0091154D01*
X0037230Y0091154D02*
X0035995Y0091154D01*
X0036612Y0091154D02*
X0036612Y0093623D01*
X0037230Y0093623D01*
X0036612Y0094857D02*
X0036612Y0095474D01*
X0034774Y0093623D02*
X0032923Y0093623D01*
X0032305Y0093006D01*
X0032305Y0091154D01*
X0031091Y0091771D02*
X0030474Y0091154D01*
X0028622Y0091154D01*
X0028622Y0090537D02*
X0028622Y0093623D01*
X0030474Y0093623D01*
X0031091Y0093006D01*
X0031091Y0091771D01*
X0029857Y0089920D02*
X0029239Y0089920D01*
X0028622Y0090537D01*
X0027408Y0091771D02*
X0027408Y0093006D01*
X0026791Y0093623D01*
X0025556Y0093623D01*
X0024939Y0093006D01*
X0024939Y0092389D01*
X0027408Y0092389D01*
X0027408Y0091771D02*
X0026791Y0091154D01*
X0025556Y0091154D01*
X0023725Y0091154D02*
X0023725Y0093623D01*
X0023725Y0092389D02*
X0022490Y0093623D01*
X0021873Y0093623D01*
X0020655Y0091154D02*
X0018187Y0094857D01*
X0034774Y0093623D02*
X0034774Y0091154D01*
X0047038Y0094240D02*
X0049507Y0091771D01*
X0049507Y0091154D01*
X0047038Y0094240D02*
X0047038Y0094857D01*
X0049507Y0094857D01*
X0058711Y0094857D02*
X0058711Y0095474D01*
X0063012Y0094857D02*
X0063012Y0091154D01*
X0066078Y0089474D02*
X0066078Y0088857D01*
X0066078Y0087623D02*
X0066695Y0087623D01*
X0069143Y0091154D02*
X0069143Y0093006D01*
X0085711Y0087623D02*
X0087563Y0087623D01*
X0088180Y0087006D01*
X0087563Y0086389D01*
X0086328Y0086389D01*
X0085711Y0085771D01*
X0086952Y0091771D02*
X0086952Y0093623D01*
X0090018Y0093623D02*
X0090635Y0093006D01*
D12*
X0105629Y0005629D02*
X0005629Y0005629D01*
X0005629Y0105629D01*
X0105629Y0105629D01*
X0105629Y0005629D01*
M02*
