G75*
%MOIN*%
%OFA0B0*%
%FSLAX25Y25*%
%IPPOS*%
%LPD*%
%AMOC8*
5,1,8,0,0,1.08239X$1,22.5*
%
%ADD10C,0.00000*%
%ADD11C,0.00800*%
%ADD12C,0.00400*%
%ADD13C,0.00500*%
D10*
X0005829Y0005829D02*
X0005829Y0105790D01*
X0105829Y0105829D01*
X0105829Y0005829D01*
X0005829Y0005829D01*
D11*
X0069754Y0031123D02*
X0069754Y0033592D01*
X0070989Y0034826D01*
X0072223Y0034826D01*
X0073457Y0033592D01*
X0073457Y0031123D01*
X0072223Y0029889D01*
X0070989Y0029889D01*
X0069754Y0031123D01*
X0073457Y0031123D02*
X0074692Y0029889D01*
X0075926Y0029889D01*
X0077160Y0031123D01*
X0077160Y0033592D01*
X0075926Y0034826D01*
X0074692Y0034826D01*
X0073457Y0033592D01*
X0070989Y0037439D02*
X0069754Y0038674D01*
X0069754Y0041143D01*
X0070989Y0042377D01*
X0075926Y0037439D01*
X0070989Y0037439D01*
X0075926Y0037439D02*
X0077160Y0038674D01*
X0077160Y0041143D01*
X0075926Y0042377D01*
X0070989Y0042377D01*
X0070989Y0044990D02*
X0069754Y0046224D01*
X0069754Y0048693D01*
X0070989Y0049927D01*
X0072223Y0049927D01*
X0073457Y0048693D01*
X0073457Y0046224D01*
X0072223Y0044990D01*
X0070989Y0044990D01*
X0073457Y0046224D02*
X0074692Y0044990D01*
X0075926Y0044990D01*
X0077160Y0046224D01*
X0077160Y0048693D01*
X0075926Y0049927D01*
X0074692Y0049927D01*
X0073457Y0048693D01*
X0073457Y0052540D02*
X0073457Y0056243D01*
X0074692Y0057478D01*
X0075926Y0057478D01*
X0077160Y0056243D01*
X0077160Y0053775D01*
X0075926Y0052540D01*
X0070989Y0052540D01*
X0069754Y0053775D01*
X0069754Y0056243D01*
X0070989Y0057478D01*
X0073457Y0060091D02*
X0072223Y0061325D01*
X0072223Y0065028D01*
X0070989Y0067641D02*
X0069754Y0068876D01*
X0069754Y0071344D01*
X0070989Y0072579D01*
X0075926Y0072579D01*
X0077160Y0071344D01*
X0077160Y0068876D01*
X0075926Y0067641D01*
X0077160Y0065028D02*
X0077160Y0061325D01*
X0075926Y0060091D01*
X0073457Y0060091D01*
X0069754Y0065028D02*
X0077160Y0065028D01*
X0077160Y0075192D02*
X0069754Y0075192D01*
X0069754Y0080129D02*
X0077160Y0080129D01*
X0074692Y0077660D01*
X0077160Y0075192D01*
D12*
X0027681Y0081171D02*
X0026914Y0080404D01*
X0025379Y0080404D01*
X0024612Y0081171D01*
X0027681Y0084241D01*
X0027681Y0081171D01*
X0024612Y0081171D02*
X0024612Y0084241D01*
X0025379Y0085008D01*
X0026914Y0085008D01*
X0027681Y0084241D01*
X0023077Y0080404D02*
X0020008Y0080404D01*
X0018473Y0080404D02*
X0016939Y0081939D01*
X0017706Y0081939D02*
X0015404Y0081939D01*
X0015404Y0080404D02*
X0015404Y0085008D01*
X0017706Y0085008D01*
X0018473Y0084241D01*
X0018473Y0082706D01*
X0017706Y0081939D01*
X0020008Y0083473D02*
X0021543Y0085008D01*
X0021543Y0080404D01*
X0020206Y0070008D02*
X0017904Y0070008D01*
X0017904Y0065404D01*
X0017904Y0066939D02*
X0020206Y0066939D01*
X0020973Y0067706D01*
X0020973Y0069241D01*
X0020206Y0070008D01*
X0022508Y0069241D02*
X0022508Y0068473D01*
X0023275Y0067706D01*
X0025577Y0067706D01*
X0025577Y0066171D02*
X0025577Y0069241D01*
X0024810Y0070008D01*
X0023275Y0070008D01*
X0022508Y0069241D01*
X0022508Y0066171D02*
X0023275Y0065404D01*
X0024810Y0065404D01*
X0025577Y0066171D01*
X0020973Y0065404D02*
X0019439Y0066939D01*
D13*
X0005829Y0005829D02*
X0105829Y0005829D01*
X0105829Y0105829D01*
X0005829Y0105829D01*
X0005829Y0005829D01*
M02*
