G75*
%MOIN*%
%OFA0B0*%
%FSLAX25Y25*%
%IPPOS*%
%LPD*%
%AMOC8*
5,1,8,0,0,1.08239X$1,22.5*
%
%ADD10C,0.00000*%
%ADD11C,0.00300*%
%ADD12C,0.00500*%
D10*
X0005829Y0005829D02*
X0005829Y0105790D01*
X0105829Y0105829D01*
X0105829Y0005829D01*
X0005829Y0005829D01*
D11*
X0023925Y0025104D02*
X0022690Y0026339D01*
X0022690Y0027573D01*
X0023925Y0028807D01*
X0025139Y0028190D02*
X0025756Y0028807D01*
X0026991Y0028807D01*
X0027608Y0028190D01*
X0027608Y0025721D01*
X0026991Y0025104D01*
X0025756Y0025104D01*
X0025139Y0025721D01*
X0028826Y0027573D02*
X0029443Y0026956D01*
X0030060Y0026956D01*
X0030677Y0027573D01*
X0030677Y0028190D01*
X0030060Y0028807D01*
X0029443Y0028807D01*
X0028826Y0028190D01*
X0028826Y0027573D01*
X0031891Y0026956D02*
X0031891Y0025721D01*
X0032509Y0025104D01*
X0033743Y0025104D01*
X0034360Y0025721D01*
X0034360Y0026956D02*
X0033126Y0027573D01*
X0032509Y0027573D01*
X0031891Y0026956D01*
X0031891Y0028807D02*
X0034360Y0028807D01*
X0034360Y0026956D01*
X0035575Y0027573D02*
X0035575Y0028190D01*
X0036192Y0028807D01*
X0037426Y0028807D01*
X0038043Y0028190D01*
X0040492Y0028807D02*
X0040492Y0025104D01*
X0039258Y0025104D02*
X0041727Y0025104D01*
X0042941Y0026956D02*
X0045410Y0026956D01*
X0044175Y0028190D02*
X0044175Y0025721D01*
X0044786Y0022807D02*
X0044169Y0022190D01*
X0044169Y0021573D01*
X0044786Y0020956D01*
X0046020Y0020956D01*
X0046637Y0021573D01*
X0046637Y0022190D01*
X0046020Y0022807D01*
X0044786Y0022807D01*
X0044786Y0020956D02*
X0044169Y0020339D01*
X0044169Y0019721D01*
X0044786Y0019104D01*
X0046020Y0019104D01*
X0046637Y0019721D01*
X0046637Y0020339D01*
X0046020Y0020956D01*
X0047852Y0020956D02*
X0050321Y0020956D01*
X0051535Y0020956D02*
X0052152Y0020339D01*
X0054004Y0020339D01*
X0054004Y0019104D02*
X0054004Y0022807D01*
X0052152Y0022807D01*
X0051535Y0022190D01*
X0051535Y0020956D01*
X0055218Y0019721D02*
X0055218Y0022190D01*
X0055835Y0022807D01*
X0057070Y0022807D01*
X0057687Y0022190D01*
X0057687Y0019721D01*
X0057070Y0019104D01*
X0055835Y0019104D01*
X0055218Y0019721D01*
X0058901Y0019721D02*
X0059518Y0019104D01*
X0060753Y0019104D01*
X0061370Y0019721D01*
X0062584Y0019104D02*
X0062584Y0022807D01*
X0063819Y0021573D01*
X0065053Y0022807D01*
X0065053Y0019104D01*
X0061370Y0021573D02*
X0060753Y0020956D01*
X0059518Y0020956D01*
X0058901Y0020339D01*
X0058901Y0019721D01*
X0058901Y0022190D02*
X0059518Y0022807D01*
X0060753Y0022807D01*
X0061370Y0022190D01*
X0061370Y0021573D01*
X0063815Y0025104D02*
X0065050Y0025104D01*
X0065667Y0025721D01*
X0063198Y0028190D01*
X0063198Y0025721D01*
X0063815Y0025104D01*
X0065667Y0025721D02*
X0065667Y0028190D01*
X0065050Y0028807D01*
X0063815Y0028807D01*
X0063198Y0028190D01*
X0061984Y0028190D02*
X0061984Y0027573D01*
X0061367Y0026956D01*
X0060749Y0026956D01*
X0060132Y0027573D01*
X0060132Y0028190D01*
X0060749Y0028807D01*
X0061367Y0028807D01*
X0061984Y0028190D01*
X0066881Y0026956D02*
X0069350Y0026956D01*
X0067499Y0028807D01*
X0067499Y0025104D01*
X0070564Y0026956D02*
X0073033Y0026956D01*
X0074254Y0028807D02*
X0075489Y0027573D01*
X0075489Y0026339D01*
X0074254Y0025104D01*
X0072416Y0022190D02*
X0072416Y0019721D01*
X0071799Y0019104D01*
X0070578Y0019104D02*
X0070578Y0019721D01*
X0069961Y0019721D01*
X0069961Y0019104D01*
X0070578Y0019104D01*
X0070578Y0020956D02*
X0070578Y0021573D01*
X0069961Y0021573D01*
X0069961Y0020956D01*
X0070578Y0020956D01*
X0071799Y0021573D02*
X0073033Y0021573D01*
X0074248Y0020956D02*
X0074248Y0019104D01*
X0074248Y0020956D02*
X0074865Y0021573D01*
X0076716Y0021573D01*
X0076716Y0019104D01*
X0077937Y0019104D02*
X0079172Y0019104D01*
X0078555Y0019104D02*
X0078555Y0021573D01*
X0079172Y0021573D01*
X0080390Y0021573D02*
X0081007Y0021573D01*
X0082241Y0020339D01*
X0082241Y0021573D02*
X0082241Y0019104D01*
X0083455Y0019721D02*
X0083455Y0020956D01*
X0084073Y0021573D01*
X0085924Y0021573D01*
X0085924Y0017870D01*
X0085924Y0019104D02*
X0084073Y0019104D01*
X0083455Y0019721D01*
X0087145Y0019104D02*
X0087763Y0019721D01*
X0087763Y0022190D01*
X0088380Y0021573D02*
X0087145Y0021573D01*
X0087145Y0023870D02*
X0086528Y0023870D01*
X0085911Y0024487D01*
X0085911Y0027573D01*
X0087763Y0027573D01*
X0088380Y0026956D01*
X0088380Y0025721D01*
X0087763Y0025104D01*
X0085911Y0025104D01*
X0084697Y0025721D02*
X0084697Y0026956D01*
X0084079Y0027573D01*
X0082845Y0027573D01*
X0082228Y0026956D01*
X0082228Y0026339D01*
X0084697Y0026339D01*
X0084697Y0025721D02*
X0084079Y0025104D01*
X0082845Y0025104D01*
X0081013Y0025104D02*
X0081013Y0025721D01*
X0080396Y0025721D01*
X0080396Y0025104D01*
X0081013Y0025104D01*
X0081013Y0026956D02*
X0080396Y0026956D01*
X0080396Y0027573D01*
X0081013Y0027573D01*
X0081013Y0026956D01*
X0081621Y0031104D02*
X0082855Y0031104D01*
X0082238Y0031104D02*
X0082238Y0034807D01*
X0082855Y0034807D02*
X0081621Y0034807D01*
X0080400Y0034190D02*
X0079782Y0034807D01*
X0078548Y0034807D01*
X0077931Y0034190D01*
X0077931Y0033573D01*
X0080400Y0031104D01*
X0077931Y0031104D01*
X0076716Y0031721D02*
X0076099Y0031104D01*
X0074865Y0031104D01*
X0074248Y0031721D01*
X0076716Y0031721D02*
X0076716Y0034190D01*
X0076099Y0034807D01*
X0074865Y0034807D01*
X0074248Y0034190D01*
X0073637Y0037104D02*
X0074872Y0037104D01*
X0075489Y0037721D01*
X0075489Y0038956D01*
X0074872Y0039573D01*
X0073637Y0039573D01*
X0073020Y0038956D01*
X0073020Y0038339D01*
X0075489Y0038339D01*
X0076703Y0038339D02*
X0076703Y0037721D01*
X0077320Y0037104D01*
X0078555Y0037104D01*
X0079172Y0037721D01*
X0078555Y0038956D02*
X0077320Y0038956D01*
X0076703Y0038339D01*
X0076703Y0040190D02*
X0077320Y0040807D01*
X0078555Y0040807D01*
X0079172Y0040190D01*
X0079172Y0039573D01*
X0078555Y0038956D01*
X0077941Y0043104D02*
X0076706Y0043104D01*
X0076089Y0043721D01*
X0076089Y0044956D01*
X0076706Y0045573D01*
X0077941Y0045573D01*
X0078558Y0044956D01*
X0078558Y0043721D01*
X0077941Y0043104D01*
X0079772Y0043721D02*
X0079772Y0044956D01*
X0080390Y0045573D01*
X0082241Y0045573D01*
X0083459Y0045573D02*
X0085310Y0044339D01*
X0083459Y0043104D01*
X0082241Y0043104D02*
X0080390Y0043104D01*
X0079772Y0043721D01*
X0082241Y0043104D02*
X0082241Y0046807D01*
X0085310Y0046807D02*
X0085310Y0043104D01*
X0086525Y0043104D02*
X0088376Y0043104D01*
X0088994Y0043721D01*
X0088376Y0044339D01*
X0086525Y0044339D01*
X0086525Y0044956D02*
X0086525Y0043104D01*
X0086525Y0044956D02*
X0087142Y0045573D01*
X0088376Y0045573D01*
X0090208Y0044956D02*
X0090208Y0044339D01*
X0092677Y0044339D01*
X0092677Y0044956D02*
X0092677Y0043721D01*
X0092060Y0043104D01*
X0090825Y0043104D01*
X0090208Y0044956D02*
X0090825Y0045573D01*
X0092060Y0045573D01*
X0092677Y0044956D01*
X0093894Y0045573D02*
X0094512Y0045573D01*
X0095746Y0044339D01*
X0096960Y0044339D02*
X0097578Y0044956D01*
X0099429Y0044956D01*
X0099429Y0046807D02*
X0097578Y0046807D01*
X0096960Y0046190D01*
X0096960Y0045573D01*
X0097578Y0044956D01*
X0096960Y0044339D02*
X0096960Y0043721D01*
X0097578Y0043104D01*
X0099429Y0043104D01*
X0099429Y0046807D01*
X0095746Y0045573D02*
X0095746Y0043104D01*
X0096960Y0040807D02*
X0099429Y0040807D01*
X0098195Y0040807D02*
X0098195Y0037104D01*
X0097578Y0034807D02*
X0096960Y0034190D01*
X0096960Y0033573D01*
X0097578Y0032956D01*
X0099429Y0032956D01*
X0099429Y0034807D02*
X0097578Y0034807D01*
X0095746Y0033573D02*
X0095746Y0031721D01*
X0095129Y0031104D01*
X0093277Y0031104D01*
X0093277Y0033573D01*
X0092063Y0032956D02*
X0091446Y0033573D01*
X0089594Y0033573D01*
X0088380Y0033573D02*
X0088380Y0032956D01*
X0087763Y0032956D01*
X0087763Y0033573D01*
X0088380Y0033573D01*
X0088380Y0031721D02*
X0087763Y0031721D01*
X0087763Y0031104D01*
X0088380Y0031104D01*
X0088380Y0031721D01*
X0089594Y0031721D02*
X0090211Y0032339D01*
X0091446Y0032339D01*
X0092063Y0032956D01*
X0092063Y0031104D02*
X0090211Y0031104D01*
X0089594Y0031721D01*
X0090211Y0027573D02*
X0089594Y0026956D01*
X0089594Y0025104D01*
X0092063Y0025104D02*
X0092063Y0027573D01*
X0090211Y0027573D01*
X0093277Y0026956D02*
X0093277Y0025104D01*
X0095129Y0025104D01*
X0095746Y0025721D01*
X0095129Y0026339D01*
X0093277Y0026339D01*
X0093277Y0026956D02*
X0093894Y0027573D01*
X0095129Y0027573D01*
X0096960Y0028190D02*
X0096960Y0026956D01*
X0097578Y0026339D01*
X0099429Y0026339D01*
X0098195Y0026339D02*
X0096960Y0025104D01*
X0096960Y0022807D02*
X0099429Y0022807D01*
X0099429Y0019104D01*
X0099429Y0020956D02*
X0098195Y0020956D01*
X0095746Y0020956D02*
X0095746Y0019721D01*
X0095129Y0019104D01*
X0093894Y0019104D01*
X0093277Y0019721D01*
X0093277Y0020956D01*
X0093894Y0021573D01*
X0095129Y0021573D01*
X0095746Y0020956D01*
X0092063Y0020956D02*
X0092063Y0019721D01*
X0091446Y0019104D01*
X0090211Y0019104D01*
X0089594Y0019721D01*
X0089594Y0020956D01*
X0090211Y0021573D01*
X0091446Y0021573D01*
X0092063Y0020956D01*
X0099429Y0025104D02*
X0099429Y0028807D01*
X0097578Y0028807D01*
X0096960Y0028190D01*
X0097578Y0031104D02*
X0099429Y0031104D01*
X0099429Y0034807D01*
X0097578Y0032956D02*
X0096960Y0032339D01*
X0096960Y0031721D01*
X0097578Y0031104D01*
X0095129Y0037104D02*
X0093894Y0037104D01*
X0095129Y0037104D02*
X0095746Y0037721D01*
X0095746Y0038956D01*
X0095129Y0039573D01*
X0093894Y0039573D01*
X0093277Y0038956D01*
X0093277Y0038339D01*
X0095746Y0038339D01*
X0092063Y0037104D02*
X0092063Y0039573D01*
X0091446Y0039573D01*
X0090828Y0038956D01*
X0090211Y0039573D01*
X0089594Y0038956D01*
X0089594Y0037104D01*
X0088380Y0037104D02*
X0086528Y0037104D01*
X0085911Y0037721D01*
X0085911Y0038956D01*
X0086528Y0039573D01*
X0088380Y0039573D01*
X0088380Y0035870D01*
X0090828Y0037104D02*
X0090828Y0038956D01*
X0084697Y0037721D02*
X0084079Y0037721D01*
X0084079Y0037104D01*
X0084697Y0037104D01*
X0084697Y0037721D01*
X0074875Y0043721D02*
X0074258Y0043104D01*
X0072406Y0043104D01*
X0072406Y0044956D01*
X0073023Y0045573D01*
X0074258Y0045573D01*
X0074258Y0044339D02*
X0072406Y0044339D01*
X0071192Y0044339D02*
X0069957Y0045573D01*
X0069340Y0045573D01*
X0068122Y0044956D02*
X0068122Y0043721D01*
X0067505Y0043104D01*
X0065654Y0043104D01*
X0065654Y0046807D01*
X0065654Y0045573D02*
X0067505Y0045573D01*
X0068122Y0044956D01*
X0071192Y0045573D02*
X0071192Y0043104D01*
X0074258Y0044339D02*
X0074875Y0043721D01*
X0071806Y0039573D02*
X0069954Y0039573D01*
X0069337Y0038956D01*
X0069337Y0037104D01*
X0068122Y0037104D02*
X0066271Y0037104D01*
X0065654Y0037721D01*
X0066271Y0038339D01*
X0067505Y0038339D01*
X0068122Y0038956D01*
X0067505Y0039573D01*
X0065654Y0039573D01*
X0064439Y0038956D02*
X0064439Y0037721D01*
X0063822Y0037104D01*
X0062588Y0037104D01*
X0061970Y0037721D01*
X0061970Y0038956D01*
X0062588Y0039573D01*
X0063822Y0039573D01*
X0064439Y0038956D01*
X0060756Y0039573D02*
X0060756Y0037104D01*
X0060756Y0038339D02*
X0059522Y0039573D01*
X0058905Y0039573D01*
X0054004Y0040807D02*
X0054004Y0037104D01*
X0051535Y0037104D02*
X0051535Y0040807D01*
X0052769Y0039573D01*
X0054004Y0040807D01*
X0050321Y0040190D02*
X0050321Y0037721D01*
X0049703Y0037104D01*
X0048469Y0037104D01*
X0047852Y0037721D01*
X0046637Y0037104D02*
X0046637Y0040807D01*
X0044786Y0040807D01*
X0044169Y0040190D01*
X0044169Y0038956D01*
X0044786Y0038339D01*
X0046637Y0038339D01*
X0047852Y0040190D02*
X0048469Y0040807D01*
X0049703Y0040807D01*
X0050321Y0040190D01*
X0042954Y0040190D02*
X0042954Y0039573D01*
X0042337Y0038956D01*
X0040485Y0038956D01*
X0040485Y0040190D02*
X0040485Y0037721D01*
X0041103Y0037104D01*
X0042337Y0037104D01*
X0042954Y0037721D01*
X0042954Y0040190D02*
X0042337Y0040807D01*
X0041103Y0040807D01*
X0040485Y0040190D01*
X0039271Y0040190D02*
X0038654Y0040807D01*
X0037420Y0040807D01*
X0036802Y0040190D01*
X0036802Y0039573D01*
X0037420Y0038956D01*
X0038654Y0038956D01*
X0039271Y0039573D01*
X0039271Y0040190D01*
X0038654Y0038956D02*
X0039271Y0038339D01*
X0039271Y0037721D01*
X0038654Y0037104D01*
X0037420Y0037104D01*
X0036802Y0037721D01*
X0036802Y0038339D01*
X0037420Y0038956D01*
X0035588Y0040190D02*
X0035588Y0037721D01*
X0033119Y0040190D01*
X0033119Y0037721D01*
X0033736Y0037104D01*
X0034971Y0037104D01*
X0035588Y0037721D01*
X0035588Y0040190D02*
X0034971Y0040807D01*
X0033736Y0040807D01*
X0033119Y0040190D01*
X0031905Y0040190D02*
X0031288Y0040807D01*
X0030053Y0040807D01*
X0029436Y0040190D01*
X0029436Y0039573D01*
X0030053Y0038956D01*
X0031288Y0038956D01*
X0031905Y0039573D01*
X0031905Y0040190D01*
X0031288Y0038956D02*
X0031905Y0038339D01*
X0031905Y0037721D01*
X0031288Y0037104D01*
X0030053Y0037104D01*
X0029436Y0037721D01*
X0029436Y0038339D01*
X0030053Y0038956D01*
X0040492Y0028807D02*
X0041727Y0027573D01*
X0038043Y0025104D02*
X0035575Y0027573D01*
X0035575Y0025104D02*
X0038043Y0025104D01*
X0050307Y0025721D02*
X0050307Y0026956D01*
X0050924Y0027573D01*
X0052159Y0027573D01*
X0052776Y0026956D01*
X0052776Y0025721D01*
X0052159Y0025104D01*
X0050924Y0025104D01*
X0050307Y0025721D01*
X0053997Y0025104D02*
X0054614Y0025721D01*
X0054614Y0028190D01*
X0055231Y0027573D02*
X0053997Y0027573D01*
X0063822Y0043104D02*
X0064439Y0043104D01*
X0064439Y0043721D01*
X0063822Y0043721D01*
X0063822Y0043104D01*
X0063822Y0044956D02*
X0064439Y0044956D01*
X0064439Y0045573D01*
X0063822Y0045573D01*
X0063822Y0044956D01*
X0071806Y0039573D02*
X0071806Y0037104D01*
X0078555Y0023424D02*
X0078555Y0022807D01*
X0047858Y0084120D02*
X0047241Y0084120D01*
X0046624Y0084737D01*
X0046624Y0087823D01*
X0048476Y0087823D01*
X0049093Y0087206D01*
X0049093Y0085971D01*
X0048476Y0085354D01*
X0046624Y0085354D01*
X0050307Y0085354D02*
X0050307Y0087206D01*
X0050924Y0087823D01*
X0052776Y0087823D01*
X0052776Y0085354D01*
X0053997Y0085354D02*
X0055231Y0085354D01*
X0054614Y0085354D02*
X0054614Y0087823D01*
X0055231Y0087823D01*
X0056449Y0087823D02*
X0057066Y0087823D01*
X0058301Y0086589D01*
X0058301Y0087823D02*
X0058301Y0085354D01*
X0059515Y0085971D02*
X0059515Y0087206D01*
X0060132Y0087823D01*
X0061367Y0087823D01*
X0061984Y0087206D01*
X0061984Y0085971D01*
X0061367Y0085354D01*
X0060132Y0085354D01*
X0059515Y0085971D01*
X0063205Y0085354D02*
X0063822Y0085971D01*
X0063822Y0088440D01*
X0064439Y0087823D02*
X0063205Y0087823D01*
X0066278Y0087823D02*
X0066278Y0085354D01*
X0066895Y0085354D02*
X0065660Y0085354D01*
X0068109Y0085354D02*
X0068109Y0087206D01*
X0068726Y0087823D01*
X0070578Y0087823D01*
X0070578Y0085354D01*
X0071792Y0085971D02*
X0071792Y0087206D01*
X0072409Y0087823D01*
X0073644Y0087823D01*
X0074261Y0087206D01*
X0074261Y0085971D01*
X0073644Y0085354D01*
X0072409Y0085354D01*
X0071792Y0085971D01*
X0075475Y0085354D02*
X0075475Y0089057D01*
X0076710Y0087823D01*
X0077944Y0089057D01*
X0077944Y0085354D01*
X0079162Y0087823D02*
X0079779Y0087823D01*
X0081013Y0086589D01*
X0081013Y0087823D02*
X0081013Y0085354D01*
X0082228Y0085971D02*
X0082228Y0087206D01*
X0082845Y0087823D01*
X0084079Y0087823D01*
X0084697Y0087206D01*
X0084697Y0085971D01*
X0084079Y0085354D01*
X0082845Y0085354D01*
X0082228Y0085971D01*
X0085911Y0085971D02*
X0086528Y0086589D01*
X0087763Y0086589D01*
X0088380Y0087206D01*
X0087763Y0087823D01*
X0085911Y0087823D01*
X0085911Y0085971D02*
X0086528Y0085354D01*
X0088380Y0085354D01*
X0089594Y0085354D02*
X0089594Y0087206D01*
X0090211Y0087823D01*
X0092063Y0087823D01*
X0092063Y0085354D01*
X0093277Y0086589D02*
X0095746Y0086589D01*
X0095746Y0087206D02*
X0095129Y0087823D01*
X0093894Y0087823D01*
X0093277Y0087206D01*
X0093277Y0086589D01*
X0093894Y0085354D02*
X0095129Y0085354D01*
X0095746Y0085971D01*
X0095746Y0087206D01*
X0096960Y0086589D02*
X0096960Y0085971D01*
X0097578Y0085354D01*
X0098812Y0085354D01*
X0099429Y0085971D01*
X0098812Y0087206D02*
X0097578Y0087206D01*
X0096960Y0086589D01*
X0096960Y0088440D02*
X0097578Y0089057D01*
X0098812Y0089057D01*
X0099429Y0088440D01*
X0099429Y0087823D01*
X0098812Y0087206D01*
X0098195Y0090120D02*
X0097578Y0090120D01*
X0096960Y0090737D01*
X0096960Y0093823D01*
X0098812Y0093823D01*
X0099429Y0093206D01*
X0099429Y0091971D01*
X0098812Y0091354D01*
X0096960Y0091354D01*
X0095746Y0091354D02*
X0094512Y0091354D01*
X0095129Y0091354D02*
X0095129Y0093823D01*
X0095746Y0093823D01*
X0095129Y0095057D02*
X0095129Y0095674D01*
X0093291Y0093823D02*
X0092056Y0093823D01*
X0092673Y0094440D02*
X0092673Y0091971D01*
X0092056Y0091354D01*
X0090835Y0091354D02*
X0090835Y0095057D01*
X0090218Y0093823D02*
X0088984Y0093823D01*
X0088366Y0093206D01*
X0088366Y0091354D01*
X0087152Y0091971D02*
X0086535Y0091354D01*
X0084683Y0091354D01*
X0084683Y0093823D01*
X0083469Y0093823D02*
X0081617Y0093823D01*
X0081000Y0093206D01*
X0081000Y0091971D01*
X0081617Y0091354D01*
X0083469Y0091354D01*
X0083469Y0095057D01*
X0079786Y0091971D02*
X0079169Y0091971D01*
X0079169Y0091354D01*
X0079786Y0091354D01*
X0079786Y0091971D01*
X0077944Y0091971D02*
X0077327Y0091354D01*
X0075475Y0091354D01*
X0074261Y0091971D02*
X0073644Y0091354D01*
X0072409Y0091354D01*
X0071792Y0091971D01*
X0071792Y0093206D01*
X0072409Y0093823D01*
X0073644Y0093823D01*
X0074261Y0093206D01*
X0074261Y0091971D01*
X0075475Y0093823D02*
X0077327Y0093823D01*
X0077944Y0093206D01*
X0077944Y0091971D01*
X0070578Y0091354D02*
X0070578Y0093823D01*
X0069961Y0093823D01*
X0069343Y0093206D01*
X0068726Y0093823D01*
X0068109Y0093206D01*
X0068109Y0091354D01*
X0066895Y0091354D02*
X0064426Y0095057D01*
X0063212Y0095057D02*
X0060743Y0091354D01*
X0060743Y0095057D01*
X0059528Y0093823D02*
X0058911Y0093823D01*
X0058911Y0091354D01*
X0059528Y0091354D02*
X0058294Y0091354D01*
X0057073Y0091971D02*
X0056456Y0091354D01*
X0054604Y0091354D01*
X0053390Y0091971D02*
X0052773Y0091354D01*
X0051538Y0091354D01*
X0050921Y0091971D01*
X0050921Y0093206D01*
X0051538Y0093823D01*
X0052773Y0093823D01*
X0053390Y0093206D01*
X0053390Y0091971D01*
X0054604Y0093823D02*
X0056456Y0093823D01*
X0057073Y0093206D01*
X0057073Y0091971D01*
X0054614Y0089674D02*
X0054614Y0089057D01*
X0049707Y0091354D02*
X0047238Y0091354D01*
X0046024Y0091971D02*
X0046024Y0093206D01*
X0045406Y0093823D01*
X0044172Y0093823D01*
X0043555Y0093206D01*
X0043555Y0092589D01*
X0046024Y0092589D01*
X0046024Y0091971D02*
X0045406Y0091354D01*
X0044172Y0091354D01*
X0042340Y0091354D02*
X0041106Y0091354D01*
X0041723Y0091354D02*
X0041723Y0095057D01*
X0042340Y0095057D01*
X0039885Y0095057D02*
X0039268Y0095057D01*
X0039268Y0091354D01*
X0039885Y0091354D02*
X0038651Y0091354D01*
X0037430Y0091354D02*
X0036195Y0091354D01*
X0036812Y0091354D02*
X0036812Y0093823D01*
X0037430Y0093823D01*
X0036812Y0095057D02*
X0036812Y0095674D01*
X0034974Y0093823D02*
X0033123Y0093823D01*
X0032505Y0093206D01*
X0032505Y0091354D01*
X0031291Y0091971D02*
X0030674Y0091354D01*
X0028822Y0091354D01*
X0028822Y0090737D02*
X0028822Y0093823D01*
X0030674Y0093823D01*
X0031291Y0093206D01*
X0031291Y0091971D01*
X0030057Y0090120D02*
X0029439Y0090120D01*
X0028822Y0090737D01*
X0027608Y0091971D02*
X0027608Y0093206D01*
X0026991Y0093823D01*
X0025756Y0093823D01*
X0025139Y0093206D01*
X0025139Y0092589D01*
X0027608Y0092589D01*
X0027608Y0091971D02*
X0026991Y0091354D01*
X0025756Y0091354D01*
X0023925Y0091354D02*
X0023925Y0093823D01*
X0023925Y0092589D02*
X0022690Y0093823D01*
X0022073Y0093823D01*
X0020855Y0091354D02*
X0018387Y0095057D01*
X0034974Y0093823D02*
X0034974Y0091354D01*
X0047238Y0094440D02*
X0049707Y0091971D01*
X0049707Y0091354D01*
X0047238Y0094440D02*
X0047238Y0095057D01*
X0049707Y0095057D01*
X0058911Y0095057D02*
X0058911Y0095674D01*
X0063212Y0095057D02*
X0063212Y0091354D01*
X0066278Y0089674D02*
X0066278Y0089057D01*
X0066278Y0087823D02*
X0066895Y0087823D01*
X0069343Y0091354D02*
X0069343Y0093206D01*
X0087152Y0093823D02*
X0087152Y0091971D01*
X0090218Y0093823D02*
X0090835Y0093206D01*
D12*
X0105829Y0005829D02*
X0005829Y0005829D01*
X0005829Y0105829D01*
X0105829Y0105829D01*
X0105829Y0005829D01*
M02*
