G75*
%MOIN*%
%OFA0B0*%
%FSLAX25Y25*%
%IPPOS*%
%LPD*%
%AMOC8*
5,1,8,0,0,1.08239X$1,22.5*
%
%ADD10C,0.00000*%
%ADD11R,0.01800X0.06000*%
%ADD12R,0.05118X0.05906*%
%ADD13C,0.00500*%
%ADD14C,0.08858*%
%ADD15C,0.01000*%
%ADD16C,0.03962*%
D10*
X0005829Y0005829D02*
X0005829Y0105790D01*
X0105829Y0105829D01*
X0105829Y0005829D01*
X0005829Y0005829D01*
D11*
X0052029Y0047829D03*
X0054529Y0047829D03*
X0057129Y0047829D03*
X0059629Y0047829D03*
X0059629Y0063829D03*
X0057129Y0063829D03*
X0054529Y0063829D03*
X0052029Y0063829D03*
D12*
X0025194Y0060829D03*
X0017714Y0060829D03*
X0017714Y0075829D03*
X0025194Y0075829D03*
D13*
X0005829Y0005829D02*
X0105829Y0005829D01*
X0105829Y0105829D01*
X0005829Y0105829D01*
X0005829Y0005829D01*
D14*
X0005829Y0015829D03*
X0005829Y0030829D03*
X0005829Y0045829D03*
X0005829Y0060829D03*
X0005829Y0075829D03*
X0005829Y0090829D03*
X0020829Y0105829D03*
X0035829Y0105829D03*
X0050829Y0105829D03*
X0065829Y0105829D03*
X0080829Y0105829D03*
X0095829Y0105829D03*
X0095829Y0005829D03*
X0080829Y0005829D03*
X0065829Y0005829D03*
X0050829Y0005829D03*
X0035829Y0005829D03*
X0020829Y0005829D03*
D15*
X0011285Y0017629D02*
X0010686Y0019074D01*
X0010579Y0019181D01*
X0010579Y0027280D01*
X0010900Y0027722D01*
X0011324Y0028553D01*
X0011612Y0029441D01*
X0011753Y0030329D01*
X0010579Y0030329D01*
X0010579Y0031329D01*
X0011753Y0031329D01*
X0011612Y0032218D01*
X0011324Y0033105D01*
X0010900Y0033937D01*
X0010579Y0034379D01*
X0010579Y0042477D01*
X0010686Y0042584D01*
X0011285Y0044029D01*
X0022200Y0044029D01*
X0028450Y0050279D01*
X0029075Y0050904D01*
X0049629Y0050904D01*
X0049629Y0047829D01*
X0049629Y0044632D01*
X0049731Y0044250D01*
X0049929Y0043908D01*
X0050208Y0043629D01*
X0050550Y0043431D01*
X0050932Y0043329D01*
X0052029Y0043329D01*
X0052029Y0047829D01*
X0052029Y0047829D01*
X0049629Y0047829D01*
X0052029Y0047829D01*
X0052029Y0047829D01*
X0052079Y0047779D01*
X0052079Y0039579D01*
X0043329Y0030829D01*
X0005829Y0030829D01*
X0010579Y0030792D02*
X0056371Y0030792D01*
X0055373Y0029793D02*
X0011668Y0029793D01*
X0011402Y0028795D02*
X0054374Y0028795D01*
X0053376Y0027796D02*
X0010938Y0027796D01*
X0010579Y0026798D02*
X0052377Y0026798D01*
X0051379Y0025799D02*
X0010579Y0025799D01*
X0010579Y0024801D02*
X0050380Y0024801D01*
X0049382Y0023802D02*
X0010579Y0023802D01*
X0010579Y0022804D02*
X0048383Y0022804D01*
X0047385Y0021805D02*
X0010579Y0021805D01*
X0010579Y0020807D02*
X0046386Y0020807D01*
X0045388Y0019808D02*
X0010579Y0019808D01*
X0010796Y0018810D02*
X0044389Y0018810D01*
X0043391Y0017811D02*
X0011209Y0017811D01*
X0011285Y0017629D02*
X0043209Y0017629D01*
X0062154Y0036575D01*
X0062154Y0050084D01*
X0061829Y0050409D01*
X0061829Y0044291D01*
X0061068Y0043529D01*
X0058777Y0043529D01*
X0058608Y0043431D01*
X0058227Y0043329D01*
X0057129Y0043329D01*
X0057129Y0047829D01*
X0057129Y0047829D01*
X0054729Y0047829D01*
X0054529Y0047829D01*
X0054529Y0047829D01*
X0054529Y0043329D01*
X0053432Y0043329D01*
X0053279Y0043370D01*
X0053127Y0043329D01*
X0052029Y0043329D01*
X0052029Y0047829D01*
X0052029Y0047829D01*
X0052129Y0047829D01*
X0054529Y0047829D01*
X0054529Y0047829D01*
X0054529Y0043329D01*
X0055627Y0043329D01*
X0055829Y0043383D01*
X0056032Y0043329D01*
X0057129Y0043329D01*
X0057129Y0047829D01*
X0057129Y0047829D01*
X0054529Y0047829D01*
X0052029Y0047829D01*
X0052029Y0047767D02*
X0052029Y0047767D01*
X0052029Y0046768D02*
X0052029Y0046768D01*
X0052029Y0045770D02*
X0052029Y0045770D01*
X0052029Y0044771D02*
X0052029Y0044771D01*
X0052029Y0043773D02*
X0052029Y0043773D01*
X0050064Y0043773D02*
X0011178Y0043773D01*
X0010765Y0042774D02*
X0062154Y0042774D01*
X0062154Y0041776D02*
X0010579Y0041776D01*
X0010579Y0040777D02*
X0062154Y0040777D01*
X0062154Y0039779D02*
X0010579Y0039779D01*
X0010579Y0038780D02*
X0062154Y0038780D01*
X0062154Y0037781D02*
X0010579Y0037781D01*
X0010579Y0036783D02*
X0062154Y0036783D01*
X0061364Y0035784D02*
X0010579Y0035784D01*
X0010579Y0034786D02*
X0060365Y0034786D01*
X0059367Y0033787D02*
X0010976Y0033787D01*
X0011427Y0032789D02*
X0058368Y0032789D01*
X0057370Y0031790D02*
X0011680Y0031790D01*
X0022942Y0044771D02*
X0049629Y0044771D01*
X0049629Y0045770D02*
X0023940Y0045770D01*
X0024939Y0046768D02*
X0049629Y0046768D01*
X0049629Y0047767D02*
X0025937Y0047767D01*
X0026936Y0048765D02*
X0049629Y0048765D01*
X0049629Y0049764D02*
X0027934Y0049764D01*
X0028933Y0050762D02*
X0049629Y0050762D01*
X0054529Y0047829D02*
X0054529Y0047829D01*
X0054529Y0047767D02*
X0054529Y0047767D01*
X0054529Y0046768D02*
X0054529Y0046768D01*
X0054529Y0045770D02*
X0054529Y0045770D01*
X0054529Y0044771D02*
X0054529Y0044771D01*
X0054529Y0043773D02*
X0054529Y0043773D01*
X0057129Y0043773D02*
X0057129Y0043773D01*
X0057129Y0044771D02*
X0057129Y0044771D01*
X0057129Y0045770D02*
X0057129Y0045770D01*
X0057129Y0046768D02*
X0057129Y0046768D01*
X0057129Y0047767D02*
X0057129Y0047767D01*
X0059629Y0047829D02*
X0059629Y0052654D01*
X0059579Y0052704D01*
X0028329Y0052704D01*
X0027704Y0052079D01*
X0025194Y0054589D01*
X0025194Y0060829D01*
X0025194Y0075829D01*
X0017714Y0075829D02*
X0005829Y0075829D01*
X0005829Y0060829D02*
X0017714Y0060829D01*
X0017714Y0055214D01*
X0017704Y0055204D01*
X0015204Y0052704D01*
X0021454Y0045829D02*
X0027704Y0052079D01*
X0021454Y0045829D02*
X0005829Y0045829D01*
X0017704Y0060819D02*
X0017714Y0060829D01*
X0052029Y0063829D02*
X0052029Y0055879D01*
X0052079Y0055829D01*
X0058954Y0055829D01*
X0063954Y0050829D01*
X0063954Y0035829D01*
X0043954Y0015829D01*
X0005829Y0015829D01*
X0054529Y0063829D02*
X0054529Y0094529D01*
X0065829Y0105829D01*
X0060204Y0075829D02*
X0057129Y0072754D01*
X0057129Y0063829D01*
X0059629Y0063829D02*
X0059629Y0060154D01*
X0067079Y0052704D01*
X0062154Y0049764D02*
X0061829Y0049764D01*
X0061829Y0048765D02*
X0062154Y0048765D01*
X0062154Y0047767D02*
X0061829Y0047767D01*
X0061829Y0046768D02*
X0062154Y0046768D01*
X0062154Y0045770D02*
X0061829Y0045770D01*
X0061829Y0044771D02*
X0062154Y0044771D01*
X0062154Y0043773D02*
X0061311Y0043773D01*
D16*
X0067079Y0052704D03*
X0060204Y0075829D03*
X0015204Y0052704D03*
M02*
