G75*
%MOIN*%
%OFA0B0*%
%FSLAX25Y25*%
%IPPOS*%
%LPD*%
%AMOC8*
5,1,8,0,0,1.08239X$1,22.5*
%
%ADD10C,0.00000*%
%ADD11C,0.00400*%
%ADD12C,0.00600*%
%ADD13C,0.00500*%
%ADD14C,0.00800*%
D10*
X0003211Y0011500D02*
X0003211Y0247406D01*
X0003214Y0247648D01*
X0003223Y0247889D01*
X0003237Y0248130D01*
X0003258Y0248371D01*
X0003284Y0248611D01*
X0003316Y0248851D01*
X0003354Y0249090D01*
X0003397Y0249327D01*
X0003447Y0249564D01*
X0003502Y0249799D01*
X0003562Y0250033D01*
X0003629Y0250265D01*
X0003700Y0250496D01*
X0003778Y0250725D01*
X0003861Y0250952D01*
X0003949Y0251177D01*
X0004043Y0251400D01*
X0004142Y0251620D01*
X0004247Y0251838D01*
X0004356Y0252053D01*
X0004471Y0252266D01*
X0004591Y0252476D01*
X0004716Y0252682D01*
X0004846Y0252886D01*
X0004981Y0253087D01*
X0005121Y0253284D01*
X0005265Y0253478D01*
X0005414Y0253668D01*
X0005568Y0253854D01*
X0005726Y0254037D01*
X0005888Y0254216D01*
X0006055Y0254391D01*
X0006226Y0254562D01*
X0006401Y0254729D01*
X0006580Y0254891D01*
X0006763Y0255049D01*
X0006949Y0255203D01*
X0007139Y0255352D01*
X0007333Y0255496D01*
X0007530Y0255636D01*
X0007731Y0255771D01*
X0007935Y0255901D01*
X0008141Y0256026D01*
X0008351Y0256146D01*
X0008564Y0256261D01*
X0008779Y0256370D01*
X0008997Y0256475D01*
X0009217Y0256574D01*
X0009440Y0256668D01*
X0009665Y0256756D01*
X0009892Y0256839D01*
X0010121Y0256917D01*
X0010352Y0256988D01*
X0010584Y0257055D01*
X0010818Y0257115D01*
X0011053Y0257170D01*
X0011290Y0257220D01*
X0011527Y0257263D01*
X0011766Y0257301D01*
X0012006Y0257333D01*
X0012246Y0257359D01*
X0012487Y0257380D01*
X0012728Y0257394D01*
X0012969Y0257403D01*
X0013211Y0257406D01*
X0138880Y0257406D01*
X0139122Y0257403D01*
X0139363Y0257394D01*
X0139604Y0257380D01*
X0139845Y0257359D01*
X0140085Y0257333D01*
X0140325Y0257301D01*
X0140564Y0257263D01*
X0140801Y0257220D01*
X0141038Y0257170D01*
X0141273Y0257115D01*
X0141507Y0257055D01*
X0141739Y0256988D01*
X0141970Y0256917D01*
X0142199Y0256839D01*
X0142426Y0256756D01*
X0142651Y0256668D01*
X0142874Y0256574D01*
X0143094Y0256475D01*
X0143312Y0256370D01*
X0143527Y0256261D01*
X0143740Y0256146D01*
X0143950Y0256026D01*
X0144156Y0255901D01*
X0144360Y0255771D01*
X0144561Y0255636D01*
X0144758Y0255496D01*
X0144952Y0255352D01*
X0145142Y0255203D01*
X0145328Y0255049D01*
X0145511Y0254891D01*
X0145690Y0254729D01*
X0145865Y0254562D01*
X0146036Y0254391D01*
X0146203Y0254216D01*
X0146365Y0254037D01*
X0146523Y0253854D01*
X0146677Y0253668D01*
X0146826Y0253478D01*
X0146970Y0253284D01*
X0147110Y0253087D01*
X0147245Y0252886D01*
X0147375Y0252682D01*
X0147500Y0252476D01*
X0147620Y0252266D01*
X0147735Y0252053D01*
X0147844Y0251838D01*
X0147949Y0251620D01*
X0148048Y0251400D01*
X0148142Y0251177D01*
X0148230Y0250952D01*
X0148313Y0250725D01*
X0148391Y0250496D01*
X0148462Y0250265D01*
X0148529Y0250033D01*
X0148589Y0249799D01*
X0148644Y0249564D01*
X0148694Y0249327D01*
X0148737Y0249090D01*
X0148775Y0248851D01*
X0148807Y0248611D01*
X0148833Y0248371D01*
X0148854Y0248130D01*
X0148868Y0247889D01*
X0148877Y0247648D01*
X0148880Y0247406D01*
X0148880Y0011500D01*
X0148877Y0011258D01*
X0148868Y0011017D01*
X0148854Y0010776D01*
X0148833Y0010535D01*
X0148807Y0010295D01*
X0148775Y0010055D01*
X0148737Y0009816D01*
X0148694Y0009579D01*
X0148644Y0009342D01*
X0148589Y0009107D01*
X0148529Y0008873D01*
X0148462Y0008641D01*
X0148391Y0008410D01*
X0148313Y0008181D01*
X0148230Y0007954D01*
X0148142Y0007729D01*
X0148048Y0007506D01*
X0147949Y0007286D01*
X0147844Y0007068D01*
X0147735Y0006853D01*
X0147620Y0006640D01*
X0147500Y0006430D01*
X0147375Y0006224D01*
X0147245Y0006020D01*
X0147110Y0005819D01*
X0146970Y0005622D01*
X0146826Y0005428D01*
X0146677Y0005238D01*
X0146523Y0005052D01*
X0146365Y0004869D01*
X0146203Y0004690D01*
X0146036Y0004515D01*
X0145865Y0004344D01*
X0145690Y0004177D01*
X0145511Y0004015D01*
X0145328Y0003857D01*
X0145142Y0003703D01*
X0144952Y0003554D01*
X0144758Y0003410D01*
X0144561Y0003270D01*
X0144360Y0003135D01*
X0144156Y0003005D01*
X0143950Y0002880D01*
X0143740Y0002760D01*
X0143527Y0002645D01*
X0143312Y0002536D01*
X0143094Y0002431D01*
X0142874Y0002332D01*
X0142651Y0002238D01*
X0142426Y0002150D01*
X0142199Y0002067D01*
X0141970Y0001989D01*
X0141739Y0001918D01*
X0141507Y0001851D01*
X0141273Y0001791D01*
X0141038Y0001736D01*
X0140801Y0001686D01*
X0140564Y0001643D01*
X0140325Y0001605D01*
X0140085Y0001573D01*
X0139845Y0001547D01*
X0139604Y0001526D01*
X0139363Y0001512D01*
X0139122Y0001503D01*
X0138880Y0001500D01*
X0013211Y0001500D01*
X0012969Y0001503D01*
X0012728Y0001512D01*
X0012487Y0001526D01*
X0012246Y0001547D01*
X0012006Y0001573D01*
X0011766Y0001605D01*
X0011527Y0001643D01*
X0011290Y0001686D01*
X0011053Y0001736D01*
X0010818Y0001791D01*
X0010584Y0001851D01*
X0010352Y0001918D01*
X0010121Y0001989D01*
X0009892Y0002067D01*
X0009665Y0002150D01*
X0009440Y0002238D01*
X0009217Y0002332D01*
X0008997Y0002431D01*
X0008779Y0002536D01*
X0008564Y0002645D01*
X0008351Y0002760D01*
X0008141Y0002880D01*
X0007935Y0003005D01*
X0007731Y0003135D01*
X0007530Y0003270D01*
X0007333Y0003410D01*
X0007139Y0003554D01*
X0006949Y0003703D01*
X0006763Y0003857D01*
X0006580Y0004015D01*
X0006401Y0004177D01*
X0006226Y0004344D01*
X0006055Y0004515D01*
X0005888Y0004690D01*
X0005726Y0004869D01*
X0005568Y0005052D01*
X0005414Y0005238D01*
X0005265Y0005428D01*
X0005121Y0005622D01*
X0004981Y0005819D01*
X0004846Y0006020D01*
X0004716Y0006224D01*
X0004591Y0006430D01*
X0004471Y0006640D01*
X0004356Y0006853D01*
X0004247Y0007068D01*
X0004142Y0007286D01*
X0004043Y0007506D01*
X0003949Y0007729D01*
X0003861Y0007954D01*
X0003778Y0008181D01*
X0003700Y0008410D01*
X0003629Y0008641D01*
X0003562Y0008873D01*
X0003502Y0009107D01*
X0003447Y0009342D01*
X0003397Y0009579D01*
X0003354Y0009816D01*
X0003316Y0010055D01*
X0003284Y0010295D01*
X0003258Y0010535D01*
X0003237Y0010776D01*
X0003223Y0011017D01*
X0003214Y0011258D01*
X0003211Y0011500D01*
D11*
X0020480Y0036075D02*
X0019713Y0036842D01*
X0019713Y0037610D01*
X0020480Y0038377D01*
X0022015Y0038377D01*
X0022782Y0039144D01*
X0022782Y0039912D01*
X0022015Y0040679D01*
X0020480Y0040679D01*
X0019713Y0039912D01*
X0019713Y0039144D01*
X0020480Y0038377D01*
X0022015Y0038377D02*
X0022782Y0037610D01*
X0022782Y0036842D01*
X0022015Y0036075D01*
X0020480Y0036075D01*
X0024317Y0036842D02*
X0025084Y0036075D01*
X0026619Y0036075D01*
X0027386Y0036842D01*
X0027386Y0039912D01*
X0026619Y0040679D01*
X0025084Y0040679D01*
X0024317Y0039912D01*
X0024317Y0047325D02*
X0025852Y0048860D01*
X0025084Y0048860D02*
X0024317Y0049627D01*
X0024317Y0051162D01*
X0025084Y0051929D01*
X0027386Y0051929D01*
X0027386Y0047325D01*
X0027386Y0048860D02*
X0025084Y0048860D01*
X0022782Y0049627D02*
X0020480Y0049627D01*
X0019713Y0048860D01*
X0019713Y0048092D01*
X0020480Y0047325D01*
X0022015Y0047325D01*
X0022782Y0048092D01*
X0022782Y0049627D01*
X0021248Y0051162D01*
X0019713Y0051929D01*
X0019088Y0058575D02*
X0022157Y0058575D01*
X0020623Y0058575D02*
X0020623Y0063179D01*
X0022157Y0061644D01*
X0023692Y0060877D02*
X0024459Y0060110D01*
X0026761Y0060110D01*
X0025227Y0060110D02*
X0023692Y0058575D01*
X0023692Y0060877D02*
X0023692Y0062412D01*
X0024459Y0063179D01*
X0026761Y0063179D01*
X0026761Y0058575D01*
X0045114Y0060386D02*
X0045114Y0061153D01*
X0045881Y0061921D01*
X0048183Y0061921D01*
X0048183Y0060386D01*
X0047416Y0059619D01*
X0045881Y0059619D01*
X0045114Y0060386D01*
X0046648Y0063455D02*
X0048183Y0061921D01*
X0046648Y0063455D02*
X0045114Y0064223D01*
X0049717Y0064223D02*
X0052787Y0064223D01*
X0051252Y0064223D02*
X0051252Y0059619D01*
X0054321Y0060386D02*
X0055089Y0059619D01*
X0056623Y0059619D01*
X0057391Y0060386D01*
X0057391Y0061153D01*
X0056623Y0061921D01*
X0055089Y0061921D01*
X0054321Y0061153D01*
X0054321Y0060386D01*
X0055089Y0061921D02*
X0054321Y0062688D01*
X0054321Y0063455D01*
X0055089Y0064223D01*
X0056623Y0064223D01*
X0057391Y0063455D01*
X0057391Y0062688D01*
X0056623Y0061921D01*
X0058925Y0063455D02*
X0059693Y0064223D01*
X0061227Y0064223D01*
X0061995Y0063455D01*
X0061995Y0060386D01*
X0061227Y0059619D01*
X0059693Y0059619D01*
X0058925Y0060386D01*
X0063529Y0059619D02*
X0066599Y0059619D01*
X0065064Y0059619D02*
X0065064Y0064223D01*
X0066599Y0062688D01*
X0068133Y0061921D02*
X0068133Y0060386D01*
X0068900Y0059619D01*
X0070435Y0059619D01*
X0071202Y0060386D01*
X0071202Y0061921D02*
X0069668Y0062688D01*
X0068900Y0062688D01*
X0068133Y0061921D01*
X0068133Y0064223D02*
X0071202Y0064223D01*
X0071202Y0061921D01*
X0072737Y0063455D02*
X0072737Y0060386D01*
X0073504Y0059619D01*
X0075039Y0059619D01*
X0075806Y0060386D01*
X0072737Y0063455D01*
X0073504Y0064223D01*
X0075039Y0064223D01*
X0075806Y0063455D01*
X0075806Y0060386D01*
X0077341Y0059619D02*
X0080410Y0059619D01*
X0080410Y0064223D01*
X0081945Y0063455D02*
X0082712Y0064223D01*
X0084247Y0064223D01*
X0085014Y0063455D01*
X0086549Y0063455D02*
X0087316Y0064223D01*
X0088851Y0064223D01*
X0089618Y0063455D01*
X0091153Y0064223D02*
X0091153Y0059619D01*
X0089618Y0060386D02*
X0088851Y0059619D01*
X0087316Y0059619D01*
X0086549Y0060386D01*
X0086549Y0061153D01*
X0087316Y0061921D01*
X0088084Y0061921D01*
X0087316Y0061921D02*
X0086549Y0062688D01*
X0086549Y0063455D01*
X0085014Y0059619D02*
X0081945Y0062688D01*
X0081945Y0063455D01*
X0081945Y0059619D02*
X0085014Y0059619D01*
X0091153Y0064223D02*
X0092687Y0062688D01*
X0094222Y0064223D01*
X0094222Y0059619D01*
X0097291Y0059619D02*
X0097291Y0064223D01*
X0095757Y0064223D02*
X0098826Y0064223D01*
X0100361Y0063455D02*
X0101128Y0064223D01*
X0102663Y0064223D01*
X0103430Y0063455D01*
X0103430Y0062688D01*
X0102663Y0061921D01*
X0101128Y0061921D01*
X0100361Y0061153D01*
X0100361Y0060386D01*
X0101128Y0059619D01*
X0102663Y0059619D01*
X0103430Y0060386D01*
X0126532Y0089342D02*
X0123463Y0092412D01*
X0123463Y0093179D01*
X0126532Y0093179D01*
X0128067Y0092412D02*
X0128067Y0090877D01*
X0128834Y0090110D01*
X0131136Y0090110D01*
X0129602Y0090110D02*
X0128067Y0088575D01*
X0126532Y0088575D02*
X0126532Y0089342D01*
X0128067Y0092412D02*
X0128834Y0093179D01*
X0131136Y0093179D01*
X0131136Y0088575D01*
X0131136Y0098575D02*
X0131136Y0103179D01*
X0128834Y0103179D01*
X0128067Y0102412D01*
X0128067Y0100877D01*
X0128834Y0100110D01*
X0131136Y0100110D01*
X0129602Y0100110D02*
X0128067Y0098575D01*
X0126532Y0099342D02*
X0126532Y0100110D01*
X0125765Y0100877D01*
X0124230Y0100877D01*
X0123463Y0100110D01*
X0123463Y0099342D01*
X0124230Y0098575D01*
X0125765Y0098575D01*
X0126532Y0099342D01*
X0125765Y0100877D02*
X0126532Y0101644D01*
X0126532Y0102412D01*
X0125765Y0103179D01*
X0124230Y0103179D01*
X0123463Y0102412D01*
X0123463Y0101644D01*
X0124230Y0100877D01*
X0123463Y0108575D02*
X0126532Y0108575D01*
X0124998Y0108575D02*
X0124998Y0113179D01*
X0126532Y0111644D01*
X0128067Y0112412D02*
X0128834Y0113179D01*
X0130369Y0113179D01*
X0131136Y0112412D01*
X0131136Y0109342D01*
X0130369Y0108575D01*
X0128834Y0108575D01*
X0128067Y0109342D01*
X0121928Y0109342D02*
X0118859Y0112412D01*
X0118859Y0109342D01*
X0119626Y0108575D01*
X0121161Y0108575D01*
X0121928Y0109342D01*
X0121928Y0112412D01*
X0121161Y0113179D01*
X0119626Y0113179D01*
X0118859Y0112412D01*
X0132813Y0064429D02*
X0134348Y0064429D01*
X0135115Y0063662D01*
X0135115Y0062894D01*
X0134348Y0062127D01*
X0132046Y0062127D01*
X0132046Y0060592D02*
X0132046Y0063662D01*
X0132813Y0064429D01*
X0132046Y0060592D02*
X0132813Y0059825D01*
X0134348Y0059825D01*
X0135115Y0060592D01*
X0136650Y0060592D02*
X0137417Y0059825D01*
X0138952Y0059825D01*
X0139719Y0060592D01*
X0139719Y0063662D01*
X0138952Y0064429D01*
X0137417Y0064429D01*
X0136650Y0063662D01*
X0137417Y0053179D02*
X0136650Y0052412D01*
X0137417Y0053179D02*
X0138952Y0053179D01*
X0139719Y0052412D01*
X0139719Y0049342D01*
X0138952Y0048575D01*
X0137417Y0048575D01*
X0136650Y0049342D01*
X0135115Y0049342D02*
X0134348Y0048575D01*
X0132813Y0048575D01*
X0132046Y0049342D01*
X0132046Y0050877D01*
X0132813Y0051644D01*
X0133580Y0051644D01*
X0135115Y0050877D01*
X0135115Y0053179D01*
X0132046Y0053179D01*
X0132046Y0041929D02*
X0132046Y0041162D01*
X0135115Y0038092D01*
X0135115Y0037325D01*
X0136650Y0038092D02*
X0137417Y0037325D01*
X0138952Y0037325D01*
X0139719Y0038092D01*
X0139719Y0041162D01*
X0138952Y0041929D01*
X0137417Y0041929D01*
X0136650Y0041162D01*
X0135115Y0041929D02*
X0132046Y0041929D01*
X0140286Y0033148D02*
X0140286Y0031613D01*
X0141053Y0030846D01*
X0141053Y0029311D02*
X0140286Y0028544D01*
X0140286Y0027009D01*
X0141053Y0026242D01*
X0144123Y0026242D01*
X0144890Y0027009D01*
X0144890Y0028544D01*
X0144123Y0029311D01*
X0144123Y0030846D02*
X0144890Y0031613D01*
X0144890Y0033148D01*
X0144123Y0033915D01*
X0143355Y0033915D01*
X0142588Y0033148D01*
X0141821Y0033915D01*
X0141053Y0033915D01*
X0140286Y0033148D01*
X0142588Y0033148D02*
X0142588Y0032381D01*
X0034323Y0089825D02*
X0034323Y0094429D01*
X0032021Y0094429D01*
X0031254Y0093662D01*
X0031254Y0092127D01*
X0032021Y0091360D01*
X0034323Y0091360D01*
X0032788Y0091360D02*
X0031254Y0089825D01*
X0029719Y0089825D02*
X0026650Y0089825D01*
X0028184Y0089825D02*
X0028184Y0094429D01*
X0029719Y0092894D01*
X0029719Y0099825D02*
X0029719Y0104429D01*
X0027417Y0104429D01*
X0026650Y0103662D01*
X0026650Y0102127D01*
X0027417Y0101360D01*
X0029719Y0101360D01*
X0028184Y0101360D02*
X0026650Y0099825D01*
X0025115Y0100592D02*
X0024348Y0099825D01*
X0022813Y0099825D01*
X0022046Y0100592D01*
X0022046Y0103662D01*
X0022813Y0104429D01*
X0024348Y0104429D01*
X0025115Y0103662D01*
X0025115Y0102894D01*
X0024348Y0102127D01*
X0022046Y0102127D01*
X0022813Y0109825D02*
X0024348Y0109825D01*
X0025115Y0110592D01*
X0022046Y0113662D01*
X0022046Y0110592D01*
X0022813Y0109825D01*
X0025115Y0110592D02*
X0025115Y0113662D01*
X0024348Y0114429D01*
X0022813Y0114429D01*
X0022046Y0113662D01*
X0026650Y0109825D02*
X0029719Y0109825D01*
X0028184Y0109825D02*
X0028184Y0114429D01*
X0029719Y0112894D01*
X0031254Y0112127D02*
X0032021Y0111360D01*
X0034323Y0111360D01*
X0032788Y0111360D02*
X0031254Y0109825D01*
X0031254Y0112127D02*
X0031254Y0113662D01*
X0032021Y0114429D01*
X0034323Y0114429D01*
X0034323Y0109825D01*
X0024348Y0094429D02*
X0025115Y0093662D01*
X0024348Y0094429D02*
X0022813Y0094429D01*
X0022046Y0093662D01*
X0022046Y0092894D01*
X0025115Y0089825D01*
X0022046Y0089825D01*
D12*
X0041961Y0021500D02*
X0039461Y0019000D01*
X0039461Y0014000D01*
X0041961Y0011500D01*
X0046961Y0011500D01*
X0049461Y0014000D01*
X0051961Y0011500D01*
X0056961Y0011500D01*
X0059461Y0014000D01*
X0061961Y0011500D01*
X0066961Y0011500D01*
X0069461Y0014000D01*
X0069461Y0019000D01*
X0066961Y0021500D01*
X0061961Y0021500D01*
X0059461Y0019000D01*
X0056961Y0021500D01*
X0051961Y0021500D01*
X0049461Y0019000D01*
X0046961Y0021500D01*
X0041961Y0021500D01*
X0049461Y0019000D02*
X0049461Y0014000D01*
X0059461Y0014000D02*
X0059461Y0019000D01*
X0069461Y0019000D02*
X0071961Y0021500D01*
X0076961Y0021500D01*
X0079461Y0019000D01*
X0079461Y0014000D01*
X0076961Y0011500D01*
X0071961Y0011500D01*
X0069461Y0014000D01*
X0079461Y0014000D02*
X0081961Y0011500D01*
X0086961Y0011500D01*
X0089461Y0014000D01*
X0091961Y0011500D01*
X0096961Y0011500D01*
X0099461Y0014000D01*
X0101961Y0011500D01*
X0106961Y0011500D01*
X0109461Y0014000D01*
X0109461Y0019000D01*
X0106961Y0021500D01*
X0101961Y0021500D01*
X0099461Y0019000D01*
X0096961Y0021500D01*
X0091961Y0021500D01*
X0089461Y0019000D01*
X0086961Y0021500D01*
X0081961Y0021500D01*
X0079461Y0019000D01*
X0089461Y0019000D02*
X0089461Y0014000D01*
X0099461Y0014000D02*
X0099461Y0019000D01*
D13*
X0100303Y0023950D02*
X0098051Y0023950D01*
X0097301Y0024701D01*
X0097301Y0027703D01*
X0098051Y0028454D01*
X0100303Y0028454D01*
X0100303Y0023950D01*
X0101905Y0023950D02*
X0101905Y0028454D01*
X0101905Y0026202D02*
X0104907Y0026202D01*
X0106509Y0026202D02*
X0107259Y0025451D01*
X0109511Y0025451D01*
X0109511Y0023950D02*
X0109511Y0028454D01*
X0107259Y0028454D01*
X0106509Y0027703D01*
X0106509Y0026202D01*
X0104907Y0023950D02*
X0104907Y0028454D01*
X0074426Y0107789D02*
X0074428Y0107874D01*
X0074434Y0107958D01*
X0074444Y0108042D01*
X0074458Y0108125D01*
X0074475Y0108208D01*
X0074497Y0108290D01*
X0074522Y0108370D01*
X0074551Y0108450D01*
X0074584Y0108527D01*
X0074621Y0108604D01*
X0074661Y0108678D01*
X0074704Y0108751D01*
X0074751Y0108821D01*
X0074801Y0108889D01*
X0074854Y0108955D01*
X0074910Y0109018D01*
X0074969Y0109079D01*
X0075031Y0109136D01*
X0075095Y0109191D01*
X0075162Y0109243D01*
X0075232Y0109291D01*
X0075303Y0109336D01*
X0075377Y0109378D01*
X0075452Y0109416D01*
X0075529Y0109451D01*
X0075608Y0109482D01*
X0075688Y0109509D01*
X0075769Y0109532D01*
X0075851Y0109552D01*
X0075934Y0109568D01*
X0076018Y0109580D01*
X0076102Y0109588D01*
X0076187Y0109592D01*
X0076271Y0109592D01*
X0076356Y0109588D01*
X0076440Y0109580D01*
X0076524Y0109568D01*
X0076607Y0109552D01*
X0076689Y0109532D01*
X0076770Y0109509D01*
X0076850Y0109482D01*
X0076929Y0109451D01*
X0077006Y0109416D01*
X0077081Y0109378D01*
X0077155Y0109336D01*
X0077226Y0109291D01*
X0077296Y0109243D01*
X0077363Y0109191D01*
X0077427Y0109136D01*
X0077489Y0109079D01*
X0077548Y0109018D01*
X0077604Y0108955D01*
X0077657Y0108889D01*
X0077707Y0108821D01*
X0077754Y0108751D01*
X0077797Y0108678D01*
X0077837Y0108604D01*
X0077874Y0108527D01*
X0077907Y0108450D01*
X0077936Y0108370D01*
X0077961Y0108290D01*
X0077983Y0108208D01*
X0078000Y0108125D01*
X0078014Y0108042D01*
X0078024Y0107958D01*
X0078030Y0107874D01*
X0078032Y0107789D01*
X0078030Y0107704D01*
X0078024Y0107620D01*
X0078014Y0107536D01*
X0078000Y0107453D01*
X0077983Y0107370D01*
X0077961Y0107288D01*
X0077936Y0107208D01*
X0077907Y0107128D01*
X0077874Y0107051D01*
X0077837Y0106974D01*
X0077797Y0106900D01*
X0077754Y0106827D01*
X0077707Y0106757D01*
X0077657Y0106689D01*
X0077604Y0106623D01*
X0077548Y0106560D01*
X0077489Y0106499D01*
X0077427Y0106442D01*
X0077363Y0106387D01*
X0077296Y0106335D01*
X0077226Y0106287D01*
X0077155Y0106242D01*
X0077081Y0106200D01*
X0077006Y0106162D01*
X0076929Y0106127D01*
X0076850Y0106096D01*
X0076770Y0106069D01*
X0076689Y0106046D01*
X0076607Y0106026D01*
X0076524Y0106010D01*
X0076440Y0105998D01*
X0076356Y0105990D01*
X0076271Y0105986D01*
X0076187Y0105986D01*
X0076102Y0105990D01*
X0076018Y0105998D01*
X0075934Y0106010D01*
X0075851Y0106026D01*
X0075769Y0106046D01*
X0075688Y0106069D01*
X0075608Y0106096D01*
X0075529Y0106127D01*
X0075452Y0106162D01*
X0075377Y0106200D01*
X0075303Y0106242D01*
X0075232Y0106287D01*
X0075162Y0106335D01*
X0075095Y0106387D01*
X0075031Y0106442D01*
X0074969Y0106499D01*
X0074910Y0106560D01*
X0074854Y0106623D01*
X0074801Y0106689D01*
X0074751Y0106757D01*
X0074704Y0106827D01*
X0074661Y0106900D01*
X0074621Y0106974D01*
X0074584Y0107051D01*
X0074551Y0107128D01*
X0074522Y0107208D01*
X0074497Y0107288D01*
X0074475Y0107370D01*
X0074458Y0107453D01*
X0074444Y0107536D01*
X0074434Y0107620D01*
X0074428Y0107704D01*
X0074426Y0107789D01*
D14*
X0075816Y0111297D02*
X0076642Y0111297D01*
X0076229Y0111711D02*
X0095707Y0092232D01*
X0076229Y0072754D01*
X0056751Y0092232D01*
X0076229Y0111711D01*
M02*
