G75*
%MOIN*%
%OFA0B0*%
%FSLAX25Y25*%
%IPPOS*%
%LPD*%
%AMOC8*
5,1,8,0,0,1.08239X$1,22.5*
%
%ADD10C,0.00000*%
%ADD11R,0.06306X0.05518*%
%ADD12R,0.08274X0.05124*%
%ADD13R,0.05124X0.08274*%
%ADD14R,0.09061X0.02762*%
%ADD15R,0.06306X0.16148*%
%ADD16R,0.40400X0.25400*%
%ADD17R,0.08000X0.21400*%
%ADD18R,0.05518X0.06306*%
%ADD19R,0.07487X0.06699*%
%ADD20C,0.40400*%
%ADD21R,0.20400X0.20400*%
%ADD22C,0.00500*%
%ADD23R,0.04400X0.13400*%
D10*
X0003211Y0011500D02*
X0003211Y0247406D01*
X0003214Y0247648D01*
X0003223Y0247889D01*
X0003237Y0248130D01*
X0003258Y0248371D01*
X0003284Y0248611D01*
X0003316Y0248851D01*
X0003354Y0249090D01*
X0003397Y0249327D01*
X0003447Y0249564D01*
X0003502Y0249799D01*
X0003562Y0250033D01*
X0003629Y0250265D01*
X0003700Y0250496D01*
X0003778Y0250725D01*
X0003861Y0250952D01*
X0003949Y0251177D01*
X0004043Y0251400D01*
X0004142Y0251620D01*
X0004247Y0251838D01*
X0004356Y0252053D01*
X0004471Y0252266D01*
X0004591Y0252476D01*
X0004716Y0252682D01*
X0004846Y0252886D01*
X0004981Y0253087D01*
X0005121Y0253284D01*
X0005265Y0253478D01*
X0005414Y0253668D01*
X0005568Y0253854D01*
X0005726Y0254037D01*
X0005888Y0254216D01*
X0006055Y0254391D01*
X0006226Y0254562D01*
X0006401Y0254729D01*
X0006580Y0254891D01*
X0006763Y0255049D01*
X0006949Y0255203D01*
X0007139Y0255352D01*
X0007333Y0255496D01*
X0007530Y0255636D01*
X0007731Y0255771D01*
X0007935Y0255901D01*
X0008141Y0256026D01*
X0008351Y0256146D01*
X0008564Y0256261D01*
X0008779Y0256370D01*
X0008997Y0256475D01*
X0009217Y0256574D01*
X0009440Y0256668D01*
X0009665Y0256756D01*
X0009892Y0256839D01*
X0010121Y0256917D01*
X0010352Y0256988D01*
X0010584Y0257055D01*
X0010818Y0257115D01*
X0011053Y0257170D01*
X0011290Y0257220D01*
X0011527Y0257263D01*
X0011766Y0257301D01*
X0012006Y0257333D01*
X0012246Y0257359D01*
X0012487Y0257380D01*
X0012728Y0257394D01*
X0012969Y0257403D01*
X0013211Y0257406D01*
X0138880Y0257406D01*
X0139122Y0257403D01*
X0139363Y0257394D01*
X0139604Y0257380D01*
X0139845Y0257359D01*
X0140085Y0257333D01*
X0140325Y0257301D01*
X0140564Y0257263D01*
X0140801Y0257220D01*
X0141038Y0257170D01*
X0141273Y0257115D01*
X0141507Y0257055D01*
X0141739Y0256988D01*
X0141970Y0256917D01*
X0142199Y0256839D01*
X0142426Y0256756D01*
X0142651Y0256668D01*
X0142874Y0256574D01*
X0143094Y0256475D01*
X0143312Y0256370D01*
X0143527Y0256261D01*
X0143740Y0256146D01*
X0143950Y0256026D01*
X0144156Y0255901D01*
X0144360Y0255771D01*
X0144561Y0255636D01*
X0144758Y0255496D01*
X0144952Y0255352D01*
X0145142Y0255203D01*
X0145328Y0255049D01*
X0145511Y0254891D01*
X0145690Y0254729D01*
X0145865Y0254562D01*
X0146036Y0254391D01*
X0146203Y0254216D01*
X0146365Y0254037D01*
X0146523Y0253854D01*
X0146677Y0253668D01*
X0146826Y0253478D01*
X0146970Y0253284D01*
X0147110Y0253087D01*
X0147245Y0252886D01*
X0147375Y0252682D01*
X0147500Y0252476D01*
X0147620Y0252266D01*
X0147735Y0252053D01*
X0147844Y0251838D01*
X0147949Y0251620D01*
X0148048Y0251400D01*
X0148142Y0251177D01*
X0148230Y0250952D01*
X0148313Y0250725D01*
X0148391Y0250496D01*
X0148462Y0250265D01*
X0148529Y0250033D01*
X0148589Y0249799D01*
X0148644Y0249564D01*
X0148694Y0249327D01*
X0148737Y0249090D01*
X0148775Y0248851D01*
X0148807Y0248611D01*
X0148833Y0248371D01*
X0148854Y0248130D01*
X0148868Y0247889D01*
X0148877Y0247648D01*
X0148880Y0247406D01*
X0148880Y0011500D01*
X0148877Y0011258D01*
X0148868Y0011017D01*
X0148854Y0010776D01*
X0148833Y0010535D01*
X0148807Y0010295D01*
X0148775Y0010055D01*
X0148737Y0009816D01*
X0148694Y0009579D01*
X0148644Y0009342D01*
X0148589Y0009107D01*
X0148529Y0008873D01*
X0148462Y0008641D01*
X0148391Y0008410D01*
X0148313Y0008181D01*
X0148230Y0007954D01*
X0148142Y0007729D01*
X0148048Y0007506D01*
X0147949Y0007286D01*
X0147844Y0007068D01*
X0147735Y0006853D01*
X0147620Y0006640D01*
X0147500Y0006430D01*
X0147375Y0006224D01*
X0147245Y0006020D01*
X0147110Y0005819D01*
X0146970Y0005622D01*
X0146826Y0005428D01*
X0146677Y0005238D01*
X0146523Y0005052D01*
X0146365Y0004869D01*
X0146203Y0004690D01*
X0146036Y0004515D01*
X0145865Y0004344D01*
X0145690Y0004177D01*
X0145511Y0004015D01*
X0145328Y0003857D01*
X0145142Y0003703D01*
X0144952Y0003554D01*
X0144758Y0003410D01*
X0144561Y0003270D01*
X0144360Y0003135D01*
X0144156Y0003005D01*
X0143950Y0002880D01*
X0143740Y0002760D01*
X0143527Y0002645D01*
X0143312Y0002536D01*
X0143094Y0002431D01*
X0142874Y0002332D01*
X0142651Y0002238D01*
X0142426Y0002150D01*
X0142199Y0002067D01*
X0141970Y0001989D01*
X0141739Y0001918D01*
X0141507Y0001851D01*
X0141273Y0001791D01*
X0141038Y0001736D01*
X0140801Y0001686D01*
X0140564Y0001643D01*
X0140325Y0001605D01*
X0140085Y0001573D01*
X0139845Y0001547D01*
X0139604Y0001526D01*
X0139363Y0001512D01*
X0139122Y0001503D01*
X0138880Y0001500D01*
X0013211Y0001500D01*
X0012969Y0001503D01*
X0012728Y0001512D01*
X0012487Y0001526D01*
X0012246Y0001547D01*
X0012006Y0001573D01*
X0011766Y0001605D01*
X0011527Y0001643D01*
X0011290Y0001686D01*
X0011053Y0001736D01*
X0010818Y0001791D01*
X0010584Y0001851D01*
X0010352Y0001918D01*
X0010121Y0001989D01*
X0009892Y0002067D01*
X0009665Y0002150D01*
X0009440Y0002238D01*
X0009217Y0002332D01*
X0008997Y0002431D01*
X0008779Y0002536D01*
X0008564Y0002645D01*
X0008351Y0002760D01*
X0008141Y0002880D01*
X0007935Y0003005D01*
X0007731Y0003135D01*
X0007530Y0003270D01*
X0007333Y0003410D01*
X0007139Y0003554D01*
X0006949Y0003703D01*
X0006763Y0003857D01*
X0006580Y0004015D01*
X0006401Y0004177D01*
X0006226Y0004344D01*
X0006055Y0004515D01*
X0005888Y0004690D01*
X0005726Y0004869D01*
X0005568Y0005052D01*
X0005414Y0005238D01*
X0005265Y0005428D01*
X0005121Y0005622D01*
X0004981Y0005819D01*
X0004846Y0006020D01*
X0004716Y0006224D01*
X0004591Y0006430D01*
X0004471Y0006640D01*
X0004356Y0006853D01*
X0004247Y0007068D01*
X0004142Y0007286D01*
X0004043Y0007506D01*
X0003949Y0007729D01*
X0003861Y0007954D01*
X0003778Y0008181D01*
X0003700Y0008410D01*
X0003629Y0008641D01*
X0003562Y0008873D01*
X0003502Y0009107D01*
X0003447Y0009342D01*
X0003397Y0009579D01*
X0003354Y0009816D01*
X0003316Y0010055D01*
X0003284Y0010295D01*
X0003258Y0010535D01*
X0003237Y0010776D01*
X0003223Y0011017D01*
X0003214Y0011258D01*
X0003211Y0011500D01*
D11*
X0014461Y0017760D03*
X0014461Y0025240D03*
X0032586Y0229010D03*
X0032586Y0236490D03*
X0132586Y0075240D03*
X0132586Y0067760D03*
X0142586Y0067760D03*
X0142586Y0075240D03*
X0137586Y0146510D03*
X0137586Y0153990D03*
D12*
X0109491Y0196874D03*
X0109491Y0204748D03*
X0109491Y0212622D03*
X0109491Y0220496D03*
X0109491Y0228370D03*
X0109491Y0236244D03*
X0109491Y0244118D03*
X0109491Y0251992D03*
X0045711Y0251992D03*
X0045711Y0244118D03*
X0045711Y0236244D03*
X0045711Y0228370D03*
X0045711Y0220496D03*
X0045711Y0212622D03*
X0045711Y0204748D03*
X0045711Y0196874D03*
D13*
X0057522Y0189000D03*
X0065396Y0189000D03*
X0073270Y0189000D03*
X0081144Y0189000D03*
X0089018Y0189000D03*
X0096892Y0189000D03*
D14*
X0090475Y0164000D03*
X0090475Y0159000D03*
X0090475Y0154000D03*
X0090475Y0149000D03*
X0110947Y0149000D03*
X0110947Y0154000D03*
X0110947Y0159000D03*
X0110947Y0164000D03*
X0060947Y0164000D03*
X0060947Y0159000D03*
X0060947Y0154000D03*
X0060947Y0149000D03*
X0040475Y0149000D03*
X0040475Y0154000D03*
X0040475Y0159000D03*
X0040475Y0164000D03*
D15*
X0037429Y0064925D03*
X0027586Y0064925D03*
X0017744Y0064925D03*
D16*
X0027586Y0106500D03*
D17*
X0137586Y0091250D03*
X0137586Y0129250D03*
D18*
X0104451Y0141500D03*
X0096971Y0141500D03*
X0054451Y0141500D03*
X0046971Y0141500D03*
D19*
X0018836Y0045137D03*
X0018836Y0034113D03*
D20*
X0085711Y0039625D03*
D21*
X0035711Y0039625D03*
X0135711Y0039625D03*
D22*
X0121144Y0039625D02*
X0120921Y0043592D01*
X0120256Y0047510D01*
X0119156Y0051328D01*
X0117635Y0054999D01*
X0115713Y0058477D01*
X0113414Y0061717D01*
X0110766Y0064680D01*
X0107803Y0067328D01*
X0104563Y0069627D01*
X0101085Y0071549D01*
X0097414Y0073070D01*
X0093596Y0074170D01*
X0089678Y0074835D01*
X0085711Y0075058D01*
X0081744Y0074835D01*
X0077827Y0074170D01*
X0074008Y0073070D01*
X0070337Y0071549D01*
X0066860Y0069627D01*
X0063619Y0067328D01*
X0060656Y0064680D01*
X0058008Y0061717D01*
X0055709Y0058477D01*
X0053787Y0054999D01*
X0052266Y0051328D01*
X0051166Y0047510D01*
X0050501Y0043592D01*
X0050278Y0039625D01*
X0050501Y0035658D01*
X0051166Y0031740D01*
X0052266Y0027922D01*
X0053787Y0024251D01*
X0055709Y0020773D01*
X0058008Y0017533D01*
X0060656Y0014570D01*
X0063619Y0011922D01*
X0066860Y0009623D01*
X0070337Y0007701D01*
X0074008Y0006180D01*
X0077827Y0005080D01*
X0081744Y0004415D01*
X0085711Y0004192D01*
X0089678Y0004415D01*
X0093596Y0005080D01*
X0097414Y0006180D01*
X0101085Y0007701D01*
X0104563Y0009623D01*
X0107803Y0011922D01*
X0110766Y0014570D01*
X0113414Y0017533D01*
X0115713Y0020773D01*
X0117635Y0024251D01*
X0119156Y0027922D01*
X0120256Y0031740D01*
X0120921Y0035658D01*
X0121144Y0039625D01*
X0121131Y0039387D02*
X0050291Y0039387D01*
X0050293Y0039885D02*
X0121130Y0039885D01*
X0121102Y0040384D02*
X0050321Y0040384D01*
X0050349Y0040882D02*
X0121074Y0040882D01*
X0121046Y0041381D02*
X0050377Y0041381D01*
X0050405Y0041879D02*
X0121018Y0041879D01*
X0120990Y0042378D02*
X0050433Y0042378D01*
X0050461Y0042876D02*
X0120962Y0042876D01*
X0120934Y0043375D02*
X0050489Y0043375D01*
X0050549Y0043873D02*
X0120874Y0043873D01*
X0120789Y0044372D02*
X0050633Y0044372D01*
X0050718Y0044870D02*
X0120704Y0044870D01*
X0120620Y0045369D02*
X0050803Y0045369D01*
X0050887Y0045868D02*
X0120535Y0045868D01*
X0120450Y0046366D02*
X0050972Y0046366D01*
X0051057Y0046865D02*
X0120365Y0046865D01*
X0120281Y0047363D02*
X0051142Y0047363D01*
X0051268Y0047862D02*
X0120154Y0047862D01*
X0120011Y0048360D02*
X0051411Y0048360D01*
X0051555Y0048859D02*
X0119867Y0048859D01*
X0119724Y0049357D02*
X0051699Y0049357D01*
X0051842Y0049856D02*
X0119580Y0049856D01*
X0119436Y0050354D02*
X0051986Y0050354D01*
X0052130Y0050853D02*
X0119293Y0050853D01*
X0119146Y0051351D02*
X0052276Y0051351D01*
X0052483Y0051850D02*
X0118940Y0051850D01*
X0118733Y0052348D02*
X0052689Y0052348D01*
X0052896Y0052847D02*
X0118527Y0052847D01*
X0118320Y0053345D02*
X0053102Y0053345D01*
X0053309Y0053844D02*
X0118114Y0053844D01*
X0117907Y0054342D02*
X0053515Y0054342D01*
X0053722Y0054841D02*
X0117701Y0054841D01*
X0117447Y0055339D02*
X0053975Y0055339D01*
X0054251Y0055838D02*
X0117172Y0055838D01*
X0116896Y0056336D02*
X0054526Y0056336D01*
X0054802Y0056835D02*
X0116621Y0056835D01*
X0116345Y0057333D02*
X0055077Y0057333D01*
X0055353Y0057832D02*
X0116070Y0057832D01*
X0115794Y0058330D02*
X0055628Y0058330D01*
X0055959Y0058829D02*
X0115463Y0058829D01*
X0115110Y0059327D02*
X0056313Y0059327D01*
X0056666Y0059826D02*
X0114756Y0059826D01*
X0114402Y0060324D02*
X0057020Y0060324D01*
X0057374Y0060823D02*
X0114048Y0060823D01*
X0113695Y0061321D02*
X0057728Y0061321D01*
X0058100Y0061820D02*
X0113322Y0061820D01*
X0112877Y0062318D02*
X0058546Y0062318D01*
X0058991Y0062817D02*
X0112431Y0062817D01*
X0111986Y0063315D02*
X0059437Y0063315D01*
X0059882Y0063814D02*
X0111540Y0063814D01*
X0111095Y0064312D02*
X0060328Y0064312D01*
X0060803Y0064811D02*
X0110620Y0064811D01*
X0110062Y0065309D02*
X0061361Y0065309D01*
X0061918Y0065808D02*
X0109504Y0065808D01*
X0108946Y0066306D02*
X0062476Y0066306D01*
X0063034Y0066805D02*
X0108388Y0066805D01*
X0107830Y0067303D02*
X0063592Y0067303D01*
X0064287Y0067802D02*
X0107135Y0067802D01*
X0106432Y0068301D02*
X0064990Y0068301D01*
X0065693Y0068799D02*
X0105730Y0068799D01*
X0105027Y0069298D02*
X0066395Y0069298D01*
X0067165Y0069796D02*
X0104257Y0069796D01*
X0103355Y0070295D02*
X0068067Y0070295D01*
X0068969Y0070793D02*
X0102453Y0070793D01*
X0101551Y0071292D02*
X0069871Y0071292D01*
X0070919Y0071790D02*
X0100503Y0071790D01*
X0099300Y0072289D02*
X0072123Y0072289D01*
X0073326Y0072787D02*
X0098096Y0072787D01*
X0096664Y0073286D02*
X0074758Y0073286D01*
X0076488Y0073784D02*
X0094934Y0073784D01*
X0092931Y0074283D02*
X0078491Y0074283D01*
X0081425Y0074781D02*
X0089997Y0074781D01*
X0117710Y0024432D02*
X0053712Y0024432D01*
X0053506Y0024930D02*
X0117916Y0024930D01*
X0118123Y0025429D02*
X0053299Y0025429D01*
X0053093Y0025927D02*
X0118329Y0025927D01*
X0118536Y0026426D02*
X0052886Y0026426D01*
X0052680Y0026924D02*
X0118742Y0026924D01*
X0118949Y0027423D02*
X0052473Y0027423D01*
X0052267Y0027921D02*
X0119155Y0027921D01*
X0119299Y0028420D02*
X0052123Y0028420D01*
X0051980Y0028918D02*
X0119443Y0028918D01*
X0119586Y0029417D02*
X0051836Y0029417D01*
X0051692Y0029915D02*
X0119730Y0029915D01*
X0119874Y0030414D02*
X0051549Y0030414D01*
X0051405Y0030912D02*
X0120017Y0030912D01*
X0120161Y0031411D02*
X0051261Y0031411D01*
X0051138Y0031909D02*
X0120284Y0031909D01*
X0120369Y0032408D02*
X0051053Y0032408D01*
X0050968Y0032906D02*
X0120454Y0032906D01*
X0120539Y0033405D02*
X0050884Y0033405D01*
X0050799Y0033903D02*
X0120623Y0033903D01*
X0120708Y0034402D02*
X0050714Y0034402D01*
X0050630Y0034900D02*
X0120793Y0034900D01*
X0120877Y0035399D02*
X0050545Y0035399D01*
X0050487Y0035897D02*
X0120935Y0035897D01*
X0120963Y0036396D02*
X0050459Y0036396D01*
X0050431Y0036894D02*
X0120991Y0036894D01*
X0121019Y0037393D02*
X0050403Y0037393D01*
X0050375Y0037891D02*
X0121047Y0037891D01*
X0121075Y0038390D02*
X0050347Y0038390D01*
X0050319Y0038888D02*
X0121103Y0038888D01*
X0117459Y0023933D02*
X0053963Y0023933D01*
X0054238Y0023434D02*
X0117184Y0023434D01*
X0116908Y0022936D02*
X0054514Y0022936D01*
X0054789Y0022437D02*
X0116633Y0022437D01*
X0116357Y0021939D02*
X0055065Y0021939D01*
X0055340Y0021440D02*
X0116082Y0021440D01*
X0115806Y0020942D02*
X0055616Y0020942D01*
X0055943Y0020443D02*
X0115479Y0020443D01*
X0115125Y0019945D02*
X0056297Y0019945D01*
X0056651Y0019446D02*
X0114772Y0019446D01*
X0114418Y0018948D02*
X0057004Y0018948D01*
X0057358Y0018449D02*
X0114064Y0018449D01*
X0113710Y0017951D02*
X0057712Y0017951D01*
X0058080Y0017452D02*
X0113342Y0017452D01*
X0112896Y0016954D02*
X0058526Y0016954D01*
X0058971Y0016455D02*
X0112451Y0016455D01*
X0112005Y0015957D02*
X0059417Y0015957D01*
X0059862Y0015458D02*
X0111560Y0015458D01*
X0111114Y0014960D02*
X0060308Y0014960D01*
X0060778Y0014461D02*
X0110644Y0014461D01*
X0110087Y0013963D02*
X0061336Y0013963D01*
X0061894Y0013464D02*
X0109529Y0013464D01*
X0108971Y0012966D02*
X0062451Y0012966D01*
X0063009Y0012467D02*
X0108413Y0012467D01*
X0107855Y0011969D02*
X0063567Y0011969D01*
X0064256Y0011470D02*
X0107166Y0011470D01*
X0106464Y0010972D02*
X0064959Y0010972D01*
X0065661Y0010473D02*
X0105761Y0010473D01*
X0105058Y0009975D02*
X0066364Y0009975D01*
X0067125Y0009476D02*
X0104297Y0009476D01*
X0103395Y0008978D02*
X0068027Y0008978D01*
X0068929Y0008479D02*
X0102493Y0008479D01*
X0101591Y0007981D02*
X0069831Y0007981D01*
X0070865Y0007482D02*
X0100557Y0007482D01*
X0099353Y0006984D02*
X0072069Y0006984D01*
X0073272Y0006485D02*
X0098150Y0006485D01*
X0096742Y0005987D02*
X0074681Y0005987D01*
X0076411Y0005488D02*
X0095011Y0005488D01*
X0093062Y0004990D02*
X0078361Y0004990D01*
X0081295Y0004491D02*
X0090128Y0004491D01*
D23*
X0033836Y0011500D03*
X0023836Y0021500D03*
M02*
